<svg width="400" height="400" viewBox="0 0 400 400" fill="none" xmlns="http://www.w3.org/2000/svg">
<g clip-path="url(#clip0_257_11721)">
<path d="M310.194 226.778C312.084 227.014 313.974 227.17 315.863 227.17C299.013 264.966 248.146 240.814 250.823 186.944C259.957 198.236 271.847 209.606 284.839 217.447L269.957 216.585C277.438 240.893 297.989 246.303 310.194 226.778ZM387.361 309.427C359.407 303.546 303.895 309.27 272.162 376C272.162 376 217.988 311.622 142.79 300.331C145.782 264.495 98.1432 255.007 89.0092 193.374C89.0092 193.374 52.0007 163.185 33.4964 115.666L43.3391 118.802C43.3391 118.802 28.9294 102.963 17.9056 75.5964L28.2995 79.0466C28.2995 79.0466 17.7481 64.7752 12 24C139.719 111.432 206.964 80.9285 284.682 124.683C337.439 154.402 349.958 188.904 354.368 223.407C354.368 223.407 393.424 258.614 387.361 309.427ZM348.777 228.033C345.076 200.667 335.155 161.146 281.926 131.976C201.216 87.5937 156.569 123.821 29.2444 46.1911C31.9216 60.6977 40.2682 80.7717 50.977 93.2395L37.8272 88.9267C47.4337 109.001 62.7095 127.193 70.7411 133.152L56.0165 128.526C71.686 166.713 102.159 189.297 102.159 189.297C109.088 247.793 152.16 257.752 155.624 293.665C211.767 302.291 271.059 362.121 271.059 362.121C302.084 308.956 345.391 298.684 382.085 301.977C382.951 258.693 348.777 228.033 348.777 228.033Z" fill="white"/>
<path d="M348.777 228.033C345.076 200.667 335.155 161.146 281.926 131.976C201.216 87.5937 156.569 123.821 29.2441 46.1912C31.9214 60.6977 40.2679 80.7717 50.9768 93.2395L37.827 88.9267C47.4334 109.001 62.7093 127.193 70.7409 133.152L56.0162 128.526C71.6858 166.713 102.159 189.297 102.159 189.297C109.088 247.793 152.16 257.752 155.624 293.665C211.767 302.291 271.059 362.121 271.059 362.121C302.083 308.956 345.391 298.684 382.085 301.977C382.951 258.693 348.777 228.033 348.777 228.033ZM233.5 315.151C214.523 298.919 190.192 286.451 171.373 279.237C169.168 256.027 127.435 230.15 123.97 200.118L150.9 202.078C150.9 202.078 107.041 180.514 87.7491 148.521L134.364 163.498C134.364 163.498 82.2372 135.975 69.481 113.941L119.482 130.094C119.482 130.094 62.9455 98.5717 53.8902 71.6757C145.23 128.055 216.728 107.276 275.233 139.268C330.903 169.615 333.422 199.334 337.517 218.074C283.028 228.19 285.626 158.088 190.664 152.364C259.72 237.443 269.721 297.429 233.5 315.151ZM250.901 186.944C260.035 198.236 271.925 209.606 284.918 217.447L270.036 216.585C277.359 240.971 297.989 246.382 310.194 226.857C312.084 227.092 313.973 227.249 315.863 227.249C299.091 264.966 248.224 240.814 250.901 186.944ZM302.556 309.191C308.146 290.215 297.989 272.964 297.989 273.043C327.753 270.141 360.588 283.864 373.896 295.077C353.108 290.843 324.682 296.88 302.556 309.191ZM300.036 260.183C314.525 256.184 330.982 247.323 337.753 233.6C352.163 242.618 372.163 268.573 375.234 290.843C361.927 277.669 333.974 264.26 300.036 260.183Z" fill="black"/>
<path d="M275.234 139.268C216.729 107.275 145.232 128.055 53.8916 71.6755C62.9469 98.5715 119.483 130.094 119.483 130.094L69.4824 113.941C82.2385 135.975 134.365 163.498 134.365 163.498L87.7504 148.521C107.042 180.514 150.901 202.078 150.901 202.078L123.972 200.118C127.436 230.15 169.169 256.027 171.374 279.237C190.193 286.451 214.524 298.919 233.501 315.151C269.722 297.429 259.722 237.443 190.666 152.363C285.628 158.088 283.029 228.19 337.518 218.074C333.424 199.333 330.904 169.615 275.234 139.268Z" fill="#B1063A"/>
<path d="M375.235 290.843C361.927 277.669 333.974 264.26 300.037 260.183C314.525 256.184 330.982 247.323 337.754 233.6C352.163 242.618 372.164 268.573 375.235 290.843ZM302.556 309.191C324.683 296.88 353.108 290.843 373.896 295.077C360.589 283.864 327.754 270.141 297.989 273.043C297.989 272.964 308.147 290.215 302.556 309.191Z" fill="#FFC20E"/>
</g>
<defs>
<clipPath id="clip0_257_11721">
<rect width="376" height="352" fill="white" transform="translate(12 24)"/>
</clipPath>
</defs>
</svg>
