<svg width="400" height="400" viewBox="0 0 400 400" fill="none" xmlns="http://www.w3.org/2000/svg">
<g clip-path="url(#clip0_257_11728)">
<path d="M374.939 133.415C373.726 128.492 371.412 123.76 368.075 119.367C362.045 111.416 352.678 104.563 340.239 98.8836C306.6 83.587 267.69 69.7292 187.101 51.82C143.982 42.2028 131.391 39.0602 131.277 39.0223L127.143 38L124.261 41.1048L37.8702 133.187L26 145.834L43.3692 145.266L105.11 143.297C103.1 147.651 100.862 153.141 98.6625 159.767C95.2493 170.028 92.7464 180.857 91.1535 191.989C89.1815 205.846 88.6506 220.234 89.5987 234.66C91.4949 263.285 98.2833 288.009 109.698 308.266C120.81 327.954 134.235 339.465 143.565 345.636C158.545 355.594 178.493 359.911 179.327 360.1L197.644 364L186.684 348.931C186.343 348.438 178.569 336.777 180.882 322.805C183.081 309.553 187.822 301.564 192.411 293.84C193.359 292.288 194.307 290.659 195.217 289.031C199.806 280.891 225.025 231.555 232.459 216.94C236.592 216.978 242.015 217.13 244.822 217.433C245.277 217.47 245.656 217.546 246.035 217.622C245.808 217.925 245.618 218.228 245.391 218.455L235.948 229.397L250.435 230.306C250.624 230.306 251.534 230.382 253.165 230.382C259.043 230.382 274.744 229.587 293.782 222.279C304.021 218.341 313.085 212.624 319.987 205.695C325.373 200.318 327.686 196.002 327.913 195.548L330.075 191.345L327.117 187.672C326.7 187.142 316.536 174.723 304.438 165.03C303.415 164.235 302.429 163.44 301.48 162.683H330.303C333.299 162.683 336.977 163.175 338.646 163.781C338.76 164.727 338.646 166.355 338.456 167.302L336.067 177.601L346.534 176.01C347.179 175.897 352.868 174.988 359.087 171.429C367.848 166.431 373.46 158.783 375.281 149.279C376.343 143.903 376.229 138.564 374.939 133.415ZM368.189 147.992C364.7 166.052 345.434 168.968 345.434 168.968C345.434 168.968 347.179 161.395 343.69 158.48C340.201 155.564 330.265 155.564 330.265 155.564H278.916C278.916 155.564 288.245 161.395 299.926 170.71C311.568 180.024 321.504 192.254 321.504 192.254C321.504 192.254 313.92 206.831 291.165 215.577C268.411 224.324 250.89 223.15 250.89 223.15C250.89 223.15 254.379 219.061 254.379 216.145C254.379 213.23 250.89 210.882 245.618 210.314C240.347 209.746 228.097 209.746 228.097 209.746C228.097 209.746 194.269 276.196 188.998 285.51C183.764 294.824 176.748 304.139 173.828 321.631C170.908 339.124 180.844 353.095 180.844 353.095C180.844 353.095 161.579 349.006 147.585 339.692C126.954 325.986 100.9 295.43 96.8042 234.244C92.7464 173.057 117.245 135.762 117.245 135.762L43.1417 138.11L129.533 46.0269C129.533 46.0269 141.744 49.0938 185.547 58.8625C266.666 76.9231 305.197 90.8945 337.281 105.472C359.39 115.505 371.716 129.969 368.189 147.992ZM308.951 99.6409C286.614 91.7275 252.634 82.754 191.652 69.0476C152.06 60.1877 135.335 58.8625 135.335 58.8625L71.7364 127.319L137.383 127.016C137.383 127.016 110.229 160.259 107.916 226.065C104.427 325.115 171.515 346.091 171.515 346.091C171.515 346.091 165.105 334.429 166.85 321.026C168.594 307.622 174.435 297.134 180.844 285.472C187.253 273.81 222.295 204.483 222.295 204.483C222.295 204.483 242.433 204.483 246.794 204.483C251.155 204.483 257.299 206.831 259.65 210.011C262.001 213.23 260.826 215.842 260.826 215.842C260.826 215.842 277.778 217.054 289.117 212.056C305.766 204.786 314.488 193.692 314.488 193.692C314.488 193.692 302.808 179.721 285.59 168.93C268.373 158.139 253.772 150.869 253.772 150.869H335.195C335.195 150.869 345.131 150.869 348.051 153.482C350.971 156.095 350.971 161.623 350.971 161.623C350.971 161.623 362.045 158.139 363.524 146.78C365.003 135.497 358.556 127.319 355.067 123.835C351.578 120.352 336.105 109.258 308.951 99.6409ZM285.59 174.685C299.47 184 308.951 194.071 308.951 194.071C308.951 194.071 306.031 198.425 299.015 202.969C291.999 207.475 284.718 208.648 284.718 208.648C284.718 208.648 290.255 203.688 290.71 201.227C291.165 198.766 290.141 198.16 288.662 198.16C287.221 198.16 272.62 198.16 272.62 198.16C272.62 198.16 270.003 200.053 270.155 203.991C270.307 207.929 272.203 210.39 272.203 210.39C272.203 210.39 267.083 209.671 263.443 205.43C259.802 201.189 259.802 198.16 259.802 198.16H226.542L247.401 157.23L245.922 152.687C245.922 152.687 271.748 165.371 285.59 174.685ZM354.498 154.391C354.498 154.391 354.233 150.302 351.009 147.689C347.786 145.076 341.073 144.206 341.073 144.206H230.487L241.864 150.339C241.864 150.339 182.323 267.752 177.658 277.067C172.994 286.381 163.095 302.7 161.92 312.62C160.099 327.917 164.537 337.079 164.537 337.079C164.537 337.079 152.553 328.636 144.399 318.148C136.207 307.66 132.718 297.475 132.718 297.475H126.309L191.349 201.909V199.296L125.399 276.802C125.399 276.802 123.048 267.449 121.607 259.309C120.165 251.168 119.862 237.462 119.862 237.462L112.277 235.417L192.828 171.315L193.131 169.574L120.165 214.176C120.165 214.176 121.341 204.256 123.086 193.768C124.83 183.28 127.447 178.32 127.447 178.32L120.165 173.663L205.381 144.774L207.429 142.729L134.463 157.874L148.457 133.112L142.048 126.713H228.666L229.842 125.274L100.293 115.089L136.776 76.0523L131.808 68.7826C131.808 68.7826 186.95 77.794 220.816 84.7986C254.682 91.8033 294.085 101.383 312.744 107.516C331.402 113.612 342.78 120.617 348.051 124.403C353.323 128.19 359.732 136.065 359.732 142.729C359.732 151.475 354.498 154.391 354.498 154.391ZM318.015 116.566C318.015 116.566 327.345 120.92 332.616 124.138C337.888 127.357 341.073 131.711 341.073 131.711L331.744 131.408C331.744 131.408 330.872 129.515 327.648 125.728C324.424 121.942 318.015 116.566 318.015 116.566ZM354.195 136.974C356.812 141.593 355.371 147.159 355.371 147.159C355.371 147.159 354.119 144.357 351.275 142.653C347.899 140.609 344.866 140.457 344.866 140.457H315.399L316.574 138.715L346.913 134.929L345.738 129.098C345.738 129.098 351.578 132.317 354.195 136.974Z" fill="white"/>
<path d="M337.282 105.472C305.198 90.8945 266.667 76.923 185.547 58.8624C141.745 49.0938 129.534 46.0269 129.534 46.0269L43.1426 138.11L117.246 135.762C117.246 135.762 92.7473 173.057 96.8051 234.244C100.901 295.43 126.955 325.985 147.585 339.692C161.579 349.006 180.845 353.095 180.845 353.095C180.845 353.095 170.909 339.124 173.829 321.631C176.749 304.139 183.765 294.824 188.999 285.51C194.27 276.196 228.098 209.746 228.098 209.746C228.098 209.746 240.348 209.746 245.619 210.314C250.891 210.882 254.38 213.23 254.38 216.145C254.38 219.061 250.891 223.15 250.891 223.15C250.891 223.15 268.412 224.323 291.166 215.577C313.92 206.831 321.505 192.254 321.505 192.254C321.505 192.254 311.569 180.024 299.926 170.71C288.246 161.395 278.916 155.564 278.916 155.564H330.266C330.266 155.564 340.202 155.564 343.691 158.48C347.18 161.395 345.435 168.968 345.435 168.968C345.435 168.968 364.701 166.052 368.19 147.992C371.717 129.969 359.391 115.505 337.282 105.472ZM363.525 146.78C362.046 158.139 350.972 161.622 350.972 161.622C350.972 161.622 350.972 156.094 348.052 153.482C345.132 150.869 335.196 150.869 335.196 150.869H253.773C253.773 150.869 268.374 158.139 285.591 168.93C302.809 179.721 314.489 193.692 314.489 193.692C314.489 193.692 305.767 204.786 289.118 212.056C277.779 217.054 260.827 215.842 260.827 215.842C260.827 215.842 262.002 213.23 259.651 210.011C257.3 206.831 251.156 204.483 246.795 204.483C242.434 204.483 222.296 204.483 222.296 204.483C222.296 204.483 187.254 273.81 180.845 285.472C174.436 297.134 168.595 307.622 166.851 321.025C165.106 334.429 171.516 346.091 171.516 346.091C171.516 346.091 104.428 325.115 107.917 226.065C110.23 160.259 137.384 127.016 137.384 127.016L71.7373 127.319L135.336 58.8624C135.336 58.8624 152.061 60.1876 191.653 69.0475C252.635 82.7539 286.615 91.7274 308.952 99.6408C336.106 109.258 351.579 120.352 355.068 123.835C358.557 127.319 365.004 135.497 363.525 146.78Z" fill="#A4ACAF"/>
<path d="M285.59 174.685C271.748 165.371 245.921 152.687 245.921 152.687L247.4 157.23L226.542 198.16H259.802C259.802 198.16 259.802 201.189 263.442 205.43C267.083 209.671 272.203 210.39 272.203 210.39C272.203 210.39 270.307 207.929 270.155 203.991C270.003 200.053 272.62 198.16 272.62 198.16C272.62 198.16 287.221 198.16 288.662 198.16C290.141 198.16 291.165 198.766 290.71 201.227C290.255 203.688 284.718 208.648 284.718 208.648C284.718 208.648 291.999 207.474 299.015 202.969C306.031 198.425 308.951 194.071 308.951 194.071C308.951 194.071 299.47 183.999 285.59 174.685ZM278.764 192.594H238.337L242.432 185.173L279.636 190.853L278.764 192.594ZM348.051 124.403C342.779 120.617 331.402 113.612 312.744 107.516C294.085 101.382 254.682 91.8031 220.816 84.7985C186.949 77.7939 131.808 68.7825 131.808 68.7825L136.776 76.0522L100.293 115.089L229.842 125.274L228.666 126.713H142.047L148.457 133.112L134.463 157.874L207.428 142.729L205.381 144.773L120.165 173.663L127.447 178.32C127.447 178.32 124.83 183.28 123.085 193.768C121.341 204.256 120.165 214.176 120.165 214.176L193.131 169.574L192.828 171.315L112.277 235.417L119.862 237.462C119.862 237.462 120.165 251.168 121.606 259.309C123.047 267.449 125.399 276.802 125.399 276.802L191.349 199.296V201.909L126.309 297.475H132.718C132.718 297.475 136.207 307.66 144.399 318.148C152.552 328.636 164.536 337.079 164.536 337.079C164.536 337.079 160.099 327.917 161.92 312.62C163.095 302.7 172.993 286.381 177.658 277.067C182.323 267.752 241.864 150.339 241.864 150.339L230.486 144.205H341.073C341.073 144.205 347.785 145.076 351.009 147.689C354.233 150.301 354.498 154.391 354.498 154.391C354.498 154.391 359.731 151.475 359.731 142.729C359.731 136.065 353.322 128.189 348.051 124.403ZM200.981 136.633L148.912 146.553L154.904 136.065L201.55 135.194L200.981 136.633ZM184.788 164.5L131.694 194.071L135.069 180.667L185.66 162.455L184.788 164.5ZM131.087 251.888C131.087 251.888 130.367 248.669 129.912 246.057C129.495 243.406 129.343 238.03 129.343 238.03L178.53 196.494L178.682 198.842L131.087 251.888ZM151.983 306.221C151.983 306.221 149.632 303.343 148.191 300.996C146.75 298.648 144.55 294.294 144.55 294.294C144.55 294.294 154.031 280.171 163.664 265.443C173.297 250.714 187.442 229.889 187.442 229.889L188.466 231.215L151.983 306.221ZM306.031 124.138L133.59 100.815L143.792 88.8877C143.792 88.8877 177.051 94.1128 222.295 102.859C267.424 111.568 306.334 122.094 306.334 122.094L306.031 124.138ZM332.616 124.138C337.887 127.356 341.073 131.711 341.073 131.711L331.744 131.408C331.744 131.408 330.871 129.515 327.648 125.728C324.424 121.942 318.015 116.566 318.015 116.566C318.015 116.566 327.344 120.92 332.616 124.138ZM355.37 147.159C355.37 147.159 354.119 144.357 351.274 142.653C347.899 140.608 344.865 140.457 344.865 140.457L315.436 140.041L315.474 139.245L346.913 134.929L345.738 129.098C345.738 129.098 351.578 132.316 354.195 136.974C356.811 141.593 355.37 147.159 355.37 147.159Z" fill="#161413"/>
<path d="M184.789 164.5L131.695 194.071L135.07 180.668L185.661 162.456L184.789 164.5ZM178.531 196.494L129.344 238.03C129.344 238.03 129.495 243.407 129.913 246.057C130.368 248.67 131.088 251.888 131.088 251.888L178.683 198.842L178.531 196.494ZM163.665 265.443C154.032 280.172 144.551 294.294 144.551 294.294C144.551 294.294 146.751 298.649 148.192 300.996C149.633 303.344 151.984 306.221 151.984 306.221L188.467 231.215L187.443 229.89C187.443 229.89 173.298 250.714 163.665 265.443ZM222.296 102.859C177.052 94.113 143.793 88.8879 143.793 88.8879L133.591 100.815L306.032 124.138L306.335 122.094C306.335 122.094 267.425 111.568 222.296 102.859ZM238.338 192.595H278.765L279.637 190.853L242.433 185.173L238.338 192.595ZM148.913 146.553L200.982 136.633L201.551 135.194L154.905 136.065L148.913 146.553Z" fill="#B01742"/>
</g>
<defs>
<clipPath id="clip0_257_11728">
<rect width="350" height="326" fill="white" transform="translate(26 38)"/>
</clipPath>
</defs>
</svg>
