<svg width="400" height="400" viewBox="0 0 400 400" fill="none" xmlns="http://www.w3.org/2000/svg">
<g clip-path="url(#clip0_257_11738)">
<path d="M395.574 221.694C393.98 212.091 387.607 197.997 366.262 185.303C364.817 184.456 363.298 183.61 361.741 182.8C365.743 181.476 369.857 180.077 369.857 180.077L346.178 170.952C344.14 170.142 342.027 169.443 339.878 168.781C341.434 167.199 343.102 165.543 343.102 165.543L324.944 163.004C317.126 161.9 310.937 161.679 306.194 161.716C306.157 160.943 306.083 160.281 306.009 159.618L302.97 137.062C302.97 137.062 295.929 146.592 295.262 147.512C293.78 145.047 292.075 142.729 290.149 140.521L270.583 118.517C270.583 118.517 271.361 124.993 271.991 130.144C265.654 125.765 258.651 121.828 250.943 118.517C219.445 105.123 179.61 102.326 141.664 110.863C109.87 118.075 64.0312 136.731 25.9744 184.898L4 212.716L37.0542 199.653C37.3136 199.543 62.8454 189.681 83.4487 186.774C91.1193 185.707 97.0112 185.634 92.231 196.084C88.4513 204.326 79.9283 216.359 79.8171 216.469L63.253 240.387L90.8599 230.857C104.126 226.257 116.058 224.013 122.098 223.792C124.248 223.829 124.618 225.227 123.951 226.772C123.766 227.288 123.655 227.582 122.135 229.863L104.83 254.407L133.252 244.288C153.856 236.928 180.981 232.108 190.69 235.788C191.468 236.082 194.025 237.443 191.505 241.123L180.351 258.749C180.351 258.749 196.841 256.283 199.175 255.915C200.472 272.032 208.588 280.79 209.625 281.82L221.594 294L225.782 277.478C228.82 265.593 234.49 259.117 239.567 255.584L240.53 262.355L251.61 258.381C260.948 255.032 268.322 250.985 273.621 246.422C280.662 245.87 297.819 244.84 314.346 246.459C342.806 249.255 361.852 245.502 367.04 244.288C373.97 242.669 379.788 245.576 379.862 245.612L388.311 250.175L392.869 241.675C393.387 240.645 395.981 235.346 395.981 227.472C396.055 225.595 395.907 223.645 395.574 221.694ZM389.533 240.019L387.57 243.662L383.938 241.675C383.864 241.638 376.379 237.701 367.189 239.835C362.223 241.013 343.769 244.656 316.051 241.896C297.226 240.056 277.624 241.528 272.25 241.969C268.656 245.428 262.134 249.991 250.498 254.149L245.755 255.842C245.755 255.842 244.829 249.402 244.643 248.115C237.973 250.433 226.078 257.314 221.039 277.147L219.223 284.212L214.109 278.987C213.701 278.545 204.993 269.493 204.993 252.457C204.993 251.794 205.03 251.095 205.067 250.433C202.918 250.764 200.732 251.095 200.732 251.095L191.875 252.457L196.656 244.913C196.878 244.619 201.51 237.112 196.544 233.322C185.798 225.117 150.965 233.065 131.548 239.982L119.393 244.288L126.805 233.801C128.027 232.108 131.251 226.404 130.547 222.651C130.325 221.51 129.769 220.701 128.731 220.039C124.174 217.095 104.534 221.069 89.0071 226.441L77.1861 230.489L84.2639 220.259C84.338 220.112 92.9351 207.712 97.1595 199.028C100.235 192.735 100.865 187.326 98.9011 184.603C96.7889 181.696 91.0081 180.703 82.5964 181.807C61.2149 184.64 34.9049 195.017 34.6455 195.09L20.49 200.684L29.9023 188.798C67.1439 141.662 111.945 123.447 142.998 116.456C180.054 108.103 218.852 110.789 249.461 123.852C262.949 129.592 272.806 136.51 279.884 143.06L279.032 135.627L286.925 144.532C291.334 149.499 293.743 154.504 295.225 158.588C295.855 157.705 300.339 151.67 300.339 151.67L301.562 160.796C301.71 161.973 301.784 163.409 301.784 164.88C301.784 165.911 301.747 166.941 301.71 167.934C306.305 167.493 314.087 167.309 325.352 168.891L332.652 169.922C332.652 169.922 331.577 171.025 330.614 171.982C335.728 173.196 340.693 174.705 345.437 176.545L354.997 180.261L348.03 182.58C353.811 184.824 359.518 187.474 364.78 190.601C384.42 202.266 390.238 214.85 391.646 223.35C391.942 225.117 392.053 226.772 392.09 228.355C392.053 235.236 389.682 239.798 389.533 240.019ZM153.226 199.984C153.226 199.984 143.109 200.5 131.955 201.677C138.44 181.181 146.593 163.96 154.152 157.3C162.267 149.61 172.717 148.064 175.83 148.027C176.052 148.027 176.238 148.027 176.349 148.027C173.755 152.296 171.161 157.19 167.641 165.616C167.641 165.616 182.797 164.549 193.135 166.978C201.028 168.818 203.511 171.283 204.771 174.999C205.586 177.465 205.475 180.519 204.289 183.021C203.77 184.125 203.177 185.119 202.436 186.112C203.807 185.744 205.216 185.376 206.624 185.045C207.031 184.383 207.439 183.683 207.772 182.984C211.663 174.631 205.512 166.279 194.58 164.844C205.104 162.636 216.332 155.718 218.63 150.603C221.446 144.311 223.336 133.235 195.877 130.439C168.419 127.679 120.801 138.718 100.272 154.54C100.272 154.54 132.029 147.88 164.713 146.335C159.859 147.991 153.781 150.824 150.372 154.945C144.592 160.612 135.994 172.24 126.434 205.43C126.434 205.43 126.953 205.357 127.842 205.246L127.657 205.283C127.731 205.283 127.768 205.283 127.842 205.246C131.955 204.731 144.258 203.259 151.558 202.891L163.824 202.192C165.158 202.192 166.529 202.155 167.9 202.082C168.048 201.971 168.196 201.861 168.345 201.751C168.678 201.53 169.012 201.309 169.308 201.088C169.605 200.868 169.901 200.684 170.197 200.5C170.531 200.279 170.864 200.058 171.235 199.837C171.531 199.653 171.828 199.469 172.124 199.285C172.235 199.212 172.384 199.138 172.495 199.065C169.53 199.396 166.603 199.543 163.824 199.543L153.226 199.984ZM184.983 161.605C182.982 162.194 180.796 162.525 178.461 162.525H173.532C176.571 155.534 179.017 151.302 180.721 148.763H180.758C182.5 146.151 183.464 145.378 183.464 145.378L188.985 145.341C194.284 145.93 196.804 149.978 193.543 155.681C191.986 158.257 188.948 160.428 184.983 161.605ZM114.354 149.831C137.699 138.534 165.121 135.737 170.753 135.001C176.089 134.302 181.018 134.082 185.094 134.045C191.875 134.045 196.285 134.633 196.285 134.633C207.402 135.185 213.664 137.651 216.258 141.846C217.518 143.906 217.444 146.482 215.851 149.72C213.739 154.136 204.437 159.839 194.21 162.047L187.354 163.482C193.283 161.09 195.359 158.772 197.1 156.528C200.25 152.517 199.805 149.242 198.101 146.482C196.47 143.833 192.246 142.508 187.688 142.508C187.688 142.508 180.647 142.324 174.199 142.545C158.895 143.06 134.735 144.863 114.354 149.831ZM177.942 167.751H166.677C166.677 167.751 160.6 178.826 155.041 196.305L167.826 195.826C171.161 195.826 182.278 194.906 186.873 184.751C189.244 179.489 189.615 175.257 187.651 172.129C186.428 170.106 183.76 167.751 177.942 167.751ZM183.945 182.911C181.5 188.209 176.979 190.675 172.828 191.705C170.976 192.147 169.197 192.331 167.641 192.331H160.6C160.6 192.331 163.416 183.61 167.937 174.08C168.493 172.902 169.086 171.725 169.679 170.547H177.794C184.39 170.584 188.021 174.227 183.945 182.911ZM379.862 229.753C373.859 217.279 329.539 208.779 278.365 202.781C264.691 201.199 258.91 202.082 259.503 205.246C260.059 208.227 267.952 214.114 275.845 217.205C270.175 211.796 275.104 210.435 275.104 210.435C284.071 209.699 342.101 215.108 371.709 227.692C363.668 229.569 353.478 230.783 339.841 230.857C320.868 230.93 304.008 226.147 281.107 228.98L273.436 222.872C271.361 228.171 268.508 231.74 268.508 231.74V231.703C271.028 227.214 268.434 221.878 267.359 219.266C257.947 214.298 242.494 204.731 255.612 201.64C247.46 200.426 222.558 197.997 191.394 206.829C191.394 206.829 220.223 187.694 275.66 196.71C260.985 188.025 229.191 188.209 227.894 188.209C239.344 185.376 251.684 185.339 263.32 186.627L307.269 196.893L294.781 187.915L310.567 189.277L302.081 182.506C302.081 182.506 335.654 184.861 357.48 199.322C382.975 214.151 379.862 229.753 379.862 229.753ZM252.944 175.956C251.647 172.939 253.5 169.554 257.057 168.413C259.318 167.677 261.726 168.008 263.468 169.149C262.171 168.854 260.763 168.928 259.392 169.333C255.834 170.473 253.982 173.859 255.279 176.839C255.76 177.943 256.576 178.863 257.613 179.489C255.501 179.084 253.722 177.796 252.944 175.956Z" fill="white"/>
<path d="M391.607 223.313C390.199 214.813 384.418 202.229 364.778 190.564C359.516 187.437 353.809 184.787 348.029 182.543L354.995 180.224L345.435 176.508C340.691 174.668 335.726 173.159 330.612 171.945C331.576 170.952 332.65 169.885 332.65 169.885L325.35 168.854C314.085 167.272 306.303 167.456 301.708 167.898C301.745 166.904 301.782 165.874 301.782 164.843C301.782 163.372 301.708 161.936 301.56 160.759L300.337 151.633C300.337 151.633 295.89 157.668 295.223 158.551C293.778 154.467 291.333 149.462 286.923 144.495L279.03 135.627L279.919 143.06C272.804 136.51 262.984 129.592 249.496 123.852C218.888 110.826 180.053 108.103 143.033 116.456C111.98 123.447 67.1421 141.661 29.9006 188.835L20.4883 200.72L34.6438 195.127C34.9032 195.017 61.2131 184.677 82.5946 181.843C90.9693 180.74 96.7501 181.733 98.8993 184.64C100.9 187.363 100.233 192.735 97.1577 199.064C92.9333 207.712 84.3733 220.149 84.2621 220.296L77.1844 230.526L89.0053 226.478C104.569 221.106 124.172 217.132 128.73 220.075C129.767 220.774 130.36 221.584 130.545 222.688C131.287 226.441 128.026 232.145 126.803 233.837L119.391 244.324L131.546 240.019C150.963 233.101 185.796 225.153 196.543 233.359C201.508 237.149 196.876 244.655 196.654 244.95L191.874 252.493L200.73 251.132C200.73 251.132 202.916 250.801 205.066 250.469C205.028 251.168 204.991 251.868 204.991 252.493C204.991 269.53 213.663 278.619 214.107 279.024L219.221 284.249L221.037 277.184C226.076 257.35 238.009 250.469 244.642 248.151C244.827 249.476 245.753 255.878 245.753 255.878L250.497 254.186C262.132 250.028 268.654 245.428 272.249 242.006C277.585 241.565 297.224 240.056 316.049 241.933C343.767 244.655 362.221 241.049 367.187 239.872C376.377 237.701 383.862 241.675 383.936 241.712L387.568 243.699L389.532 240.056C389.643 239.835 392.014 235.272 392.014 228.355C392.014 226.772 391.903 225.08 391.607 223.313ZM383.677 236.818C383.677 236.818 379.749 233.948 376.414 233.911C371.893 233.874 357.737 238.621 330.353 237.112C311.565 236.082 295.001 232.844 270.618 236.671C267.505 240.277 262.095 244.692 250.571 248.814L249.088 242.779C242.233 243.92 222.815 249.807 217.257 272.069C217.257 272.069 209.586 261.177 213.959 244.177L200.471 247.084C200.471 247.084 208.178 236.339 201.545 228.612C187.279 212.017 139.735 226.147 139.735 226.147C159.635 195.348 96.6389 217.536 96.6389 217.536C96.6389 217.536 106.014 205.504 111.35 191.742C116.649 178.09 113.129 169.958 98.5288 170.326C70.6995 170.988 50.615 180.96 50.615 180.96C102.309 114.726 196.431 105.306 249.83 130.107C269.469 139.233 279.845 149.683 285.329 157.852L284.181 147.843C290.369 153.4 292.185 161.605 292.667 167.272C296.261 164.549 297.743 160.17 297.743 160.17C298.41 165.248 297.891 169.038 297.224 171.54C302.301 171.025 310.824 170.841 323.016 172.939L320.533 175.146C327.203 176.177 334.392 177.796 341.247 180.408C341.247 180.408 336.763 180.298 332.317 181.733C343.026 184.75 354.069 188.945 362.295 194.686C395.053 217.72 383.677 236.818 383.677 236.818ZM193.17 166.978C182.795 164.586 167.676 165.616 167.676 165.616C171.159 157.226 173.753 152.296 176.384 148.027C176.236 148.027 176.05 148.027 175.865 148.027C172.752 148.064 162.303 149.61 154.187 157.3C146.628 163.923 138.475 181.144 131.991 201.677C143.145 200.499 153.261 199.984 153.261 199.984L163.859 199.543C166.638 199.543 169.566 199.396 172.53 199.064C180.683 194.06 190.836 189.313 202.472 186.112C203.213 185.155 203.843 184.125 204.361 183.021C205.547 180.519 205.658 177.428 204.843 174.999C203.546 171.283 201.063 168.781 193.17 166.978ZM186.871 184.714C182.276 194.87 171.159 195.789 167.824 195.789L155.04 196.268C160.561 178.789 166.675 167.714 166.675 167.714H177.94C183.758 167.714 186.426 170.069 187.649 172.056C189.576 175.22 189.243 179.452 186.871 184.714ZM216.182 141.845C217.442 143.906 217.368 146.482 215.775 149.72C213.663 154.136 204.361 159.839 194.134 162.047L187.279 163.482C193.208 161.09 195.283 158.772 197.024 156.527C200.174 152.517 199.729 149.242 198.025 146.482C196.394 143.832 192.17 142.508 187.612 142.508C187.612 142.508 180.571 142.324 174.124 142.545C158.856 143.097 134.696 144.9 114.315 149.83C137.66 138.534 165.082 135.737 170.714 135.001C176.05 134.302 180.979 134.081 185.055 134.045C191.836 134.045 196.246 134.633 196.246 134.633C207.363 135.185 213.626 137.651 216.182 141.845Z" fill="#BB9334"/>
<path d="M274.917 196.305C275.139 196.452 275.399 196.562 275.621 196.71C275.399 196.599 275.176 196.452 274.917 196.305ZM250.571 205.578C250.719 209.772 260.613 215.733 267.394 219.303C260.576 215.697 250.719 209.772 250.571 205.578ZM186.352 159.214C185.908 160.134 185.463 160.906 184.981 161.569C188.909 160.391 191.948 158.257 193.467 155.681C196.728 149.978 194.208 145.893 188.909 145.341L183.388 145.378C183.388 145.378 182.461 146.151 180.683 148.763C187.131 148.837 189.762 152.002 186.352 159.214ZM177.829 170.547H169.714C169.121 171.725 168.528 172.902 167.972 174.08H170.715C177.274 174.08 180.905 177.722 176.792 186.443C175.754 188.688 174.346 190.381 172.79 191.705C176.94 190.675 181.424 188.21 183.907 182.911C188.02 174.227 184.388 170.584 177.829 170.547ZM255.611 201.677C247.458 200.463 222.556 198.034 191.392 206.865C222.556 198.034 247.458 200.463 255.611 201.677ZM260.354 170.768C257.797 171.688 256.463 174.337 257.389 176.729C258.316 179.121 261.132 180.335 263.689 179.452C266.246 178.532 267.58 175.846 266.653 173.454C265.727 171.025 262.911 169.848 260.354 170.768ZM383.677 236.818C383.677 236.818 379.749 233.948 376.414 233.911C371.893 233.874 357.738 238.621 330.353 237.112C311.566 236.082 295.001 232.844 270.618 236.671C267.506 240.277 262.095 244.693 250.571 248.814L249.089 242.779C242.233 243.92 222.816 249.807 217.257 272.069C217.257 272.069 209.587 261.177 213.959 244.177L200.471 247.084C200.471 247.084 208.179 236.34 201.545 228.612C187.279 212.017 139.736 226.147 139.736 226.147C159.635 195.348 96.6391 217.537 96.6391 217.537C96.6391 217.537 106.014 205.504 111.35 191.742C116.65 178.09 113.129 169.958 98.529 170.326C70.6997 170.989 50.6152 180.961 50.6152 180.961C102.309 114.727 196.432 105.307 249.83 130.108C269.47 139.233 279.845 149.683 285.33 157.852L284.181 147.844C290.369 153.4 292.185 161.606 292.667 167.272C296.261 164.549 297.744 160.17 297.744 160.17C298.411 165.248 297.892 169.038 297.225 171.541C302.301 171.025 310.824 170.842 323.016 172.939L320.533 175.147C327.203 176.177 334.392 177.796 341.248 180.409C341.248 180.409 336.764 180.298 332.317 181.733C343.026 184.751 354.069 188.945 362.296 194.686C395.053 217.721 383.677 236.818 383.677 236.818ZM357.441 199.322C335.615 184.861 302.042 182.506 302.042 182.506L310.528 189.277L294.742 187.915L307.23 196.894L263.281 186.627C251.646 185.339 239.306 185.376 227.855 188.21C227.818 188.21 227.818 188.21 227.818 188.21C239.232 185.376 251.571 185.339 263.17 186.591C258.501 185.303 252.164 183.794 244.716 182.69C233.303 181.329 222.445 181.954 212.403 183.794C223.668 172.166 244.234 173.675 244.234 173.675C230.523 164.512 212.662 167.456 212.662 167.456C232.71 157.153 254.944 160.649 254.944 160.649C247.94 151.486 231.413 149.463 231.413 149.463C264.208 148.138 275.658 165.248 275.658 165.248C267.506 161.716 261.651 162.231 261.651 162.231C261.651 162.231 269.544 163.519 274.843 173.417C280.512 183.904 285.293 183.61 285.293 183.61C285.293 183.61 294.26 149.831 234.97 132.242C217.924 127.201 200.693 124.956 183.907 125.03C141.033 125.324 101.271 141.036 76.0358 165.028C76.0358 165.028 111.35 153.989 121.986 164.844C134.325 177.465 115.649 207.123 115.649 207.123C115.649 207.123 124.209 205.762 127.062 205.357C144.034 202.891 167.898 202.045 167.898 202.045C160.932 206.792 156.337 211.244 153.706 214.924C153.706 214.924 225.113 200.573 212.736 236.266L231.19 231.225C229.894 233.47 227.818 236.045 225.039 239.173C216.331 248.777 216.924 257.939 216.924 257.939C216.924 257.939 219.481 247.931 235.971 241.086C251.016 234.831 254.462 224.234 254.462 224.234C254.462 224.234 259.464 231.593 255.388 241.896C255.388 241.896 262.318 240.167 268.506 231.74V231.777C268.506 231.777 271.359 228.171 273.435 222.909L281.105 229.017C304.006 226.221 320.904 231.004 339.839 230.894C353.476 230.82 363.667 229.606 371.708 227.729C342.1 215.145 284.07 209.736 275.102 210.472C275.102 210.472 270.174 211.833 275.843 217.242C267.95 214.151 260.057 208.264 259.501 205.283C258.946 202.119 264.689 201.236 278.363 202.818C329.575 208.816 373.857 217.316 379.86 229.79C379.86 229.753 382.973 214.151 357.441 199.322ZM267.061 171.025C265.356 167.015 260.243 164.991 255.685 166.463C251.09 167.935 248.755 172.387 250.46 176.398C252.164 180.409 257.241 182.432 261.836 180.961C266.431 179.452 268.766 175 267.061 171.025Z" fill="black"/>
<path d="M178.461 162.525H173.532C176.571 155.534 179.017 151.302 180.721 148.763H180.758C187.169 148.8 189.763 152.002 186.391 159.214C185.946 160.134 185.501 160.906 185.02 161.569H184.983C182.982 162.194 180.795 162.525 178.461 162.525ZM167.974 174.08C163.453 183.61 160.637 192.331 160.637 192.331H167.677C169.197 192.331 170.975 192.147 172.865 191.705C172.865 191.705 172.865 191.705 172.828 191.705C174.384 190.381 175.793 188.688 176.83 186.443C180.906 177.759 177.275 174.08 170.753 174.08H167.974ZM235.009 132.242C217.963 127.201 200.732 124.956 183.945 125.03C141.034 125.324 101.272 141.036 76.0371 165.028C76.0371 165.028 111.352 153.989 121.987 164.844C134.327 177.465 115.65 207.123 115.65 207.123C115.65 207.123 124.21 205.762 127.064 205.357C127.286 205.32 127.508 205.283 127.731 205.246C127.694 205.246 127.694 205.246 127.657 205.246L127.842 205.21C126.952 205.32 126.434 205.394 126.434 205.394C135.994 172.24 144.591 160.612 150.372 154.909C153.781 150.75 159.858 147.954 164.713 146.298C132.029 147.844 100.272 154.504 100.272 154.504C120.801 138.681 168.418 127.605 195.877 130.402C223.336 133.162 221.446 144.237 218.63 150.567C216.369 155.644 205.141 162.562 194.58 164.807C205.512 166.242 211.663 174.595 207.772 182.948C207.439 183.647 207.068 184.346 206.623 185.008C205.178 185.339 203.807 185.707 202.399 186.075C188.466 189.939 179.202 194.796 172.458 199.028C172.346 199.101 172.198 199.175 172.087 199.249C171.791 199.433 171.494 199.617 171.198 199.8C170.827 200.021 170.494 200.242 170.16 200.463C169.864 200.647 169.567 200.831 169.271 201.052C168.937 201.272 168.641 201.493 168.307 201.714C168.159 201.824 168.011 201.935 167.863 202.045C160.896 206.792 156.301 211.244 153.67 214.924C153.67 214.924 225.077 200.573 212.701 236.266L231.155 231.225C229.858 233.469 227.783 236.045 225.003 239.173C216.295 248.777 216.888 257.939 216.888 257.939C216.888 257.939 219.445 247.931 235.935 241.086C250.98 234.831 254.426 224.234 254.426 224.234C254.426 224.234 259.429 231.593 255.352 241.896C255.352 241.896 262.282 240.166 268.47 231.74C270.99 227.251 268.433 221.915 267.322 219.303C257.909 214.335 242.457 204.768 255.575 201.677C247.422 200.463 222.521 198.034 191.356 206.865C191.356 206.865 220.186 187.731 275.622 196.746C260.651 187.878 227.82 188.246 227.82 188.246C239.233 185.413 251.573 185.376 263.171 186.627C258.502 185.339 252.166 183.831 244.717 182.727C233.304 181.365 222.446 181.991 212.404 183.831C223.669 172.203 244.236 173.712 244.236 173.712C230.525 164.549 212.664 167.493 212.664 167.493C232.711 157.19 254.945 160.686 254.945 160.686C247.941 151.523 231.414 149.499 231.414 149.499C264.209 148.175 275.659 165.285 275.659 165.285C267.507 161.753 261.652 162.268 261.652 162.268C261.652 162.268 269.545 163.556 274.844 173.454C280.514 183.941 285.294 183.647 285.294 183.647C285.294 183.647 294.299 149.794 235.009 132.242Z" fill="#241773"/>
<path d="M267.063 171.025C265.358 167.015 260.245 164.991 255.687 166.463C251.092 167.934 248.757 172.387 250.462 176.398C252.166 180.409 257.243 182.432 261.838 180.961C266.433 179.452 268.768 174.999 267.063 171.025ZM252.945 175.956C251.648 172.939 253.5 169.554 257.058 168.413C259.318 167.677 261.727 168.008 263.469 169.149C262.172 168.854 260.763 168.928 259.392 169.333C255.835 170.473 253.982 173.859 255.279 176.839C255.761 177.943 256.576 178.863 257.614 179.489C255.501 179.084 253.723 177.796 252.945 175.956ZM263.691 179.415C261.134 180.298 258.318 179.121 257.391 176.692C256.465 174.3 257.799 171.614 260.356 170.731C262.913 169.848 265.729 171.025 266.655 173.417C267.582 175.846 266.248 178.532 263.691 179.415Z" fill="#C60C30"/>
</g>
<defs>
<clipPath id="clip0_257_11738">
<rect width="392" height="188" fill="white" transform="translate(4 106)"/>
</clipPath>
</defs>
</svg>
