<svg width="400" height="400" viewBox="0 0 400 400" fill="none" xmlns="http://www.w3.org/2000/svg">
<g clip-path="url(#clip0_257_11717)">
<path d="M380.353 111.669C366.81 105.212 351.695 106.038 351.695 106.038C336.131 82.313 315.18 72.7029 315.18 72.7029L313.384 75.1054C304.48 71.0511 288.842 70 288.842 70L288.093 72.853L258.163 75.4808L259.585 80.5111C254.871 80.8114 239.008 86.2922 239.008 86.2922C215.512 94.0254 194.935 106.188 194.935 106.188C172.487 119.177 168.372 126.31 168.372 126.31C129.088 142.602 103.722 165.351 103.722 165.351L38.4744 170.907L6 228.718L82.3971 217.756C82.3971 217.756 73.867 237.202 46.9297 254.47C46.2563 254.921 44.3856 256.047 41.9164 257.699C39.9709 259.2 39.8961 263.78 38.1003 268.059C36.2296 271.513 35.4065 272.264 33.7604 274.366C30.8422 277.67 27.026 280.297 21.2645 284.126L22.3868 291.034L17.3735 302.296L36.9031 330L50.1472 294.187L59.1263 287.13L61.5207 288.932L55.3102 297.04L75.0642 323.618L91.6007 286.904L157.747 233.072C157.747 233.072 170.766 232.096 184.085 235.625L189.847 231.12L205.56 230.97L208.03 234.274L200.397 238.553L189.248 270.462L217.682 258.224C218.505 259.425 228.083 258.449 228.083 258.449L220.6 285.328L246.116 274.892L249.558 275.417C265.795 274.141 280.012 269.636 280.012 269.636C298.344 263.93 300.365 252.143 300.365 252.143C303.507 244.56 300.888 228.267 300.888 228.267L308.745 228.418C311.813 228.793 311.065 233.598 311.065 233.598L307.997 260.777C317.126 254.996 327.676 245.235 327.676 245.235L328.2 249.89C334.485 244.409 349.6 225.189 349.6 225.189C365.164 224.589 367.409 213.852 367.409 213.852C370.402 206.044 371.898 201.764 371.898 201.764C374.592 195.308 381.775 187.95 381.775 187.95C384.319 184.496 385.666 181.868 385.666 181.868C386.564 179.916 387.537 176.613 387.537 176.613C393.897 155.515 393.972 134.193 393.972 134.193C394.72 117.45 380.353 111.669 380.353 111.669ZM16.9246 221.36L42.2157 176.613L348.178 150.185C331.792 163.849 343.09 172.483 343.09 172.483L16.9246 221.36ZM86.9615 282.7L73.7922 311.981L62.1193 296.289L68.704 287.205L68.2551 283.601C82.0978 275.793 82.1727 264.381 82.1727 264.381C108.885 232.772 147.945 233.223 147.945 233.223L86.9615 282.7ZM295.351 248.464C295.351 248.464 293.181 258.074 283.379 261.903C283.379 261.903 268.863 268.059 247.164 269.486L246.116 268.585L229.654 275.567L235.042 256.347C235.042 256.347 257.115 254.62 263.775 252.593C263.775 252.593 280.91 249.215 283.454 227.517L294.453 227.442C294.453 227.366 296.623 241.932 295.351 248.464ZM387.462 143.278C387.462 147.257 383.571 167.979 383.571 167.979C380.353 182.244 374.517 187.725 374.517 187.725C367.034 195.157 365.239 202.665 365.239 202.665C361.348 213.327 360.001 214.678 360.001 214.678C357.008 219.558 344.886 219.333 344.886 219.333C342.043 226.165 331.043 238.178 331.043 238.178L330.071 234.724L315.554 247.713L317.799 229.619C318.622 223.462 312.038 222.036 312.038 222.036L280.237 223.387C275.597 245.16 258.836 248.464 258.836 248.464C234.742 253.344 218.73 252.368 218.73 252.368L217.682 251.617L199.275 259.651L205.785 241.632L215.587 237.727C216.335 237.502 216.036 236.526 216.036 236.526L215.063 233.598C225.165 232.697 234.368 225.565 234.368 225.565C235.566 224.589 233.77 224.213 233.77 224.213L186.929 225.264L183.262 228.793C142.782 222.036 115.096 233.898 115.096 233.898C83.6692 245.611 64.5886 275.643 64.5886 275.643L45.0591 290.658L35.1821 317.312L24.2575 301.62L28.747 291.409L28.0736 286.604C37.5765 280.523 41.6919 273.315 41.6919 273.315C44.9842 268.885 44.7598 265.282 44.7598 265.282C44.9842 262.353 47.678 260.777 47.678 260.777C84.0433 238.703 89.5056 215.354 89.5056 215.354L345.934 176.463C341.743 195.983 357.532 188.851 357.532 188.851C347.355 181.643 356.559 176.463 356.559 176.463C347.729 161.372 373.17 143.953 373.17 143.953L112.702 165.426C140.686 142.452 179.147 128.562 179.147 128.562L175.705 126.685L182.065 123.682L182.963 120.904C233.246 87.1181 268.713 85.4664 268.713 85.4664L267.142 80.7364C284.352 78.9345 292.209 78.9344 292.209 78.9344L292.807 77.1325C305.827 76.9824 314.956 83.3641 314.956 83.3641L316.901 80.436C343.689 99.0557 347.58 112.645 347.58 112.645C367.034 111.068 377.435 116.774 377.435 116.774C391.652 122.856 387.462 143.278 387.462 143.278Z" fill="white"/>
<path d="M42.2159 176.688L16.9248 221.435L343.09 172.634C343.09 172.634 331.792 163.999 348.179 150.335L42.2159 176.688Z" fill="#DA2128"/>
<path d="M373.245 144.028L112.776 165.501C140.761 142.527 179.221 128.637 179.221 128.637L175.779 126.76L182.139 123.757L183.037 120.979C233.32 87.1932 268.788 85.5415 268.788 85.5415L267.216 80.8115C284.426 79.0096 292.283 79.0096 292.283 79.0096L292.882 77.2077C305.901 77.0575 315.03 83.4393 315.03 83.4393L316.976 80.5112C343.763 99.1309 347.654 112.72 347.654 112.72C367.109 111.144 377.51 116.85 377.51 116.85C391.502 122.856 387.312 143.353 387.312 143.353C387.312 147.332 383.421 168.054 383.421 168.054C380.203 182.319 374.367 187.8 374.367 187.8C366.884 195.233 365.089 202.74 365.089 202.74C361.198 213.402 359.851 214.753 359.851 214.753C356.858 219.633 344.736 219.408 344.736 219.408C341.893 226.24 330.893 238.253 330.893 238.253L329.92 234.799L315.404 247.788L317.649 229.694C318.472 223.537 311.887 222.111 311.887 222.111L280.086 223.462C275.447 245.235 258.686 248.539 258.686 248.539C234.592 253.419 218.58 252.443 218.58 252.443L217.532 251.692L199.125 259.726L205.635 241.707L215.437 237.803C216.185 237.577 215.886 236.601 215.886 236.601L214.913 233.673C225.015 232.772 234.218 225.64 234.218 225.64C235.415 224.664 233.62 224.288 233.62 224.288L186.779 225.339L183.112 228.868C142.631 222.111 114.946 233.973 114.946 233.973C83.5191 245.686 64.4385 275.718 64.4385 275.718L44.909 290.734L35.032 317.387L24.1074 301.695L28.597 291.484L27.9235 286.679C37.4264 280.598 41.5418 273.39 41.5418 273.39C44.8342 268.96 44.6097 265.357 44.6097 265.357C44.8342 262.429 47.5279 260.852 47.5279 260.852C83.8932 238.779 89.3555 215.429 89.3555 215.429L345.784 176.538C341.593 196.058 357.382 188.926 357.382 188.926C347.205 181.718 356.409 176.538 356.409 176.538C347.804 161.522 373.245 144.028 373.245 144.028ZM283.379 227.517C280.835 249.215 263.7 252.593 263.7 252.593C257.04 254.62 234.966 256.347 234.966 256.347L229.579 275.567L246.041 268.585L247.088 269.486C268.788 268.135 283.304 261.903 283.304 261.903C293.106 258.149 295.276 248.464 295.276 248.464C296.623 241.932 294.378 227.442 294.378 227.442L283.379 227.517ZM147.869 233.148C147.869 233.148 108.81 232.697 82.0974 264.306C82.0974 264.306 82.0226 275.718 68.1798 283.526L68.6288 287.13L62.0441 296.214L73.7169 311.906L86.8863 282.625L147.869 233.148Z" fill="#005496"/>
</g>
<defs>
<clipPath id="clip0_257_11717">
<rect width="388" height="260" fill="white" transform="translate(6 70)"/>
</clipPath>
</defs>
</svg>
