<svg width="400" height="400" viewBox="0 0 400 400" fill="none" xmlns="http://www.w3.org/2000/svg">
<g clip-path="url(#clip0_257_11735)">
<path d="M397.225 170.743C396.692 169.965 394.641 167.713 388.406 165.051C388.529 165.092 388.612 165.133 388.735 165.174C389.227 165.379 389.719 165.46 390.211 165.46C391.647 165.46 393.041 164.723 393.78 163.413C394.805 161.652 394.395 159.441 392.795 158.131C392.631 157.967 390.662 156.452 386.356 154.609C386.561 154.364 386.766 154.077 386.93 153.79C387.914 151.948 387.381 149.696 385.699 148.467C385.33 148.221 376.922 142.366 357.931 140.359C357.808 139.008 357.561 137.534 357.069 136.101C360.638 132.334 366.585 124.39 366.093 114.276C366.093 113.006 365.601 111.696 364.739 110.713C363.427 109.198 361.376 108.461 358.669 108.461C358.177 108.461 357.643 108.502 357.11 108.543C352.803 108.256 341.483 106.946 335.945 104.08C335.781 103.998 335.617 103.916 335.453 103.875C334.141 103.424 302.27 92 268.308 92C266.462 92 264.657 92.0409 262.893 92.0819C262.688 92.0819 262.155 92.0819 261.376 92.0819C254.854 92.0819 231.843 92.4095 209.448 96.709C208.71 96.8318 190.703 100.231 177.947 104.243C177.208 104.448 168.431 106.741 159.038 106.741C158.217 106.741 157.397 106.741 156.577 106.7C156.289 106.659 155.756 106.618 155.059 106.618C151.203 106.618 147.922 107.888 145.871 110.222C144.476 111.778 142.959 114.521 143.451 119.026C143.574 119.926 144.641 127.256 152.885 138.312C145.707 141.383 131.72 148.14 112.852 160.629C96.7733 171.316 80.4074 184.01 64.2466 198.383C44.025 216.277 24.0906 236.914 4.97655 259.641C3.74603 261.115 3.66399 263.203 4.81248 264.718C5.59181 265.824 6.86334 266.397 8.13488 266.397C8.66811 266.397 9.20133 266.315 9.69354 266.069C9.89862 265.987 30.7354 257.757 79.0128 257.757C87.3393 257.757 96.158 258.003 105.141 258.494L106.946 258.658C115.108 259.395 144.107 262.834 175.321 275.446L208.956 289.082C210.719 289.819 252.844 306.894 284.017 307.672L302.721 308C302.762 308 302.762 308 302.803 308C303.993 308 305.141 307.468 305.921 306.567C306.741 305.625 307.069 304.397 306.864 303.209C306.741 302.431 303.911 285.397 299.44 271.065C307.028 267.543 312.77 260.746 316.175 251.123C318.923 243.384 319.292 236.382 319.333 235.481C319.743 229.38 319.169 224.794 318.677 222.173C324.912 215.785 342.016 196.54 352.065 168.368C352.106 168.368 352.147 168.368 352.147 168.368C357.602 168.368 372.41 169.187 392.344 176.967C392.836 177.172 393.329 177.253 393.862 177.253C395.092 177.253 396.323 176.68 397.143 175.656C398.251 174.223 398.292 172.217 397.225 170.743ZM349.112 164.355C338.324 196.622 317.898 217.26 314.165 220.863L314.124 220.904C315.314 224.384 315.191 229.175 315.15 233.884C315.191 234.376 315.232 234.867 315.232 235.358C315.232 235.358 315.314 241.624 310.843 253.416C307.069 263.367 298.661 267.298 295.051 268.444C294.805 268.526 294.518 268.608 294.272 268.69L294.395 269.059C299.522 283.759 302.803 303.905 302.803 303.905L302.762 303.946C244.272 305.543 207.93 282.326 164.329 267.052C137.339 257.88 113.96 255.218 107.315 254.604L105.428 254.44C36.3548 250.714 8.13488 262.302 8.13488 262.302C91.4821 163.331 159.571 140.073 159.571 140.073C148.537 127.133 147.553 118.575 147.553 118.575C146.568 109.526 156.248 110.795 156.248 110.795C167.815 111.327 179.095 108.174 179.095 108.174C191.728 104.202 210.186 100.763 210.186 100.763C236.027 95.8082 262.893 96.2176 262.893 96.2176C298.414 94.8664 334.059 107.765 334.059 107.765C341.77 111.778 357.192 112.72 357.192 112.72C361.212 112.269 361.868 113.539 361.991 114.112L362.196 114.153C362.278 115.668 362.155 117.101 361.827 118.452C360.351 128.485 351.983 135.364 351.983 135.364C354.444 137.862 353.911 144.168 353.911 144.168C374.707 145.683 383.361 151.866 383.361 151.866C371.917 147.484 353.624 147.075 353.624 147.075C353.091 151.579 352.721 152.234 352.598 152.316C380.613 153.545 390.252 161.366 390.252 161.366C373.189 154.773 351.983 155.469 351.983 155.469C350.876 159.728 350.506 160.997 350.506 160.997C388.201 165.256 393.903 173.159 393.903 173.118C366.954 162.676 349.112 164.355 349.112 164.355Z" fill="white"/>
<path fill-rule="evenodd" clip-rule="evenodd" d="M362.196 114.153L361.991 114.112C356.003 113.538 348.21 115.34 342.057 116.2C346.938 119.394 349.891 124.513 351.368 131.146C346.487 121.81 333.525 115.054 319.867 119.271C310.35 102.646 285.535 101.295 262.524 98.1421C269.21 104.407 283.361 105.84 282.664 117.756C271.958 96.9546 229.916 95.3576 206.7 105.881C196.774 118.657 167.487 114.726 149.357 113.62C148.865 117.674 152.721 122.056 156.084 126.519C161.458 133.685 165.6 139.254 176.224 135.814C121.056 165.501 72.2039 201.495 41.3589 255.464C61.4164 253.498 84.5091 252.556 105.428 254.44C120.03 229.994 139.431 210.339 165.395 197.195C148.004 212.673 133.238 230.772 126.634 257.02C140.17 259.313 152.598 262.916 164.493 267.093C164.452 267.093 164.37 267.052 164.329 267.052C207.93 282.326 244.231 305.584 302.762 303.946L302.803 303.905C297.553 291.129 288.529 279.336 281.638 269.877C286.93 270.205 291.442 269.673 295.297 268.362C295.215 268.403 295.133 268.403 295.051 268.444C298.661 267.298 307.069 263.367 310.843 253.416C311.253 252.393 311.581 251.369 311.909 250.427C312.771 247.602 313.345 244.613 313.673 241.542C310.309 250.96 303.542 257.47 293 258.576C261.663 261.811 253.747 222.665 263.017 195.639C259.899 212.755 260.268 236.382 273.353 243.589C286.109 250.591 307.397 244.49 309.53 232.246C312.73 213.861 288.16 195.148 306.413 180.161C296.076 199.57 313.796 214.516 315.15 233.884C315.191 229.175 315.314 224.384 314.124 220.904L314.165 220.863C319.826 213.82 326.265 203.747 332.254 193.018C340.211 178.727 355.798 151.497 334.838 142.98C341.729 149.122 337.545 166.279 328.111 168.245C338.57 159.359 332.664 139.991 320.359 137.821C325.814 130.368 340.908 130.532 351.86 132.661C355.839 128.976 360.556 124.185 361.868 118.166C361.868 118.247 361.827 118.37 361.827 118.452C362.155 117.101 362.278 115.668 362.196 114.153ZM319.333 137.862C313.263 142.12 306.864 146.051 303.829 153.34C300.793 144.659 293.821 139.95 285.74 136.305C295.707 132.62 310.597 134.422 319.333 137.862ZM254.485 116.855C254.608 116.896 254.649 116.896 254.649 116.896C264.042 118.002 272.738 122.056 277.455 127.01C268.964 126.724 258.094 124.349 246.979 124.963C245.994 123.735 247.758 122.26 248.004 120.582C248.045 120.5 248.045 120.418 248.045 120.336C244.231 119.681 240.252 119.23 235.658 119.312C241.564 116.732 248.291 115.463 254.485 116.855ZM233.033 229.175C203.295 224.794 178.931 212.387 183.443 175.534C188.734 202.6 207.069 217.71 230.449 227.619C231.228 227.947 233.484 227.701 233.033 229.175ZM250.629 159.032C234.633 159.073 213.96 161.775 197.922 163.659C209.12 159.236 227.578 156.943 241.852 156.452C244.682 156.329 250.834 153.831 250.629 159.032ZM252.68 151.292C236.273 148.262 210.309 150.105 196.856 151.292C213.139 147.034 234.304 145.642 254.731 147.157C254.608 149.122 252.803 149.368 252.68 151.292ZM258.915 143.021C241.277 138.803 216.995 136.879 195.871 139.418C195.092 139.131 195.871 138.844 196.404 138.885C216.421 134.422 243.861 135.2 263.55 139.418C262.319 140.933 260.473 141.874 258.915 143.021ZM304.362 218.815C313.919 238.348 289.227 244.244 274.378 237.897C277.783 232.533 281.023 227.005 283.156 220.371C284.756 224.016 284.838 229.339 283.689 233.27C295.789 237.324 304.321 230.117 304.362 218.815ZM320.851 171.439C318.185 181.184 314.985 190.357 308.956 196.704C309.325 191.667 312.196 183.314 310.515 176.066C304.567 172.831 293.123 173.937 286.232 175.534C282.418 181.389 278.521 189.415 273.845 195.148C272.492 196.785 270.933 199.488 269.21 198.751C272.409 191.79 274.747 179.956 271.794 171.398C283.812 165.338 308.997 164.887 320.851 171.439ZM318.8 130.122C317.118 120.991 334.018 121.523 338.447 126.519C332.254 126.601 322.82 126.314 318.8 130.122Z" fill="black"/>
<path d="M250.629 159.032C234.632 159.073 213.96 161.775 197.922 163.659C209.12 159.236 227.577 156.943 241.852 156.452C244.682 156.329 250.834 153.831 250.629 159.032ZM230.449 227.619C207.069 217.71 188.734 202.6 183.443 175.534C178.931 212.387 203.295 224.794 233.033 229.175C233.484 227.701 231.228 227.947 230.449 227.619ZM285.74 136.306C293.82 139.95 300.793 144.659 303.829 153.34C306.864 146.051 313.263 142.12 319.333 137.862C310.597 134.422 295.707 132.62 285.74 136.306ZM165.395 197.195C139.431 210.339 120.03 229.994 105.428 254.44L107.315 254.604C113.959 255.218 137.421 257.88 164.493 267.093C152.598 262.916 140.17 259.313 126.634 257.02C133.238 230.772 148.004 212.673 165.395 197.195ZM156.084 126.519C152.721 122.056 148.865 117.674 149.357 113.62C167.487 114.726 196.773 118.657 206.7 105.881C229.915 95.3577 271.958 96.9547 282.664 117.756C283.361 105.84 269.21 104.407 262.524 98.1422C285.535 101.295 310.35 102.646 319.866 119.271C333.525 115.054 346.487 121.81 351.368 131.146C349.891 124.513 346.938 119.394 342.057 116.2C348.209 115.34 356.003 113.539 361.991 114.112C361.868 113.539 361.212 112.269 357.192 112.72C357.192 112.72 341.77 111.778 334.058 107.765C334.058 107.765 298.414 94.8663 262.893 96.2176C262.893 96.2176 236.027 95.8081 210.186 100.763C210.186 100.763 191.728 104.202 179.095 108.174C179.095 108.174 167.815 111.327 156.248 110.795C156.248 110.795 146.568 109.526 147.553 118.575C147.553 118.575 148.537 127.133 159.571 140.073C159.571 140.073 91.482 163.331 8.13477 262.302C8.13477 262.302 36.3547 250.714 105.428 254.44C84.509 252.557 61.4163 253.498 41.3588 255.464C72.2038 201.495 121.055 165.501 176.224 135.814C165.6 139.254 161.458 133.685 156.084 126.519ZM248.045 120.582C248.045 120.582 249.358 117.019 254.649 116.896C254.649 116.896 254.608 116.896 254.485 116.855C248.291 115.463 241.564 116.733 235.658 119.312C240.252 119.23 244.231 119.681 248.045 120.336C248.045 120.418 248.045 120.5 248.045 120.582C248.004 120.582 248.004 120.582 248.045 120.582ZM350.506 160.997C350.506 160.997 350.876 159.728 351.983 155.469C351.983 155.469 373.189 154.773 390.252 161.366C390.252 161.366 380.613 153.545 352.598 152.316C352.557 152.357 352.557 152.316 352.557 152.316C352.598 152.316 352.598 152.316 352.598 152.316C352.721 152.234 353.091 151.579 353.624 147.075C353.624 147.075 371.917 147.484 383.361 151.866C383.361 151.866 374.707 145.683 353.911 144.168C353.911 144.168 354.444 137.862 351.983 135.364C351.983 135.364 360.515 128.362 361.868 118.166C360.556 124.185 355.839 128.976 351.86 132.661C340.908 130.532 325.814 130.368 320.359 137.821C332.664 139.991 338.57 159.359 328.111 168.245C337.545 166.279 341.729 149.122 334.838 142.98C355.798 151.497 340.211 178.728 332.254 193.018C326.265 203.747 319.825 213.82 314.165 220.863C317.898 217.26 338.324 196.622 349.112 164.355C349.112 164.355 366.954 162.676 393.903 173.118C393.903 173.159 388.201 165.256 350.506 160.997ZM306.413 180.161C288.16 195.148 312.729 213.861 309.53 232.246C307.397 244.49 286.109 250.591 273.353 243.589C260.268 236.382 259.899 212.755 263.016 195.639C253.747 222.665 261.663 261.811 293 258.576C303.542 257.47 310.309 250.96 313.673 241.542C313.263 245.759 312.36 249.772 310.843 253.417C314.944 244.531 315.232 235.359 315.232 235.359C314.698 215.253 295.83 200.061 306.413 180.161ZM196.856 151.293C210.309 150.105 236.273 148.262 252.68 151.293C252.803 149.368 254.608 149.122 254.731 147.157C234.304 145.642 213.139 147.034 196.856 151.293ZM263.55 139.418C243.861 135.2 216.421 134.422 196.404 138.885C195.871 138.844 195.092 139.131 195.871 139.418C216.995 136.879 241.277 138.803 258.915 143.021C260.473 141.875 262.319 140.933 263.55 139.418ZM294.272 268.69C294.6 268.608 294.969 268.485 295.297 268.363C291.441 269.673 286.93 270.205 281.638 269.878C288.529 279.337 297.553 291.13 302.803 303.905C302.803 303.905 299.522 283.759 294.395 269.059L294.272 268.69Z" fill="#2397D0"/>
<path d="M277.455 127.01C268.964 126.724 258.095 124.349 246.979 124.963C245.994 123.735 247.758 122.26 248.004 120.582C248.045 120.582 248.045 120.582 248.045 120.582C248.045 120.582 249.358 117.019 254.649 116.896C264.042 118.002 272.738 122.056 277.455 127.01ZM338.448 126.519C334.018 121.523 317.118 120.991 318.8 130.122C322.82 126.314 332.254 126.601 338.448 126.519ZM283.689 233.27C284.838 229.339 284.756 224.016 283.156 220.371C281.023 227.005 277.783 232.533 274.378 237.897C289.227 244.244 313.919 238.348 304.362 218.815C304.321 230.117 295.789 237.324 283.689 233.27ZM271.794 171.398C274.748 179.956 272.41 191.79 269.21 198.751C270.933 199.488 272.492 196.786 273.845 195.148C278.521 189.415 282.418 181.389 286.232 175.534C293.123 173.937 304.567 172.831 310.515 176.066C312.196 183.314 309.325 191.667 308.956 196.704C314.986 190.357 318.185 181.184 320.851 171.439C308.997 164.887 283.812 165.338 271.794 171.398Z" fill="#D1D3D5"/>
</g>
<defs>
<clipPath id="clip0_257_11735">
<rect width="394" height="216" fill="white" transform="translate(4 92)"/>
</clipPath>
</defs>
</svg>
