<svg width="400" height="400" viewBox="0 0 400 400" fill="none" xmlns="http://www.w3.org/2000/svg">
<g clip-path="url(#clip0_257_11715)">
<path d="M310.033 204.129C306.687 204.129 303.373 204.129 300.027 204.129C299.058 204.129 297.088 203.724 296.212 204.129C295.431 204.503 294.837 206.281 294.399 207.092C293.179 209.338 291.929 211.584 290.709 213.861C288.427 218.009 286.05 221.908 282.829 225.401C278.702 229.893 273.887 233.729 268.759 237.004C258.409 243.617 246.527 247.827 234.488 250.167C209.317 255.095 182.645 251.227 160.007 239.219C149.845 233.823 141.309 226.306 134.805 216.793C127.707 206.437 128.27 192.963 134.304 182.295C140.308 171.691 150.22 163.737 160.82 157.998C170.951 152.539 181.614 149.015 193.027 147.393C205.69 145.615 218.854 145.584 231.487 147.518C244.025 149.42 257.283 153.413 268.29 159.745C271.323 161.491 273.981 163.955 276.67 166.201C277.358 166.794 278.108 167.698 278.952 167.885C280.047 168.166 281.579 167.885 282.736 167.885C286.081 167.885 289.427 167.885 292.804 167.885C313.035 167.917 333.234 167.979 353.465 168.291C355.654 168.322 357.811 168.353 360 168.384C356.529 164.049 353.058 159.713 349.619 155.347C346.805 151.76 343.991 148.173 341.083 144.648C338.362 141.311 335.142 138.379 332.046 135.416C326.793 130.363 320.758 126.152 314.88 121.879C308.532 117.325 301.841 113.177 294.805 109.715C282.423 103.601 269.165 99.4216 255.657 96.6456C223.67 90.0643 190.087 89.9708 158.725 99.6399C143.591 104.319 128.77 110.744 115.668 119.696C109.54 123.875 103.786 128.554 98.7835 134.012C93.8431 139.439 88.9027 145.054 85.0566 151.323C77.1145 164.236 72.9558 180.237 60.4484 189.781C55.3829 193.649 50.1923 197.329 45.0643 201.104C44.0324 201.852 43.0319 202.601 42 203.349C47.0968 206.78 52.1935 210.211 57.2903 213.642C60.9174 216.075 64.4195 218.851 67.3274 222.126C72.6743 228.146 76.0513 235.756 80.4914 242.431C88.2773 254.19 97.8454 264.577 109.071 273.185C115.418 278.051 122.329 282.231 129.333 286.067C135.868 289.654 142.403 292.96 149.407 295.518C163.196 300.54 177.642 302.692 192.12 304.626C207.598 306.684 223.107 306.341 238.553 304.22C270.353 299.854 301.997 288.843 326.324 267.29C331.765 262.456 336.58 257.029 341.208 251.445C346.117 245.55 350.432 238.844 353.246 231.702C356.185 224.278 356.967 216.481 358.061 208.652C358.28 207.186 358.468 205.689 358.687 204.223C352.996 204.223 347.305 204.223 341.614 204.223C331.108 204.16 320.57 204.16 310.033 204.129ZM350.213 211.49L348.993 219.912C348.556 222.844 347.649 225.401 346.93 227.429C346.211 229.394 344.897 232.544 343.459 234.977C342.302 236.942 341.458 238.345 340.145 240.404C337.893 243.928 335.298 246.892 332.796 249.792C332.202 250.479 331.608 251.196 331.014 251.882C324.76 259.243 317.037 265.949 308.001 271.875C291.428 282.73 272.198 290.496 252.405 294.333C237.365 297.234 224.858 298.606 213.101 298.606C207.004 298.606 200.969 298.232 195.122 297.483C190.556 296.922 185.991 296.235 181.551 295.58L179.362 295.269C162.727 292.836 148.625 288.282 136.212 281.357C135.242 280.796 134.242 280.235 133.241 279.704C129.364 277.615 125.393 275.431 121.578 272.811C120.859 272.281 120.109 271.813 119.327 271.283C117.763 270.254 116.137 269.193 114.543 267.977C111.916 266.012 110.572 264.857 109.258 263.735C108.821 263.392 108.414 263.017 107.914 262.612C103.255 258.713 99.6903 254.814 96.282 251.009C93.374 247.796 90.2472 243.617 86.6826 238.283C84.869 235.569 83.2431 232.825 81.6796 230.173C78.3027 224.403 75.082 218.976 70.5168 214.734C67.7339 212.176 65.0136 209.868 63.6065 208.932L54.8826 203.069L63.3563 196.862C67.7027 193.649 70.6106 191.154 73.456 187.161C73.8938 186.537 74.3628 185.914 74.8319 185.259C76.1139 183.512 77.3021 181.89 78.1463 180.33C78.6153 179.426 79.1469 178.49 79.6472 177.554C82.2737 172.751 84.9941 167.792 87.0891 163.207C89.9345 156.969 93.4366 151.417 97.564 146.676C98.4083 145.709 99.2212 144.711 100.034 143.775C102.973 140.313 106.006 136.757 109.978 133.326C119.796 124.873 131.428 117.949 145.592 112.179C161.852 105.535 178.205 101.48 194.183 100.077C199.781 99.6087 205.284 99.3592 210.568 99.3592C213.226 99.3592 215.853 99.4216 218.417 99.5463C248.809 101.012 274.481 107.219 294.712 117.949C300.621 121.099 306.437 124.811 312.472 129.334C313.504 130.113 314.567 130.893 315.599 131.642C319.038 134.168 322.603 136.788 325.949 139.876C327.512 141.342 333.578 147.268 334.204 147.986C336.955 151.042 344.46 160.836 344.46 160.836L328.95 160.618L284.111 160.556H281.391L279.327 158.809C277.201 157.031 273.449 154.099 271.667 153.194C268.602 151.604 265.319 150.044 262.255 148.672C258.659 147.081 254.844 145.865 250.842 144.617C250.185 144.399 249.497 144.18 248.809 143.962C239.867 141.124 230.048 139.439 219.667 138.94C217.009 138.816 214.352 138.753 211.788 138.753C192.182 138.753 175.329 142.278 161.664 149.233C157.005 151.604 152.127 154.193 148.031 157.218C142.903 160.992 137.556 165.265 132.929 171.16C128.332 176.993 125.205 182.919 123.611 188.752C122.11 194.273 121.766 200.137 122.641 205.72C123.517 211.334 125.581 216.481 128.739 221.003C135.461 230.61 142.778 237.597 151.783 243.024C163.165 249.886 176.861 254.939 191.369 257.715C198.186 259.025 205.315 259.68 212.569 259.68C230.768 259.68 249.278 255.469 264.663 247.796C278.202 241.059 289.677 231.015 295.306 220.941C295.493 220.567 297.276 217.354 298.339 215.389L300.434 211.521H304.842L341.645 211.552L350.213 211.49Z" fill="#0B162A"/>
<path d="M341.646 211.552L304.843 211.521H300.434L298.339 215.388C297.276 217.353 295.493 220.566 295.306 220.94C289.677 231.015 278.202 241.058 264.663 247.796C249.279 255.469 230.768 259.679 212.57 259.679C205.315 259.679 198.186 259.024 191.37 257.714C176.861 254.938 163.165 249.885 151.784 243.023C142.778 237.596 135.462 230.61 128.739 221.003C125.581 216.48 123.517 211.334 122.642 205.719C121.766 200.136 122.11 194.272 123.611 188.751C125.206 182.919 128.332 176.993 132.929 171.16C137.557 165.265 142.903 160.992 148.031 157.218C152.128 154.192 157.006 151.603 161.665 149.233C175.329 142.277 192.182 138.753 211.788 138.753C214.352 138.753 217.01 138.815 219.667 138.94C230.049 139.439 239.867 141.123 248.81 143.961C249.498 144.18 250.185 144.398 250.842 144.616C254.844 145.864 258.659 147.081 262.255 148.671C265.319 150.044 268.603 151.603 271.667 153.194C273.449 154.098 277.201 157.03 279.328 158.808L281.391 160.555H284.112L328.951 160.617L344.46 160.836C344.46 160.836 336.955 151.042 334.204 147.985C333.578 147.268 327.512 141.341 325.949 139.875C322.603 136.788 319.039 134.168 315.599 131.641C314.567 130.893 313.504 130.113 312.472 129.333C306.437 124.81 300.621 121.099 294.712 117.948C274.481 107.219 248.81 101.012 218.417 99.5458C215.853 99.421 213.226 99.3586 210.568 99.3586C205.284 99.3586 199.781 99.6082 194.184 100.076C178.206 101.48 161.852 105.534 145.593 112.178C131.428 117.948 119.796 124.873 109.978 133.325C106.007 136.756 102.974 140.312 100.034 143.774C99.2215 144.71 98.4085 145.708 97.5642 146.675C93.4368 151.416 89.9347 156.968 87.0893 163.206C84.9943 167.791 82.274 172.751 79.6474 177.554C79.1471 178.49 78.6156 179.425 78.1465 180.33C77.3023 181.889 76.1141 183.511 74.8321 185.258C74.363 185.913 73.894 186.537 73.4563 187.161C70.6108 191.153 67.7029 193.648 63.3566 196.861L54.8828 203.068L63.6067 208.932C65.0138 209.868 67.7341 212.176 70.517 214.733C75.0822 218.975 78.3029 224.403 81.6799 230.173C83.2433 232.824 84.8692 235.569 86.6828 238.282C90.2474 243.616 93.3743 247.796 96.2822 251.008C99.6905 254.814 103.255 258.712 107.914 262.611C108.414 263.017 108.821 263.391 109.259 263.734C110.572 264.857 111.916 266.011 114.543 267.976C116.138 269.193 117.764 270.253 119.327 271.282C120.109 271.813 120.859 272.28 121.578 272.811C125.393 275.431 129.364 277.614 133.242 279.704C134.242 280.234 135.243 280.795 136.212 281.357C148.626 288.281 162.728 292.835 179.362 295.268L181.551 295.58C185.991 296.235 190.557 296.921 195.122 297.483C200.969 298.231 207.004 298.605 213.101 298.605C224.858 298.605 237.365 297.233 252.406 294.332C272.198 290.496 291.429 282.729 308.001 271.875C317.037 265.949 324.761 259.243 331.014 251.882C331.608 251.195 332.203 250.478 332.797 249.792C335.298 246.891 337.893 243.928 340.145 240.403C341.458 238.345 342.302 236.941 343.459 234.976C344.898 232.543 346.211 229.393 346.93 227.428C347.649 225.401 348.556 222.843 348.994 219.911L350.213 211.49L341.646 211.552ZM339.957 225.026C339.269 226.96 338.112 229.58 337.08 231.327C335.923 233.292 335.142 234.602 333.922 236.505C331.452 240.372 328.357 243.678 325.386 247.172C319.257 254.408 311.909 260.553 303.967 265.762C287.989 276.242 269.791 283.509 251.03 287.127C232.55 290.714 214.758 292.586 196.06 290.215C190.838 289.56 185.647 288.78 180.457 288.001C166.23 285.88 152.534 282.012 139.839 274.932C135.118 272.312 130.24 269.816 125.8 266.76C123.548 265.2 121.172 263.765 119.014 262.112C115.731 259.648 114.668 258.619 112.667 256.966C108.508 253.472 105.288 249.979 101.785 246.08C98.5961 242.587 95.4692 238.158 92.8427 234.228C87.1831 225.681 83.1807 216.418 75.5512 209.337C74.9571 208.807 70.517 204.69 67.7341 202.819C72.4869 199.325 76.0203 196.3 79.4911 191.434C81.2421 188.97 83.212 186.475 84.6504 183.855C87.6834 178.303 91.2167 172.064 93.8433 166.263C96.2822 160.929 99.3465 155.908 103.161 151.541C107.101 147.018 110.29 142.839 114.824 138.94C124.862 130.3 136.118 124.062 148.407 119.04C163.259 112.989 178.831 108.872 194.84 107.468C202.501 106.782 210.349 106.564 218.041 106.938C242.9 108.123 269.04 112.708 291.303 124.498C297.182 127.649 302.779 131.298 308.095 135.29C312.441 138.565 316.975 141.622 320.977 145.334C322.509 146.737 329.044 153.256 329.044 153.256L284.205 153.194C284.205 153.194 278.483 148.359 275.138 146.644C271.98 145.022 268.603 143.4 265.382 141.965C260.754 139.875 256.001 138.472 251.155 136.944C241.086 133.731 230.643 132.078 220.105 131.579C199.249 130.612 177.142 133.138 158.35 142.683C153.347 145.209 148.188 147.985 143.685 151.291C137.4 155.908 131.991 160.43 127.144 166.606C122.423 172.626 118.545 179.394 116.513 186.818C114.731 193.243 114.324 200.23 115.356 206.842C116.388 213.517 118.795 219.693 122.673 225.245C129.552 235.101 137.588 243.148 147.969 249.386C160.789 257.09 175.329 262.206 189.994 265.013C215.665 269.91 244.526 266.105 267.977 254.439C281.016 247.952 294.587 237.44 301.778 224.558C302.06 223.997 304.843 218.913 304.843 218.913L341.646 218.944C341.364 221.065 340.676 222.999 339.957 225.026Z" fill="white"/>
<path d="M304.842 218.913C304.842 218.913 302.06 223.997 301.778 224.559C294.586 237.44 281.016 247.952 267.977 254.439C244.526 266.105 215.665 269.91 189.993 265.013C175.329 262.206 160.789 257.091 147.969 249.386C137.588 243.148 129.552 235.101 122.673 225.245C118.795 219.693 116.388 213.517 115.356 206.842C114.324 200.23 114.73 193.243 116.513 186.818C118.545 179.394 122.422 172.626 127.144 166.606C131.991 160.43 137.4 155.908 143.685 151.291C148.188 147.985 153.347 145.209 158.35 142.683C177.142 133.138 199.249 130.612 220.105 131.579C230.642 132.078 241.086 133.731 251.155 136.944C256.001 138.472 260.754 139.876 265.382 141.965C268.602 143.4 271.979 145.022 275.137 146.644C278.483 148.359 284.205 153.194 284.205 153.194L329.044 153.256C329.044 153.256 322.509 146.737 320.977 145.334C316.975 141.622 312.441 138.565 308.094 135.29C302.779 131.298 297.182 127.649 291.303 124.498C269.04 112.708 242.9 108.123 218.041 106.938C210.349 106.564 202.501 106.782 194.84 107.468C178.831 108.872 163.259 112.989 148.406 119.04C136.118 124.062 124.861 130.3 114.824 138.94C110.29 142.839 107.101 147.018 103.161 151.541C99.3463 155.908 96.282 160.929 93.843 166.263C91.2165 172.064 87.6831 178.303 84.6501 183.855C83.2118 186.475 81.2418 188.97 79.4908 191.434C76.02 196.3 72.4867 199.325 67.7339 202.819C70.5168 204.69 74.9569 208.807 75.551 209.337C83.1805 216.418 87.1829 225.681 92.8424 234.228C95.469 238.158 98.5958 242.587 101.785 246.08C105.287 249.979 108.508 253.472 112.667 256.966C114.668 258.619 115.731 259.648 119.014 262.112C121.172 263.765 123.548 265.2 125.799 266.76C130.239 269.816 135.117 272.312 139.839 274.932C152.534 282.012 166.229 285.88 180.457 288.001C185.647 288.78 190.838 289.56 196.06 290.215C214.758 292.586 232.55 290.714 251.029 287.127C269.791 283.509 287.989 276.242 303.967 265.762C311.909 260.553 319.257 254.408 325.386 247.172C328.356 243.678 331.452 240.372 333.922 236.505C335.142 234.602 335.923 233.292 337.08 231.327C338.112 229.58 339.269 226.96 339.957 225.026C340.676 222.999 341.364 221.065 341.645 218.944L304.842 218.913Z" fill="#C83803"/>
</g>
<defs>
<clipPath id="clip0_257_11715">
<rect width="318" height="214.003" fill="white" transform="translate(42 92)"/>
</clipPath>
</defs>
</svg>
