<svg width="400" height="400" viewBox="0 0 400 400" fill="none" xmlns="http://www.w3.org/2000/svg">
<g clip-path="url(#clip0_257_11716)">
<path d="M240.18 232.116V236.164C240.18 244.658 233.262 251.492 224.813 251.492H196.075C189.156 251.492 189.755 244.591 189.755 236.164V216.722H212.24L224.813 216.788C233.328 216.788 240.18 223.689 240.18 232.116ZM224.88 148.839H223.283H196.141C189.223 148.839 189.822 155.674 189.822 164.168V183.61L216.498 183.544H224.88C233.328 183.544 240.247 176.709 240.247 168.215V164.168C240.247 155.74 233.395 148.839 224.88 148.839ZM355.999 248.374C355.999 263.237 347.75 279.627 333.913 292.302C318.746 306.17 298.988 313.867 278.232 313.867L90.1679 314H85.1786L82.6507 309.687L51.7168 256.005L44.2661 243.065H59.2341H77.9274L77.8609 158.063H58.8349H44L51.3177 145.19L82.185 90.9104L84.6464 86.6636L89.5692 86.5972L121.035 86H121.102H121.168L274.64 86.2654C282.69 86.3318 290.406 87.4598 298.057 89.7159L298.323 89.3178L305.241 92.0384C317.548 96.8824 328.059 104.513 335.577 114.069C343.36 124.022 347.684 135.701 347.95 147.844V148.043V148.242L347.884 152.622V152.887V153.153C346.553 171.467 338.437 185.999 324.134 195.82C328.858 198.407 333.248 201.46 337.107 204.91C349.547 215.859 356.066 230.988 355.999 248.374ZM347.351 248.374C347.418 211.944 315.686 200.863 311.362 199.27C309.832 198.739 306.173 198.806 306.173 196.749C306.173 194.492 308.501 194.36 309.832 193.763C326.662 186.264 337.905 172.86 339.368 152.29L339.435 147.91C338.903 126.809 324.201 108.561 302.181 99.9348C302.181 100.001 302.115 100.001 302.115 100.068C293.666 96.8161 284.752 94.8917 274.707 94.8254L121.235 94.56L89.7688 95.1572L58.9015 149.437H79.9232C79.9232 149.437 86.5756 149.237 86.5756 156.072L86.6421 244.326C86.6421 244.326 87.2409 251.692 78.7257 251.692C70.1441 251.692 59.3006 251.692 59.3006 251.692L90.2345 305.374L278.299 305.241C318.945 305.241 347.351 272.793 347.351 248.374Z" fill="white"/>
<path d="M339.435 147.91L339.368 152.29C332.849 157.134 322.471 165.628 315.885 172.13C306.173 181.818 287.147 206.901 277.434 225.614C267.722 244.326 253.885 290.178 253.885 290.178C253.885 290.178 252.088 245.919 253.419 231.718C254.749 217.518 265.393 169.609 279.23 143C289.675 122.828 298.19 106.637 302.115 100.068C302.115 100.001 302.181 100.001 302.181 99.9349C324.201 108.561 338.903 126.809 339.435 147.91ZM121.235 94.5601L89.7023 95.1573L58.835 149.437H79.8567C79.8567 149.437 86.5091 149.238 86.5091 156.072V223.756C109.793 260.318 149.109 289.515 149.109 289.515C125.093 252.289 115.181 182.018 115.181 146.119C115.248 119.643 119.173 101.992 121.235 94.5601ZM210.444 251.493H196.075C189.156 251.493 189.755 244.591 189.755 236.164V216.722H212.24C212.44 213.139 212.573 211.148 212.639 209.29C212.706 206.304 214.236 196.55 216.498 183.544L189.822 183.61V164.168C189.822 155.674 189.223 148.839 196.141 148.839H223.283C224.747 142.005 226.011 137.293 227.208 133.511C231.133 120.903 237.12 103.916 240.447 94.7591L174.92 94.6264C170.796 111.813 162.147 151.56 163.877 179.43C166.072 214.2 179.444 279.097 192.483 305.307L278.232 305.241C277.767 305.241 251.29 305.241 215.833 305.307C214.968 297.743 211.109 264.034 210.444 251.493Z" fill="black"/>
<path d="M163.877 179.43C166.072 214.2 179.444 279.097 192.482 305.307C142.855 305.374 90.1677 305.374 90.1677 305.374L59.2339 251.692C59.2339 251.692 70.0774 251.692 78.659 251.692C87.1741 251.692 86.5754 244.326 86.5754 244.326C86.5754 244.326 86.5754 235.633 86.5754 223.756C109.859 260.318 149.175 289.515 149.175 289.515C125.16 252.289 115.247 182.018 115.247 146.119C115.247 119.643 119.172 101.992 121.235 94.5601L174.92 94.6264C170.795 111.813 162.147 151.56 163.877 179.43ZM311.361 199.27C309.831 198.739 306.173 198.806 306.173 196.749C306.173 194.493 308.501 194.36 309.831 193.763C326.662 186.264 337.905 172.86 339.368 152.29C332.849 157.134 322.471 165.628 315.885 172.13C306.173 181.818 287.147 206.901 277.434 225.614C267.721 244.326 253.884 290.178 253.884 290.178C253.884 290.178 252.088 245.919 253.419 231.718C254.749 217.518 265.393 169.609 279.23 143C289.741 122.695 298.323 106.438 302.181 99.9349C293.666 96.6171 284.818 94.8918 274.706 94.8255L240.446 94.7591C237.12 103.916 231.133 120.903 227.208 133.511C226.011 137.293 224.747 142.005 223.283 148.839H224.88C233.395 148.839 240.247 155.74 240.247 164.168V168.215C240.247 176.709 233.328 183.544 224.88 183.544H216.498C214.236 196.55 212.706 206.304 212.639 209.29C212.573 211.148 212.44 213.139 212.24 216.722L224.813 216.788C233.328 216.788 240.18 223.689 240.18 232.116V236.164C240.18 244.658 233.262 251.493 224.813 251.493H210.444C211.109 264.034 214.968 297.743 215.832 305.307C251.29 305.241 277.767 305.241 278.232 305.241C318.945 305.241 347.351 272.793 347.351 248.374C347.418 211.944 315.686 200.863 311.361 199.27Z" fill="#F05325"/>
</g>
<defs>
<clipPath id="clip0_257_11716">
<rect width="312" height="228" fill="white" transform="translate(44 86)"/>
</clipPath>
</defs>
</svg>
