<svg width="400" height="400" viewBox="0 0 400 400" fill="none" xmlns="http://www.w3.org/2000/svg">
<g clip-path="url(#clip0_257_11719)">
<path d="M272.787 144.91C272.787 140.7 270.411 137.681 268.311 137.403C268.311 137.403 267.519 137.204 266.925 137.602C266.846 137.681 266.846 137.681 266.806 137.721C266.806 137.8 266.727 137.8 266.727 137.8C266.648 137.88 266.608 137.919 266.529 138.078C266.331 138.396 266.133 138.952 266.133 139.786C266.133 140.263 266.212 140.7 266.252 141.295C266.252 141.295 266.252 141.375 266.252 141.415C266.331 141.494 266.331 141.693 266.371 141.891C266.489 142.487 266.885 143.321 267.48 144.195C267.559 144.314 267.678 144.473 267.796 144.592C268.113 145.108 268.668 145.704 269.381 146.379C269.381 146.379 269.183 147.809 269.579 149.557L269.658 149.756C270.133 151.146 270.569 152.178 271.559 153.33C273.936 156.031 276.273 154.244 275.56 150.947C274.887 147.968 273.976 146.816 272.748 145.466V144.91H272.787ZM269.975 145.108C268.708 144.314 266.885 141.693 267.202 139.508C270.054 139.508 270.846 143.639 269.975 145.108ZM272.866 152.814C271.441 151.384 270.688 149.835 270.569 147.531C272.787 148.008 274.253 150.828 272.866 152.814ZM172.893 258.625C172.893 258.625 173.091 259.221 173.566 260.055C173.962 260.849 174.675 261.485 175.388 261.962C180.894 265.258 183.983 261.088 183.983 261.048C184.063 260.969 186.558 257.672 182.874 254.057C182.795 253.978 180.498 251.952 177.488 252.35C177.171 251.079 175.586 247.544 170.992 247.663C167.308 247.861 166.476 249.887 166.08 251.039C166.08 251.039 165.169 253.541 166.397 255.765C166.476 255.885 168.259 259.38 172.893 258.625ZM177.844 253.223C181.924 253.104 185.211 257.235 183.112 260.254L182.399 260.373C178.795 260.889 176.735 259.459 176.141 256.242C176.735 255.885 177.646 254.772 177.844 253.223ZM171.982 253.025C171.982 251.436 172.299 250.046 172.972 248.894C174.992 249.569 176.537 251.317 176.379 253.184H176.656C176.458 254.574 175.071 256.401 172.18 255.964C172.061 255.368 171.982 254.772 171.982 254.137C172.457 254.256 172.972 254.335 173.566 254.335C173.566 254.057 173.645 253.541 173.645 253.541C173.051 253.501 172.497 253.303 171.982 253.025ZM168.259 249.768C169.17 248.973 169.883 248.656 171.269 248.695C170.754 249.609 170.477 250.999 170.398 252.389C170.12 252.191 169.883 252.191 169.605 251.873V252.866C169.803 253.184 170.081 253.263 170.477 253.541C170.477 254.415 170.477 255.05 170.675 255.646C170.477 255.567 170.358 255.368 170.16 255.328C167.268 253.621 168.259 249.768 168.259 249.768ZM167.189 250.999C166.714 256.997 172.18 257.831 175.19 256.719C175.864 261.525 180.062 261.644 182.082 261.326C179.508 262.954 174.675 261.842 173.725 257.314C169.883 258.506 165.565 255.408 167.189 250.999ZM109.003 304.818C108.686 305.096 108.29 305.335 107.815 305.692C102.745 309.306 91.0207 313.715 80.4847 314.708C69.8298 316.416 63.8885 308.909 65.9878 303.229C65.9878 303.229 65.9878 303.229 65.3936 301.8C64.7995 300.409 57.9867 286.468 58.7789 280.391C64.443 290.718 69.3545 297.391 70.8597 298.9C70.9389 299.178 70.9785 299.377 71.0577 299.615C70.9389 301.124 71.2558 305.613 79.9698 303.944C77.3556 309.068 67.4137 306.248 69.3149 299.456C67.889 297.669 64.4034 291.949 64.4034 291.949C64.2846 292.029 64.6014 293.657 64.5222 293.538C65.7105 295.961 67.7306 300.251 67.7306 300.251C66.1462 310.18 80.4847 310.975 81.4749 303.666H81.5542C82.2671 303.547 82.2671 303.666 82.8217 303.388C82.2275 306.367 80.8016 307.996 79.0588 308.87C75.9693 310.458 75.1375 313.159 79.7717 312.802C84.4852 312.484 92.922 311.173 102.745 306.288L104.844 305.176C100.646 302.554 96.2492 302.078 93.2389 301.879C90.8623 301.68 87.139 302.356 84.3664 302.951C84.5645 302.872 84.6833 302.832 84.8813 302.753C96.4076 298.821 103.379 301.164 109.003 304.818ZM265.38 192.374C258.409 197.498 256.191 215.411 258.29 224.983C252.626 218.747 255.399 193.645 265.38 192.374ZM364.997 276.936C362.264 262.438 358.303 248.139 353.352 234.317C351.451 228.796 346.658 225.102 341.311 225.102C341.113 225.102 340.955 225.102 340.757 225.102C340.4 225.102 340.004 225.182 339.648 225.222C335.964 225.976 317.981 227.406 311.921 227.764C311.248 227.764 310.614 227.764 310.02 227.764H309.545H309.069C305.702 227.764 302.019 227.764 297.979 227.207C295.444 221.13 292.909 215.252 290.493 209.572C288.156 204.091 285.779 198.411 283.284 192.612C286.096 191.302 288.472 189.395 290.136 187.012C292.473 183.954 293.344 180.458 293.701 177.162C293.82 177.162 293.978 177.162 294.097 177.162C298.137 177.162 301.781 175.732 304.356 173.071C308 169.297 308.475 163.3 305.584 158.017C303.92 155.078 302.296 152.139 300.712 149.279C297.979 144.354 295.087 139.23 292.354 134.106C291.245 132.041 289.146 130.81 286.928 130.81C286.175 130.81 285.423 130.929 284.67 131.207L283.64 131.604C283.561 131.604 283.521 131.683 283.442 131.683L279.957 133.272C274.213 123.581 267.282 114.684 259.399 106.819C250.566 98.0018 240.545 90.6936 229.891 85.0932C213.73 76.4345 194.48 71.2313 174.2 70C174.121 70 174.002 70 173.844 70H161.248C161.129 70 161.05 70 160.891 70C134.947 71.4299 110.192 79.2148 89.4364 92.6398C78.9399 99.392 69.5526 107.495 61.71 116.908C53.4712 126.401 46.8961 136.926 42.1034 148.167C33.3894 168.543 30.2207 191.937 32.9537 215.649C35.6471 237.534 41.945 258.466 51.8077 277.73C51.5304 280.391 51.6888 283.052 52.2038 285.674V285.753C53.6297 291.79 55.9666 297.192 58.6601 303.071V303.15C58.6601 303.349 58.6601 303.746 58.6601 304.024C58.6601 305.454 58.5808 307.36 59.4126 309.505C61.5515 315.542 67.2156 320.189 73.9492 321.262C75.3355 321.54 76.8407 321.659 78.3854 321.659C81.3165 321.659 84.1288 321.182 86.6637 320.706C87.0598 320.626 87.4163 320.587 87.8124 320.507H87.8916C96.5264 318.879 104.25 316.138 110.905 312.285C125.283 322.731 143.028 328.967 161.406 329.921H161.485C162.713 330 163.941 330 165.169 330C178.715 330 190.519 327.061 200.184 321.182C204.976 318.243 209.373 314.43 212.859 310.021C214.641 310.22 216.542 310.299 218.562 310.299C223.553 310.299 228.346 309.743 231.99 309.267C237.733 308.512 242.962 306.884 248.586 304.064C254.527 311.57 261.895 317.131 270.846 320.825C280.709 324.995 291.72 327.101 303.643 327.101C308.634 327.101 313.783 326.703 318.972 325.949C319.051 325.949 319.051 325.949 319.09 325.949C320.318 325.75 321.982 325.472 323.764 325.194C328.359 324.439 333.627 323.605 335.964 323.129C338.142 322.731 340.202 321.818 341.113 321.421C341.945 321.222 343.45 320.865 344.955 320.547C353.392 318.72 366.186 315.979 367.849 305.771C367.968 304.898 368.047 304.064 367.968 303.229C368.206 294.571 366.859 286.15 364.997 276.936ZM337.113 233.483C338.301 233.165 340.519 232.808 340.598 232.768C342.301 233.086 343.014 234.079 343.212 235.469C343.292 235.985 343.014 237.971 340.836 238.368L340.044 238.567C338.063 239.242 334.181 240.156 330.26 240.871C327.844 241.347 325.586 241.784 325.784 241.665C325.269 240.553 324.913 239.361 323.408 236.462C327.765 235.707 333.27 234.595 337.113 233.483ZM345.629 260.412C345.629 260.412 352.204 258.188 353.63 263.233C353.63 263.233 355.016 267.522 351.332 269.111C351.332 269.111 348.56 270.541 335.964 272.805C335.964 272.805 334.894 268.873 334.459 266.807C334.459 266.807 345.153 264.583 349.312 262.994C349.312 262.994 349.193 261.564 347.134 261.604C347.134 261.604 336.281 264.305 333.785 264.583L333.191 262.954C333.231 262.915 342.539 261.127 345.629 260.412ZM332.122 232.887C330.339 233.602 322.021 234.675 322.021 234.675C320.912 233.761 319.724 233.602 319.447 233.602C322.655 233.801 332.122 232.887 332.122 232.887ZM314.575 234.079C312.793 234.357 312.674 235.985 312.674 235.985C308.396 237.058 298.494 238.17 298.494 238.17L296.474 233.483C306.812 234.913 314.575 234.079 314.575 234.079ZM287.839 136.132L300.593 159.169C306.574 168.582 296.711 172.475 291.285 169.655C290.572 170.052 290.017 170.37 289.661 170.767C289.344 171.045 289.067 171.363 288.789 171.68C289.067 174.778 288.789 178.671 287.205 181.57C285.304 184.947 282.729 187.171 277.897 188.005C277.778 188.005 277.501 188.084 277.184 188.084C277.065 188.084 276.867 188.164 276.709 188.164C276.312 188.243 275.996 188.243 275.639 188.283C280.551 200 296.711 238.408 296.711 238.408C293.622 238.925 290.215 239.203 290.215 239.203L269.777 191.143C269.262 191.659 268.906 192.136 268.707 192.414C268.509 192.692 268.311 192.89 268.113 193.129C264.945 197.061 263.043 202.224 261.934 207.666C261.855 207.984 261.736 208.579 261.617 209.294C271.203 224.189 284.195 229.71 284.195 229.71L287.403 237.614C274.53 233.841 263.756 222.123 260.746 218.628C260.746 218.946 260.746 219.303 260.746 219.621C260.746 226.135 261.538 232.331 262.568 236.74C263.241 238.647 263.756 240.632 264.192 242.539C262.687 242.738 261.221 242.857 259.795 243.016C258.805 239.203 257.577 235.509 256.191 232.212C248.982 214.974 229.059 222.878 230.445 233.284C224.385 219.859 218.245 206.236 213.651 196.028C215.433 194.042 219.038 190.428 224.821 186.694C220.741 188.482 217.532 191.302 217.532 191.302C215.948 192.573 214.522 193.804 213.215 195.115C212.898 194.32 212.542 193.605 212.225 192.89C212.264 192.851 212.304 192.811 212.344 192.771C211.195 190.189 210.165 187.925 209.333 186.059C212.304 184.152 215.314 182.166 219.117 180.776C230.128 176.248 242.803 173.229 254.963 170.648V170.608C255.636 170.489 256.349 170.33 256.983 170.211C257.379 176.328 254.29 178.631 248.982 179.743C245.576 180.458 242.724 180.617 241.298 181.054L244.586 181.173C244.784 181.173 248.388 181.094 253.458 179.386C256.746 178.115 259.241 175.891 258.171 169.893C258.766 169.814 259.281 169.694 259.875 169.575C260.786 175.295 259.954 180.855 248.903 181.888C250.804 183.159 267.995 179.982 278.333 182.365C278.531 182.444 282.848 183.954 277.936 186.138C287.522 184.033 288.037 174.421 286.215 167.311L286.611 167.391C288.393 167.51 289.898 167.788 291.126 167.987C292.037 168.106 293.146 168.265 294.335 168.384C301.504 169.099 300.831 160.678 297.107 159.566C294.216 158.692 293.503 158.692 292.79 158.573L291.8 158.454L282.888 138.515L287.839 136.132ZM203.511 235.072C203.313 234.953 203.194 234.794 202.996 234.675C202.323 234.079 201.689 233.404 200.976 232.768C200.976 232.728 200.976 232.689 200.976 232.649C196.342 228.161 190.242 221.925 186.083 217.516C191.985 208.023 197.649 198.928 197.569 198.928C199.154 196.505 200.738 194.002 201.649 192.652L205.57 201.43C205.57 201.43 205.57 201.47 205.531 201.47L206.68 203.972C201.412 213.782 201.491 224.705 203.511 235.072ZM198.639 186.376C199.312 187.687 200.659 191.103 200.659 191.103C200.936 190.904 197.649 194.995 195.787 197.895L184.736 216.086L181.765 212.789C181.765 212.789 180.458 211.201 179.191 211.28C184.974 201.867 190.281 193.486 192.064 190.785C193.965 187.687 198.441 182.365 197.847 183.08C197.926 183.119 197.807 184.669 198.639 186.376ZM207.591 206.236L224.781 244.167C216.82 243.294 211.71 240.99 206.204 237.137C204.224 226.771 203.63 216.245 207.591 206.236ZM200.104 185.066C199.51 183.993 199.51 182.961 200.104 181.888C200.897 180.577 202.521 179.783 203.59 179.783C204.382 179.783 205.016 180.061 205.095 180.101L234.129 244.565C234.129 244.565 230.128 244.763 226.959 244.088C214.562 217 200.104 185.225 200.104 185.066ZM259.122 147.412L263.202 158.891L261.023 159.288C261.023 159.288 258.33 151.9 256.706 146.856C255.438 143.043 256.389 141.137 256.389 141.137L258.37 140.223C257.419 143.003 259.122 147.412 259.122 147.412ZM263.083 142.288C264.351 145.704 270.886 159.487 271.678 161.433C275.481 171.363 265.618 173.229 264.588 168.821C275.045 167.947 270.846 156.984 264.865 158.533C262.568 152.854 260.786 147.253 260.786 147.253C260.786 147.253 258.409 141.176 259.993 139.349L262.172 138.237L262.37 138.158C262.291 138.356 262.291 138.952 262.291 138.952C262.212 139.707 262.291 140.104 263.083 142.288ZM273.777 167.748C273.777 167.748 278.768 167.748 281.343 167.828C281.343 167.828 279.521 171.402 271.48 170.807C271.48 170.767 273.659 169.337 273.777 167.748ZM265.182 160.559C267.202 160.281 268.945 161.671 269.104 163.141C269.302 164.452 268.628 165.961 266.133 166.358L264.945 166.557C249.774 169.575 232.624 172.991 218.245 178.87C213.73 180.498 211.353 181.888 208.779 183.795C208.779 183.795 207.393 180.697 206.878 179.863C206.085 178.472 205.967 178.353 205.293 178.035C207.393 176.606 210.086 175.255 213.69 173.746C224.345 169.337 246.249 163.657 265.182 160.559ZM282.531 159.01C285.819 159.328 294.295 160.321 296.077 160.917H296.157H296.236C297.543 161.115 298.256 162.744 298.137 164.094C298.058 164.809 297.662 166.477 295.166 166.477C292.948 166.001 287.086 165.405 284.115 165.167C284.115 162.625 282.571 159.05 282.531 159.01ZM226.484 304.858C226.484 304.858 217.414 306.129 210.126 304.58C191.945 332.502 142.552 330.675 112.33 307.003C111.816 306.606 111.221 306.129 110.627 305.732C108.607 307.321 99.6556 313.517 82.6632 316.138C68.3643 318.918 62.4229 309.624 64.1261 303.309C59.8483 293.975 58.6601 290.718 57.3133 285.475C56.4419 281.781 56.9965 279.041 57.3926 277.492C53.1148 269.389 48.6389 259.3 45.0345 247.702C-6.49704 82.9881 207.511 13.9963 277.065 138.515C277.342 138.595 277.58 138.595 277.857 138.634C278.729 138.753 279.283 139.151 279.64 139.826L281.541 139.031L289.898 158.176C288.829 157.977 286.017 157.699 285.304 157.66C285.304 157.739 283.204 157.58 283.204 157.58C281.382 151.9 279.006 144.751 277.342 140.581C276.431 140.302 274.768 140.302 274.372 140.302C274.372 140.382 274.451 140.382 274.451 140.422C275.758 142.805 279.56 154.76 280.868 158.057C282.65 162.585 282.492 165.167 282.492 165.167L274.134 164.968C274.015 162.545 271.718 157.938 271.718 157.938L268.628 151.662L267.757 149.875L264.549 143.083H264.509C264.192 142.288 263.598 140.7 263.439 139.31C262.925 134.901 267.202 134.901 267.321 134.901C269.539 134.98 271.401 135.775 273.183 138.317C273.579 138.317 274.055 138.317 274.372 138.317C271.757 133.193 270.292 131.604 268.589 128.705C236.268 82.5909 182.558 68.9673 135.225 80.4858C195.232 71.7476 240.941 97.6046 263.796 136.291C261.895 137.284 258.726 138.873 257.221 139.667C256.547 139.667 254.131 139.588 253.3 139.667C251.874 139.786 250.527 139.866 251.517 143.281C252.23 145.784 252.507 146.379 253.101 147.968C253.814 149.795 255.993 155.396 257.577 160.202C257.062 160.321 256.468 160.4 255.953 160.519C255.636 159.646 255.28 158.732 254.963 157.819C253.062 153.092 250.844 146.896 250.17 144.791C249.854 143.718 249.299 141.613 249.893 139.866C249.893 139.866 247.596 141.653 249.616 146.459L254.725 160.678C254.012 160.797 253.379 160.917 252.666 161.075C252.666 161.075 252.666 161.075 252.666 161.115C237.179 164.293 221.929 168.423 213.373 171.998C213.373 171.998 206.957 174.381 202.402 178.075C202.204 178.194 202.124 178.274 202.124 178.393C200.857 178.711 199.629 179.664 198.758 180.776C198.084 181.292 196.658 182.484 195.985 183.199C194.203 185.304 192.618 187.131 190.598 189.911C188.895 192.493 182.597 202.502 176.933 211.638C176.458 211.836 176.022 212.114 175.547 212.432C174.042 213.544 173.051 215.61 173.447 217.715C168.932 225.142 166.239 229.432 165.09 231.219C162.595 231.418 161.327 233.404 161.208 233.642C160.099 235.826 155.306 243.731 154.435 244.565C153.92 245.041 152.732 247.146 153.247 249.569L152.771 250.443L142.275 266.172C141.364 267.443 141.206 268.873 141.879 270.263C142.75 272.09 144.889 273.48 147.147 273.639C148.335 273.718 149.444 273.361 150.316 272.765C154.593 273.48 184.023 278.405 206.204 282.099C206.204 282.059 206.204 282.059 206.204 282.02C207.115 282.139 208.026 282.337 208.977 282.496C208.977 282.536 208.977 282.536 208.977 282.576H209.056C210.482 282.814 211.948 283.013 213.255 283.251C213.255 283.211 213.255 283.171 213.255 283.132C214.522 283.33 215.671 283.529 216.819 283.727C216.305 290.162 214.641 295.842 212.225 300.727L213.215 300.846C228.702 302.117 239.674 299.337 247.319 294.213C247.992 295.484 248.705 296.636 249.418 297.828C243.595 301.72 235.951 304.262 226.484 304.858ZM207.274 249.371C209.769 256.997 212.383 262.518 213.572 267.443C212.581 261.644 210.997 256.758 209.294 250.284C215.988 253.184 222.563 254.097 228.544 254.415C228.821 254.494 229.138 254.494 229.415 254.494L229.811 255.368C227.395 261.683 222.999 268.475 217.255 272.606C217.334 272.924 217.334 273.281 217.334 273.599C215.71 273.321 213.928 273.003 212.146 272.725C212.146 272.686 212.146 272.686 212.146 272.646C210.839 272.447 209.492 272.209 208.145 272.01V272.05C207.472 271.931 206.838 271.852 206.165 271.732C206.283 271.772 206.402 271.772 206.521 271.812L206.165 271.772C185.924 268.555 161.248 264.583 156.693 263.868L161.485 256.838C167.665 260.532 176.458 265.973 176.458 265.973C182.558 269.866 187.231 264.345 188.657 262.359C189.766 260.849 193.331 256.083 193.173 252.032C193.054 248.1 190.004 245.955 187.311 244.207L174.755 235.906C175.943 234.079 177.844 230.981 180.656 226.373C186.32 232.053 192.816 238.21 192.856 238.289C196.738 242.42 200.619 245.518 204.541 247.822L207.274 249.371ZM171.586 239.481L185.647 248.815C187.746 250.324 189.846 252.945 188.618 256.441C188.42 253.223 184.34 250.562 184.34 250.562C184.34 250.562 169.249 241.665 164.654 238.766C162.04 237.137 162.278 234.833 163.664 233.562C163.466 237.296 168.972 240.196 171.586 239.481ZM190.361 255.13C190.836 252.429 189.648 249.728 186.479 247.623C183.706 245.796 173.012 238.607 173.012 238.607L174.121 237.495C178.914 240.672 185.291 244.803 188.063 246.908C193.014 250.681 190.361 255.209 190.361 255.13ZM163.704 240.076C168.377 243.055 178.161 248.973 180.973 250.562C184.063 252.27 184.657 253.064 184.657 253.064C188.142 256.441 187.469 259.777 185.766 262.081C183.785 264.702 180.062 266.41 176.973 264.305L172.774 261.683L171.269 260.77L158.119 252.667L158.039 252.588C158.039 252.588 155.861 251.595 155.227 249.569C154.91 248.179 155.306 246.59 156.534 244.882C159.307 240.99 160.654 238.766 161.248 237.693C161.882 239.004 163.704 240.076 163.704 240.076ZM159.703 255.885C157.604 258.983 150.038 270.223 150.038 270.223C149.365 271.335 148.256 271.494 147.464 271.494C145.959 271.375 144.374 270.382 143.78 269.19C143.463 268.475 143.503 267.76 144.057 267.006L154.039 251.674C154.633 252.826 159.703 255.885 159.703 255.885ZM171.546 237.296C170.477 238.17 168.338 237.296 167.031 235.985C166.714 235.707 165.209 234.158 166.12 233.086L166.199 233.006L166.278 232.927C166.397 232.728 168.061 229.948 174.358 219.701C176.26 222.322 179.27 225.102 179.27 225.102L171.546 237.296ZM338.222 315.225C338.103 316.615 337.509 317.727 336.518 318.243C336.518 318.243 334.221 319.316 331.924 318.124C331.924 318.124 332.003 318.323 329.508 319.196C314.06 323.129 297.543 323.407 283.601 319.713C271.005 316.337 256.033 309.028 247.754 290.599C247.754 290.599 246.685 288.613 246.447 287.62C246.447 287.62 250.725 287.739 253.458 287.501C266.331 315.145 299.563 320.309 328.002 313C328.002 313 330.617 312.524 331.369 311.729C331.963 310.419 331.884 306.844 331.884 306.844C331.884 306.05 331.211 289.01 328.082 277.65C327.765 276.379 327.408 275.665 327.091 275.426C327.091 275.426 326.22 275.029 325.666 275.029C324.081 275.029 322.101 275.426 322.101 275.426C304.554 279.557 277.382 283.052 255.953 285.237C255.874 285.237 254.25 285.515 251.359 285.634L249.061 285.713C244.982 285.713 239.278 285.515 231.99 284.323C231.99 284.323 152.058 271.295 152.375 271.295L156.653 265.417L233.614 278.048C245.378 279.756 250.804 278.921 250.963 278.921C271.639 277.73 310.02 272.09 319.249 269.588C319.249 269.588 324.24 268.396 324.913 267.76C325.309 267.284 324.24 263.55 324.24 263.55C324.24 263.431 320.477 251.118 318.575 246.352V246.471C318.496 246.273 317.704 243.651 316.872 243.254H316.199C316.199 243.254 315.129 243.452 313.783 243.77C295.721 247.067 262.687 251.674 243.318 252.866C245.021 252.747 235.515 253.184 228.069 252.667C217.493 252.071 205.808 249.45 194.163 236.78C194.044 236.661 181.171 224.348 175.982 218.668C174.675 216.841 175.309 214.775 176.695 213.743C177.686 212.948 179.587 212.631 180.617 213.862C182.914 216.96 195.906 230.385 202.362 236.462C209.452 242.062 214.562 244.962 224.543 246.074C229.93 246.749 236.307 246.67 236.624 246.67C249.774 246.987 297.583 241.149 311.644 238.368C313.426 238.09 314.456 237.693 314.456 237.693V237.415L314.535 236.819C314.535 236.621 315.407 235.946 316.04 235.628C317.348 235.032 319.051 235.032 320.516 236.224C330.577 254.772 340.519 289.209 338.222 315.225ZM254.884 287.302C255.993 287.183 256.666 287.024 256.666 287.024C257.855 286.945 259.043 286.826 260.231 286.706C259.32 288.295 258.211 289.804 257.023 291.195C256.508 290.4 256.033 289.566 255.597 288.692L254.884 287.302ZM307.723 280.431C309.03 280.153 314.416 279.001 314.416 279.001C320.12 287.62 329.31 293.816 329.31 293.896C329.587 296.001 329.785 301.522 329.785 301.522C315.367 294.412 307.723 280.431 307.723 280.431ZM231.039 254.574C235.119 255.05 238.248 254.574 238.327 254.653L248.824 277.293C248.824 277.293 246.13 277.77 241.615 277.412C239.436 273.401 237.06 267.84 231.039 254.574ZM261.776 252.707C263.202 252.588 264.667 252.429 266.054 252.191C266.252 253.501 266.371 254.812 266.45 256.083C266.529 256.401 266.529 256.758 266.529 257.076L297.781 262.478C298.375 264.186 300.593 269.27 300.593 269.27L266.569 263.431C266.569 263.749 266.569 264.146 266.569 264.504C266.291 268.436 265.776 272.209 264.786 275.784C263.281 275.903 261.776 276.101 260.271 276.26C262.568 268.833 262.766 260.611 261.776 252.707ZM309.703 269.508C308.634 269.985 303.405 270.779 303.405 270.779C302.138 268.396 294.216 248.934 294.216 248.934C295.127 248.815 300.474 247.941 300.474 247.941C304.514 259.181 309.703 269.508 309.703 269.508ZM308.871 263.511C316.833 263.63 322.616 263.59 322.616 263.59C323.606 267.165 320.318 267.284 320.239 267.284L311.248 269.071L308.871 263.511ZM354.382 313.437C350.976 314.351 340.083 317.25 340.083 317.25C340.677 314.629 340.559 310.419 340.559 310.419C361.631 305.891 341.628 303.984 341.628 303.984C346.302 305.414 346.143 307.082 346.143 307.082C344.123 307.201 340.559 306.169 340.559 306.169C340.638 304.858 340.281 299.456 340.281 299.456C345.747 301.839 346.658 301.164 352.283 302.435C358.066 303.746 355.254 306.129 355.254 306.129C352.283 309.823 341.311 311.412 341.311 311.412C359.65 308.989 357.987 303.984 357.987 303.984C365.552 308.75 358.105 312.246 354.382 313.437ZM362.898 306.367C362.898 304.977 360.68 302.276 356.838 301.482C356.838 301.482 356.917 299.973 356.759 298.185C355.768 288.494 352.283 270.779 352.283 270.779C357.749 268.992 357.194 257.95 348.005 257.99C345.787 247.98 342.539 239.957 342.539 239.957C347.609 237.177 345.232 232.57 342.539 231.656C342.539 231.656 347.53 230.584 349.827 239.282C358.264 262.915 364.76 295.246 362.898 306.367Z" fill="white"/>
<path d="M179.072 288.812C177.686 291.512 174.596 289.804 174.794 288.136C174.874 287.739 175.072 287.938 175.111 288.216C175.903 289.487 178.082 289.526 178.716 288.613C179.072 288.136 179.072 288.812 179.072 288.812ZM180.577 288.097C180.498 290.082 178.953 291.711 176.973 291.711C174.992 291.711 173.368 290.082 173.368 288.097C173.368 286.111 174.953 284.482 176.973 284.482C178.953 284.442 180.577 286.111 180.577 288.097ZM179.825 288.097C179.825 286.468 178.518 285.197 176.933 285.197C175.349 285.197 174.042 286.468 174.042 288.097C174.042 289.685 175.349 290.996 176.933 290.996C178.478 290.956 179.825 289.725 179.825 288.097ZM174.755 282.893C173.963 283.688 174.636 284.204 175.23 283.807C176.537 282.893 178.914 283.33 179.825 284.403C180.34 285.197 181.013 284.522 180.34 283.529C179.072 281.622 176.26 281.543 174.755 282.893ZM177.567 281.027C181.647 281.225 182.954 285.435 181.37 288.812C184.974 285.118 181.964 279.597 177.686 279.597C171.626 279.676 171.19 286.031 172.616 287.382C171.943 285.118 173.289 280.828 177.567 281.027ZM120.847 297.748C119.579 297.431 118.351 296.159 118.153 294.928C118.074 294.213 117.48 295.008 117.48 295.008C116.767 296.12 118.589 298.622 120.649 298.423C121.243 298.344 121.164 297.907 120.847 297.748ZM121.56 294.253C123.065 295.881 123.342 298.145 122.154 299.258C120.886 300.449 118.668 300.052 117.163 298.384C115.658 296.755 115.381 294.491 116.569 293.379C117.757 292.307 119.975 292.624 121.56 294.253ZM120.966 294.73C119.896 293.459 118.074 292.903 117.044 293.856C116.133 294.769 116.252 296.676 117.559 297.867C118.827 298.98 120.53 299.655 121.48 298.86C122.669 298.026 121.877 295.723 120.966 294.73ZM208.106 272.01C209.452 272.209 210.799 272.447 212.106 272.646C211.671 270.581 211.195 268.753 210.878 267.125C210.165 263.749 207.274 256.52 204.62 247.782C200.699 245.478 196.817 242.38 192.935 238.249C192.856 238.17 186.36 231.974 180.736 226.334C177.924 230.941 176.022 234.039 174.834 235.866L187.39 244.167C190.084 245.955 193.094 248.06 193.252 251.992C193.371 256.083 189.846 260.81 188.737 262.319C187.311 264.305 182.637 269.826 176.537 265.933C176.537 265.933 167.744 260.452 161.565 256.798L156.772 263.828C161.288 264.543 186.004 268.515 206.244 271.732L206.601 271.772C206.482 271.732 206.363 271.732 206.244 271.693C205.135 263.868 202.56 256.639 201.055 250.443C203.63 256.321 206.521 263.828 208.106 272.01ZM120.886 291.036C119.896 290.718 119.619 292.029 120.411 292.148C121.203 292.267 122.59 293.538 123.025 294.452C123.421 295.325 124.332 294.571 123.501 293.061C123.184 292.505 121.797 291.354 120.886 291.036ZM255.003 170.648C242.843 173.229 230.128 176.248 219.157 180.776C215.354 182.166 212.344 184.152 209.373 186.059C210.205 187.925 211.235 190.189 212.384 192.771C215.235 189.991 218.048 188.084 220.187 186.774C220.583 186.496 221.494 185.9 221.494 185.9C228.703 182.007 233.178 179.823 244.625 178.393C244.546 178.393 247.438 177.996 247.438 177.996C249.418 177.678 253.141 176.884 254.211 174.977C254.884 173.825 255.082 172.395 255.003 170.648ZM197.53 198.928C197.609 198.928 191.945 208.023 186.043 217.516C190.202 221.965 196.302 228.2 200.936 232.649C199.907 225.976 199.669 219.105 201.095 212.75C202.006 208.42 203.59 204.647 205.492 201.43L205.531 201.509C205.531 201.509 205.531 201.47 205.571 201.47L201.649 192.692C200.699 194.002 199.114 196.505 197.53 198.928ZM213.374 283.171C213.493 287.501 213.097 292.068 211.473 296.557C210.601 299.059 209.571 301.244 207.868 303.666C207.868 303.666 207.67 303.944 207.749 303.944C204.066 309.465 199.154 313.636 193.45 316.654C171.19 328.292 136.888 321.977 116.094 307.36C115.579 306.963 114.985 306.566 114.47 306.169C114.074 305.891 113.717 305.613 113.321 305.335C113.163 305.215 113.004 305.096 112.846 305.017C108.607 302.038 105.003 300.33 101.517 299.496C101.438 299.496 101.399 299.456 101.319 299.456C101.201 299.416 101.042 299.416 100.923 299.377C98.0714 298.781 95.2988 298.781 92.3281 299.258C89.9119 299.655 87.3373 300.33 84.5251 301.164C82.5842 301.76 80.9999 302.078 79.6135 302.197C72.2462 302.832 72.5631 297.669 72.5631 297.669C62.1063 282.655 52.4812 266.728 44.2029 236.541C33.2708 193.248 41.6283 157.024 60.6803 130.055C60.7596 129.976 60.7992 129.856 60.8784 129.777C60.9972 129.578 61.1557 129.459 61.2745 129.261C73.5929 112.142 90.1892 98.7963 108.885 89.7404C114.311 87.1586 119.936 84.8946 125.679 83.0676C143.939 79.9695 160.892 81.0419 176.181 84.8946C176.3 84.8946 176.379 84.9741 176.498 84.9741C176.696 85.0535 176.814 85.0932 177.013 85.0932C192.183 89.0254 205.65 95.8173 217.018 104.079C230.841 114.088 241.615 126.242 248.705 138.277C248.586 138.356 248.507 138.436 248.388 138.515C248.269 138.595 248.19 138.674 248.071 138.793C247.913 138.952 247.755 139.111 247.596 139.31C247.517 139.429 247.398 139.508 247.319 139.627C247.002 140.104 246.844 140.62 246.725 141.137C246.527 142.249 246.606 143.44 246.844 144.513C247.121 145.704 247.517 146.737 247.755 147.412C247.873 147.69 247.953 147.889 248.032 147.929C248.032 147.929 251.517 157.858 252.547 161.036H252.587C252.587 161.036 252.587 161.036 252.587 161.076C237.1 164.253 221.85 168.384 213.295 171.958C213.295 171.958 206.878 174.342 202.323 178.035C202.125 178.155 202.046 178.234 202.046 178.353C200.778 178.671 199.55 179.624 198.679 180.736C198.005 181.253 196.579 182.444 195.906 183.159C194.124 185.264 192.539 187.091 190.519 189.872C188.816 192.453 182.518 202.463 176.854 211.598C176.379 211.797 175.943 212.075 175.468 212.392C173.963 213.504 172.972 215.57 173.368 217.675C168.853 225.102 166.16 229.392 165.011 231.179C162.516 231.378 161.248 233.364 161.129 233.602C160.02 235.787 155.227 243.691 154.356 244.525C153.841 245.002 152.653 247.107 153.168 249.53L152.692 250.403L142.196 266.132C141.285 267.403 141.127 268.833 141.8 270.223C142.671 272.05 144.81 273.44 147.068 273.599C148.256 273.679 149.365 273.321 150.237 272.725C154.515 273.44 183.944 278.365 206.125 282.059C203.392 305.771 178.32 317.091 156.218 315.066C144.058 314.549 129.798 309.465 119.579 304.183C114.588 301.283 102.706 295.047 97.913 294.769C103.379 295.961 114.786 302.395 118.866 305.096C127.659 309.902 142.434 316.615 156.218 317.131C189.331 319.236 207.868 301.164 208.898 282.496H208.977C210.601 282.735 212.027 282.933 213.374 283.171ZM170.952 284.998C170.952 286.984 171.824 288.772 173.131 289.924C173.804 291.433 175.309 292.505 177.013 292.505C178.28 292.505 179.31 291.989 180.102 291.115C182.479 290.122 184.103 287.819 184.103 285.038C184.103 281.344 181.132 278.445 177.527 278.405C173.883 278.405 170.952 281.344 170.952 284.998ZM126.036 290.321C123.857 287.302 120.055 286.19 117.559 287.938C115.935 289.129 115.183 291.433 115.539 293.737C114.826 295.167 115.262 297.311 116.807 298.94C118.431 300.648 120.728 301.164 122.193 300.251C123.501 300.37 124.808 300.052 125.758 299.258C128.056 297.311 128.174 293.419 126.036 290.321ZM122.946 263.312C125.917 266.489 129.957 268.237 133.997 268.317C135.423 268.317 136.888 268.118 138.196 267.641L147.068 254.455C146.989 250.522 145.444 246.471 142.394 243.333C139.423 240.156 135.383 238.329 131.343 238.329C127.778 238.329 124.53 239.639 122.075 242.142C116.688 247.702 117.084 257.195 122.946 263.312ZM112.766 277.214C125.164 293.22 147.108 293.3 158.159 281.543C153.485 283.847 133.839 296.755 112.766 277.214ZM116.569 291.91C119.975 286.627 128.531 293.3 124.134 299.019C130.749 294.134 119.46 283.251 116.569 291.91Z" fill="#FF3C00"/>
<path d="M176.932 285.197C175.348 285.197 174.041 286.468 174.041 288.097C174.041 289.685 175.348 290.996 176.932 290.996C178.516 290.996 179.824 289.725 179.824 288.097C179.824 286.428 178.477 285.197 176.932 285.197ZM179.071 288.812C177.685 291.512 174.595 289.804 174.793 288.136C174.872 287.739 175.07 287.938 175.11 288.216C175.902 289.487 178.081 289.526 178.715 288.613C179.071 288.136 179.071 288.812 179.071 288.812ZM272.866 152.814C271.44 151.384 270.687 149.835 270.568 147.531C272.786 148.008 274.252 150.828 272.866 152.814ZM213.293 300.807L212.303 300.687C214.719 295.802 216.383 290.162 216.898 283.688C215.789 283.489 214.6 283.291 213.333 283.092C213.452 287.421 213.056 292.029 211.432 296.596C210.56 299.099 209.53 301.283 207.827 303.706C207.827 303.706 207.629 303.984 207.708 303.984C204.025 309.505 199.113 313.676 193.41 316.694C171.149 328.332 136.848 322.017 116.053 307.4C115.538 307.003 114.944 306.606 114.429 306.208C105.636 299.694 99.5357 298.185 92.2872 299.297C89.8711 299.694 87.2965 300.37 84.4842 301.204C72.0073 305.017 72.4827 297.709 72.4827 297.709C61.9862 282.774 52.3216 266.767 44.1225 236.581C33.2696 193.248 41.5479 157.024 60.5999 130.015C60.6791 129.936 60.7187 129.817 60.7979 129.737C60.9168 129.539 61.0752 129.419 61.194 129.221C77.0377 107.097 100.09 91.2893 125.678 83.0675C143.938 79.9694 160.89 81.0418 176.18 84.8946C176.298 84.8946 176.378 84.974 176.496 84.974C176.694 85.0535 176.813 85.0932 177.011 85.0932C192.182 89.0253 205.649 95.8173 217.017 104.079C230.88 114.088 241.654 126.282 248.744 138.317C248.625 138.396 248.466 138.515 248.268 138.634C247.991 138.833 247.793 139.031 247.595 139.309C247.516 139.429 247.397 139.508 247.318 139.627C247.001 140.104 246.842 140.62 246.723 141.137C246.525 142.249 246.605 143.44 246.842 144.513C247.12 145.704 247.516 146.737 247.753 147.412C247.872 147.69 247.951 147.889 248.031 147.929C248.031 147.929 251.516 157.858 252.546 161.036C253.259 160.917 253.932 160.758 254.645 160.639L249.536 146.419C247.516 141.613 249.813 139.826 249.813 139.826C249.219 141.613 249.734 143.718 250.09 144.751C250.764 146.856 252.982 153.052 254.883 157.779C255.2 158.692 255.556 159.606 255.873 160.48C256.388 160.361 256.982 160.281 257.497 160.162C255.913 155.356 253.734 149.756 253.021 147.929C252.427 146.34 252.15 145.744 251.437 143.242C250.447 139.826 251.754 139.746 253.219 139.627C254.091 139.548 256.507 139.627 257.141 139.627C258.646 138.833 261.815 137.244 263.716 136.251C240.941 97.6046 195.232 71.7476 135.224 80.4858C182.557 68.9673 236.306 82.5909 268.627 128.824C270.331 131.723 271.796 133.312 274.41 138.436C274.093 138.436 273.618 138.436 273.222 138.436C271.44 135.854 269.618 135.06 267.36 135.02C267.241 135.02 262.963 135.02 263.478 139.429C263.597 140.819 264.191 142.408 264.548 143.202H264.627L267.835 149.994L268.707 151.781L271.796 158.057C271.796 158.057 274.093 162.664 274.212 165.087L282.57 165.286C282.57 165.286 282.689 162.704 280.946 158.176C279.639 154.879 275.836 142.884 274.529 140.541C274.529 140.461 274.45 140.461 274.45 140.422C274.846 140.422 276.47 140.422 277.421 140.7C279.045 144.83 281.421 152.02 283.283 157.699C283.283 157.699 285.382 157.819 285.382 157.779C286.095 157.858 288.947 158.097 289.977 158.295L281.54 139.031L279.639 139.826C279.322 139.151 278.728 138.753 277.856 138.634C277.579 138.555 277.341 138.555 277.064 138.515C207.51 13.9963 -6.49806 82.9881 45.0335 247.702C48.6379 259.3 53.1138 269.389 57.3916 277.531C56.9955 279.041 56.4805 281.821 57.3123 285.515C58.6987 290.797 59.8869 294.015 64.1251 303.349C62.4219 309.664 68.3237 318.958 82.6622 316.178C99.6546 313.556 108.606 307.36 110.626 305.771C111.22 306.169 111.815 306.645 112.33 307.042C142.551 330.675 191.944 332.542 210.125 304.62C217.413 306.129 226.483 304.898 226.483 304.898C235.95 304.302 243.555 301.72 249.457 297.788C248.744 296.596 248.031 295.405 247.357 294.174C239.752 299.258 228.781 302.038 213.293 300.807ZM275.638 150.907C276.351 154.204 274.014 155.991 271.638 153.291C270.647 152.178 270.212 151.106 269.736 149.716L269.657 149.517C269.261 147.809 269.459 146.34 269.459 146.34C268.746 145.665 268.192 145.069 267.875 144.552C267.756 144.433 267.598 144.274 267.558 144.155C266.964 143.281 266.568 142.447 266.449 141.852C266.37 141.653 266.37 141.454 266.33 141.375C266.33 141.295 266.33 141.256 266.33 141.256C266.251 140.66 266.211 140.183 266.211 139.746C266.211 138.873 266.409 138.356 266.607 138.038C266.687 137.919 266.726 137.84 266.805 137.76C266.805 137.76 266.885 137.76 266.885 137.681C266.964 137.602 266.964 137.602 267.003 137.562C267.598 137.165 268.39 137.363 268.39 137.363C270.489 137.641 272.866 140.66 272.866 144.87V145.386C274.054 146.737 274.965 147.929 275.638 150.907ZM107.814 305.652C102.744 309.267 91.0198 313.676 80.4837 314.669C69.8288 316.376 63.8875 308.87 65.9868 303.19C65.9868 303.19 65.9868 303.19 65.3926 301.76C64.7985 300.37 57.9857 286.428 58.7779 280.351C64.442 290.678 69.3535 297.351 70.8587 298.86C70.9379 299.138 70.9775 299.337 71.0567 299.575C70.9379 301.085 71.2548 305.573 79.9688 303.905C77.3546 309.028 67.4127 306.208 69.3139 299.416C67.888 297.629 64.4024 291.91 64.4024 291.91C64.2836 291.989 64.6004 293.618 64.5212 293.498C65.7095 295.921 67.7296 300.211 67.7296 300.211C66.1452 310.141 80.4837 310.935 81.4739 303.627H81.5532C82.2661 303.508 82.2661 303.627 82.8207 303.349C82.2265 306.328 80.8006 307.956 79.0578 308.83C75.9683 310.419 75.1365 313.119 79.7707 312.762C84.4842 312.444 92.921 311.134 102.744 306.248L104.843 305.136C100.645 302.515 96.2482 302.038 93.2379 301.839C90.8613 301.641 87.1381 302.316 84.3654 302.912C84.5635 302.832 84.6823 302.793 84.8803 302.713C96.367 298.781 103.338 301.124 109.002 304.739C108.685 305.057 108.289 305.335 107.814 305.652ZM269.974 145.108C268.707 144.314 266.885 141.693 267.201 139.508C270.053 139.508 270.845 143.639 269.974 145.108ZM188.062 246.908C192.974 250.681 190.36 255.209 190.36 255.13C190.835 252.429 189.647 249.728 186.478 247.623C183.705 245.796 173.011 238.607 173.011 238.607L174.12 237.495C178.952 240.672 185.329 244.803 188.062 246.908ZM226.958 244.167C214.561 217.039 200.103 185.225 200.103 185.105C199.509 184.033 199.509 183 200.103 181.928C200.896 180.617 202.52 179.823 203.589 179.823C204.381 179.823 205.015 180.101 205.094 180.141L234.128 244.604C234.128 244.604 230.127 244.803 226.958 244.167ZM321.981 234.675C320.872 233.761 319.684 233.602 319.406 233.602C322.615 233.801 332.081 232.887 332.081 232.887C330.338 233.602 321.981 234.675 321.981 234.675ZM296.433 233.483C306.811 234.913 314.574 234.079 314.574 234.079C312.792 234.357 312.673 235.985 312.673 235.985C308.395 237.058 298.493 238.17 298.493 238.17L296.433 233.483ZM292.829 158.533C293.542 158.653 294.255 158.653 297.146 159.526C300.909 160.639 301.543 169.059 294.373 168.344C293.185 168.225 292.076 168.066 291.165 167.947C289.897 167.748 288.392 167.47 286.65 167.351L286.253 167.272C288.075 174.381 287.561 183.993 277.975 186.098C282.887 183.914 278.569 182.405 278.371 182.325C268.073 179.942 250.843 183.119 248.942 181.848C259.993 180.776 260.824 175.255 259.913 169.536C259.319 169.655 258.804 169.814 258.21 169.853C259.28 175.851 256.784 178.075 253.497 179.346C248.427 181.054 244.822 181.134 244.624 181.134L241.337 181.014C242.763 180.538 245.614 180.419 249.021 179.704C254.328 178.592 257.418 176.288 257.022 170.171C256.349 170.29 255.636 170.449 255.002 170.568C255.081 172.356 254.883 173.786 254.21 174.898C253.14 176.804 249.417 177.599 247.436 177.916C247.436 177.916 244.545 178.313 244.624 178.313C233.177 179.743 228.741 181.928 221.492 185.82C221.492 185.82 220.581 186.416 220.185 186.694C218.007 188.005 215.115 189.991 212.224 192.811C212.541 193.526 212.897 194.241 213.214 195.035C214.521 193.724 215.987 192.453 217.532 191.222C217.532 191.222 220.74 188.402 224.82 186.615C219.037 190.388 215.432 194.002 213.65 195.949C218.244 206.156 224.424 219.78 230.444 233.205C229.058 222.799 248.981 214.895 256.19 232.133C257.576 235.429 258.804 239.123 259.795 242.936C261.22 242.817 262.686 242.658 264.191 242.46C263.716 240.553 263.201 238.567 262.567 236.661C261.498 232.252 260.745 226.056 260.745 219.542C260.745 219.224 260.745 218.866 260.745 218.549C263.755 222.044 274.529 233.761 287.402 237.534L284.194 229.63C284.194 229.63 271.202 224.109 261.617 209.215C261.735 208.5 261.894 207.904 261.933 207.586C263.042 202.105 264.944 196.981 268.112 193.049C268.31 192.771 268.509 192.573 268.707 192.334C268.905 192.056 269.221 191.619 269.776 191.063L290.214 239.123C290.214 239.123 293.621 238.845 296.71 238.329C296.71 238.329 280.55 199.921 275.638 188.203C275.955 188.124 276.312 188.124 276.708 188.084C276.826 188.084 277.025 188.005 277.183 188.005C277.5 188.005 277.777 187.925 277.896 187.925C282.768 187.052 285.303 184.827 287.204 181.491C288.788 178.592 289.026 174.699 288.788 171.601C289.066 171.283 289.303 170.926 289.66 170.687C290.056 170.29 290.571 169.973 291.284 169.575C296.75 172.395 306.573 168.503 300.592 159.09L287.838 136.053L282.926 138.356L291.838 158.295L292.829 158.533ZM258.289 224.983C252.625 218.708 255.398 193.645 265.379 192.374C258.408 197.537 256.19 215.451 258.289 224.983ZM323.446 236.462C327.764 235.747 333.309 234.635 337.112 233.483C338.3 233.165 340.518 232.808 340.597 232.768C342.3 233.086 343.013 234.079 343.211 235.469C343.291 235.985 343.013 237.971 340.835 238.368L340.043 238.567C338.062 239.242 334.181 240.156 330.259 240.871C327.843 241.347 325.585 241.784 325.783 241.665C325.269 240.513 324.952 239.361 323.446 236.462ZM206.679 203.972C201.411 213.782 201.49 224.705 203.51 235.072C203.312 234.953 203.193 234.794 202.995 234.675C202.322 234.079 201.688 233.404 200.975 232.768C199.905 226.056 199.668 219.145 201.094 212.75C202.005 208.42 203.589 204.647 205.49 201.43L206.679 203.972ZM333.23 262.915C333.23 262.915 342.538 261.127 345.628 260.412C345.628 260.412 352.203 258.188 353.629 263.233C353.629 263.233 355.015 267.522 351.331 269.111C351.331 269.111 348.559 270.541 335.963 272.805C335.963 272.805 334.894 268.873 334.458 266.807C334.458 266.807 345.152 264.583 349.311 262.994C349.311 262.994 349.192 261.564 347.133 261.604C347.133 261.604 336.28 264.305 333.784 264.583L333.23 262.915ZM271.479 170.767C271.479 170.767 273.658 169.337 273.777 167.748C273.777 167.748 278.767 167.748 281.342 167.828C281.342 167.828 279.48 171.363 271.479 170.767ZM284.115 165.127C284.115 162.625 282.609 159.05 282.53 159.01C285.818 159.328 294.294 160.321 296.077 160.917H296.156H296.235C297.542 161.115 298.255 162.744 298.136 164.094C298.057 164.809 297.661 166.477 295.166 166.477C292.908 165.961 287.046 165.405 284.115 165.127ZM262.29 138.992C262.211 139.707 262.29 140.104 263.082 142.288C264.35 145.704 270.885 159.487 271.677 161.433C275.48 171.363 265.617 173.229 264.587 168.821C275.044 167.947 270.845 156.984 264.864 158.533C262.567 152.854 260.785 147.253 260.785 147.253C260.785 147.253 258.408 141.176 259.993 139.349L262.171 138.237L262.369 138.158C262.29 138.396 262.29 138.992 262.29 138.992ZM213.769 173.746C224.344 169.337 246.288 163.657 265.181 160.559C267.201 160.281 268.944 161.671 269.103 163.141C269.301 164.452 268.627 165.961 266.132 166.358L264.944 166.557C249.773 169.575 232.623 172.991 218.244 178.87C213.729 180.498 211.352 181.888 208.778 183.795C208.778 183.795 207.392 180.697 206.877 179.863C206.084 178.472 205.966 178.353 205.292 178.035C207.471 176.566 210.164 175.255 213.769 173.746ZM197.925 183.119C197.925 183.119 197.806 184.708 198.638 186.416C199.311 187.727 200.658 191.143 200.658 191.143C200.935 190.944 197.648 195.035 195.786 197.935L184.735 216.126L181.764 212.829C181.764 212.829 180.457 211.24 179.19 211.32C184.973 201.907 190.28 193.526 192.063 190.825C194.043 187.727 198.519 182.365 197.925 183.119ZM206.203 237.097C204.223 226.771 203.629 216.205 207.59 206.196L224.78 244.128C216.858 243.294 211.709 240.99 206.203 237.097ZM258.369 140.144C257.458 142.964 259.161 147.372 259.161 147.372L263.241 158.851L261.062 159.248C261.062 159.248 258.369 151.861 256.745 146.816C255.477 143.003 256.428 141.097 256.428 141.097L258.369 140.144ZM207.273 249.371C209.768 256.997 212.382 262.518 213.571 267.443C212.58 261.644 210.996 256.758 209.293 250.284C215.987 253.184 222.562 254.097 228.543 254.415C228.82 254.494 229.137 254.494 229.414 254.494L229.81 255.368C227.394 261.683 222.998 268.475 217.254 272.606C217.333 272.924 217.333 273.281 217.333 273.599C215.709 273.321 213.927 273.003 212.145 272.725C211.669 270.62 211.234 268.793 210.877 267.125C210.164 263.749 207.273 256.52 204.619 247.782L207.273 249.371ZM241.614 277.412C239.435 273.401 237.098 267.88 231.038 254.574C235.118 255.05 238.247 254.574 238.326 254.653L248.823 277.293C248.823 277.293 246.129 277.73 241.614 277.412ZM329.824 301.522C315.366 294.412 307.761 280.431 307.761 280.431C309.068 280.153 314.455 279.001 314.455 279.001C320.159 287.62 329.348 293.816 329.348 293.896C329.626 295.961 329.824 301.522 329.824 301.522ZM200.935 250.483C203.629 256.361 206.52 263.828 208.105 272.05C207.431 271.931 206.797 271.852 206.124 271.732C205.015 263.908 202.44 256.679 200.935 250.483ZM188.617 256.48C188.419 253.263 184.339 250.602 184.339 250.602C184.339 250.602 169.248 241.705 164.653 238.805C162.039 237.177 162.277 234.873 163.663 233.602C163.465 237.296 168.971 240.196 171.624 239.481L185.686 248.815C187.745 250.324 189.845 252.985 188.617 256.48ZM179.229 225.102L171.545 237.296C170.476 238.17 168.337 237.296 167.03 235.985C166.713 235.707 165.208 234.158 166.119 233.086L166.198 233.006L166.277 232.927C166.396 232.728 168.06 229.948 174.357 219.701C176.18 222.362 179.229 225.102 179.229 225.102ZM338.221 315.225C338.102 316.615 337.508 317.727 336.518 318.243C336.518 318.243 334.22 319.316 331.923 318.124C331.923 318.124 332.002 318.323 329.507 319.196C314.059 323.129 297.542 323.407 283.6 319.713C271.004 316.337 256.032 309.028 247.753 290.599C247.753 290.599 246.684 288.613 246.446 287.62C246.446 287.62 250.724 287.739 253.457 287.501C266.33 315.145 299.562 320.309 328.002 313C328.002 313 330.616 312.524 331.368 311.729C331.962 310.419 331.883 306.844 331.883 306.844C331.883 306.05 331.21 289.01 328.081 277.65C327.764 276.379 327.407 275.665 327.091 275.426C327.091 275.426 326.219 275.029 325.665 275.029C324.08 275.029 322.1 275.426 322.1 275.426C304.553 279.557 277.381 283.052 255.952 285.237C255.873 285.237 254.249 285.515 251.358 285.634L249.06 285.713C244.981 285.713 239.277 285.515 231.989 284.323C231.989 284.323 152.058 271.295 152.374 271.295L156.652 265.417L233.613 278.048C245.377 279.756 250.803 278.921 250.962 278.921C271.638 277.73 310.019 272.09 319.248 269.588C319.248 269.588 324.239 268.396 324.912 267.76C325.308 267.284 324.239 263.55 324.239 263.55C324.239 263.431 320.476 251.118 318.575 246.352V246.471C318.495 246.273 317.703 243.651 316.871 243.254H316.198C316.198 243.254 315.129 243.452 313.782 243.77C295.72 247.067 262.686 251.674 243.317 252.866C245.02 252.747 235.514 253.184 228.068 252.667C217.492 252.071 205.807 249.45 194.162 236.78C194.043 236.661 181.17 224.348 175.981 218.668C174.674 216.841 175.308 214.775 176.694 213.743C177.685 212.948 179.586 212.631 180.616 213.862C182.913 216.96 195.905 230.385 202.361 236.462C209.451 242.062 214.561 244.962 224.542 246.074C229.929 246.749 236.306 246.67 236.623 246.67C249.773 246.987 297.582 241.149 311.643 238.368C313.425 238.09 314.455 237.693 314.455 237.693V237.415L314.534 236.819C314.534 236.621 315.406 235.946 316.04 235.628C317.347 235.032 319.05 235.032 320.515 236.224C330.576 254.772 340.518 289.209 338.221 315.225ZM256.982 291.155C256.467 290.361 255.992 289.526 255.556 288.653L254.883 287.262C255.992 287.143 256.665 286.984 256.665 286.984C257.854 286.905 259.042 286.786 260.23 286.667C259.28 288.255 258.171 289.804 256.982 291.155ZM354.381 313.437C350.975 314.351 340.082 317.25 340.082 317.25C340.676 314.629 340.558 310.419 340.558 310.419C361.63 305.891 341.627 303.984 341.627 303.984C346.301 305.414 346.143 307.082 346.143 307.082C344.122 307.201 340.558 306.169 340.558 306.169C340.637 304.858 340.28 299.456 340.28 299.456C345.746 301.839 346.657 301.164 352.282 302.435C358.065 303.746 355.253 306.129 355.253 306.129C352.282 309.823 341.31 311.412 341.31 311.412C359.649 308.989 357.986 303.984 357.986 303.984C365.551 308.75 358.105 312.246 354.381 313.437ZM362.897 306.367C362.897 304.977 360.679 302.276 356.837 301.482C356.837 301.482 356.916 299.973 356.758 298.185C355.768 288.494 352.282 270.779 352.282 270.779C357.748 268.992 357.193 257.95 348.004 257.99C345.786 247.98 342.538 239.957 342.538 239.957C347.608 237.177 345.232 232.57 342.538 231.656C342.538 231.656 347.529 230.584 349.826 239.282C358.263 262.915 364.759 295.246 362.897 306.367ZM311.207 269.031L308.831 263.511C316.792 263.63 322.575 263.59 322.575 263.59C323.565 267.165 320.278 267.284 320.199 267.284L311.207 269.031ZM260.27 276.221C262.567 268.833 262.765 260.611 261.775 252.707C263.201 252.588 264.666 252.429 266.053 252.191C266.251 253.501 266.37 254.812 266.449 256.083C266.528 256.401 266.528 256.758 266.528 257.076L297.78 262.478C298.374 264.186 300.592 269.27 300.592 269.27L266.568 263.431C266.568 263.749 266.568 264.146 266.568 264.504C266.29 268.436 265.776 272.209 264.785 275.784C263.28 275.903 261.775 276.101 260.27 276.221ZM300.434 247.901C304.513 259.181 309.702 269.508 309.702 269.508C308.633 269.985 303.404 270.779 303.404 270.779C302.137 268.396 294.215 248.934 294.215 248.934C295.126 248.775 300.434 247.901 300.434 247.901ZM177.843 253.223C181.923 253.104 185.21 257.235 183.111 260.254L182.398 260.373C178.794 260.889 176.734 259.459 176.14 256.242C176.734 255.885 177.645 254.772 177.843 253.223ZM122.945 263.312C117.083 257.195 116.687 247.702 122.073 242.181C124.49 239.679 127.777 238.368 131.342 238.368C135.342 238.368 139.422 240.196 142.393 243.373C145.403 246.551 146.988 250.562 147.067 254.494L138.155 267.641C136.848 268.118 135.382 268.317 133.956 268.317C129.956 268.237 125.876 266.489 122.945 263.312ZM158.118 281.543C147.067 293.26 125.163 293.181 112.726 277.214C133.837 296.755 153.483 283.847 158.118 281.543ZM116.766 298.94C118.39 300.648 120.687 301.164 122.153 300.251C123.46 300.37 124.767 300.052 125.717 299.258C128.094 297.272 128.213 293.379 126.034 290.321C123.856 287.302 120.053 286.19 117.558 287.938C115.934 289.129 115.181 291.433 115.538 293.737C114.785 295.206 115.261 297.311 116.766 298.94ZM123.064 294.452C122.588 293.538 121.242 292.267 120.449 292.148C119.657 292.029 119.934 290.718 120.925 291.036C121.836 291.354 123.222 292.466 123.539 293.061C124.371 294.61 123.46 295.325 123.064 294.452ZM124.093 299.019C128.49 293.3 119.974 286.627 116.528 291.91C119.459 283.251 130.748 294.134 124.093 299.019ZM116.568 293.419C117.756 292.307 119.974 292.625 121.558 294.293C123.064 295.921 123.341 298.185 122.153 299.297C120.885 300.489 118.667 300.092 117.162 298.423C115.657 296.755 115.379 294.531 116.568 293.419ZM206.322 281.94C207.233 282.059 208.144 282.258 209.095 282.417C208.105 301.124 189.607 319.236 156.415 317.131C142.631 316.615 127.856 309.902 119.063 305.096C114.983 302.395 103.576 295.961 98.1098 294.769C102.903 295.047 114.785 301.283 119.776 304.183C130.035 309.465 144.255 314.51 156.415 315.066C178.556 317.052 203.629 305.732 206.322 281.94ZM117.558 297.907C118.825 299.019 120.529 299.694 121.479 298.9C122.667 298.026 121.875 295.723 120.964 294.769C119.895 293.498 118.073 292.942 117.043 293.896C116.092 294.809 116.251 296.716 117.558 297.907ZM117.479 295.008C117.479 295.008 118.073 294.213 118.152 294.928C118.35 296.199 119.578 297.431 120.845 297.748C121.162 297.867 121.242 298.344 120.647 298.423C118.588 298.622 116.766 296.12 117.479 295.008ZM173.565 254.296C173.565 254.018 173.645 253.501 173.645 253.501C173.05 253.501 172.535 253.303 172.021 253.025C172.021 251.436 172.337 250.046 173.011 248.894C175.031 249.569 176.576 251.317 176.417 253.184H176.694C176.496 254.574 175.11 256.401 172.219 255.964C172.1 255.368 172.021 254.772 172.021 254.137C172.456 254.216 172.971 254.296 173.565 254.296ZM159.702 255.885C157.603 258.983 150.037 270.223 150.037 270.223C149.364 271.335 148.255 271.494 147.463 271.494C145.958 271.375 144.373 270.382 143.779 269.19C143.462 268.475 143.502 267.76 144.056 267.006L154.038 251.674C154.632 252.826 159.702 255.885 159.702 255.885ZM168.258 249.768C169.169 248.973 169.882 248.656 171.268 248.695C170.753 249.609 170.476 250.999 170.397 252.389C170.119 252.191 169.882 252.191 169.604 251.873V252.866C169.802 253.184 170.08 253.263 170.476 253.541C170.476 254.415 170.476 255.05 170.674 255.646C170.476 255.567 170.357 255.368 170.159 255.328C167.267 253.621 168.258 249.768 168.258 249.768ZM167.188 250.999C166.713 256.997 172.179 257.831 175.189 256.719C175.863 261.525 180.061 261.644 182.081 261.326C179.507 262.954 174.674 261.842 173.724 257.314C169.882 258.506 165.564 255.408 167.188 250.999ZM172.773 261.683L176.972 264.305C180.061 266.41 183.784 264.702 185.765 262.081C187.468 259.777 188.141 256.401 184.656 253.064C184.656 253.064 184.062 252.27 180.972 250.562C178.16 248.973 168.377 243.055 163.703 240.076C163.703 240.076 161.881 239.004 161.286 237.693C160.692 238.766 159.306 240.99 156.573 244.882C155.305 246.59 154.949 248.179 155.266 249.569C155.939 251.595 158.078 252.588 158.078 252.588L158.157 252.667L171.308 260.77L172.773 261.683ZM166.396 255.805C165.129 253.581 166.079 251.079 166.079 251.079C166.475 249.966 167.347 247.901 170.991 247.702C175.585 247.583 177.17 251.118 177.487 252.389C180.497 251.992 182.794 254.018 182.873 254.097C186.557 257.712 184.062 261.008 183.983 261.088C183.983 261.167 180.893 265.298 175.387 262.001C174.674 261.525 173.961 260.889 173.565 260.095C173.09 259.221 172.892 258.665 172.892 258.665C168.258 259.38 166.475 255.885 166.396 255.805ZM176.972 292.505C178.239 292.505 179.269 291.989 180.061 291.115C182.438 290.122 184.062 287.819 184.062 285.038C184.062 281.344 181.091 278.445 177.487 278.405C173.882 278.405 170.911 281.384 170.911 284.998C170.911 286.984 171.783 288.772 173.09 289.924C173.763 291.433 175.269 292.505 176.972 292.505ZM176.972 291.711C174.991 291.711 173.367 290.083 173.367 288.097C173.367 286.111 174.952 284.482 176.972 284.482C178.952 284.482 180.576 286.111 180.576 288.097C180.537 290.043 178.952 291.711 176.972 291.711ZM179.824 284.403C178.913 283.33 176.536 282.893 175.229 283.807C174.635 284.204 173.961 283.688 174.754 282.893C176.259 281.583 179.071 281.622 180.338 283.569C180.972 284.522 180.338 285.197 179.824 284.403ZM172.654 287.342C171.228 286.031 171.664 279.636 177.724 279.557C182.002 279.557 185.012 285.078 181.408 288.772C182.992 285.396 181.685 281.185 177.605 280.987C173.288 280.828 171.941 285.118 172.654 287.342Z" fill="#311D00"/>
</g>
<defs>
<clipPath id="clip0_257_11719">
<rect width="336" height="260" fill="white" transform="translate(32 70)"/>
</clipPath>
</defs>
</svg>
