<svg width="400" height="400" viewBox="0 0 400 400" fill="none" xmlns="http://www.w3.org/2000/svg">
<g clip-path="url(#clip0_257_11725)">
<path d="M354 165.762L236.321 166.194L198.337 56L161.217 166.26L46 166.227L139.531 236.931L104.606 344L200.599 277.884L293.531 342.504L258.274 235.601L354 165.762ZM274.871 306.637L281.524 326.781L264.095 314.681L200.432 270.404L134.542 315.812L117.279 327.712L123.765 307.801L147.647 234.604L83.5188 186.105L66.6553 173.374H87.7762L166.606 173.407L192.084 97.8837L198.736 78.1717L205.521 97.8504L231.498 173.341L312.157 173.042L334.043 172.942L316.381 185.839L250.79 233.673L274.871 306.637Z" fill="#0C2340"/>
<path d="M198.802 100.144L226.476 180.421L312.19 180.089L242.441 230.947L268.119 308.831L200.432 261.795L130.517 309.961L155.962 231.944L87.8094 180.454L171.728 180.487L198.802 100.144ZM198.703 78.1716L192.05 97.8835L166.639 173.407L87.8094 173.374H66.6885L83.552 186.105L147.68 234.57L123.798 307.767L117.312 327.679L134.575 315.778L200.432 270.404L264.128 314.681L281.557 326.781L274.904 306.637L250.823 233.64L316.381 185.806L334.043 172.908L312.157 172.975L231.498 173.341L205.488 97.8503L198.703 78.1716Z" fill="white"/>
<path d="M312.191 180.122L226.476 180.454L198.803 100.144L171.728 180.488L87.8096 180.454L155.962 231.978L130.517 309.961L200.432 261.795L268.153 308.864L242.442 230.981L312.191 180.122Z" fill="#0C2340"/>
</g>
<defs>
<clipPath id="clip0_257_11725">
<rect width="308" height="288" fill="white" transform="translate(46 56)"/>
</clipPath>
</defs>
</svg>
