<svg width="400" height="400" viewBox="0 0 400 400" fill="none" xmlns="http://www.w3.org/2000/svg">
<g clip-path="url(#clip0_257_11718)">
<path fill-rule="evenodd" clip-rule="evenodd" d="M387.135 243.289C376.669 235.127 383.017 224.683 382.56 221.83C361.341 209.959 341.781 192.723 320.505 182.793C321.992 181.366 323.651 180.111 324.451 179.083C314.957 174.118 306.607 170.865 290.307 165.158C285.217 152.26 261.482 143.756 247.813 144.726C251.244 146.381 257.078 149.064 258.965 154.543C244.152 150.205 226.194 146.781 207.892 146.324C161.051 145.069 104.201 158.766 44.6055 199.344C62.4497 208.703 79.2645 212.47 96.3653 216.693C131.539 193.408 162.995 185.989 202.916 184.448C200.857 180.168 196.51 175.545 194.509 171.207C211.667 173.091 232.828 182.907 248.728 190.783C248.899 191.011 249.643 191.411 249.872 191.582C250.958 210.758 258.393 224.17 278.983 227.879C286.761 227.023 296.198 225.711 303.347 220.118C307.98 221.944 324.337 230.733 327.025 234.956C319.476 232.16 314.042 227.936 305.006 226.966C299.172 230.676 287.619 234.214 276.81 234.214C250.501 230.733 244.781 217.036 236.431 196.033C229.225 194.093 218.93 193.123 208.063 193.408C182.155 194.093 152.243 204.309 132.283 225.197C145.38 230.676 157.676 235.127 168.543 243.232C171.975 239.179 191.191 221.088 220.246 221.601C198.913 228.735 190.734 235.242 179.638 253.676C184.5 255.559 191.592 271.881 197.197 285.122C206.233 247.683 229.911 237.581 248.728 229.991C257.192 234.842 266 241.576 277.21 240.892C287.505 240.264 296.026 237.981 303.29 234.385C316.845 241.063 331.772 247.112 337.148 262.693C344.298 263.092 350.818 264.348 354.993 264.976C354.993 264.976 360.197 259.782 360.026 258.983C345.27 257.613 336.691 251.678 337.091 243.688C337.377 238.095 342.696 234.614 349.616 235.299C357.738 236.155 370.206 242.547 382.331 254.532C382.903 254.589 383.589 254.703 384.276 254.703C385.591 251.336 387.707 247.455 387.135 243.289ZM263.884 156.369C266.4 156.198 267.887 155.969 271.948 156.54C271.147 154.543 269.375 153.173 267.201 151.118C275.38 153.687 278.697 156.654 284.188 163.788C276.752 159.907 273.035 159.165 263.884 156.369ZM313.756 190.041C313.07 190.726 311.354 192.153 309.124 192.895C307.408 190.326 296.541 181.423 288.305 174.118C294.082 174.004 342.01 200.885 353.277 212.47C340.008 206.078 320.905 193.694 313.756 190.041ZM365.459 221.659C368.547 220.574 371.979 221.088 375.411 221.659C374.038 223.428 372.036 224.056 371.807 225.654C371.521 227.651 375.754 233.758 377.698 235.698C373.237 232.559 365.974 229.078 365.459 221.659Z" fill="white"/>
<path d="M284.187 163.788C276.752 159.907 273.035 159.223 263.941 156.312C266.4 156.198 267.945 155.912 272.005 156.483C271.205 154.486 269.432 153.116 267.258 151.061C275.38 153.63 278.697 156.654 284.187 163.788ZM375.353 221.716C371.979 221.145 368.547 220.574 365.459 221.716C366.031 229.078 373.237 232.616 377.698 235.755C375.754 233.815 371.521 227.708 371.75 225.711C371.979 224.113 373.981 223.485 375.353 221.716ZM396 241.976L386.106 267.715C374.839 252.363 363.114 241.805 350.474 241.748C337.263 241.691 343.096 255.958 373.18 256.529L358.195 270.797L329.484 268.914C330.571 266.403 329.942 263.834 329.256 261.209C327.254 255.388 318.904 249.11 304.319 242.375C284.702 252.534 266.172 250.537 248.442 238.38C209.894 256.415 205.718 268.343 202.859 313.829L198.855 314C185.701 272.11 177.236 241.519 117.698 229.363C58.7321 217.321 13.1491 207.162 6 146.952C13.2063 156.141 20.8702 161.962 29.2204 161.905C40.7734 161.848 40.945 154.885 53.6419 154.257C37.5134 139.305 40.5447 101.752 57.9886 86C56.2728 125.379 68.2261 136.508 90.8746 134.511C77.5486 126.863 73.4307 110.883 75.4325 91.1364C84.0686 102.379 93.963 108.714 101.284 108.486C114.267 108.087 133.026 87.0273 164.139 87.4268C197.139 87.8263 223.22 106.146 243.58 138.106C264.055 137.592 282.529 142.672 296.484 159.85L339.779 179.026L334.517 182.336C350.074 191.639 365.459 202.311 380.958 213.497L392.454 218.748C386.449 230.733 388.565 237.81 396 241.976ZM102.256 130.858C113.18 131.143 139.031 119.044 158.591 118.531C166.198 118.359 179.295 124.181 187.645 139.305C205.89 137.65 223.506 141.416 237.175 141.816C222.819 114.878 190.734 94.1612 165.34 94.6178C125.991 95.3597 118.728 115.677 99.1676 113.851C91.275 113.109 84.2402 109.228 78.2349 104.263C83.1535 117.96 86.6423 130.402 102.256 130.858ZM88.7013 163.959C115.468 153.801 141.262 143.813 170.03 141.131C168.371 133.997 155.446 129.603 145.494 129.431C129.194 129.146 100.941 141.987 82.2385 140.731C63.5363 139.476 54.6142 133.141 51.2398 103.806C48.6661 112.139 47.5222 120.928 48.3801 127.89C50.9538 149.635 69.4272 163.332 88.7013 163.959ZM42.2033 183.307C59.5328 183.192 69.4272 176.686 77.5486 170.979C71.7149 168.183 61.8205 159.964 53.3559 160.821C38.4285 162.304 37.2275 172.806 15.3225 164.017C20.8702 178.456 28.7629 183.364 42.2033 183.307ZM387.021 243.117C376.554 234.956 382.903 224.512 382.445 221.659C361.227 209.845 341.667 192.552 320.391 182.622C321.878 181.252 323.536 179.939 324.337 178.912C314.843 173.947 306.55 170.694 290.193 164.987C285.16 152.146 261.425 143.699 247.755 144.669C251.244 146.324 257.021 149.064 258.908 154.486C244.095 150.148 226.194 146.781 207.835 146.267C160.993 145.012 104.201 158.709 44.5482 199.287C62.3924 208.646 79.2072 212.413 96.308 216.636C131.482 193.351 162.938 185.932 202.859 184.391C200.743 180.054 196.453 175.431 194.451 171.15C211.609 172.977 232.771 182.85 248.67 190.726C248.842 190.954 249.586 191.354 249.814 191.525C250.901 210.701 258.336 224.056 278.926 227.822C286.647 226.966 296.084 225.654 303.29 220.061C307.923 221.887 324.337 230.676 326.968 234.899C319.361 232.103 313.928 227.936 304.949 226.909C299.115 230.619 287.562 234.157 276.752 234.157C250.386 230.676 244.724 216.979 236.374 195.976C229.168 194.093 218.873 193.066 208.006 193.351C182.098 194.036 152.186 204.252 132.225 225.14C145.38 230.619 157.619 235.07 168.486 243.174C171.917 239.122 191.134 221.031 220.188 221.544C198.855 228.678 190.734 235.184 179.581 253.619C184.443 255.445 191.535 271.824 197.139 285.065C206.176 247.626 229.854 237.524 248.67 229.934C257.135 234.785 265.943 241.462 277.153 240.835C287.447 240.264 295.969 237.981 303.233 234.328C316.788 241.006 331.715 247.055 337.091 262.636C344.24 263.092 350.703 264.348 354.935 264.919C354.935 264.919 360.14 259.725 359.968 258.926C345.213 257.556 336.634 251.621 337.034 243.631C337.32 238.038 342.639 234.557 349.559 235.242C357.738 236.041 370.149 242.49 382.274 254.475C382.903 254.589 383.532 254.646 384.218 254.646C385.534 251.279 387.65 247.398 387.021 243.117ZM308.723 183.307C307.236 183.991 307.236 187.416 308.266 187.815C309.181 188.158 311.125 186.56 311.297 185.19C311.297 185.019 311.297 184.848 311.24 184.733C311.926 185.133 312.612 185.475 313.299 185.875C312.956 188.557 309.867 190.383 307.351 189.47C304.891 188.329 304.148 184.106 306.436 182.051C297.513 177.314 290.364 174.061 288.363 174.118C296.598 181.423 307.465 190.326 309.181 192.895C311.411 192.153 313.127 190.726 313.813 190.041C320.905 193.694 340.008 206.078 353.334 212.47C346.242 205.165 324.623 191.81 308.094 182.964C308.323 183.078 308.552 183.192 308.723 183.307ZM306.436 182.051C307.007 182.336 307.522 182.679 308.094 182.964C307.579 182.622 307.007 182.336 306.436 182.051Z" fill="#0A2343"/>
<path d="M77.5484 170.922C69.427 176.629 59.5326 183.135 42.203 183.25C28.7627 183.364 20.87 178.398 15.3223 163.959C37.2272 172.748 38.4283 162.247 53.3557 160.763C61.8203 159.964 71.7147 168.183 77.5484 170.922ZM145.494 129.431C129.194 129.146 100.94 141.987 82.2382 140.731C63.5361 139.476 54.614 133.141 51.2396 103.806C48.6659 112.196 47.522 120.985 48.3799 127.89C50.9536 149.635 69.427 163.332 88.7583 163.959C115.525 153.744 141.319 143.813 170.087 141.131C168.371 133.997 155.445 129.602 145.494 129.431ZM165.34 94.6177C126.048 95.3597 118.727 115.677 99.2246 113.851C91.2748 113.109 84.2972 109.228 78.2919 104.263C83.1533 117.96 86.6993 130.401 102.313 130.858C113.18 131.143 139.088 119.044 158.648 118.531C166.255 118.359 179.295 124.124 187.702 139.305C206.004 137.65 223.562 141.416 237.232 141.816C222.876 114.935 190.791 94.1612 165.34 94.6177ZM311.297 184.676C311.297 184.848 311.354 185.019 311.297 185.19C311.125 186.56 309.181 188.158 308.266 187.815C307.236 187.416 307.236 183.991 308.723 183.307C307.98 182.85 307.179 182.451 306.435 182.051C304.148 184.106 304.891 188.329 307.35 189.47C309.924 190.383 312.955 188.557 313.356 185.818C312.669 185.418 311.983 185.076 311.297 184.676Z" fill="#F15622"/>
</g>
<defs>
<clipPath id="clip0_257_11718">
<rect width="390" height="228" fill="white" transform="translate(6 86)"/>
</clipPath>
</defs>
</svg>
