<svg width="400" height="400" viewBox="0 0 400 400" fill="none" xmlns="http://www.w3.org/2000/svg">
<g clip-path="url(#clip0_257_11732)">
<path d="M369.933 211.988C366.178 211.134 362.274 211.691 362.274 211.691C362.274 211.691 361.344 209.909 358.742 208.016C356.139 206.124 351.752 205.344 346.138 203.563C340.486 201.781 335.318 197.291 335.318 197.291C336.322 195.955 340.189 190.425 340.189 190.425C341.527 191.056 345.989 192.466 349.186 192.466C352.384 192.466 356.548 191.687 356.548 191.687C356.548 191.687 363.91 194.507 369.561 191.983C375.212 189.46 377.332 184.153 377.332 184.153C377.332 184.153 380.455 182.26 382.425 178.697C384.396 175.097 383.615 172.128 383.615 172.128C385.957 167.823 385.734 163.295 383.466 159.398C381.198 155.501 375.398 152.124 371.308 150.936C367.219 149.86 363.389 150.305 363.389 150.305C361.604 148.412 358.295 146.779 353.611 146.705C348.926 146.631 344.353 150.528 344.353 150.528C348.034 146.705 350.302 138.874 350.302 138.874C355.172 131.823 360.861 129.336 360.861 129.336C360.861 129.336 351.789 119.872 344.427 115.344C337.066 110.816 329.853 107.996 329.853 107.996C329.853 107.996 327.659 101.575 323.904 98.9401C320.149 96.268 315.204 94.4123 315.204 94.4123C314.423 91.8144 311.226 87.6948 306.653 85.5051C302.042 83.2412 295.61 82.1278 286.761 78.7133C277.689 75.4474 260.066 63.3855 260.066 63.3855C258.653 66.9113 258.505 73.6288 258.505 73.6288C245.157 75.002 238.39 80.0123 238.39 80.0123C242.294 81.2742 245.901 84.3917 245.901 84.3917C240.1 83.9092 231.958 85.1711 224.596 88.6226C217.309 92.0742 211.509 99.1628 209.092 102.058C206.676 104.953 204.296 105.88 199.611 107.291C194.815 108.627 188.569 109.258 188.569 109.258C188.866 113.08 192.659 119.093 192.659 119.093C187.714 126.849 188.049 134.977 188.049 134.977C188.049 134.977 183.661 138.874 179.348 145.072C175.036 151.233 175.11 157.988 175.11 157.988C173.139 157.691 170.946 156.726 170.946 156.726C170.723 165.781 175.184 174.021 175.184 174.021C175.184 174.021 171.801 177.546 169.607 181.072C167.414 184.598 163.956 190.684 163.956 190.684C162.469 192.169 153.285 199.666 153.285 199.666C153.285 199.666 147.411 201.559 146.147 201.93C144.883 202.338 140.57 203.563 137.075 205.827C133.617 208.091 124.545 217.146 124.545 217.146C109.19 213.769 106.773 204.565 104.803 196.882C102.832 189.237 100.006 183.039 94.0576 176.099C88.1088 169.122 79.4087 165.373 79.4087 165.373C77.7728 159.658 74.3151 155.538 69.8535 153.014C65.4663 150.528 59.0341 148.709 45.7237 153.311C32.4877 158.025 22.5234 168.899 22.5234 168.899C27.2081 169.122 40.3698 171.237 44.0506 175.765C47.7314 180.367 51.2635 185.006 57.0636 187.344C62.8637 189.682 67.883 188.198 67.883 188.198C75.542 192.986 76.9549 201.336 78.851 209.687C80.8216 218.037 82.8293 224.161 90.4512 232.585C98.0359 241.047 112.536 245.018 112.536 245.018C112.536 245.018 112.387 250.4 111.978 253.629C111.569 256.821 111.495 265.505 110.268 269.736C109.078 273.967 106.662 276.788 104.617 278.495C102.572 280.202 98.3333 283.654 97.5526 289.221C96.7718 294.788 100.453 299.687 100.453 299.687C100.527 300.392 99.9692 316.573 99.8949 318.466C99.8205 320.359 97.7013 327.93 105.137 335.056C112.573 342.107 122.277 337.802 122.277 337.802C122.277 337.802 126.59 338.73 130.568 336.726C134.472 334.684 136.368 330.713 136.368 330.713C137.707 329.785 142.54 326.482 142.02 317.649C141.499 308.816 132.874 305.513 132.874 305.513L132.725 302.396C138.599 298.165 146.816 294.194 151.203 292.078C155.516 289.963 158.49 287.55 158.49 287.55C161.167 294.528 166.782 296.458 171.503 296.866C176.188 297.274 192.101 295.79 192.101 295.79C192.101 295.79 198.199 299.946 203.069 299.946C207.94 299.946 211.435 298.165 211.435 298.165C211.435 298.165 217.867 299.427 222.96 297.089C228.054 294.825 229.318 290.445 229.318 290.445C229.318 290.445 231.809 289.258 234.114 284.878C236.382 280.573 235.193 275.192 231.921 270.256C228.649 265.32 222.366 263.13 222.366 263.13C226.678 261.719 231.772 258.045 234.412 253.109C237.089 248.173 238.576 239.117 238.576 239.117C244.153 238.821 250.548 236 254.006 234.441C257.463 232.808 268.432 226.796 268.432 226.796C272.112 229.691 274.009 235.406 274.009 235.406C286.687 234.775 290.925 232.734 290.925 232.734C298.064 236.891 314.014 240.082 321.227 240.379C328.366 240.676 332.27 242.569 332.27 242.569C332.27 242.569 336.359 248.656 342.308 250.474C348.257 252.367 352.644 251.81 352.644 251.81C352.644 251.81 356.622 254.854 362.199 254C367.776 253.146 369.858 250.251 369.858 250.251C369.858 250.251 373.762 250.103 376.514 247.357C379.265 244.61 380.603 240.157 380.603 240.157C380.603 240.157 383.355 238.449 384.582 233.588C385.771 228.726 384.024 223.753 381.124 219.744C378.15 215.81 373.688 212.841 369.933 211.988ZM379.525 233.216C378.744 235.258 375.919 236.965 375.919 236.965C375.919 236.965 375.658 241.047 373.242 243.237C370.825 245.427 367.442 245.018 367.442 245.018C367.442 245.018 366.14 247.542 362.757 248.544C359.374 249.546 355.693 247.765 353.983 246.429C353.983 246.429 346.918 247.06 342.382 244.796C337.846 242.532 335.727 238.153 335.727 238.153C335.727 238.153 327.994 235.035 320 234.961C311.932 234.887 296.428 230.581 291.334 226.833C291.334 226.833 283.564 230.359 277.392 230.433C277.392 230.433 275.496 224.68 268.692 220.598C268.692 220.598 254.266 228.577 249.098 230.915C243.93 233.291 234.858 234.144 233.52 234.293C233.52 234.293 234.077 236.482 233.445 240.008C232.739 243.497 230.657 250.474 228.761 252.738C226.864 255.039 221.771 257.934 218.796 259.01C215.822 260.124 212.067 261.051 208.944 262.61C205.783 264.206 201.954 267.398 200.318 268.882C200.318 268.882 205.114 270.144 206.601 270.07C208.089 269.996 210.654 268.585 212.55 267.806C214.446 267.027 219.837 266.025 224.15 269.216C228.463 272.408 230.657 276.565 230.582 279.682C230.434 282.837 228.389 285.101 225.414 286.66C225.414 286.66 224.559 291.039 220.804 292.449C217.012 293.785 210.84 292.598 210.84 292.598C210.84 292.598 207.865 294.565 204.333 294.713C200.838 294.973 196.042 291.93 195.261 291.447C194.481 291.076 193.774 290.668 192.436 290.668C191.172 290.668 177.155 291.856 172.768 291.856C168.418 291.856 165.406 289.777 163.621 286.4C161.799 283.023 164.402 277.567 165.964 275.377C167.6 273.188 170.202 270.218 170.5 269.588C170.797 268.957 170.871 267.955 170.016 267.324C169.161 266.693 166.261 265.282 166.261 265.282C166.261 265.282 161.948 273.893 160.312 276.788C158.639 279.682 156.557 282.985 152.467 285.472C148.378 287.959 139.752 291.781 135.141 294.528C130.606 297.348 127.854 299.835 127.854 299.835C127.854 299.835 127.929 308.074 128.152 309.076C128.152 309.076 132.316 309.856 133.877 311.266C135.513 312.676 137.149 315.051 137.075 318.243C137 321.472 136.591 325.221 132.613 326.705C132.613 326.705 131.498 330.825 128.375 332.087C125.214 333.311 122.017 332.235 122.017 332.235C122.017 332.235 117.704 334.425 113.242 333.497C108.781 332.569 105.026 327.93 104.84 323.254C104.765 318.577 105.621 301.579 105.621 300.503C105.621 299.427 105.621 298.239 104.84 296.755C104.059 295.27 102.089 291.522 102.572 289.183C103.055 286.808 105.472 284.025 107.74 282.132C110.008 280.276 112.685 278.309 114.098 274.561C115.436 270.738 116.626 265.468 116.775 261.497C116.923 257.526 117.407 244.462 118.262 240.936C118.262 240.936 101.345 237.188 93.7602 228.503C86.1755 219.818 84.837 212.878 82.6434 203.563C80.4498 194.247 77.6985 187.122 68.7753 182.52C68.7753 182.52 64.0534 184.821 57.8816 182.223C51.7841 179.588 48.4007 172.684 45.2032 170.198C41.9314 167.786 33.0454 166.375 31.2607 166.375C31.2607 166.375 41.8198 159.027 49.1071 156.837C56.3572 154.647 64.2765 153.979 69.2214 157.913C74.1664 161.847 74.9472 168.639 74.9472 168.639C74.9472 168.639 85.1345 172.87 91.0832 180.144C97.032 187.418 98.7423 194.21 99.9321 198.738C101.085 203.266 104.691 212.433 110.417 216.404C116.143 220.375 122.946 222.12 126.479 222.342C126.479 222.342 136.406 212.025 139.789 209.761C143.172 207.497 147.002 206.643 148.638 206.161C150.274 205.715 155.925 203.823 155.925 203.823C155.925 203.823 165.926 195.212 167.897 193.728C167.897 193.728 173.697 183.707 175.333 181.295C176.969 178.957 181.356 173.315 181.356 173.315C181.356 173.315 177.378 168.788 177.378 162.849C177.378 162.849 179.72 163.295 181.207 163.146C181.207 163.146 179.274 159.769 180.204 155.167C181.17 150.454 186.264 142.882 193.068 137.018C193.068 137.018 192.845 132.082 194.258 127.406C195.67 122.693 198.57 118.944 198.57 118.944C198.57 118.944 195.447 115.122 194.964 112.153C194.964 112.153 200.838 111.596 204.928 110.26C209.018 108.924 212.29 106.029 212.29 106.029C212.29 106.029 220.135 95.2659 229.616 91.8886C239.171 88.5484 248.838 89.5504 248.838 89.5504C248.838 89.5504 253.671 86.4329 255.642 85.7278C255.642 85.7278 251.886 81.4968 248.763 80.1608C248.763 80.1608 256.125 77.9711 262.855 78.4535C262.855 78.4535 263.003 73.7773 263.71 71.0309C263.71 71.0309 275.533 79.5669 280.85 81.9051C286.241 84.2432 296.502 87.6948 299.96 88.7711C303.381 89.8474 309.329 92.1113 310.519 98.3834C310.519 98.3834 316.245 100.796 318.513 101.983C320.781 103.208 323.049 106.103 323.532 107.365C324.016 108.627 324.462 110.111 325.094 111.039C325.651 112.004 326.693 112.709 327.696 113.006C328.626 113.34 338.107 117.571 342.42 120.837C346.807 124.103 352.681 129.744 352.681 129.744C352.681 129.744 346.807 134.421 345.32 136.61C345.32 136.61 343.535 142.548 340.709 146.705C337.809 150.936 333.571 152.569 333.571 152.569V153.979C333.571 153.979 336.88 153.905 339.854 154.684C342.754 155.464 344.65 156.466 344.65 156.466C344.65 156.466 346.844 155.056 347.848 154.128C348.963 153.2 352.235 151.456 355.135 151.938C358.035 152.421 360.154 154.536 360.712 155.39C360.712 155.39 363.24 155.538 365.508 155.39C367.888 155.241 372.089 156.095 375.547 158.767C378.893 161.513 382.053 165.522 377.889 170.903C377.889 170.903 378.782 174.28 377.592 176.767C376.328 179.179 373.205 180.515 373.205 180.515C373.205 180.515 371.234 186.305 366.698 187.79C362.162 189.274 356.436 186.454 356.436 186.454C356.436 186.454 351.008 187.753 347.179 187.456C343.349 187.196 339.036 183.93 339.036 183.93C339.036 183.93 338.107 184.449 337.252 185.711C336.396 186.973 329.667 196.363 328.18 197.996C328.18 197.996 334.686 204.305 341.193 206.977C347.699 209.649 350.934 210.021 352.644 210.503C354.354 210.985 358.035 213.064 359.448 217.146C359.448 217.146 363.575 216.144 366.326 216.367C369.04 216.59 371.717 217.146 376.476 221.786C381.31 226.796 380.232 231.175 379.525 233.216Z" fill="#B0B7BC"/>
<path d="M384.989 216.887L384.952 216.849C381.345 212.099 375.992 208.425 370.972 207.311C369.225 206.903 367.329 206.718 365.247 206.718C364.986 206.718 364.726 206.718 364.466 206.718C363.722 205.938 362.756 205.01 361.529 204.12C358.963 202.264 355.729 201.336 351.936 200.26C350.523 199.852 349.11 199.443 347.549 198.961C345.541 198.33 343.571 197.254 341.972 196.214C341.972 196.177 342.009 196.177 342.009 196.14C344.203 196.734 346.843 197.254 349.148 197.254C351.639 197.254 354.502 196.845 356.137 196.623C357.811 197.105 360.748 197.847 364.057 197.847C366.808 197.847 369.299 197.365 371.493 196.363C376.958 193.913 379.858 189.608 381.085 187.344C382.535 186.231 384.878 184.115 386.588 180.998C388.335 177.806 388.596 174.837 388.484 172.981C390.789 167.748 390.455 161.996 387.555 156.986C384.506 151.753 377.665 147.781 372.571 146.297H372.497H372.422C369.671 145.555 367.031 145.406 365.284 145.406C365.172 145.406 365.061 145.406 364.949 145.406C362.161 143.328 358.405 142.103 354.278 141.918C354.39 141.584 354.502 141.287 354.576 141.027C358.294 135.942 362.384 133.901 362.718 133.753L369.225 131.043L364.28 125.996C363.908 125.588 354.687 116.012 346.88 111.225C341.489 107.922 336.246 105.509 333.495 104.322C332.342 101.724 330.074 97.4186 326.617 95.0062C323.903 93.0763 320.742 91.5546 318.772 90.701C317.024 87.3608 313.529 83.501 308.696 81.1629C305.945 79.8268 302.859 78.899 299.252 77.8227C296.092 76.8577 292.523 75.8186 288.433 74.2227L288.396 74.1856H288.358C281.406 71.699 267.501 62.6804 262.742 59.4144L257.797 56L255.566 61.6041C254.673 63.868 254.19 66.9113 253.93 69.3979C242.069 71.4021 235.786 75.9299 235.489 76.1526L227.941 81.7196L228.536 81.9052C226.454 82.5732 224.446 83.3526 222.513 84.2433C214.445 88.066 208.199 95.5258 205.559 98.7175L205.373 98.9402C203.923 100.685 202.807 101.278 198.271 102.614C193.959 103.802 188.159 104.396 188.084 104.433L183.4 104.915L183.771 109.629C184.032 112.821 185.779 116.606 187.118 119.093C184.292 124.586 183.511 129.93 183.325 132.862C181.541 134.643 178.455 137.946 175.443 142.326C173.212 145.518 171.948 148.821 171.242 151.567L166.334 149.414L166.148 156.614C165.999 163.332 168.044 169.567 169.494 173.167C168.267 174.614 166.743 176.544 165.516 178.511C163.694 181.443 161.092 185.971 160.125 187.641C158.712 188.903 154.697 192.28 150.941 195.324C148.971 195.955 145.625 197.031 144.807 197.254H144.732L144.658 197.291C144.546 197.328 144.398 197.365 144.249 197.402C142.427 197.959 138.152 199.295 134.434 201.707C131.608 203.563 126.105 208.796 123.094 211.691C112.832 208.61 111.196 202.264 109.486 195.584C107.143 186.416 103.723 179.847 97.7369 172.87C92.9035 167.192 86.583 163.48 83.3483 161.847C81.229 156.169 77.3995 151.678 72.2315 148.746C68.4391 146.594 64.4981 145.592 59.9249 145.592C55.3518 145.592 50.1838 146.594 44.1606 148.709H44.1235H44.0863C29.8836 153.757 19.3988 165.113 18.9526 165.596L12 173.241L22.2988 173.724C24.4925 173.835 28.5823 174.392 32.449 175.394C38.6208 176.99 40.108 178.586 40.2939 178.808L40.7401 179.365C44.3837 183.93 48.5107 189.126 55.2774 191.835C58.0288 192.948 60.9288 193.505 63.9404 193.505C65.0186 193.505 65.9853 193.431 66.766 193.32C71.0417 196.882 72.343 202.598 73.7931 209.13C73.9046 209.687 74.0533 210.206 74.1649 210.763V210.8V210.837C76.1354 219.225 78.329 226.425 86.8804 235.852C92.8664 242.532 102.384 246.652 107.59 248.507C107.515 250.029 107.404 251.773 107.218 253.072C107.069 254.26 106.958 255.893 106.846 257.823C106.623 261.311 106.326 266.099 105.656 268.474V268.511V268.548C104.764 271.74 102.942 273.744 101.566 274.895L101.455 274.969C99.187 276.862 93.833 281.315 92.792 288.627C92.0112 294.082 94.242 298.833 95.6549 301.171C95.5805 304.957 95.2087 315.905 95.0972 318.318C95.0972 318.429 95.06 318.689 95.0228 318.874C94.6138 322.103 93.5356 330.676 101.827 338.619C105.545 342.144 110.267 344 115.472 344C118.632 344 121.272 343.332 122.833 342.812C123.391 342.849 124.023 342.924 124.767 342.924C127.667 342.924 130.418 342.293 132.76 341.105H132.798H132.835C136.702 339.101 139.044 335.835 140.122 334.091C146.22 329.303 147.186 322.474 146.889 317.501C146.48 310.746 142.687 306.404 139.416 303.918C144.361 300.874 150.012 298.165 153.358 296.569C154.659 295.938 155.849 295.27 156.89 294.639C160.125 298.833 164.958 301.282 171.093 301.839C171.762 301.913 172.617 301.913 173.658 301.913C178.678 301.913 187.303 301.208 190.91 300.874C193.401 302.359 198.383 304.92 203.068 304.92C207.046 304.92 210.281 303.955 212.065 303.287C212.958 303.398 214.147 303.472 215.523 303.472C219.092 303.472 222.253 302.841 224.93 301.616C229.763 299.464 232.142 295.938 233.221 293.748C234.633 292.635 236.604 290.631 238.389 287.254C241.326 281.649 240.471 274.524 235.935 267.732C234.782 266.025 233.407 264.577 231.994 263.353C234.745 261.126 237.087 258.416 238.649 255.522C240.582 251.959 241.884 246.948 242.627 243.571C247.275 242.68 251.885 240.788 255.975 238.969H256.012H256.049C258.391 237.856 263.82 234.961 267.389 233.031C268.43 234.627 269.174 236.371 269.397 237.113L270.549 240.602L274.23 240.416C282.744 240.008 287.801 238.932 290.515 238.153C298.918 242.161 313.641 245.093 321.002 245.39C325.018 245.575 327.806 246.28 329.182 246.763C331.004 249.027 335.131 253.518 340.819 255.262C345.058 256.598 348.664 256.895 350.932 256.895C351.081 256.895 351.23 256.895 351.341 256.895C353.126 257.86 356.249 259.159 360.153 259.159C361.045 259.159 361.975 259.085 362.867 258.936C367.515 258.231 370.452 256.375 372.088 254.965C374.133 254.557 377.293 253.518 379.858 250.92C382.387 248.396 383.911 245.056 384.655 243.163C386.105 241.79 388.112 239.192 389.19 234.924C390.603 229.171 389.079 222.825 384.952 217.109L384.989 216.887ZM384.58 233.588C383.353 238.449 380.602 240.157 380.602 240.157C380.602 240.157 379.263 244.61 376.512 247.357C373.761 250.103 369.857 250.252 369.857 250.252C369.857 250.252 367.775 253.146 362.198 254C361.529 254.111 360.859 254.148 360.227 254.148C355.729 254.148 352.643 251.81 352.643 251.81C352.643 251.81 352.048 251.885 350.969 251.885C349.185 251.885 346.025 251.662 342.307 250.474C336.358 248.656 332.268 242.569 332.268 242.569C332.268 242.569 328.364 240.676 321.226 240.379C314.013 240.082 298.062 236.891 290.924 232.734C290.924 232.734 286.685 234.775 274.007 235.406C274.007 235.406 272.111 229.691 268.43 226.796C268.43 226.796 257.462 232.808 254.004 234.441C250.546 236 244.152 238.821 238.575 239.118C238.575 239.118 237.087 248.173 234.41 253.109C231.771 258.045 226.677 261.72 222.364 263.13C222.364 263.13 228.647 265.32 231.919 270.256C235.191 275.192 236.381 280.573 234.113 284.878C231.808 289.258 229.317 290.445 229.317 290.445C229.317 290.445 228.053 294.825 222.959 297.089C220.505 298.202 217.754 298.499 215.56 298.499C213.181 298.499 211.433 298.165 211.433 298.165C211.433 298.165 207.938 299.946 203.068 299.946C198.197 299.946 192.1 295.79 192.1 295.79C192.1 295.79 179.793 296.94 173.658 296.94C172.803 296.94 172.097 296.903 171.502 296.866C166.78 296.458 161.166 294.528 158.489 287.551C158.489 287.551 155.515 289.963 151.202 292.078C146.814 294.194 138.598 298.165 132.723 302.396L132.872 305.513C132.872 305.513 141.498 308.816 142.018 317.649C142.539 326.482 137.705 329.786 136.367 330.713C136.367 330.713 134.471 334.685 130.567 336.726C128.485 337.765 126.328 338.025 124.767 338.025C123.28 338.025 122.276 337.802 122.276 337.802C122.276 337.802 119.338 339.101 115.472 339.101C112.311 339.101 108.482 338.21 105.136 335.056C97.6998 327.93 99.819 320.359 99.8934 318.466C99.9677 316.573 100.525 300.392 100.451 299.687C100.451 299.687 96.7703 294.788 97.551 289.221C98.3318 283.654 102.57 280.202 104.615 278.495C106.66 276.788 109.077 273.967 110.267 269.736C111.494 265.505 111.568 256.821 111.977 253.629C112.386 250.4 112.535 245.019 112.535 245.019C112.535 245.019 98.0344 241.047 90.4497 232.586C82.8278 224.161 80.8201 218.037 78.8495 209.687C76.9534 201.336 75.5405 192.986 67.8814 188.198C67.8814 188.198 66.3199 188.68 63.9032 188.68C62.007 188.68 59.6275 188.384 57.0621 187.344C51.262 185.006 47.7299 180.367 44.0491 175.765C40.3683 171.237 27.2066 169.122 22.5219 168.899C22.5219 168.899 32.4861 158.025 45.7222 153.311C51.7082 151.233 56.2813 150.491 59.9249 150.491C64.3865 150.491 67.4353 151.641 69.852 153.014C74.3136 155.538 77.7713 159.658 79.4072 165.373C79.4072 165.373 88.1073 169.122 94.0561 176.099C100.005 183.039 102.831 189.237 104.801 196.882C106.772 204.565 109.188 213.769 124.544 217.146C124.544 217.146 133.616 208.091 137.073 205.827C140.568 203.563 144.881 202.338 146.145 201.93C147.409 201.559 153.284 199.666 153.284 199.666C153.284 199.666 162.467 192.169 163.954 190.685C163.954 190.685 167.412 184.598 169.606 181.072C171.799 177.546 175.183 174.021 175.183 174.021C175.183 174.021 170.721 165.781 170.944 156.726C170.944 156.726 173.138 157.691 175.108 157.988C175.108 157.988 175.034 151.233 179.347 145.072C183.66 138.874 188.047 134.977 188.047 134.977C188.047 134.977 187.712 126.849 192.657 119.093C192.657 119.093 188.865 113.08 188.568 109.258C188.568 109.258 194.814 108.627 199.61 107.291C204.295 105.88 206.674 104.953 209.091 102.058C211.508 99.1629 217.308 92.0742 224.595 88.6227C230.953 85.6536 237.905 84.2804 243.408 84.2804C244.263 84.2804 245.118 84.3175 245.899 84.3918C245.899 84.3918 242.293 81.2742 238.389 80.0124C238.389 80.0124 245.155 75.0021 258.503 73.6289C258.503 73.6289 258.652 66.9113 260.065 63.3856C260.065 63.3856 277.688 75.4474 286.76 78.7134C295.609 82.1278 302.041 83.2412 306.651 85.5052C311.224 87.6948 314.422 91.8144 315.202 94.4124C315.202 94.4124 320.147 96.268 323.903 98.9402C327.658 101.575 329.851 107.996 329.851 107.996C329.851 107.996 337.064 110.816 344.426 115.344C351.787 119.872 360.859 129.336 360.859 129.336C360.859 129.336 355.171 131.823 350.3 138.874C350.3 138.874 348.032 146.705 344.351 150.528C344.351 150.528 348.85 146.705 353.461 146.705C353.498 146.705 353.535 146.705 353.609 146.705C358.294 146.779 361.603 148.412 363.388 150.305C363.388 150.305 364.168 150.231 365.395 150.231C366.883 150.231 369.039 150.379 371.307 150.936C375.397 152.124 381.197 155.501 383.465 159.398C385.733 163.295 385.956 167.823 383.613 172.128C383.613 172.128 384.394 175.097 382.424 178.697C380.453 182.26 377.33 184.153 377.33 184.153C377.33 184.153 375.211 189.46 369.559 191.984C367.812 192.763 365.916 193.023 364.094 193.023C360.041 193.023 356.546 191.687 356.546 191.687C356.546 191.687 352.382 192.466 349.185 192.466C345.987 192.466 341.526 191.056 340.187 190.425C340.187 190.425 336.321 195.955 335.317 197.291C335.317 197.291 340.485 201.781 346.136 203.563C351.75 205.344 356.137 206.124 358.74 208.016C361.343 209.909 362.272 211.691 362.272 211.691C362.272 211.691 363.536 211.505 365.284 211.505C366.622 211.505 368.295 211.616 369.931 211.988C373.686 212.841 378.148 215.81 381.122 219.744C384.022 223.753 385.77 228.726 384.58 233.588ZM366.325 216.367C363.573 216.144 359.447 217.146 359.447 217.146C358.034 213.064 354.353 210.986 352.643 210.503C350.932 210.021 347.698 209.649 341.191 206.977C334.685 204.305 328.178 197.996 328.178 197.996C329.665 196.363 336.395 186.973 337.25 185.711C338.105 184.449 339.035 183.93 339.035 183.93C339.035 183.93 343.348 187.196 347.177 187.456C351.007 187.753 356.435 186.454 356.435 186.454C356.435 186.454 362.161 189.274 366.697 187.79C371.233 186.305 373.203 180.515 373.203 180.515C373.203 180.515 376.326 179.179 377.59 176.767C378.78 174.28 377.888 170.903 377.888 170.903C382.052 165.522 378.892 161.513 375.545 158.767C372.088 156.095 367.886 155.241 365.507 155.39C363.239 155.538 360.711 155.39 360.711 155.39C360.153 154.536 358.034 152.421 355.134 151.938C352.234 151.456 348.962 153.2 347.846 154.128C346.843 155.056 344.649 156.466 344.649 156.466C344.649 156.466 342.753 155.464 339.853 154.685C336.878 153.905 333.569 153.979 333.569 153.979V152.569C333.569 152.569 337.808 150.936 340.708 146.705C343.533 142.548 345.318 136.61 345.318 136.61C346.805 134.421 352.68 129.744 352.68 129.744C352.68 129.744 346.805 124.103 342.418 120.837C338.105 117.571 328.624 113.34 327.695 113.006C326.691 112.709 325.65 112.004 325.092 111.039C324.46 110.111 324.014 108.627 323.531 107.365C323.047 106.103 320.779 103.208 318.511 101.984C316.243 100.796 310.518 98.3835 310.518 98.3835C309.328 92.1113 303.379 89.8474 299.959 88.7711C296.501 87.6948 286.239 84.2433 280.848 81.9052C275.531 79.567 263.708 71.0309 263.708 71.0309C263.002 73.7773 262.853 78.4536 262.853 78.4536C256.123 77.9711 248.762 80.1608 248.762 80.1608C251.885 81.4969 255.64 85.7278 255.64 85.7278C253.67 86.433 248.836 89.5505 248.836 89.5505C248.836 89.5505 239.169 88.5485 229.614 91.8887C220.133 95.266 212.288 106.029 212.288 106.029C212.288 106.029 209.017 108.924 204.927 110.26C200.837 111.596 194.962 112.153 194.962 112.153C195.446 115.122 198.569 118.944 198.569 118.944C198.569 118.944 195.669 122.693 194.256 127.406C192.843 132.082 193.066 137.019 193.066 137.019C186.262 142.882 181.169 150.454 180.202 155.167C179.273 159.769 181.206 163.146 181.206 163.146C179.719 163.295 177.376 162.849 177.376 162.849C177.376 168.788 181.355 173.315 181.355 173.315C181.355 173.315 176.967 178.957 175.331 181.295C173.696 183.707 167.895 193.728 167.895 193.728C165.925 195.212 155.924 203.823 155.924 203.823C155.924 203.823 150.272 205.715 148.636 206.161C147 206.643 143.171 207.497 139.787 209.761C136.404 212.025 126.477 222.342 126.477 222.342C122.945 222.12 116.141 220.375 110.415 216.404C104.69 212.433 101.083 203.266 99.9306 198.738C98.7408 194.21 97.0305 187.419 91.0817 180.144C85.1329 172.87 74.9456 168.639 74.9456 168.639C74.9456 168.639 74.1649 161.847 69.2199 157.913C64.275 153.979 56.3557 154.647 49.1056 156.837C41.8183 159.027 31.2592 166.375 31.2592 166.375C33.0438 166.375 41.9299 167.786 45.2017 170.198C48.3992 172.685 51.7825 179.588 57.88 182.223C64.0519 184.821 68.7738 182.52 68.7738 182.52C77.6969 187.122 80.4483 194.247 82.6419 203.563C84.8355 212.878 86.174 219.819 93.7587 228.503C101.343 237.188 118.26 240.936 118.26 240.936C117.405 244.462 116.922 257.526 116.773 261.497C116.624 265.468 115.435 270.738 114.096 274.561C112.683 278.309 110.006 280.276 107.738 282.132C105.47 284.025 103.054 286.808 102.57 289.183C102.087 291.522 104.058 295.27 104.838 296.755C105.619 298.239 105.619 299.427 105.619 300.503C105.619 301.579 104.764 318.577 104.838 323.254C105.024 327.93 108.779 332.569 113.241 333.497C117.703 334.425 122.015 332.235 122.015 332.235C122.015 332.235 125.213 333.311 128.373 332.087C131.496 330.825 132.612 326.705 132.612 326.705C136.59 325.221 136.999 321.472 137.073 318.243C137.148 315.052 135.512 312.676 133.876 311.266C132.314 309.856 128.15 309.076 128.15 309.076C127.927 308.074 127.853 299.835 127.853 299.835C127.853 299.835 130.604 297.348 135.14 294.528C139.75 291.781 148.376 287.959 152.466 285.472C156.556 282.986 158.638 279.682 160.311 276.788C161.947 273.893 166.26 265.282 166.26 265.282C166.26 265.282 169.16 266.693 170.015 267.324C170.87 267.955 170.796 268.957 170.498 269.588C170.201 270.219 167.598 273.188 165.962 275.377C164.401 277.567 161.798 283.023 163.62 286.4C165.404 289.777 168.416 291.856 172.766 291.856C177.153 291.856 191.17 290.668 192.434 290.668C193.773 290.668 194.479 291.076 195.26 291.447C196.041 291.93 200.837 294.973 204.332 294.713C207.864 294.565 210.838 292.598 210.838 292.598C210.838 292.598 217.01 293.786 220.803 292.449C224.558 291.039 225.413 286.66 225.413 286.66C228.387 285.101 230.432 282.837 230.581 279.682C230.655 276.565 228.462 272.408 224.149 269.216C219.836 266.025 214.445 267.027 212.549 267.806C210.652 268.586 208.087 269.996 206.6 270.07C205.113 270.144 200.316 268.882 200.316 268.882C201.952 267.398 205.782 264.206 208.942 262.61C212.065 261.052 215.82 260.124 218.795 259.01C221.769 257.934 226.863 255.039 228.759 252.738C230.655 250.474 232.737 243.497 233.444 240.008C234.076 236.482 233.518 234.293 233.518 234.293C234.857 234.144 243.928 233.291 249.096 230.915C254.264 228.577 268.69 220.598 268.69 220.598C275.494 224.68 277.39 230.433 277.39 230.433C283.562 230.359 291.333 226.833 291.333 226.833C296.427 230.581 311.931 234.887 319.999 234.961C327.992 235.035 335.726 238.153 335.726 238.153C335.726 238.153 337.845 242.532 342.381 244.796C346.917 247.06 353.981 246.429 353.981 246.429C355.691 247.765 359.372 249.546 362.756 248.544C366.139 247.542 367.44 245.019 367.44 245.019C367.44 245.019 370.824 245.427 373.24 243.237C375.657 241.047 375.917 236.965 375.917 236.965C375.917 236.965 378.743 235.258 379.524 233.216C380.23 231.175 381.308 226.796 376.475 221.786C371.716 217.146 369.039 216.59 366.325 216.367ZM280.402 225.46C280.402 225.46 276.424 217.889 268.504 215.513C268.504 215.513 251.662 209.019 227.309 214.103C227.309 214.103 250.509 212.47 262.072 219.113C256.756 222.008 249.543 225.905 245.713 227.39C239.207 229.876 230.692 229.728 227.458 230.285C227.458 230.285 229.019 236.074 228.871 237.856C228.647 239.637 226.826 248.73 223.777 251.216C220.728 253.703 212.734 256.301 208.57 257.711C204.406 259.196 195.186 264.911 192.286 272.891C192.286 272.891 203.105 275.229 206.005 275.637C208.905 275.934 211.656 274.375 213.59 273.447C215.56 272.52 218.051 271.963 220.803 273.596C223.554 275.229 224.781 277.567 225.338 279.386C225.896 281.167 223.926 282.837 220.654 283.357C220.654 283.357 220.951 287.105 219.018 288.033C217.047 288.887 212.214 288.441 209.463 287.476C209.463 287.476 207.566 289.963 203.811 289.963C199.982 289.963 197.454 285.992 193.475 285.806C189.497 285.658 177.042 287.291 172.469 286.882C167.933 286.474 167.524 283.765 168.49 281.241C169.42 278.755 174.997 273.113 175.926 270.59C176.707 268.4 177.414 264.577 168.416 260.977C168.713 260.495 175.294 252.515 185.482 246.355C195.52 240.342 205.373 234.701 217.047 231.027C212.363 231.509 205.15 233.216 195.743 237.188C181.652 243.2 173.51 250.882 173.51 250.882C173.51 250.882 174.514 246.8 186.746 236.037L186.597 236.111C169.903 243.682 163.025 260.829 162.876 261.052C160.757 265.357 154.957 277.01 152.763 279.348C150.012 282.243 142.502 284.915 136.85 288.181C131.273 291.373 124.098 295.53 123.131 298.276C122.276 301.023 123.28 313.307 123.689 313.975C123.689 313.975 130.046 314.532 131.273 316.165C132.612 317.798 132.351 321.027 131.682 321.955C130.976 322.882 128.224 322.882 128.224 322.882C128.224 322.882 128.373 326.482 126.589 327.559C124.804 328.635 120.789 327.002 120.789 327.002C120.789 327.002 119.785 328.561 117.033 328.969C114.356 329.266 112.349 328.19 111.085 326.223C109.82 324.181 110.378 321.546 110.378 319.357C110.378 317.167 111.308 301.988 110.936 298.388C110.527 294.788 107.478 292.301 108.036 289.926C108.593 287.588 115.249 283.839 117.442 279.831C119.636 275.934 121.606 270.701 122.127 261.46C122.61 252.219 122.61 243.794 124.098 239.08C124.321 238.449 124.506 237.893 124.655 237.373C118.781 236.297 106.177 232.845 100.302 227.687C93.7215 221.897 90.7471 216.107 89.3343 208.685C87.9214 201.262 84.947 192.874 81.8983 187.493C78.7752 181.926 69.1456 176.953 69.1456 176.953C69.1456 176.953 64.8327 180.404 59.1813 177.249C52.8236 173.724 52.1172 171.534 49.9235 168.639C47.953 166.041 44.0491 165.262 43.0452 165.113C56.2813 159.955 62.8622 167.08 62.8622 167.08C62.8622 167.08 62.5647 163.48 57.4711 162.144C55.9095 161.662 54.0133 161.291 51.8941 161.068C52.8979 160.66 53.7903 160.363 54.4967 160.214C56.7646 159.583 62.007 159.027 66.0225 161.773C69.7776 164.26 71.1161 171.868 71.1161 171.868C73.0123 173.056 83.7945 178.437 87.3266 182.891C90.8587 187.344 93.3497 191.946 94.9113 197.996C96.4728 204.082 98.5921 212.915 107.59 220.375C114.579 226.091 124.73 227.427 129.117 227.724C129.266 227.501 129.526 227.241 129.675 227.019C132.723 223.047 141.907 214.363 144.621 213.101C147.298 211.839 158.154 209.13 159.418 207.868C160.683 206.606 171.316 198.107 172.283 196.845C173.212 195.584 178.083 186.899 180.983 182.631C183.883 178.326 191.096 170.346 191.096 170.346C191.096 170.346 184.998 170.198 183.325 167.452C183.325 167.452 189.98 164.482 190.612 160.734C191.021 158.544 189.423 156.911 184.887 158.767C184.887 158.767 185.519 154.462 189.274 149.08C193.103 143.699 200.316 137.649 203.216 135.571C206.897 132.973 208.161 129.633 207.195 127.814C206.265 126.033 202.324 125.847 199.61 128.891C199.61 128.891 202.101 121.394 206.823 118.091C206.823 118.091 203.365 117.386 202.138 114.639C202.138 114.639 207.381 114.788 210.987 112.858C214.593 110.816 224 104.878 227.606 104.73C227.606 104.73 224.706 103.245 220.17 104.878C220.17 104.878 227.049 96.6021 237.719 94.932C248.278 93.3732 257.759 96.1938 262.072 94.2268C262.072 94.2268 260.102 91.7402 255.417 91.7402C255.417 91.7402 261.217 88.2887 264.824 88.2887C264.824 88.2887 261.7 84.6887 257.388 83.0557C257.388 83.0557 266.794 83.3526 270.252 85.0227C270.252 85.0227 267.91 82.2763 268.281 79.233C268.281 79.233 275.494 85.7278 286.128 89.3278C296.798 92.9278 303.268 94.1897 305.089 97.0845C306.874 99.9794 305.796 101.612 305.796 101.612C305.796 101.612 313.566 104.878 316.281 106.289C319.032 107.773 320.036 110.965 320.445 112.078C320.742 113.155 322.638 116.235 324.051 116.755C325.464 117.311 333.458 120.652 337.771 123.398C342.083 126.144 346.248 129.893 346.248 129.893C346.248 129.893 342.083 132.231 341.154 134.198C340.224 136.165 338.403 145.777 330.669 148.264C330.669 148.264 333.012 144.293 331.227 140.285C331.227 140.285 321.969 139.728 315.5 143.736C315.5 143.736 314.31 151.493 318.474 153.682C322.638 155.872 327.397 149.303 327.955 147.893C327.955 147.893 327.806 151.567 327.955 153.979C327.955 154.202 329.033 153.905 329.033 154.128C329.256 156.726 328.81 160.474 328.81 160.474C328.81 160.474 331.859 158.136 336.953 159.064C342.046 159.918 343.31 161.551 344.946 161.551C346.582 161.551 349.817 159.361 350.895 158.285C351.973 157.208 353.795 156.503 355.431 157.023C356.993 157.579 357.922 160.066 357.922 160.066C357.922 160.066 364.094 160.623 366.065 160.214C368.035 159.918 372.013 161.996 373.129 162.961C374.133 163.889 375.471 165.299 375.099 166.412C374.69 167.489 372.199 169.159 372.199 169.159C372.199 169.159 373.612 172.054 373.463 173.835C373.24 175.616 369.485 176.322 369.485 176.322C369.485 176.322 368.221 181.184 365.879 182.408C363.536 183.744 356.881 180.998 356.881 180.998C356.881 180.998 352.977 182.408 348.404 182.26C343.868 182.111 341.34 178.66 341.34 178.66C341.34 178.66 337.957 178.103 335.242 180.441C332.528 182.779 326.877 193.023 321.3 198.107C321.3 198.107 305.87 213.658 292.151 221.489C291.965 221.674 285.496 224.755 280.402 225.46ZM370.935 233.513C370.935 233.513 371.493 238.598 369.671 239.86C367.886 241.122 364.429 239.303 364.429 239.303C364.429 239.303 364.28 242.903 361.529 243.831C358.852 244.759 355.58 241.493 355.58 241.493C355.58 241.493 349.222 242.495 344.909 240.565C340.596 238.598 339.667 234.627 339.667 234.627C339.667 234.627 332.603 231.361 325.724 230.656C319.85 230.025 307.097 229.32 296.352 224.235C300.814 221.637 307.395 217.518 312.563 213.287C317.508 209.204 321.969 204.825 324.869 201.856C328.141 204.751 332.937 208.833 336.915 210.614C343.571 213.658 348.441 214.92 350.635 215.291C352.754 215.699 354.39 218.037 354.948 219.262C355.505 220.524 357.699 222.454 360.19 222.305C362.793 222.157 365.99 220.672 368.89 222.305C371.716 223.938 374.467 227.39 374.988 229.728C375.545 231.992 372.98 233.513 370.935 233.513ZM229.465 140.544C229.465 140.544 240.136 130.227 256.161 133.196C272.222 136.091 279.361 148.115 279.361 148.115C279.361 148.115 267.315 138.429 254.45 137.019C241.549 135.682 229.465 140.544 229.465 140.544ZM308.175 160.214C313.604 160.548 321.04 164.52 321.04 164.52C310.778 172.796 291.816 179.699 285.161 181.109C285.087 181.184 289.697 174.837 283.265 167.971C278.097 162.404 260.622 158.99 244.114 165.225C260.734 156.243 276.089 158.878 283.971 162.887C291.482 166.709 290.85 172.981 290.701 173.761V173.835C290.701 173.835 296.278 172.759 300.107 170.384C300.405 165.225 303.379 159.992 308.175 160.214ZM310.22 119.575C308.733 118.573 303.156 117.386 303.156 117.386C303.156 117.386 308.956 116.049 310.518 116.049C312.154 116.049 315.463 118.239 317.805 118.388C317.805 118.388 315.76 121.134 315.463 121.913C315.165 122.619 316.318 124.103 316.318 124.103C316.318 124.103 311.633 120.577 310.22 119.575ZM240.434 154.536C234.708 157.357 227.978 163.443 217.233 165.967C205.968 168.639 197.007 164.557 197.007 164.557C212.586 164 219.947 159.621 235.377 151.419C250.807 143.291 267.092 150.082 267.092 150.082C255.714 148.338 247.014 151.307 240.434 154.536Z" fill="white"/>
<path d="M373.091 162.924C371.976 161.959 367.998 159.88 366.027 160.177C364.057 160.585 357.885 160.029 357.885 160.029C357.885 160.029 356.955 157.542 355.394 156.985C353.758 156.466 351.936 157.171 350.858 158.247C349.779 159.324 346.545 161.513 344.909 161.513C343.273 161.513 342.009 159.88 336.915 159.027C331.822 158.099 328.773 160.437 328.773 160.437C328.773 160.437 329.219 156.689 328.996 154.091C328.996 153.868 327.918 154.165 327.918 153.942C327.769 151.53 327.918 147.856 327.918 147.856C327.36 149.266 322.601 155.835 318.437 153.645C314.273 151.456 315.462 143.699 315.462 143.699C321.932 139.691 331.189 140.247 331.189 140.247C332.974 144.256 330.632 148.227 330.632 148.227C338.365 145.74 340.187 136.128 341.117 134.161C342.046 132.194 346.21 129.856 346.21 129.856C346.21 129.856 342.046 126.107 337.733 123.361C333.42 120.614 325.427 117.274 324.014 116.717C322.601 116.198 320.705 113.117 320.407 112.041C319.998 110.928 318.994 107.736 316.243 106.251C313.529 104.841 305.758 101.575 305.758 101.575C305.758 101.575 306.837 99.9422 305.052 97.0473C303.23 94.1525 296.761 92.8906 286.09 89.2906C275.457 85.6906 268.244 79.1958 268.244 79.1958C267.872 82.2391 270.214 84.9855 270.214 84.9855C266.757 83.3154 257.35 83.0185 257.35 83.0185C261.663 84.6515 264.786 88.2515 264.786 88.2515C261.18 88.2515 255.38 91.703 255.38 91.703C260.064 91.703 262.035 94.1896 262.035 94.1896C257.722 96.1566 248.241 93.336 237.682 94.8948C227.011 96.5649 220.133 104.841 220.133 104.841C224.669 103.208 227.569 104.693 227.569 104.693C223.963 104.841 214.556 110.779 210.95 112.821C207.343 114.75 202.101 114.602 202.101 114.602C203.328 117.348 206.785 118.054 206.785 118.054C202.064 121.357 199.573 128.854 199.573 128.854C202.287 125.81 206.228 125.996 207.157 127.777C208.124 129.596 206.86 132.936 203.179 135.534C200.279 137.612 193.066 143.662 189.237 149.043C185.481 154.425 184.849 158.73 184.849 158.73C189.385 156.874 190.984 158.507 190.575 160.697C189.943 164.445 183.288 167.414 183.288 167.414C184.961 170.161 191.058 170.309 191.058 170.309C191.058 170.309 183.845 178.289 180.945 182.594C178.045 186.862 173.175 195.546 172.245 196.808C171.279 198.07 160.645 206.569 159.381 207.831C158.117 209.093 147.26 211.802 144.583 213.064C141.869 214.326 132.686 223.01 129.637 226.981C129.488 227.204 129.228 227.464 129.079 227.686C124.692 227.39 114.542 226.053 107.552 220.338C98.5546 212.878 96.4354 204.045 94.8738 197.959C93.3123 191.909 90.8212 187.307 87.2891 182.854C83.757 178.4 72.9748 173.018 71.0787 171.831C71.0787 171.831 69.7402 164.223 65.985 161.736C61.9696 158.99 56.7272 159.546 54.4592 160.177C53.7528 160.326 52.8605 160.623 51.8566 161.031C53.9759 161.254 55.8721 161.625 57.4336 162.107C62.5273 163.443 62.8247 167.043 62.8247 167.043C62.8247 167.043 56.2439 159.917 43.0078 165.076C44.0117 165.225 47.9156 166.004 49.8861 168.602C52.0797 171.497 52.7861 173.686 59.1439 177.212C64.7953 180.367 69.1081 176.915 69.1081 176.915C69.1081 176.915 78.7377 181.889 81.8608 187.456C84.9096 192.837 87.884 201.225 89.2968 208.647C90.7097 216.07 93.6841 221.86 100.265 227.649C106.139 232.808 118.743 236.26 124.618 237.336C124.469 237.856 124.283 238.412 124.06 239.043C122.573 243.757 122.573 252.181 122.09 261.423C121.569 270.664 119.598 275.897 117.405 279.794C115.211 283.802 108.556 287.55 107.998 289.889C107.441 292.264 110.489 294.75 110.898 298.35C111.27 301.95 110.341 317.13 110.341 319.319C110.341 321.509 109.783 324.144 111.047 326.185C112.311 328.152 114.319 329.229 116.996 328.932C119.747 328.524 120.751 326.965 120.751 326.965C120.751 326.965 124.766 328.598 126.551 327.521C128.336 326.445 128.187 322.845 128.187 322.845C128.187 322.845 130.938 322.845 131.645 321.917C132.314 320.99 132.574 317.761 131.236 316.128C130.009 314.495 123.651 313.938 123.651 313.938C123.242 313.27 122.238 300.985 123.093 298.239C124.06 295.493 131.236 291.336 136.813 288.144C142.464 284.878 149.974 282.206 152.726 279.311C154.919 276.973 160.719 265.319 162.839 261.014C162.987 260.792 169.866 243.645 186.56 236.074L186.708 236C174.476 246.763 173.472 250.845 173.472 250.845C173.472 250.845 181.615 243.163 195.706 237.15C205.112 233.179 212.325 231.472 217.01 230.99C205.335 234.664 195.483 240.305 185.444 246.317C175.257 252.478 168.676 260.458 168.379 260.94C177.376 264.54 176.67 268.363 175.889 270.552C174.959 273.076 169.382 278.717 168.453 281.204C167.486 283.728 167.895 286.437 172.431 286.845C177.004 287.253 189.46 285.62 193.438 285.769C197.416 285.955 199.944 289.926 203.774 289.926C207.529 289.926 209.425 287.439 209.425 287.439C212.177 288.404 217.01 288.849 218.98 287.996C220.914 287.068 220.616 283.319 220.616 283.319C223.888 282.8 225.859 281.13 225.301 279.348C224.743 277.53 223.516 275.192 220.765 273.559C218.014 271.926 215.523 272.482 213.552 273.41C211.619 274.338 208.868 275.897 205.967 275.6C203.067 275.192 192.248 272.853 192.248 272.853C195.148 264.874 204.369 259.159 208.533 257.674C212.697 256.264 220.691 253.666 223.739 251.179C226.788 248.693 228.61 239.6 228.833 237.818C228.982 236.037 227.42 230.247 227.42 230.247C230.655 229.691 239.169 229.839 245.676 227.352C249.505 225.868 256.718 221.971 262.035 219.076C250.472 212.433 227.272 214.066 227.272 214.066C251.624 208.981 268.467 215.476 268.467 215.476C276.386 217.851 280.365 225.423 280.365 225.423C285.458 224.717 291.965 221.674 291.965 221.674C305.684 213.88 321.114 198.293 321.262 198.07C326.839 192.985 332.491 182.742 335.205 180.404C337.919 178.066 341.302 178.623 341.302 178.623C341.302 178.623 343.831 182.074 348.367 182.223C352.94 182.371 356.844 180.961 356.844 180.961C356.844 180.961 363.499 183.707 365.841 182.371C368.184 181.146 369.448 176.284 369.448 176.284C369.448 176.284 373.203 175.579 373.426 173.798C373.575 172.016 372.162 169.122 372.162 169.122C372.162 169.122 374.653 167.451 375.062 166.375C375.434 165.262 374.095 163.851 373.091 162.924ZM310.555 116.049C312.191 116.049 315.5 118.239 317.842 118.388C317.842 118.388 315.797 121.134 315.5 121.913C315.165 122.618 316.355 124.103 316.355 124.103C316.355 124.103 311.67 120.577 310.257 119.575C308.77 118.573 303.193 117.385 303.193 117.385C303.193 117.385 308.993 116.049 310.555 116.049ZM256.16 133.196C272.222 136.091 279.361 148.115 279.361 148.115C279.361 148.115 267.314 138.429 254.45 137.018C241.511 135.682 229.465 140.544 229.465 140.544C229.465 140.544 240.136 130.19 256.16 133.196ZM217.27 165.967C205.967 168.639 197.044 164.557 197.044 164.557C212.623 164 219.984 159.621 235.414 151.418C250.844 143.291 267.128 150.082 267.128 150.082C255.714 148.375 247.014 151.344 240.433 154.536C234.708 157.357 227.978 163.443 217.27 165.967ZM285.161 181.109C285.049 181.183 289.697 174.837 283.265 167.971C278.097 162.404 260.659 158.952 244.114 165.225C260.696 156.243 276.052 158.915 283.971 162.887C291.481 166.709 290.849 172.981 290.701 173.761V173.835C290.701 173.835 296.278 172.722 300.107 170.383C300.405 165.225 303.379 159.992 308.175 160.214C313.603 160.548 321.039 164.519 321.039 164.519C310.778 172.833 291.816 179.699 285.161 181.109ZM374.987 229.728C375.545 231.992 372.98 233.513 370.935 233.513C370.935 233.513 371.493 238.598 369.671 239.86C367.886 241.122 364.428 239.303 364.428 239.303C364.428 239.303 364.28 242.903 361.528 243.831C358.851 244.759 355.58 241.493 355.58 241.493C355.58 241.493 349.222 242.495 344.909 240.565C340.596 238.598 339.667 234.627 339.667 234.627C339.667 234.627 332.602 231.361 325.724 230.656C319.85 230.025 307.097 229.319 296.352 224.235C300.813 221.637 307.394 217.517 312.562 213.286C317.507 209.204 321.969 204.825 324.869 201.856C328.141 204.75 332.937 208.833 336.915 210.614C343.57 213.658 348.441 214.919 350.635 215.291C352.754 215.699 354.39 218.037 354.947 219.262C355.505 220.524 357.699 222.453 360.19 222.305C362.792 222.157 365.99 220.672 368.89 222.305C371.716 223.938 374.467 227.39 374.987 229.728Z" fill="#0076B6"/>
</g>
<defs>
<clipPath id="clip0_257_11732">
<rect width="378" height="288" fill="white" transform="translate(12 56)"/>
</clipPath>
</defs>
</svg>
