<svg width="400" height="400" viewBox="0 0 400 400" fill="none" xmlns="http://www.w3.org/2000/svg">
<g clip-path="url(#clip0_257_11734)">
<path fill-rule="evenodd" clip-rule="evenodd" d="M348.35 146.269C338.209 133.647 328.298 125.061 311.684 114.6C298.851 106.469 281.378 99.191 262.472 94.0738C242.993 88.786 223.228 86 205.297 86H198.136H198.078H197.964C197.276 86 196.646 86.0569 196.073 86.0569C195.386 86.1137 194.755 86.1137 194.183 86.1137C193.896 86.1137 193.61 86.1137 193.323 86.1137H193.094H192.865C170.293 86.1137 145.314 92.7092 135.575 95.5521C119.591 100.214 104.008 107.208 89.2847 116.248C81.3214 121.138 66.1396 131.714 53.5358 147.691C40.5883 164.18 34 181.635 34 199.602V201.251C34 220.298 40.4738 238.322 53.2494 254.925C62.7595 267.263 75.9362 278.691 90.3732 287.049C106.357 296.317 123.028 302.913 141.419 307.234C158.434 311.214 177.568 313.431 199.969 313.943C201.286 314 202.719 314 204.094 314C222.025 314 241.504 311.157 260.467 305.756C278.341 300.695 294.955 293.645 308.59 285.344C323.829 276.133 336.491 265.443 346.287 253.731C352.818 245.884 368 225.188 368 202.843V197.555C368 177.882 357.459 157.641 348.35 146.269ZM359.979 202.843C359.979 220.753 348.178 238.948 340.1 248.67C330.819 259.814 318.559 269.992 304.408 278.578C277.998 294.611 237.494 306.893 200.198 305.983C158.376 305.016 125.549 298.194 94.4408 280.17C71.5249 266.865 42.0779 239.516 42.0779 201.251V199.602C42.0779 163.384 72.4415 135.921 93.5242 122.958C106.357 115.054 121.31 107.947 137.867 103.114C153.621 98.5087 174.99 94.017 192.865 94.017C194.813 94.1307 196.245 93.9601 198.193 93.9032H205.354C240.874 93.9032 282.581 105.616 307.387 121.309C322.512 130.861 331.965 138.65 342.048 151.216C350.126 161.337 359.979 180.1 359.979 197.555V202.843V202.843ZM332.595 194.826L332.824 202.388C332.824 230.419 305.84 252.196 287.279 261.975C263.331 274.598 233.311 281.989 201.859 281.989C166.397 281.989 140.96 275.621 113.003 261.918C94.4408 252.878 67.5146 229.907 67.5146 201.819V199.602C67.5146 171.002 94.5554 149.055 112.544 138.935C134.83 126.71 166.454 117.158 196.417 117.158H204.609C230.39 117.158 256.858 123.526 277.654 132.851C291.518 139.105 307.158 149.453 316.325 160.427C317.757 162.133 325.033 171.002 325.434 173.334H266.998C258.863 163.327 253.592 157.982 239.785 151.614C226.895 145.644 211.942 143.028 196.302 143.028C161.585 143.028 120.909 162.758 120.966 196.02C120.966 232.58 158.147 249.751 195.271 249.751H199.797C213.145 249.751 229.244 245.827 239.843 240.483C250.097 235.366 261.956 226.439 266.54 218.024C263.274 217.853 254.509 218.081 250.613 218.081L196.302 218.195C190.745 218.251 182.094 218.365 176.881 218.195L176.766 194.826H332.595Z" fill="white"/>
<path fill-rule="evenodd" clip-rule="evenodd" d="M342.048 151.216C331.965 138.65 322.512 130.861 307.387 121.309C282.581 105.616 240.874 93.9033 205.354 93.9033H198.193C196.245 93.9602 194.813 94.1308 192.865 94.017C174.99 94.017 153.621 98.5088 137.867 103.114C121.31 107.947 106.357 115.054 93.5242 122.958C72.4415 135.921 42.0779 163.384 42.0779 199.602V201.251C42.0779 239.516 71.5249 266.865 94.4408 280.17C125.549 298.194 158.376 305.016 200.198 305.983C237.494 306.893 277.998 294.611 304.408 278.578C318.559 269.992 330.819 259.815 340.1 248.67C348.178 238.948 359.979 220.753 359.979 202.843V197.555C359.979 180.1 350.126 161.337 342.048 151.216ZM351.329 202.331C351.329 227.235 328.585 249.808 316.611 259.587C302.117 271.413 278.169 284.605 255.082 290.12C226.494 296.886 202.719 299.274 171.553 295.749C148.694 293.133 118.044 284.548 101.258 273.915C96.1022 270.617 91.9201 268.173 87.2223 264.818C74.3321 255.607 62.9314 242.473 56.1712 226.837C44.6559 200.227 53.0202 175.381 67.2854 157.414C79.6028 141.891 97.7637 128.473 120.622 118.75C142.335 109.539 170.121 102.659 196.761 102.659H205.354C239.098 102.659 276.737 113.349 301.2 127.904C315.236 136.206 325.033 144.393 334.199 155.367C341.99 164.691 351.214 181.692 351.329 198.465V202.331Z" fill="#EFAD1F"/>
<path fill-rule="evenodd" clip-rule="evenodd" d="M334.199 155.366C325.032 144.393 315.236 136.205 301.2 127.904C276.737 113.348 239.098 102.659 205.354 102.659H196.76C170.121 102.659 142.335 109.539 120.622 118.75C97.7635 128.473 79.6026 141.891 67.2853 157.413C53.0201 175.38 44.6558 200.227 56.1711 226.837C62.9313 242.473 74.332 255.607 87.2222 264.818C91.92 268.172 96.1021 270.617 101.258 273.915C118.044 284.547 148.694 293.133 171.553 295.748C202.719 299.274 226.494 296.886 255.082 290.12C278.169 284.604 302.117 271.413 316.611 259.587C328.584 249.807 351.329 227.235 351.329 202.331V198.465C351.214 181.692 341.99 164.691 334.199 155.366ZM287.278 261.975C263.331 274.597 233.311 281.989 201.859 281.989C166.397 281.989 140.96 275.621 113.003 261.918C94.4407 252.878 67.5145 229.907 67.5145 201.819V199.602C67.5145 171.002 94.5553 149.055 112.544 138.934C134.83 126.71 166.454 117.158 196.417 117.158H204.609C230.39 117.158 256.858 123.526 277.654 132.851C291.518 139.105 307.158 149.453 316.324 160.427C317.757 162.132 325.032 171.002 325.433 173.333H266.998C258.863 163.327 253.592 157.982 239.785 151.614C226.895 145.644 211.942 143.028 196.302 143.028C161.584 143.028 120.909 162.758 120.966 196.02C120.966 232.579 158.147 249.75 195.271 249.75H199.797C213.145 249.75 229.244 245.827 239.842 240.483C250.097 235.365 261.956 226.439 266.539 218.024C263.274 217.853 254.509 218.081 250.613 218.081L196.302 218.194C190.745 218.251 182.094 218.365 176.881 218.194L176.766 194.826H332.595L332.824 202.388C332.824 230.419 305.84 252.195 287.278 261.975Z" fill="#08342D"/>
</g>
<defs>
<clipPath id="clip0_257_11734">
<rect width="334" height="228" fill="white" transform="translate(34 86)"/>
</clipPath>
</defs>
</svg>
