<svg width="400" height="400" viewBox="0 0 400 400" fill="none" xmlns="http://www.w3.org/2000/svg">
<g clip-path="url(#clip0_257_11742)">
<path d="M209.524 236.189L182.379 240.195L189.282 269.354L165.666 242.699L138.561 246.705L151.086 226.174L127.47 199.519L158.841 213.578L171.366 193.086L178.191 222.245L209.524 236.189ZM381.929 169.589C381.192 185.112 373.436 199.48 359.477 211.228C345.943 222.63 326.826 231.336 302.784 237.229C288.824 270.934 267.225 291.002 251.209 305.794C239.499 316.656 230.27 325.208 229.106 334.029C228.68 337.226 226.663 340.038 223.677 341.347L175.244 363.15C174.585 363.458 173.848 363.689 173.034 363.804L161.866 365.807C161.672 365.884 161.439 365.923 161.207 365.923C160.858 366 160.431 366 160.043 366C158.57 366 157.096 365.653 155.778 364.96L94.5092 337.38C91.4458 336.032 89.313 333.143 89.0028 329.792C88.6926 326.44 90.1661 323.243 92.9193 321.317L106.026 312.111C112.967 276.172 96.0991 246.782 51.6599 217.238C49.1006 215.543 47.5883 212.692 47.5107 209.611C47.4332 206.529 48.9067 203.602 51.4273 201.868L72.7937 186.73C52.3967 171.053 37.3898 154.682 28.2383 137.887C18.001 119.205 15.3641 100.485 20.6766 83.8058C30.371 53.1057 64.8443 34 110.602 34C127.121 34 144.571 36.5038 162.486 41.2802C166.713 42.4358 169.583 46.3648 169.389 50.7175C169.195 55.0702 165.976 58.7681 161.633 59.4999C128.75 65.2008 108.469 75.0233 107.461 85.7318C106.685 93.7438 116.07 105.3 133.326 117.549C154.614 132.649 187.188 148.711 230.153 165.236L257.569 166.276C276.105 164.196 291.848 160.46 303.288 155.491C313.603 151.022 320.117 145.553 321.668 140.083C323.917 132.186 316.433 120.977 300.418 108.574C296.889 105.8 295.765 100.87 297.898 96.8639C299.526 93.7823 302.784 91.8949 306.196 91.8949C307.166 91.8949 308.135 92.0104 309.066 92.3186C331.091 99.2906 349.627 110.153 362.656 123.712C376.035 137.772 382.782 153.642 381.929 169.589ZM228.02 174.365C74.3061 115.392 64.1076 67.0498 160.121 50.2938C40.1042 17.9373 -29.8894 104.298 88.8477 186.73L57.0113 209.341C90.8253 231.836 126.695 265.04 114.557 317.35L98.5033 328.752L160.198 356.524C217.473 294.084 247.487 233.416 228.02 174.365ZM306.08 101.294C358.856 142.317 322.172 168.51 257.84 175.636C274.127 243.777 224.22 306.179 171.366 354.521L219.8 332.719C223.406 305.024 272.537 290.656 295.842 229.179C405.273 204.911 387.396 126.986 306.08 101.294Z" fill="white"/>
<path fill-rule="evenodd" clip-rule="evenodd" d="M228.022 174.365C74.3075 115.392 64.109 67.0496 160.122 50.2936C40.1057 17.9372 -29.8879 104.298 88.8491 186.73L57.0127 209.341C90.8268 231.836 126.696 265.04 114.559 317.35L98.5048 328.751L160.2 356.524C217.474 294.084 247.488 233.416 228.022 174.365ZM189.283 269.354L165.668 242.699L138.562 246.705L151.087 226.174L127.472 199.518L158.843 213.578L171.368 193.086L178.193 222.245L209.564 236.227L182.419 240.234L189.283 269.354Z" fill="#00143F"/>
<path fill-rule="evenodd" clip-rule="evenodd" d="M306.081 101.294C358.858 142.317 322.174 168.51 257.842 175.636C274.129 243.778 224.222 306.179 171.368 354.521L219.801 332.719C223.407 305.024 272.539 290.656 295.844 229.179C405.274 204.911 387.398 126.986 306.081 101.294Z" fill="#C9243F"/>
</g>
<defs>
<clipPath id="clip0_257_11742">
<rect width="364" height="332" fill="white" transform="translate(18.0007 34)"/>
</clipPath>
</defs>
</svg>
