<svg width="400" height="400" viewBox="0 0 400 400" fill="none" xmlns="http://www.w3.org/2000/svg">
<g clip-path="url(#clip0_257_11724)">
<path d="M116.704 271.748C116.704 273.552 115.247 275.075 113.397 275.075C111.604 275.075 110.09 273.609 110.09 271.748C110.09 269.943 111.548 268.42 113.397 268.42C115.247 268.42 116.704 269.886 116.704 271.748ZM200.882 310.271C199.089 310.271 197.576 311.737 197.576 313.599C197.576 315.404 199.033 316.926 200.882 316.926C202.676 316.926 204.189 315.46 204.189 313.599C204.133 311.737 202.676 310.271 200.882 310.271ZM93.8936 191.993C92.1002 191.993 90.587 193.46 90.587 195.321C90.587 197.126 92.0442 198.649 93.8936 198.649C95.687 198.649 97.2002 197.183 97.2002 195.321C97.2002 193.516 95.687 191.993 93.8936 191.993ZM132.396 108.742C134.19 108.742 135.703 107.276 135.703 105.415C135.703 103.61 134.246 102.087 132.396 102.087C130.547 102.087 129.09 103.553 129.09 105.415C129.146 107.22 130.603 108.742 132.396 108.742ZM269.649 102.087C267.855 102.087 266.342 103.553 266.342 105.415C266.342 107.22 267.799 108.742 269.649 108.742C271.442 108.742 272.955 107.276 272.955 105.415C272.899 103.61 271.442 102.087 269.649 102.087ZM288.592 268.42C286.798 268.42 285.285 269.886 285.285 271.748C285.285 273.552 286.742 275.075 288.592 275.075C290.385 275.075 291.898 273.609 291.898 271.748C291.898 269.886 290.441 268.42 288.592 268.42ZM334.829 226.174C333.203 238.188 329.336 260.241 309.272 287.653C295.317 306.774 279.12 320.536 259.449 330.914C249.417 336.273 228.512 343.887 201.107 344H200.938C173.589 343.887 152.684 336.273 142.596 330.914C122.925 320.536 106.672 306.774 92.7167 287.653C72.6528 260.241 68.7857 238.188 67.1604 226.174C66.2077 219.913 65.0868 204.91 67.2165 191.429C69.5704 171.97 73.9979 162.269 77.1363 152.793C79.6023 146.025 87.4485 129.837 92.1562 122.392C96.1354 116.582 103.365 105.809 106.335 102.03C107.12 100.846 106.111 101.41 105.663 101.41C104.598 101.692 104.038 101.748 103.197 101.692C102.581 101.692 101.291 101.466 100.619 101.297C96.6958 100.451 91.1474 96.1081 91.82 88.4937C91.7079 86.8016 93.5013 72.3624 94.9024 67.8501C96.6958 61.533 100.507 58.6 107.176 58.036C110.539 58.036 124.606 57.754 131.051 58.7692C143.885 60.0665 153.245 63.7891 158.849 75.1825C163.333 85.1659 161.763 100.733 155.655 112.691C153.581 116.752 149.378 124.366 145.735 129.273C142.372 134.18 140.971 136.718 138.057 142.189C135.142 147.943 125.335 169.432 122.028 183.477C115.639 209.704 119.226 224.764 131.499 245.294C140.579 258.944 151.171 268.758 159.41 273.27C172.916 281.844 191.411 284.213 201.051 284.213C210.69 284.213 229.185 281.787 242.692 273.27C250.93 268.758 261.522 258.944 270.602 245.294C282.875 224.764 286.462 209.704 280.073 183.477C276.71 169.432 266.959 147.943 264.044 142.189C261.13 136.718 259.729 134.18 256.366 129.273C252.723 124.366 248.52 116.752 246.446 112.691C240.282 100.733 238.768 85.1659 243.252 75.1825C248.856 63.7891 258.216 60.0665 271.05 58.7692C277.439 57.754 291.562 58.036 294.925 58.036C301.65 58.6 305.405 61.533 307.199 67.8501C308.6 72.3624 310.393 86.8016 310.281 88.4937C310.954 96.0517 305.349 100.395 301.426 101.241C300.754 101.466 299.464 101.636 298.848 101.636C298.007 101.692 297.447 101.636 296.382 101.354C295.934 101.354 294.869 100.79 295.71 101.974C298.68 105.753 305.91 116.526 309.889 122.336C314.54 129.781 322.443 146.025 324.909 152.737C328.047 162.213 332.419 171.914 334.829 191.373C336.902 204.91 335.781 219.913 334.829 226.174ZM327.094 183.984C317.903 140.554 299.352 118.669 288.76 103.61C283.716 96.3337 288.872 92.1035 292.963 93.6264C296.382 94.9236 298.68 94.98 298.68 94.98C304.677 94.1904 303.836 90.2422 302.715 79.9768L301.314 71.5727C300.081 64.1275 296.718 64.2967 287.919 64.4095C273.964 64.6915 271.442 64.8044 263.932 66.2144C253.9 68.4706 240.786 78.5667 251.098 106.373C257.543 121.264 264.213 126.34 271.498 141.795C279.289 158.941 298.288 197.408 285.453 230.291C270.49 271.014 233.108 290.248 200.714 290.699C168.321 290.135 134.302 274.398 116.704 230.291C103.87 197.408 122.869 158.941 130.659 141.795C137.888 126.34 144.614 121.264 151.059 106.373C161.371 78.5667 148.257 68.4706 138.225 66.2144C130.715 64.8044 128.193 64.6915 114.238 64.4095C105.439 64.2403 102.076 64.1275 100.843 71.5727L99.442 79.9768C98.3211 90.2422 97.4805 94.1904 103.477 94.98C103.477 94.98 105.831 94.9236 109.194 93.6264C113.229 92.1035 118.385 96.2773 113.397 103.61C102.805 118.669 84.254 140.554 75.0627 183.984C66.9363 231.419 83.1331 258.662 90.1386 271.522C105.775 297.467 121.972 310.948 139.85 321.664C163.949 337.006 200.042 337.965 202.003 337.514C210.802 337.401 243.084 335.145 262.251 321.664C280.129 311.004 296.326 297.524 311.962 271.522C318.912 258.662 335.109 231.419 327.094 183.984ZM308.151 191.993C306.358 191.993 304.845 193.46 304.845 195.321C304.845 197.126 306.302 198.649 308.151 198.649C309.945 198.649 311.458 197.183 311.458 195.321C311.458 193.516 309.945 191.993 308.151 191.993Z" fill="white"/>
<path d="M327.094 183.984C317.903 140.554 299.352 118.669 288.76 103.61C283.716 96.3337 288.872 92.1034 292.963 93.6263C296.382 94.9236 298.68 94.98 298.68 94.98C304.676 94.1904 303.836 90.2421 302.715 79.9768L301.314 71.5727C300.081 64.1275 296.718 64.2967 287.919 64.4095C273.964 64.6915 271.442 64.8043 263.932 66.2144C253.9 68.4705 240.786 78.5667 251.098 106.373C257.543 121.264 264.212 126.34 271.498 141.795C279.288 158.941 298.287 197.408 285.453 230.291C270.489 271.014 233.108 290.248 200.714 290.699C168.32 290.135 134.302 274.398 116.704 230.291C103.869 197.408 122.868 158.941 130.659 141.795C137.888 126.34 144.614 121.264 151.059 106.373C161.371 78.5667 148.257 68.4705 138.225 66.2144C130.715 64.8043 128.193 64.6915 114.238 64.4095C105.439 64.2403 102.076 64.1275 100.843 71.5727L99.4419 79.9768C98.321 90.2421 97.4803 94.1904 103.477 94.98C103.477 94.98 105.831 94.9236 109.194 93.6263C113.229 92.1034 118.385 96.2773 113.397 103.61C102.805 118.669 84.2539 140.554 75.0626 183.984C66.9361 231.419 83.133 258.662 90.1385 271.522C105.775 297.467 121.972 310.948 139.85 321.664C163.949 337.006 200.042 337.965 202.003 337.514C210.802 337.401 243.084 335.145 262.251 321.664C280.129 311.004 296.326 297.524 311.962 271.522C318.912 258.662 335.109 231.419 327.094 183.984ZM269.649 108.742C267.855 108.742 266.342 107.276 266.342 105.415C266.342 103.61 267.799 102.087 269.649 102.087C271.442 102.087 272.955 103.553 272.955 105.415C272.899 107.219 271.442 108.742 269.649 108.742ZM132.396 102.087C134.189 102.087 135.703 103.553 135.703 105.415C135.703 107.219 134.245 108.742 132.396 108.742C130.547 108.742 129.089 107.276 129.089 105.415C129.145 103.61 130.603 102.087 132.396 102.087ZM93.8935 198.649C92.1001 198.649 90.5869 197.183 90.5869 195.321C90.5869 193.516 92.044 191.993 93.8935 191.993C95.6869 191.993 97.2001 193.46 97.2001 195.321C97.2001 197.126 95.6869 198.649 93.8935 198.649ZM113.453 275.019C111.66 275.019 110.146 273.552 110.146 271.691C110.146 269.886 111.604 268.363 113.453 268.363C115.246 268.363 116.76 269.83 116.76 271.691C116.704 273.552 115.246 275.019 113.453 275.019ZM200.882 316.926C199.089 316.926 197.576 315.46 197.576 313.599C197.576 311.794 199.033 310.271 200.882 310.271C202.676 310.271 204.189 311.737 204.189 313.599C204.133 315.404 202.676 316.926 200.882 316.926ZM288.592 275.019C286.798 275.019 285.285 273.552 285.285 271.691C285.285 269.886 286.742 268.363 288.592 268.363C290.385 268.363 291.898 269.83 291.898 271.691C291.898 273.552 290.441 275.019 288.592 275.019ZM308.151 198.649C306.358 198.649 304.845 197.183 304.845 195.321C304.845 193.516 306.302 191.993 308.151 191.993C309.945 191.993 311.458 193.46 311.458 195.321C311.458 197.126 309.945 198.649 308.151 198.649Z" fill="#1C305D"/>
</g>
<defs>
<clipPath id="clip0_257_11724">
<rect width="270" height="286" fill="white" transform="translate(66 58)"/>
</clipPath>
</defs>
</svg>
