<svg width="400" height="400" viewBox="0 0 400 400" fill="none" xmlns="http://www.w3.org/2000/svg">
<g clip-path="url(#clip0_257_11730)">
<path d="M100.966 197.246L102.049 195.772C101.662 196.315 101.275 196.78 100.966 197.246ZM226.943 148.756C233.832 149.144 240.411 151.355 247.068 152.945C242.269 149.764 237.16 147.049 231.858 144.76C224.659 141.618 218.003 137.39 211.617 132.89C209.565 131.144 206.779 131.765 204.341 131.92C205.618 133.976 207.088 135.955 208.637 137.855C207.824 137.894 206.16 137.933 205.347 137.933C210.92 143.907 218.738 147.98 226.943 148.756ZM235.419 127.537C246.526 130.019 256.396 136.342 267.387 139.097C263.44 137.312 259.376 135.101 256.899 131.377C256.744 131.843 256.434 132.774 256.28 133.239C252.487 131.455 248.539 129.67 245.481 126.683C243.624 124.821 242.85 122.339 242.114 119.856C241.069 121.369 240.218 123.114 239.289 124.666C239.986 125.713 240.682 126.567 241.34 127.653C239.444 127.226 238.438 126.955 236.619 126.451C235.961 124.356 234.722 122.804 233.445 121.058C234.064 121.058 235.187 120.942 235.806 120.942C234.761 120.283 233.755 119.662 232.71 119.002C235.535 116.248 239.676 115.007 241.611 111.36C242.153 111.632 243.237 112.253 243.779 112.524C243.121 111.71 242.695 111.05 241.843 110.08C237.78 109.576 233.097 109.886 230.194 113.184C230.852 113.339 231.858 113.61 232.516 113.766C231.084 113.766 229.923 113.649 228.53 113.843C227.64 115.123 226.827 116.675 227.291 118.265C228.646 120.205 230.774 121.757 230.929 124.356C229.923 124.511 228.878 124.627 227.872 124.782C225.24 123.541 222.647 122.183 220.518 120.166C221.292 120.244 223.382 120.515 224.156 120.554C223.189 119.817 221.679 118.925 220.712 118.227C220.75 116.908 220.789 115.628 220.75 114.309C218.699 114.347 216.648 114.464 214.597 114.619C215.874 115.744 217.19 116.869 218.467 117.994C213.977 119.778 209.178 121.02 205.076 123.696C201.128 126.024 198.187 129.593 195.129 132.929C195.4 132.89 195.981 132.812 196.252 132.774C207.475 124.666 222.453 124.511 235.419 127.537ZM76.5056 102.438C77.1635 102.438 78.5181 102.4 79.1761 102.4C78.2859 101.585 77.3183 100.848 76.3895 100.072C76.7378 99.8781 77.4345 99.529 77.7828 99.335C79.7179 98.2876 81.6917 97.3178 83.743 96.5032C82.0401 96.1541 80.3759 95.6498 78.8278 94.8739C66.3655 95.1455 53.7871 95.5334 41.2862 95.8437C41.2475 95.9601 41.2475 96.1153 41.2475 96.2316C50.1104 98.5204 58.7798 101.701 67.0234 105.736C70.1584 104.688 73.6803 104.494 76.5056 102.438ZM243.817 136.808C243.082 135.45 241.34 135.411 240.063 134.985C237.664 134.48 235.341 133.317 232.864 133.472C236.077 134.442 238.554 136.73 241.263 138.592C242.54 139.097 244.088 138.243 243.817 136.808ZM99.495 138.282C95.586 138.011 91.7544 137.584 87.9229 136.847C99.0693 135.45 110.177 132.424 119.853 126.567C113.738 128.429 107.429 129.67 101.004 130.019C86.5296 130.873 71.242 130.252 58.0831 123.464C65.3979 124.278 72.8288 125.791 80.221 124.511C74.9188 121.33 70.468 117.024 65.127 113.921C54.6386 107.365 42.602 102.089 29.985 103.059C32.2684 104.456 34.5519 105.813 36.3709 107.792C36.2548 112.369 38.7705 116.403 41.4023 119.934C44.3437 124.007 48.2139 127.188 51.8907 130.524C50.2265 130.562 48.601 130.524 46.9367 130.601C51.194 133.433 56.2254 134.674 60.8697 136.692C58.8572 137.235 56.8059 137.623 54.7934 138.127C68.5328 144.023 84.7106 144.76 98.6822 139.291C98.8757 139.058 99.3015 138.554 99.495 138.282ZM331.324 210.901C328.576 208.379 324.706 209.31 321.919 211.211C318.668 207.836 314.179 211.715 310.502 212.297C310.734 215.168 312.321 217.689 313.598 220.249C316.501 218.543 318.9 216.215 321.532 214.159C321.997 216.409 322.229 218.736 322.345 221.064C324.745 220.055 326.951 218.659 329.118 217.185C327.763 223.741 324.861 229.831 321.648 235.689C328.886 232.081 334.614 225.991 339.684 219.784C341.735 217.379 343.631 213.538 341.387 210.668C338.6 207.758 334.265 208.961 331.324 210.901ZM364.299 181.807C363.138 182.932 360.39 180.759 362.131 179.634C364.066 177.733 366.466 176.104 367.434 173.466C367.163 171.759 365.498 170.712 364.492 169.432C362.247 174.126 359.035 178.354 354.971 181.613C351.604 184.406 347.424 185.919 343.67 188.091C337.903 191.349 332.214 195.229 328.344 200.737C335.272 201.513 342.432 203.879 347.115 209.31C353.849 207.758 360.661 204.927 365.382 199.69C363.215 199.496 360.932 199.651 358.88 198.759C357.835 198.448 357.797 197.168 358.261 196.392C361.357 194.53 365.576 197.556 368.479 195.112C370.065 192.63 370.375 189.643 370.917 186.811C367.705 189.41 362.828 192.979 358.842 190.108C360.506 187.664 363.525 187.16 365.963 185.841C367.743 184.949 369.291 183.63 370.801 182.35C370.53 180.488 370.259 178.587 369.407 176.88C367.472 178.083 366.776 180.992 364.299 181.807ZM382.799 195.5C382.76 195.539 382.76 195.617 382.721 195.694C379.431 205.896 371.652 215.129 361.396 221.025C359.113 222.461 356.79 223.392 354.739 224.206C354.159 224.439 353.578 224.672 353.036 224.904C343.67 237.822 330.047 247.326 314.45 251.748C313.792 251.942 313.095 252.02 312.437 252.02C310.192 252.02 307.986 250.934 306.554 249.072C304.697 246.667 304.542 243.331 306.129 240.732L306.864 239.529C307.986 237.667 309.07 235.883 310.076 234.098C309.767 233.982 309.457 233.865 309.147 233.71C306.322 235.766 302.994 237.551 299.162 239.141C301.02 240.072 302.452 241.74 303.032 243.796C305.78 253.494 304.89 263.386 303.226 272.929C303.613 273.2 304.039 273.511 304.426 273.86C307.986 276.924 309.573 280.998 308.876 285.381C308.838 285.536 308.838 285.653 308.799 285.769C305.974 298.919 298.582 311.449 287.977 321.108C274.779 332.94 259.337 339.651 244.475 339.961C243.856 340 243.275 340 242.695 340C231.123 340 219.241 337.013 208.366 331.388C197.916 325.996 188.55 318.277 181.312 309.044C176.9 303.613 173.185 297.794 169.624 292.17C166.025 286.545 162.658 281.23 158.671 276.381C158.671 276.342 158.633 276.304 158.594 276.265C152.982 269.205 145.512 263.231 136.92 258.964C132.47 256.753 127.825 254.658 123.336 252.641C114.589 248.684 105.533 244.611 97.018 239.296C79.0213 228.357 64.5465 211.599 56.2641 192.125C51.2327 180.294 49.2976 167.182 50.5361 153.876C47.1303 151.665 44.0727 149.066 41.2475 146.545C41.2475 146.506 41.2087 146.506 41.17 146.467C31.5331 137.545 24.644 128.662 20.1158 119.274C20.0771 119.274 20.0771 119.235 20.0771 119.235C15.9746 110.546 14.9683 102.555 17.0583 95.4946C17.097 95.417 17.097 95.3394 17.1357 95.2618C17.9871 92.7016 19.9997 86.6888 26.3082 84.8656C29.4818 83.857 32.5393 83.857 35.0163 83.857C36.2161 83.857 37.3772 83.857 38.306 83.7406C38.3835 83.7019 38.4222 83.7019 38.4996 83.7019C44.6533 83.0812 50.8844 82.6545 56.8833 82.2278C70.5841 81.258 83.5108 80.327 96.3214 77.6503C110.409 74.7021 124.574 70.8617 136.727 67.5256C152.169 62.8318 165.986 60.5431 178.952 60.5431C182.628 60.5431 186.266 60.6983 189.788 61.0862C191.414 61.2025 192.846 61.5129 194.123 61.7844C195.207 61.9784 196.252 62.2111 196.91 62.2111C197.026 62.2111 197.142 62.1723 197.219 62.1723C197.374 62.1336 197.49 62.1336 197.645 62.0948C205.076 60.6983 212.816 60 220.634 60C237.044 60 253.841 62.987 270.522 68.8833C287.551 74.8185 303.458 84.0898 317.468 92.2749L318.049 92.5852C328.808 98.2488 339.916 104.068 348.701 113.688C354.662 120.05 354.662 128.894 351.411 136.42C359.035 142.51 364.802 148.95 368.904 156.01C368.943 156.088 368.982 156.126 369.02 156.204C369.253 156.592 370.143 157.406 370.839 158.027C371.73 158.803 372.697 159.695 373.665 160.781C382.605 170.673 386.05 183.979 382.799 195.5ZM368.13 165.708C366.35 163.652 363.873 162.178 362.557 159.734C357.487 151.006 349.901 144.101 341.696 138.36C345.954 133.045 348.547 124.239 343.322 118.692C335.156 109.848 324.358 104.3 313.869 98.7919C299.123 90.1801 284.262 81.5683 268.084 75.9047C246.062 68.1075 222.066 65.0817 199.038 69.3876C195.71 70.2023 192.459 68.6894 189.169 68.4566C172.179 66.6334 155.072 69.6592 138.856 74.6245C125.271 78.3486 111.648 81.995 97.8695 84.9044C78.5955 88.9388 58.7798 89.1327 39.2349 91.0335C35.6743 91.4602 31.9201 90.8008 28.4756 91.8869C25.9212 92.6628 24.8762 95.3782 24.1409 97.6282C22.2831 103.796 24.1022 110.391 26.7727 116.054C31.417 125.636 38.4222 133.86 46.2014 141.036C49.9943 144.411 53.9419 147.67 58.5475 149.881C56.4576 163.109 57.8896 176.88 63.1145 189.216C70.7776 207.254 84.2074 222.81 100.927 232.973C113.351 240.732 127.167 245.774 140.21 252.292C149.538 256.908 157.936 263.464 164.399 271.649C172.837 281.929 178.681 294.07 187.079 304.389C200.625 321.651 222.105 333.134 244.243 332.552C258.756 332.242 272.341 325.143 282.984 315.6C292.079 307.337 298.93 296.32 301.484 284.217C302.142 280.183 297.846 278.243 294.866 276.886C296.879 266.722 298.698 255.977 295.834 245.813C291.228 252.253 286.661 258.731 281.32 264.55C276.134 259.507 272.186 252.602 272.612 245.154C277.76 242.826 283.062 240.421 287.203 236.426C289.293 234.253 292.389 233.827 295.06 232.74C300.439 230.684 305.742 227.814 309.496 223.314C310.425 224.555 311.315 225.797 312.282 226.999C314.179 225.68 316.114 224.361 318.049 223.12C318.126 224.904 318.165 226.65 318.204 228.434C318.862 228.396 320.139 228.279 320.758 228.202C318.939 234.098 315.572 239.335 312.398 244.572C326.757 240.499 339.684 231.344 348.082 218.969C351.14 217.379 354.584 216.525 357.526 214.625C365.769 209.931 372.697 202.483 375.639 193.367C378.464 183.591 374.748 173.001 368.13 165.708ZM267.503 241.74C280.043 238.055 290.88 228.745 296.453 216.913C289.951 218.271 283.371 219.474 276.676 219.474C277.372 227.891 272.728 235.533 267.503 241.74ZM268.161 277.894C267.194 276.149 266.149 274.442 264.949 272.851C263.014 274.248 261.156 275.761 259.453 277.39C262.898 270.601 262.627 262.455 260.266 255.356C257.944 261.02 255.157 266.528 251.635 271.532C248.268 276.304 243.662 279.911 239.25 283.558C237.664 284.799 239.25 287.204 240.953 287.321C246.759 288.368 252.603 285.73 256.937 282.006C258.099 280.804 259.84 280.726 261.427 280.532C265.8 280.105 270.251 279.873 274.663 280.222C277.179 280.183 278.727 282.782 281.243 282.821C283.604 283.247 285.152 280.998 286.313 279.291C290.57 272.386 292.699 264.201 292.505 256.132C287.822 262.959 283.72 270.446 277.527 276.071C276.792 274.713 275.979 273.394 275.205 272.075C272.612 273.743 270.212 275.644 268.161 277.894ZM276.289 285.963C281.243 285.924 286.235 286.777 290.686 288.95C281.165 307.609 260.885 319.363 240.295 320.526C241.65 319.052 241.572 317.423 241.572 317.423L221.292 316.376L223.344 312.768C213.552 309.277 209.875 307.337 201.631 299.579C193.272 291.704 186.653 282.161 181.196 272.114C173.611 258.459 160.529 248.645 146.248 242.826C126.084 233.633 105.416 223.469 90.0128 207.06C92.722 204.965 95.7795 203.026 98.3339 200.776L97.5598 202.909C98.1791 202.444 99.3789 201.513 99.9981 201.047C98.6435 203.452 97.1341 206.672 99.2241 209.116C102.011 211.87 106.152 212.53 109.558 214.314C110.564 213.694 111.609 213.073 112.615 212.452C111.261 214.159 109.983 215.943 109.055 217.961C109.945 217.262 110.796 216.564 111.686 215.827C113.97 216.991 116.524 218.31 119.117 217.301C121.672 216.952 122.097 213.926 123.142 212.103C122.407 212.375 120.898 212.957 120.124 213.267C122.097 209.426 127.632 208.689 128.29 204.112C129.335 201.513 127.709 199.069 125.813 197.401C127.245 196.664 128.677 195.927 130.07 195.112C127.245 195.461 124.497 196.819 121.594 196.315C117.26 195.617 112.538 196.315 108.551 194.104C106.965 193.056 105.61 195.035 104.333 195.772C104.372 195.229 104.488 194.181 104.526 193.638C103.752 194.375 102.785 194.996 102.049 195.772C99.4563 194.996 96.7858 194.259 94.154 193.599C102.049 188.479 110.177 185.104 119.891 182.272C119.93 182.311 119.969 182.35 120.046 182.388C120.743 182.97 121.439 183.552 122.175 184.134C123.607 183.746 125.039 183.358 126.471 183.009C124.768 184.134 123.065 185.143 121.323 186.19C122.755 186.074 124.149 185.957 125.658 185.841C126.006 187.044 126.78 187.897 128.096 187.858C131.192 188.13 134.521 187.548 137.23 185.957C138.314 184.057 137.617 181.69 137.578 179.595C137.114 179.44 136.185 179.169 135.721 179.014C136.688 178.354 137.656 177.656 138.623 176.996C138.352 175.988 138.082 175.018 137.772 174.048L138.198 173.854C141.255 173.815 144.274 173.428 147.293 173.04C143.577 169.742 139.127 167.492 134.482 165.902C146.557 164.195 158.826 164.311 171.018 163.846C170.36 163.458 169.082 162.682 168.424 162.294C170.747 162.217 173.107 162.1 175.43 161.945C172.295 160.781 169.044 159.967 165.793 159.075C167.147 159.152 168.463 159.191 169.779 159.268C208.288 165.048 246.565 174.785 281.668 192.009C283.371 193.095 285.152 192.086 286.468 190.884C291.77 190.69 296.956 189.293 301.755 187.044C298.852 183.475 295.718 180.1 292.118 177.268C292.312 176.608 292.544 175.91 292.776 175.251C288.441 171.682 283.294 169.316 278.766 166.057L279.037 166.173C287.706 169.277 296.259 172.691 304.619 176.492C310.966 179.479 317.507 182.544 322.461 187.625C325.635 191.078 326.641 195.966 326.331 200.543C315.649 200.078 305.625 204.383 295.988 208.418C287.822 212.219 278.456 213.965 269.593 211.948C258.447 209.814 249.584 201.086 244.785 191.078C252.951 193.948 260.885 197.401 268.78 200.97C270.599 201.978 273.386 199.884 272.806 197.672C271.49 194.841 267.929 194.453 265.413 193.134C229.613 179.091 191.336 172.729 153.176 169.432C169.392 171.953 185.492 174.63 201.477 178.587C194.974 179.673 189.13 183.513 185.686 189.138C178.1 201.164 177.868 216.409 181.467 229.792C185.957 246.24 193.233 261.989 203.063 275.916C207.669 282.161 212.739 288.329 219.396 292.48C226.517 296.98 235.574 296.475 243.353 294.226C254.112 290.812 264.755 285.924 276.289 285.963ZM138.082 199.108C140.404 200.543 142.687 203.685 145.629 201.28C144.777 202.095 142.997 203.685 142.107 204.461C143.655 203.918 145.164 203.918 146.557 204.733C150.737 206.827 155.304 204.927 159.329 203.414C158.439 204.228 157.51 205.004 156.62 205.819C159.329 206.866 162.774 206.944 164.902 204.655C166.373 202.677 164.786 200.272 164.245 198.216C165.328 197.479 166.412 196.78 167.534 196.043C166.18 196.198 164.825 196.431 163.471 196.548C161.651 194.026 159.755 190.806 156.233 190.729C152.711 191.311 149.46 192.94 146.054 194.026C145.822 194.259 145.358 194.724 145.125 194.957C145.203 194.53 145.319 193.677 145.358 193.25C143.152 193.405 140.946 193.367 138.778 193.793C136.379 194.22 136.224 197.944 138.082 199.108ZM168.579 226.185C167.341 223.081 164.786 219.318 160.994 220.017C160.297 219.124 159.871 217.805 158.671 217.456C156.272 216.409 153.834 218.038 151.473 218.426C152.015 217.883 153.137 216.874 153.717 216.331C149.073 217.379 144.351 216.37 139.707 216.137C137.772 216.06 135.875 215.827 134.018 215.245C131.657 215.943 129.141 216.525 127.167 217.999C125.039 219.978 125.774 223.353 127.593 225.292C128.832 225.292 129.528 223.896 130.496 223.236C130.225 224.284 129.993 225.331 129.722 226.378C133.437 227.853 137.307 228.9 141.255 229.404C144.661 230.025 148.299 229.792 151.395 231.538C152.827 230.646 154.259 229.792 155.73 228.978C154.879 230.413 154.027 231.809 153.137 233.245C155.73 235.533 159.136 237.589 162.735 236.542C165.096 235.921 165.135 233.167 165.986 231.344L164.786 231.693C164.709 230.49 164.593 229.249 164.477 228.047C165.522 228.357 166.605 228.667 167.65 228.978C168.231 228.124 169.624 227.31 168.579 226.185ZM297.304 226.572C302.955 223.818 306.167 217.224 310.076 212.491C306.012 214.237 300.71 215.633 296.492 216.874C297.227 220.055 297.42 223.314 297.304 226.572Z" fill="white"/>
<path d="M206.778 135.489C207.397 136.304 207.978 137.08 208.636 137.855C207.978 137.08 207.359 136.304 206.778 135.489ZM208.636 137.855C207.823 137.855 206.159 137.894 205.346 137.933C206.159 137.933 207.823 137.894 208.636 137.855ZM222.104 147.941C215.718 146.312 209.836 142.782 205.385 138.011C209.874 142.782 215.757 146.351 222.104 147.941ZM309.108 154.458C309.147 155.661 309.495 157.29 308.992 158.415C307.753 159.695 306.128 160.083 304.657 160.975C305.741 163.07 306.902 165.126 308.14 167.143C298.542 165.902 288.828 165.475 279.113 166.212C279.075 166.212 279.036 166.173 279.036 166.173L278.765 166.057C278.804 166.096 278.843 166.135 278.92 166.173L278.765 166.096H278.726C274.817 161.906 270.715 156.902 264.484 156.631C263.129 154.226 261.929 151.51 259.491 149.997C257.246 148.639 254.847 147.708 252.447 146.739C257.363 144.45 262.51 142.51 267.967 142.239C276.52 141.851 284.958 143.403 293.356 144.605C296.22 139.834 296.259 134.093 294.672 128.856C292.582 125.791 290.26 122.843 287.512 120.399C287.396 120.166 287.318 119.933 287.202 119.662C290.144 122.183 292.582 125.248 294.749 128.468C295.988 129.709 297.304 130.912 298.078 132.502C300.361 137.118 302.838 142.122 303.07 147.359L309.108 154.458ZM309.108 154.769C307.366 153.372 305.47 152.17 303.341 151.51C297.226 149.57 290.724 148.872 284.338 149.26C277.527 150.695 270.909 152.907 264.755 156.126C272.728 155.195 280.623 152.751 288.712 153.915C294.595 154.419 300.129 156.902 306.012 157.174C307.599 157.368 308.334 155.855 309.108 154.769ZM337.825 123.076C334.033 125.869 329.233 125.675 324.744 125.752C324.744 125.752 324.705 125.752 324.705 125.713C324.705 125.713 324.744 125.713 324.744 125.752C328.73 128.313 332.871 130.718 336.587 133.666C338.599 130.524 339.296 126.606 337.825 123.076ZM228.529 168.695C211.19 164.622 193.658 161.596 175.971 159.54C173.881 159.307 171.83 159.307 169.74 159.268C168.424 159.191 167.108 159.152 165.753 159.075C165.715 159.075 165.676 159.075 165.676 159.075C168.927 159.967 172.178 160.781 175.313 161.945C172.991 162.1 170.63 162.217 168.308 162.294C168.966 162.682 170.243 163.458 170.901 163.846C158.709 164.311 146.441 164.195 134.365 165.902C139.01 167.492 143.461 169.742 147.176 173.04C144.157 173.428 141.138 173.815 138.081 173.854C138.042 173.854 137.926 173.932 137.733 174.009C137.655 173.815 137.616 173.621 137.539 173.428C135.527 171.41 132.546 171.139 130.108 169.82C127.167 168.035 127.244 163.38 123.684 162.411C121.4 161.712 118.11 160.355 116.601 163.07C117.375 163.186 118.962 163.458 119.736 163.574C117.801 164.234 115.866 164.777 113.93 165.32C114.55 165.553 115.169 165.747 115.788 165.979C115.633 168.074 114.859 170.479 116.407 172.264C117.723 172.38 119.078 172.303 120.432 172.303C119.658 175.483 116.833 179.518 119.852 182.272C117.065 183.048 114.24 183.979 111.415 185.026C105.222 187.315 99.5718 190.03 94.076 193.599C96.7078 194.259 99.3782 194.996 101.971 195.772L100.888 197.246C100.036 198.332 99.2621 199.302 98.2946 200.737C98.2559 200.776 98.2559 200.776 98.2172 200.815C95.6628 203.065 92.6053 204.965 89.8961 207.06C88.0771 204.927 85.6001 202.405 84.3616 200.621C84.4003 200.582 84.4003 200.543 84.439 200.504C86.258 196.78 87.69 195.19 87.961 192.009C87.2256 192.009 85.7549 192.048 85.0196 192.048C86.1032 190.612 87.303 189.332 88.5802 188.091C88.1545 187.936 87.1869 187.664 86.7999 187.509C85.0196 184.871 83.2779 182.117 80.9558 179.945C80.3365 179.945 79.0206 179.945 78.4014 179.906C81.1106 177.772 82.1556 174.281 82.8909 171.022C82.3878 167.958 79.0206 167.803 76.5824 167.958C76.9307 170.479 73.3313 169.626 72.1316 170.479C70.9318 165.242 70.777 156.01 72.8282 149.027C79.1367 148.174 85.5227 147.049 91.3281 144.217C93.8438 142.937 96.6691 141.812 98.3333 139.368C98.4107 139.329 98.4881 139.291 98.5655 139.291C98.759 139.058 99.1847 138.554 99.3782 138.282C98.0624 138.204 96.7852 138.088 95.508 137.933C94.9274 137.855 94.3469 137.817 93.7664 137.739C93.4954 137.7 93.2632 137.661 92.9923 137.661C92.3731 137.584 91.7925 137.506 91.1733 137.429C90.0509 137.273 88.9285 137.08 87.7674 136.847C98.9138 135.45 110.021 132.424 119.697 126.567C119.581 126.606 119.504 126.644 119.388 126.644C119.426 126.606 119.504 126.567 119.542 126.567C125.696 123.464 131.966 120.321 136.881 115.356C129.295 119.546 120.897 122.222 112.228 123.037C100.346 123.929 88.6576 119.352 78.9819 112.718C90.825 114.891 97.327 116.947 106.654 116.403C112.15 116.209 117.414 114.347 122.832 113.572C122.639 114.192 122.29 115.434 122.135 116.054C129.721 114.697 137.113 112.563 144.622 110.817C150.117 109.537 155.807 108.412 161.457 109.188C164.863 106.783 168.966 108.296 172.642 109.072C173.958 108.994 175.313 108.878 176.667 108.8C176.087 107.714 175.623 106.861 175.042 105.813C190.794 106.124 206.507 107.326 221.834 111.205H221.872C221.872 111.244 221.834 111.244 221.834 111.283C221.524 111.632 220.905 112.33 220.595 112.679C220.634 113.106 220.672 113.843 220.672 114.27L220.595 114.309C218.544 114.347 216.493 114.464 214.441 114.619C215.719 115.744 217.034 116.869 218.312 117.994C213.822 119.778 209.023 121.02 204.92 123.696C200.973 126.024 198.031 129.593 194.974 132.929C195.245 132.89 195.825 132.812 196.096 132.774L197.915 133.006C200.005 132.657 202.056 132.192 204.146 131.92C205.23 131.843 206.352 131.687 207.475 131.687C206.352 131.687 205.23 131.843 204.185 131.92C202.095 132.192 200.044 132.657 197.954 133.006C195.516 133.937 192.536 134.907 191.878 137.855C190.755 140.377 193.271 142.278 195.051 143.558C200.315 147.127 206.004 150.036 211.113 153.915C196.096 151.239 181.118 148.135 165.831 147.476C182.744 149.609 199.463 153.256 215.989 157.523L217.615 158.764C221.524 161.868 225.201 165.087 228.529 168.695ZM181.97 118.11C182.899 120.283 183.789 122.571 185.608 124.162C186.769 125.597 189.362 126.567 190.6 124.666C193.232 125.558 194.819 123.231 196.638 121.795C197.915 121.64 199.231 121.757 200.547 121.834C199.812 121.563 199.115 121.291 198.38 121.02C199.386 119.429 201.05 117.878 200.547 115.783C200.237 114.115 201.011 112.447 200.702 110.817C198.457 110.313 196.135 110.546 193.929 109.809C192.11 110.623 190.252 111.438 188.433 112.214C188.627 112.951 188.82 113.688 189.091 114.464C188.472 114.347 187.272 114.153 186.653 114.037C185.105 115.434 183.363 116.559 181.97 118.11ZM170.282 135.838C169.585 135.877 168.192 135.916 167.495 135.955C167.959 136.498 168.85 137.506 169.314 138.011C168.85 138.011 167.882 137.933 167.418 137.894C169.624 140.028 171.443 142.433 173.068 144.954C175.893 146.428 178.022 143.635 180.112 142.2C181.157 141.851 182.241 141.502 183.247 141.036C181.234 138.049 177.945 136.304 175.081 134.286C173.184 133.2 171.249 134.054 170.282 135.838ZM103.752 167.26C102.32 167.57 100.926 167.919 99.4943 168.191C100.501 167.57 101.507 166.988 102.513 166.367C101.12 163.846 101.662 159.734 98.5268 158.609C99.4169 158.182 100.268 157.794 101.12 157.368C98.4494 154.381 92.6827 153.023 90.2444 156.941C88.2706 158.454 88.9672 161.829 86.4128 162.76C87.7674 162.799 89.0833 162.799 90.4379 162.799C90.0509 163.148 89.3542 163.885 88.9672 164.234C90.2444 167.57 89.9735 171.139 89.8187 174.63C91.1346 174.552 92.4505 174.475 93.7664 174.436C92.3731 175.367 91.0185 176.221 89.6252 177.074C90.0509 178.548 90.3218 180.177 91.3668 181.38C92.9149 183.281 96.1659 183.513 97.8301 181.807C99.9201 179.789 101.971 177.733 104.177 175.833C106.887 173.699 106.654 169.122 103.752 167.26ZM119.388 147.088C118.768 144.915 116.33 144.411 114.55 143.519C114.666 143.209 114.859 142.51 114.975 142.161C111.763 140.804 108.589 142.549 105.338 142.627C105.145 143.17 104.797 144.334 104.603 144.877C105.532 145.226 106.5 145.536 107.428 145.885C106.151 145.769 104.913 145.691 103.636 145.575C102.978 147.708 103.171 149.92 104.99 151.433C106.345 153.411 108.899 152.751 110.834 152.208C114.55 153.062 118.768 151.045 119.388 147.088ZM137.229 130.718C139.048 130.058 140.906 129.476 142.88 129.515C141.525 129.011 140.248 128.351 139.01 127.692C139.436 126.295 140.868 124.627 139.784 123.192C138.352 121.446 135.952 121.602 133.901 121.563C134.056 121.912 134.404 122.649 134.559 123.037C130.224 122.3 126.896 125.558 123.529 127.731C124.187 128.39 124.806 129.088 125.464 129.748C124.225 129.36 122.948 128.933 121.671 128.545C121.671 130.136 121.555 131.687 121.4 133.278C122.058 133.821 122.755 134.403 123.451 134.946C121.942 134.985 120.471 135.062 119 135.14C122.252 136.265 125.503 137.778 129.024 137.894C131.54 137.351 134.017 136.498 136.533 135.916C138.468 134.83 137.346 132.424 137.229 130.718ZM159.406 158.881C157.897 156.631 155.884 154.73 154.8 152.208C155.845 151.471 156.89 150.734 157.935 149.997C156.387 149.842 154.452 150.54 153.214 149.26C151.008 147.243 150.156 144.14 147.873 142.239C146.208 140.881 143.964 141.502 142.029 141.502C142.687 142.006 143.306 142.549 143.964 143.053C142.377 143.403 140.829 143.752 139.242 144.101C138.545 146.196 138.004 148.368 137.616 150.579C138.584 150.967 139.513 151.316 140.48 151.704C139.861 151.976 138.584 152.557 137.965 152.829C139.823 154.885 141.835 156.825 143.809 158.803C143.538 159.54 143.267 160.277 142.996 161.014C145.318 161.518 147.718 162.294 150.079 161.635C153.214 160.743 156.813 161.169 159.406 158.881ZM166.953 123.619C169.546 122.61 169.895 119.468 171.327 117.412C170.398 116.985 169.43 116.597 168.463 116.171C169.043 116.132 170.243 115.977 170.862 115.938C170.552 113.804 170.32 111.671 170.204 109.537C170.823 109.46 172.101 109.343 172.72 109.305C169.043 108.49 164.941 106.977 161.535 109.421C160.296 109.964 158.98 110.391 157.703 110.817C159.096 111.477 160.451 112.175 161.844 112.912C160.567 112.796 159.329 112.718 158.09 112.602C156.929 113.727 155.729 114.852 154.568 115.977C156.232 116.83 157.897 117.684 159.561 118.537C157.781 118.498 156.039 118.421 154.259 118.382C154.8 119.429 155.381 120.515 155.923 121.563C155.923 122.882 154.994 124.589 156.349 125.52C158.4 126.955 161.109 126.451 163.47 126.644C163.354 126.334 163.16 125.675 163.083 125.364C164.399 124.821 165.676 124.278 166.953 123.619ZM256.898 131.377C259.375 135.101 263.439 137.312 267.387 139.097C273.037 140.493 279.5 141.696 284.803 138.554C286.777 137.273 288.789 135.683 289.331 133.278C289.447 132.929 289.524 132.541 289.563 132.192C289.524 132.424 289.447 132.657 289.408 132.89C288.867 135.295 286.854 136.886 284.88 138.166C280.855 137.972 276.675 137.972 273.037 136.071C267.038 133.084 262.278 128.196 256.627 124.627C252.95 121.951 248.809 120.05 244.746 117.994L243.933 117.761C243.313 118.459 242.694 119.158 242.075 119.856C242.81 122.3 243.623 124.821 245.442 126.683C248.5 129.67 252.447 131.455 256.24 133.239C256.434 132.774 256.743 131.843 256.898 131.377Z" fill="#9F7A2C"/>
<path d="M301.716 187.082C296.917 189.332 291.731 190.729 286.429 190.923C286.429 190.923 286.429 190.923 286.429 190.884C285.693 189.41 285.229 187.587 283.526 186.966C266.071 178.626 247.339 173.35 228.607 168.695H228.568C225.201 165.126 221.563 161.868 217.77 158.764L216.145 157.523C217.306 157.833 218.467 158.144 219.589 158.454C240.411 164.195 260.885 171.372 280.159 181.186C281.823 182.117 284.261 182.97 285.5 180.953C286.429 178.548 283.952 176.88 282.094 176.065C259.608 165.708 235.573 159.075 211.423 153.954C211.384 153.954 211.307 153.954 211.268 153.915C206.159 150.036 200.47 147.127 195.207 143.558C193.426 142.278 190.911 140.377 192.033 137.855C192.691 134.907 195.671 133.937 198.109 133.006C200.199 132.657 202.25 132.192 204.34 131.92C205.656 133.976 207.088 135.993 208.636 137.855C207.824 137.855 206.159 137.894 205.347 137.933C210.92 143.907 218.738 148.019 226.904 148.717C233.754 149.105 240.295 151.277 246.952 152.868C246.991 152.907 247.029 152.907 247.029 152.946C253.144 156.631 258.369 161.48 263.633 166.251C263.633 166.212 263.633 166.212 263.594 166.212C263.594 166.212 263.594 166.212 263.633 166.212C261.156 158.919 256.357 152.829 251.287 147.204C251.558 147.088 252.177 146.894 252.409 146.778C252.409 146.778 252.448 146.778 252.448 146.739C254.847 147.709 257.247 148.64 259.492 149.997C261.93 151.51 263.13 154.226 264.484 156.631C270.715 156.902 274.818 161.906 278.727 166.096C283.255 169.354 288.403 171.721 292.737 175.29C292.505 175.949 292.273 176.647 292.079 177.307C295.679 180.139 298.814 183.514 301.716 187.082ZM350.985 171.294C347.385 172.07 344.096 173.66 341.077 175.716C330.434 171.682 319.326 169.005 308.141 167.143C306.902 165.126 305.741 163.07 304.658 160.975C306.128 160.083 307.754 159.695 308.992 158.415C309.496 157.29 309.147 155.661 309.109 154.458L303.071 147.359C302.839 142.123 300.362 137.118 298.078 132.502C297.304 130.912 295.988 129.709 294.75 128.468C292.582 125.248 290.144 122.184 287.203 119.662C287.319 119.895 287.396 120.128 287.512 120.399C287.396 120.283 287.28 120.166 287.125 120.05C288.712 123.852 290.338 128.002 289.564 132.192C289.525 132.425 289.448 132.657 289.409 132.89C288.867 135.295 286.855 136.886 284.881 138.166C280.856 137.972 276.676 137.972 273.038 136.071C267.039 133.084 262.278 128.196 256.628 124.627C252.951 121.951 248.81 120.05 244.746 117.994L243.933 117.761C244.204 117.451 244.475 117.141 244.785 116.83C245.172 116.947 245.868 117.218 246.217 117.335C248.539 116.326 250.706 113.804 249.584 111.205C247.533 109.188 244.398 110.313 241.843 110.08C237.78 109.576 233.096 109.886 230.194 113.184C227.756 112.175 225.704 110.313 223.15 109.576C222.84 110.003 222.298 110.74 222.028 111.205H221.989C206.663 107.326 190.949 106.124 175.197 105.813C175.778 106.861 176.242 107.714 176.823 108.8C175.468 108.878 174.114 108.994 172.798 109.072C169.121 108.296 165.018 106.783 161.613 109.188C155.962 108.412 150.273 109.537 144.777 110.817C137.269 112.563 129.876 114.697 122.291 116.054C122.446 115.434 122.794 114.192 122.987 113.572C117.569 114.348 112.305 116.21 106.81 116.404C97.4823 116.947 90.9416 114.929 79.1373 112.718C77.8601 112.175 76.699 111.438 75.8088 110.546C75.8862 110.119 76.0411 109.227 76.1185 108.8C77.5892 106.628 80.0274 105.348 81.4594 103.175C82.8914 102.749 84.8266 101.236 83.0462 99.8394C81.3046 99.6454 79.563 99.5678 77.8601 99.1799C79.7952 98.0937 81.769 97.1627 83.8203 96.3481C82.1174 95.999 80.4532 95.4947 78.9051 94.7188C83.0075 93.749 87.2648 93.6327 91.406 92.7792C96.2438 91.7707 101.043 90.5681 105.92 89.5595C105.958 89.5595 106.229 89.4819 106.655 89.3656C107.661 89.3656 108.435 90.2966 109.209 90.9948C110.719 91.6155 111.338 92.7017 109.364 93.3223C112.499 94.137 115.789 93.3223 118.924 92.8956C121.13 91.9646 118.111 90.3354 117.453 89.4819C118.227 89.6371 119.775 89.8699 120.549 90.025C120.82 88.7837 119.969 86.5337 121.439 86.0295C121.594 85.9907 121.671 85.9907 121.71 85.9907C132.121 83.4692 142.648 81.4132 153.021 78.7366C154.646 81.4908 157.704 83.9735 161.071 83.4304C163.161 82.8873 164.98 84.2062 166.838 84.9821C165.754 83.1201 164.593 81.3356 163.625 79.4348H163.664C164.902 80.327 166.18 81.2193 167.418 82.1115C169.74 80.7925 172.372 80.4046 175.004 80.2107C174.81 79.396 174.655 78.5426 174.462 77.728C175.546 78.1935 176.629 78.6202 177.713 79.0469C177.326 77.8056 176.9 76.4866 176.513 75.2453H176.552C185.686 74.6246 194.858 75.2453 203.915 76.2539C203.644 76.9134 203.373 77.5728 203.102 78.2711C203.605 79.1245 204.147 79.9779 204.65 80.8701C203.489 80.2107 202.328 79.5124 201.167 78.8142C200.47 79.8227 199.386 81.1029 200.238 82.3442C201.825 83.9735 204.263 84.5942 206.469 84.0899C208.714 83.6631 211.152 83.8183 213.203 82.6546C212.739 81.3356 211.462 80.5986 210.533 79.6676C212.236 80.2882 213.939 80.9477 215.68 81.5684C216.222 80.5986 216.764 79.59 217.422 78.6978C224.698 79.784 231.781 81.9175 238.824 83.9735C237.586 84.6329 236.309 85.2924 235.07 85.9519C235.303 86.5725 235.535 87.1544 235.767 87.7363L233.948 87.6975C234.838 89.8699 237.044 91.2276 239.328 90.3354C242.153 90.4905 244.978 91.0724 247.803 91.1888C248.191 90.8397 248.926 90.1414 249.313 89.7535C250.551 89.9862 251.751 90.2578 252.99 90.4905C253.841 91.1888 254.654 91.887 255.505 92.5465C255.66 92.1198 256.008 91.3052 256.202 90.9172C256.512 91.2664 257.131 91.9258 257.44 92.275C258.989 90.219 260.15 87.6975 262.511 86.4562C262.394 83.508 258.176 81.7236 256.125 83.8183C255.854 83.6244 255.312 83.1976 255.041 83.0037C252.757 84.3226 250.087 85.0209 249.003 87.7363C244.823 85.2536 240.295 83.4304 236.077 81.0641C237.47 80.7925 238.902 80.521 240.334 80.2882C240.373 79.5512 240.527 78.1159 240.566 77.4176C238.902 74.5858 235.38 74.547 232.477 74.4307C232.516 75.2453 232.632 76.8746 232.671 77.6892C231.897 76.9134 231.084 76.1763 230.31 75.4005C228.684 76.0211 227.059 77.7668 225.201 76.9909C221.989 75.8272 218.622 75.2841 215.371 74.1979C235.999 70.6291 257.17 75.9048 275.708 84.9433C275.824 85.0209 275.979 85.0984 276.095 85.176C278.533 86.3398 289.641 91.8482 292.002 93.1672C302.181 98.598 312.321 104.145 322.306 109.964C322.461 110.468 322.809 111.477 322.964 111.981C322.384 111.865 321.222 111.632 320.642 111.516C319.868 112.253 319.829 113.339 319.558 114.309C322.887 114.929 325.944 116.481 329.273 117.141C331.75 119.778 336.084 119.623 337.749 123.115C333.956 125.908 329.157 125.714 324.667 125.791C318.668 123.192 313.017 119.701 306.825 117.528C317.971 125.015 328.847 133.162 337.632 143.403C339.103 145.265 340.729 147.127 341.619 149.377C342.432 151.937 341.309 154.497 340.651 156.98C339.916 158.182 341 159.424 342.083 159.889C344.947 159.463 346.689 156.98 348.817 155.312C352.107 157.988 355.165 161.674 355.668 166.018C355.939 168.617 353.5 170.751 350.985 171.294ZM111.028 102.012C111.764 101.546 112.499 101.081 113.234 100.576C109.945 101.003 106.694 100.227 103.404 100.382C100.966 101.275 99.4562 103.641 97.7533 105.464C96.7857 105.658 95.8568 105.891 94.8893 106.124C95.9342 106.55 97.0179 106.938 98.0629 107.365C97.4436 108.296 96.8631 109.266 96.2438 110.236C97.5597 110.701 98.9143 111.167 100.23 111.671C99.0691 111.981 97.9081 112.214 96.747 112.524C97.8694 114.076 100.114 113.921 101.74 113.339C103.984 112.563 106.461 112.563 108.435 111.167C109.48 110.585 110.912 110.352 111.493 109.149C111.764 106.744 111.493 104.339 111.028 102.012ZM156.736 92.7792C154.762 89.5595 150.776 92.081 147.989 92.4301C149.15 91.6931 150.234 90.956 151.318 90.1414C149.344 90.0638 147.331 89.6759 145.358 90.025C142.842 90.8784 140.558 92.3913 137.927 92.8956C134.792 93.3999 131.966 96.4645 132.547 99.7618C133.553 99.4515 134.598 99.1411 135.604 98.8308C134.482 100.77 132.47 101.818 130.689 103.02C132.353 102.788 133.979 102.555 135.604 102.283C136.146 103.059 136.649 103.796 137.191 104.572C141.216 105.27 145.512 105.891 149.344 104.262C149.189 103.641 148.996 102.982 148.841 102.361C150.776 101.857 151.782 100.111 152.982 98.6756C154.646 97.0464 157.51 95.6111 156.736 92.7792ZM192.807 88.9001C191.104 87.232 188.511 88.357 186.46 88.2406C185.647 87.5423 185.066 86.6889 184.37 85.9131C184.331 87.6587 184.331 89.4044 184.331 91.1888C183.441 90.219 182.899 88.8613 181.661 88.2794C179.455 88.2794 178.177 90.1414 177.055 91.6931C177.403 92.5853 177.752 93.5163 178.1 94.4473C177.249 93.8266 176.397 93.206 175.546 92.5853C175.236 94.9516 176.281 97.4343 178.797 97.861C181.196 99.1411 183.518 97.4731 185.724 96.6196C187.466 96.3093 188.743 97.8998 190.098 98.6756C190.098 98.0937 190.137 96.8912 190.137 96.3093C193.155 95.5335 194.858 91.3827 192.807 88.9001ZM229.652 91.6543C226.827 91.4215 223.963 91.3827 221.137 91.3827C218.854 92.0422 217.151 93.943 214.79 94.4473C215.564 95.2231 216.3 96.0378 217.035 96.8524C215.409 96.2705 213.784 95.5335 212.12 95.0292C210.339 94.6413 208.095 95.6499 207.746 97.5894C207.553 99.3739 209.023 100.46 210.301 101.352C209.914 101.663 209.178 102.244 208.791 102.555C211.113 103.563 213.552 104.184 216.067 104.029C216.183 103.486 216.454 102.438 216.609 101.895C218.273 103.098 220.054 104.184 221.95 105.037C221.292 104.184 220.596 103.331 219.899 102.516C221.099 101.74 222.453 101.042 223.305 99.8394C224.234 98.792 224.853 97.0464 226.556 97.3567C227.175 95.1843 231.2 94.2145 229.652 91.6543ZM254.383 101.275C254.963 101.12 256.086 100.732 256.628 100.576C256.279 99.4902 255.815 98.3653 254.615 98.0162C250.513 95.9602 245.946 98.6756 241.727 97.2403C242.114 97.8998 242.54 98.5205 242.927 99.1411C241.224 99.8782 238.902 100.732 240.14 103.059C239.521 102.982 238.244 102.865 237.625 102.788C238.708 103.757 239.792 104.688 240.876 105.658C239.753 105.503 238.592 105.348 237.47 105.231C238.708 108.8 243.275 107.675 246.101 106.822C245.868 106.395 245.443 105.581 245.21 105.154C246.72 105.231 248.307 105.775 249.816 105.348C251.596 104.417 253.299 103.369 255.118 102.555C254.925 102.244 254.576 101.585 254.383 101.275ZM273.773 114.115C272.302 112.602 270.87 111.011 269.167 109.77C266.923 108.257 264.562 110.507 262.24 110.585C262.743 111.167 263.788 112.292 264.291 112.835C263.517 112.602 261.93 112.175 261.156 111.981C260.885 112.99 260.614 114.037 260.343 115.085C261.04 115.783 261.736 116.481 262.433 117.218C261.891 117.296 260.846 117.412 260.304 117.49C263.052 119.546 267.774 120.205 269.98 116.985C271.296 115.86 271.412 114.192 270.715 112.641C271.722 113.145 272.728 113.649 273.773 114.115ZM280.198 99.8782C280.314 97.8998 278.03 97.0076 276.985 95.6886L278.65 95.3783C276.792 93.7878 274.392 94.0594 272.147 94.3697C272.38 95.1068 272.612 95.805 272.844 96.5421C271.064 95.6111 269.283 94.2533 267.194 94.5249C265.645 94.6025 264.407 95.6886 263.207 96.5809C263.285 97.5507 263.323 98.5204 263.285 99.4902C265.645 100.887 268.2 101.934 270.948 102.167C270.87 101.663 270.754 100.615 270.677 100.111C272.147 101.042 273.618 101.895 275.166 102.71C275.515 102.4 276.25 101.74 276.598 101.43C277.875 101.197 279.772 101.507 280.198 99.8782ZM293.395 111.942C291.576 109.925 289.873 107.637 287.203 106.706C285.345 108.18 283.255 106.783 281.475 105.968C281.707 106.24 282.171 106.744 282.404 106.977C280.159 108.645 280.972 111.011 282.017 113.184C283.487 112.951 285.035 112.951 286.506 113.417C286.235 116.714 290.647 114.813 292.621 114.891C292.853 113.882 293.124 112.912 293.395 111.942ZM304.077 106.667C303.651 105.775 303.264 104.882 302.839 103.99C303.032 103.292 303.264 102.555 303.458 101.857C302.452 101.158 301.368 100.576 300.207 100.189C297.962 98.1713 294.982 98.2877 292.312 97.3567C292.273 97.5894 292.234 98.0937 292.234 98.3265C291.615 98.1713 290.338 97.8222 289.718 97.667C289.564 98.986 288.054 100.77 289.757 101.701C291.46 103.447 294.014 103.331 296.221 103.874C297.227 106.007 299.355 106.977 301.523 107.637C301.445 107.055 301.291 105.891 301.213 105.309C302.142 105.775 303.11 106.24 304.077 106.667ZM305.548 112.873C305.393 113.223 305.045 113.921 304.851 114.27C307.135 115.473 309.496 116.442 311.934 117.218C311.702 116.675 311.276 115.55 311.044 115.007C312.166 115.589 313.288 116.21 314.449 116.714C315.34 112.33 310.579 110.701 307.367 109.46C306.361 109.886 305.045 109.925 304.309 110.779C304.619 111.555 305.006 112.253 305.548 112.873Z" fill="#D6A22A"/>
<path d="M282.404 106.977C282.172 106.744 281.707 106.24 281.475 105.968C283.255 106.783 285.345 108.18 287.203 106.706C289.873 107.637 291.576 109.925 293.395 111.942C293.125 112.912 292.854 113.882 292.621 114.891C290.648 114.813 286.235 116.714 286.506 113.417C285.036 112.951 283.488 112.951 282.017 113.184C280.972 111.011 280.159 108.645 282.404 106.977ZM289.757 101.701C291.46 103.447 294.015 103.331 296.221 103.874C297.227 106.007 299.356 106.977 301.523 107.637C301.446 107.055 301.291 105.891 301.213 105.309C302.142 105.775 303.11 106.24 304.077 106.667C303.652 105.775 303.265 104.882 302.839 103.99C303.032 103.292 303.265 102.555 303.458 101.857C302.452 101.158 301.368 100.576 300.207 100.188C297.962 98.1713 294.982 98.2877 292.312 97.3567C292.273 97.5894 292.234 98.0937 292.234 98.3265C291.615 98.1713 290.338 97.8222 289.719 97.667C289.564 98.9859 288.054 100.77 289.757 101.701ZM246.101 106.822C245.869 106.395 245.443 105.581 245.211 105.154C246.72 105.231 248.307 105.775 249.816 105.348C251.597 104.417 253.299 103.369 255.118 102.555C254.925 102.244 254.577 101.585 254.383 101.275C254.964 101.119 256.086 100.732 256.628 100.576C256.28 99.4902 255.815 98.3653 254.615 98.0161C250.513 95.9602 245.946 98.6756 241.727 97.2403C242.114 97.8998 242.54 98.5204 242.927 99.1411C241.224 99.8781 238.902 100.732 240.141 103.059C239.521 102.981 238.244 102.865 237.625 102.788C238.709 103.757 239.792 104.688 240.876 105.658C239.754 105.503 238.592 105.348 237.47 105.231C238.709 108.8 243.275 107.675 246.101 106.822ZM269.98 116.985C271.296 115.86 271.412 114.192 270.716 112.641C271.722 113.145 272.728 113.649 273.773 114.115C272.302 112.602 270.87 111.011 269.168 109.77C266.923 108.257 264.562 110.507 262.24 110.585C262.743 111.167 263.788 112.292 264.291 112.835C263.517 112.602 261.93 112.175 261.156 111.981C260.885 112.99 260.614 114.037 260.343 115.085C261.04 115.783 261.737 116.481 262.433 117.218C261.891 117.296 260.846 117.412 260.305 117.49C263.053 119.546 267.774 120.205 269.98 116.985ZM304.851 114.27C307.135 115.472 309.496 116.442 311.934 117.218C311.702 116.675 311.276 115.55 311.044 115.007C312.166 115.589 313.289 116.21 314.45 116.714C315.34 112.33 310.579 110.701 307.367 109.46C306.361 109.886 305.045 109.925 304.31 110.779C304.619 111.555 305.006 112.253 305.548 112.873C305.393 113.223 305.045 113.921 304.851 114.27ZM145.125 194.957C145.203 194.53 145.319 193.677 145.358 193.25C143.152 193.405 140.946 193.367 138.778 193.793C136.379 194.22 136.224 197.944 138.082 199.108C140.404 200.543 142.687 203.685 145.629 201.28C144.777 202.095 142.997 203.685 142.107 204.461C143.655 203.918 145.164 203.918 146.557 204.733C150.737 206.827 155.304 204.927 159.329 203.414C158.439 204.228 157.51 205.004 156.62 205.819C159.329 206.866 162.774 206.944 164.903 204.655C166.373 202.677 164.786 200.272 164.245 198.216C165.328 197.479 166.412 196.78 167.534 196.043C166.18 196.198 164.825 196.431 163.471 196.548C161.652 194.026 159.755 190.806 156.233 190.729C152.711 191.311 149.46 192.94 146.054 194.026C145.822 194.259 145.358 194.724 145.125 194.957ZM284.339 149.26C277.527 150.696 270.909 152.907 264.755 156.126C272.728 155.195 280.624 152.752 288.712 153.915C294.595 154.42 300.13 156.902 306.012 157.174C307.599 157.368 308.335 155.855 309.109 154.769C307.367 153.372 305.471 152.17 303.342 151.51C297.227 149.571 290.725 148.872 284.339 149.26ZM233.406 121.059C234.645 122.804 235.922 124.356 236.58 126.451C238.128 126.916 239.715 127.304 241.302 127.653C240.644 126.606 239.947 125.714 239.25 124.666C240.179 123.076 240.953 121.446 241.998 119.934C242.888 118.886 243.817 117.839 244.746 116.83C245.133 116.947 245.83 117.218 246.178 117.335C248.5 116.326 250.668 113.804 249.545 111.205C247.494 109.188 244.359 110.313 241.805 110.08C242.463 110.856 243.121 111.71 243.74 112.524C243.198 112.253 242.114 111.632 241.573 111.361C239.637 115.007 235.496 116.248 232.671 119.003C233.716 119.662 234.8 120.244 235.767 120.942C235.187 120.942 234.026 121.059 233.406 121.059ZM103.404 100.382C100.966 101.275 99.4563 103.641 97.7534 105.464C96.7858 105.658 95.857 105.891 94.8894 106.124C95.9344 106.55 97.018 106.938 98.063 107.365C97.4438 108.296 96.8632 109.266 96.244 110.236C97.5599 110.701 98.9145 111.167 100.23 111.671C99.0693 111.981 97.9082 112.214 96.7471 112.524C97.8695 114.076 100.114 113.921 101.74 113.339C103.985 112.563 106.461 112.563 108.435 111.167C109.48 110.585 110.912 110.352 111.493 109.149C111.764 106.744 111.493 104.339 111.028 102.012C111.764 101.546 112.499 101.081 113.234 100.576C109.945 101.003 106.694 100.227 103.404 100.382ZM125.658 185.841C126.006 187.044 126.78 187.897 128.096 187.858C131.192 188.13 134.521 187.548 137.23 185.957C138.314 184.057 137.617 181.69 137.578 179.596C137.114 179.44 136.185 179.169 135.721 179.014C136.688 178.354 137.656 177.656 138.623 176.996C138.275 175.794 137.965 174.591 137.578 173.428C135.566 171.41 132.586 171.139 130.148 169.82C127.206 168.036 127.284 163.381 123.723 162.411C121.439 161.712 118.15 160.355 116.64 163.07C117.414 163.187 119.001 163.458 119.775 163.574C117.84 164.234 115.905 164.777 113.97 165.32C114.589 165.553 115.208 165.747 115.828 165.98C115.673 168.074 114.899 170.479 116.447 172.264C117.763 172.38 119.117 172.303 120.472 172.303C119.698 175.522 116.795 179.634 120.046 182.389C120.743 182.97 121.439 183.552 122.175 184.134C123.607 183.746 125.039 183.358 126.471 183.009C124.768 184.134 123.065 185.143 121.323 186.19C122.755 186.074 124.149 185.957 125.658 185.841ZM165.986 147.476C184.099 149.765 201.98 153.76 219.589 158.454C240.411 164.195 260.885 171.372 280.159 181.186C281.823 182.117 284.262 182.97 285.5 180.953C286.429 178.548 283.952 176.88 282.094 176.065C259.608 165.708 235.574 159.075 211.423 153.954C196.368 151.277 181.312 148.135 165.986 147.476ZM157.936 149.997C156.388 149.842 154.453 150.54 153.214 149.26C151.008 147.243 150.157 144.14 147.873 142.239C146.209 140.881 143.964 141.502 142.029 141.502C142.687 142.006 143.306 142.549 143.964 143.054C142.378 143.403 140.829 143.752 139.243 144.101C138.546 146.196 138.004 148.368 137.617 150.579C138.585 150.967 139.514 151.316 140.481 151.704C139.862 151.976 138.585 152.558 137.965 152.829C139.823 154.885 141.836 156.825 143.81 158.803C143.539 159.54 143.268 160.277 142.997 161.014C145.319 161.518 147.719 162.294 150.079 161.635C153.214 160.743 156.814 161.169 159.407 158.881C157.897 156.631 155.885 154.73 154.801 152.208C155.846 151.471 156.891 150.734 157.936 149.997ZM283.526 186.966C266.071 178.626 247.339 173.35 228.607 168.695C211.268 164.622 193.697 161.596 176.01 159.54C173.92 159.307 171.83 159.307 169.74 159.269C208.25 165.049 246.526 174.785 281.63 192.009C282.172 192.358 282.713 192.474 283.255 192.474C284.416 192.474 285.539 191.737 286.429 190.923C286.429 190.923 286.429 190.923 286.429 190.884C285.694 189.41 285.229 187.587 283.526 186.966ZM263.285 99.4902C265.646 100.887 268.2 101.934 270.948 102.167C270.87 101.663 270.754 100.615 270.677 100.111C272.148 101.042 273.618 101.895 275.166 102.71C275.515 102.4 276.25 101.74 276.598 101.43C277.876 101.197 279.772 101.507 280.198 99.8781C280.314 97.8998 278.03 97.0075 276.985 95.6886L278.65 95.3783C276.792 93.7878 274.392 94.0594 272.148 94.3697C272.38 95.1067 272.612 95.805 272.844 96.542C271.064 95.611 269.284 94.2533 267.194 94.5249C265.646 94.6024 264.407 95.6886 263.207 96.5808C263.285 97.5506 263.323 98.5204 263.285 99.4902ZM104.178 175.833C106.887 173.699 106.655 169.122 103.752 167.26C102.32 167.57 100.927 167.919 99.495 168.191C100.501 167.57 101.508 166.988 102.514 166.367C101.121 163.846 101.662 159.734 98.5274 158.609C99.4176 158.182 100.269 157.794 101.121 157.368C98.45 154.381 92.6833 153.023 90.2451 156.941C88.2712 158.454 88.9679 161.829 86.4135 162.76C87.7681 162.799 89.084 162.799 90.4386 162.799C90.0516 163.148 89.3549 163.885 88.9679 164.234C90.2451 167.57 89.9741 171.139 89.8193 174.63C91.1352 174.553 92.4511 174.475 93.767 174.436C92.3737 175.367 91.0191 176.221 89.6258 177.074C90.0516 178.548 90.3225 180.177 91.3674 181.38C92.9156 183.281 96.1666 183.514 97.8308 181.807C99.9207 179.789 101.972 177.734 104.178 175.833ZM221.989 111.283C221.679 111.632 221.06 112.33 220.75 112.679C220.789 113.106 220.828 113.96 220.828 114.386C220.867 115.705 220.828 116.985 220.789 118.304C221.757 119.041 222.724 119.74 223.731 120.477C222.957 120.399 221.292 120.205 220.518 120.166C222.647 122.183 225.24 123.541 227.872 124.783C228.878 124.627 229.923 124.511 230.929 124.356C230.774 121.757 228.646 120.205 227.291 118.266C226.827 116.675 227.64 115.123 228.53 113.843C229.923 113.649 231.123 113.766 232.516 113.766C231.858 113.61 230.852 113.339 230.194 113.184C227.756 112.175 225.704 110.313 223.15 109.576C222.84 110.003 222.26 110.817 221.989 111.283ZM136.533 135.916C138.469 134.83 137.346 132.425 137.23 130.718C139.049 130.058 140.907 129.476 142.881 129.515C141.526 129.011 140.249 128.351 139.01 127.692C139.436 126.295 140.868 124.627 139.784 123.192C138.352 121.446 135.953 121.602 133.902 121.563C134.056 121.912 134.405 122.649 134.56 123.037C130.225 122.3 126.897 125.558 123.529 127.731C124.187 128.39 124.807 129.088 125.465 129.748C124.226 129.36 122.949 128.933 121.672 128.545C121.672 130.136 121.556 131.688 121.401 133.278C122.059 133.821 122.755 134.403 123.452 134.946C121.943 134.985 120.472 135.062 119.001 135.14C122.252 136.265 125.503 137.778 129.025 137.894C131.541 137.351 134.018 136.498 136.533 135.916ZM375.639 193.367C372.697 202.483 365.769 209.931 357.526 214.625C354.584 216.525 351.14 217.379 348.082 218.969C339.684 231.344 326.757 240.499 312.398 244.572C315.572 239.335 318.939 234.098 320.758 228.202C320.139 228.279 318.862 228.396 318.204 228.435C318.165 226.65 318.126 224.904 318.049 223.12C316.114 224.361 314.179 225.68 312.282 226.999C311.315 225.797 310.425 224.555 309.496 223.314C305.742 227.814 300.439 230.684 295.06 232.74C292.389 233.827 289.293 234.253 287.203 236.426C283.062 240.421 277.76 242.826 272.612 245.154C272.186 252.602 276.134 259.507 281.32 264.55C286.661 258.731 291.228 252.253 295.834 245.813C298.698 255.977 296.879 266.722 294.866 276.886C297.846 278.243 302.142 280.183 301.484 284.217C298.93 296.32 292.08 307.337 282.984 315.6C272.341 325.143 258.757 332.242 244.243 332.552C222.105 333.134 200.625 321.652 187.079 304.389C178.681 294.07 172.837 281.929 164.399 271.649C157.936 263.464 149.538 256.908 140.21 252.292C127.167 245.775 113.351 240.732 100.927 232.973C84.2075 222.81 70.7776 207.254 63.1145 189.216C57.8896 176.88 56.4576 163.109 58.5476 149.881C53.942 147.67 49.9943 144.411 46.2014 141.036C38.4222 133.86 31.417 125.636 26.7727 116.054C24.1022 110.391 22.2832 103.796 24.1409 97.6282C24.8763 95.3783 25.9212 92.6628 28.4756 91.887C31.9201 90.8008 35.6743 91.4603 39.2349 91.0336C58.7798 89.1328 78.5956 88.9388 97.8695 84.9045C111.648 81.9951 125.271 78.3486 138.856 74.6246C155.072 69.6592 172.179 66.6335 189.169 68.4567C192.459 68.6894 195.71 70.2023 199.038 69.3877C222.066 65.0818 246.062 68.1076 268.084 75.9047C284.262 81.5684 299.123 90.1802 313.869 98.792C324.358 104.3 335.156 109.848 343.322 118.692C348.547 124.239 345.954 133.045 341.696 138.36C349.901 144.101 357.487 151.006 362.557 159.734C363.873 162.178 366.35 163.652 368.13 165.708C374.748 173.001 378.464 183.591 375.639 193.367ZM290.686 288.95C286.235 286.778 281.243 285.924 276.289 285.963C264.755 285.924 254.112 290.812 243.353 294.226C235.574 296.476 226.517 296.98 219.396 292.48C212.739 288.329 207.669 282.161 203.063 275.916C193.233 261.99 185.957 246.24 181.467 229.792C177.868 216.409 178.1 201.164 185.686 189.138C189.13 183.514 194.975 179.673 201.477 178.587C185.492 174.63 169.392 171.954 153.176 169.432C191.336 172.729 229.613 179.091 265.413 193.134C267.929 194.453 271.49 194.841 272.806 197.673C273.386 199.884 270.6 201.978 268.781 200.97C260.885 197.401 252.951 193.949 244.785 191.078C249.584 201.086 258.447 209.814 269.593 211.948C278.456 213.965 287.822 212.22 295.988 208.418C305.625 204.384 315.649 200.078 326.331 200.543C326.641 195.966 325.635 191.078 322.461 187.625C317.507 182.544 310.966 179.479 304.619 176.492C296.298 172.691 287.784 169.316 279.114 166.212C288.79 165.475 298.504 165.902 308.141 167.143C319.326 169.005 330.434 171.682 341.077 175.716C344.096 173.66 347.386 172.07 350.985 171.294C353.501 170.751 355.939 168.617 355.745 165.98C355.242 161.635 352.185 157.95 348.895 155.273C346.766 156.941 345.025 159.424 342.161 159.85C341.077 159.385 339.993 158.144 340.729 156.941C341.387 154.458 342.509 151.898 341.696 149.338C340.806 147.088 339.181 145.226 337.71 143.364C328.924 133.123 318.049 124.977 306.903 117.49C313.095 119.662 318.746 123.153 324.745 125.752C328.731 128.313 332.872 130.718 336.588 133.666C338.639 130.524 339.297 126.606 337.826 123.076C336.162 119.584 331.827 119.74 329.35 117.102C326.022 116.442 322.964 114.891 319.636 114.27C319.907 113.3 319.945 112.214 320.72 111.477C321.3 111.593 322.461 111.826 323.042 111.942C322.887 111.438 322.539 110.43 322.384 109.925C312.398 104.106 302.258 98.5592 292.08 93.1284C289.719 91.8094 278.611 86.301 276.173 85.1372C276.018 85.0596 275.902 84.982 275.786 84.9045C257.208 75.8659 236.038 70.5903 215.448 74.1591C218.699 75.2453 222.066 75.7884 225.279 76.9521C227.136 77.728 228.762 75.9823 230.387 75.3617C231.162 76.1375 231.974 76.8745 232.748 77.6504C232.71 76.8357 232.594 75.2065 232.555 74.3919C235.458 74.5082 238.979 74.547 240.644 77.3788C240.605 78.0771 240.45 79.5124 240.411 80.2494C238.979 80.4822 237.547 80.7537 236.154 81.0253C240.373 83.3916 244.901 85.2148 249.081 87.6975C250.165 84.9821 252.835 84.2838 255.118 82.9649C255.389 83.1588 255.931 83.5855 256.202 83.7795C258.253 81.6847 262.472 83.4692 262.588 86.4174C260.227 87.6587 259.066 90.1802 257.518 92.2361C257.208 91.887 256.589 91.2275 256.28 90.8784C256.086 91.2663 255.738 92.081 255.583 92.5077C254.731 91.8482 253.919 91.15 253.067 90.4517C251.829 90.219 250.629 89.9474 249.39 89.7147C249.003 90.1026 248.268 90.8008 247.881 91.15C245.056 91.0336 242.23 90.4517 239.405 90.2965C237.122 91.1888 234.916 89.831 234.026 87.6587L235.845 87.6975C235.612 87.1156 235.38 86.5337 235.148 85.9131C236.386 85.2536 237.664 84.5941 238.902 83.9347C231.858 81.8787 224.776 79.7451 217.499 78.659C216.842 79.5512 216.3 80.5598 215.758 81.5296C214.016 80.9089 212.313 80.2494 210.61 79.6288C211.539 80.5598 212.816 81.2968 213.281 82.6157C211.23 83.7795 208.791 83.6243 206.547 84.051C204.341 84.5553 201.902 83.9347 200.315 82.3054C199.464 81.0641 200.548 79.7839 201.244 78.7753C202.405 79.4736 203.567 80.1719 204.728 80.8313C204.224 79.9391 203.683 79.0857 203.179 78.2323C203.45 77.534 203.721 76.8745 203.992 76.2151C194.897 75.2065 185.725 74.5858 176.629 75.2065H176.591C176.978 76.4866 177.404 77.7668 177.791 79.0081C176.707 78.5814 175.623 78.1547 174.539 77.6892C174.733 78.5038 174.888 79.3572 175.081 80.1719C172.45 80.3658 169.818 80.7537 167.496 82.0727C166.257 81.1804 164.98 80.2882 163.741 79.396H163.703C164.709 81.2968 165.87 83.0812 166.915 84.9433C165.057 84.1674 163.238 82.8485 161.148 83.3916C157.781 83.9347 154.724 81.4908 153.098 78.6978C142.726 81.3744 132.199 83.4304 121.788 85.9518C121.788 85.9518 121.672 85.9906 121.517 85.9906C120.007 86.4561 120.859 88.7449 120.627 89.9862C119.853 89.831 118.305 89.5983 117.53 89.4431C118.188 90.2965 121.207 91.9258 119.001 92.8568C115.866 93.2835 112.577 94.0981 109.442 93.2835C111.415 92.6628 110.796 91.5767 109.287 90.956C108.551 90.2577 107.777 89.3655 106.732 89.3267C106.268 89.4431 105.997 89.4819 105.997 89.5207C101.121 90.5293 96.3214 91.7318 91.4836 92.7404C87.3424 93.5939 83.0851 93.7102 78.9826 94.68C80.5307 95.4559 82.1949 95.9602 83.8978 96.3093C83.8204 96.3481 83.7043 96.3869 83.6269 96.4257C82.0014 96.0765 80.3759 95.5722 78.9052 94.8352C66.4429 95.1067 53.8646 95.4947 41.3636 95.805C41.3249 95.9214 41.3249 96.0765 41.3249 96.1929C50.1878 98.4816 58.8572 101.663 67.1009 105.697C70.2358 104.65 73.7577 104.456 76.583 102.4C77.241 102.4 78.5956 102.361 79.2535 102.361C78.3634 101.546 77.3958 100.809 76.4669 100.033C76.8152 99.8394 77.5119 99.4902 77.8602 99.2963C77.9376 99.2575 78.015 99.2187 78.0924 99.1799C79.7566 99.529 81.4209 99.6066 83.1238 99.8006C84.9041 101.197 82.969 102.71 81.537 103.137C80.105 105.309 77.6667 106.589 76.196 108.761C76.1186 109.188 75.9638 110.08 75.8864 110.507C76.7765 111.399 77.9376 112.136 79.2148 112.679C88.8905 119.313 100.579 123.89 112.46 122.998C121.13 122.183 129.528 119.507 137.114 115.317C132.199 120.283 125.929 123.425 119.775 126.528C119.737 126.567 119.659 126.606 119.62 126.606C113.583 128.429 107.39 129.632 101.082 129.981C86.607 130.834 71.3195 130.213 58.1606 123.425C65.4754 124.239 72.9063 125.752 80.2985 124.472C74.9962 121.291 70.5454 116.985 65.2044 113.882C54.716 107.326 42.6795 102.05 30.0624 103.02C32.3459 104.417 34.6293 105.775 36.4484 107.753C36.3322 112.33 38.8479 116.365 41.4797 119.895C44.4211 123.968 48.2914 127.149 51.9681 130.485C50.3039 130.524 48.6784 130.485 47.0142 130.563C51.2715 133.394 56.3028 134.636 60.9471 136.653C58.9346 137.196 56.8834 137.584 54.8708 138.088C68.5329 143.946 84.5945 144.722 98.5274 139.33C96.9019 141.773 94.0379 142.86 91.5223 144.179C85.7169 147.01 79.3309 148.135 73.0224 148.989C70.9711 155.971 71.126 165.204 72.3257 170.441C73.5642 169.587 77.1249 170.402 76.7765 167.919C79.2148 167.764 82.5819 167.919 83.0851 170.984C82.3497 174.242 81.3048 177.734 78.5956 179.867C79.2148 179.906 80.5307 179.906 81.1499 179.906C83.4721 182.078 85.2137 184.832 86.994 187.47C87.3811 187.625 88.3486 187.897 88.7744 188.052C87.4972 189.294 86.2974 190.574 85.2137 192.009C85.9491 192.009 87.4198 191.97 88.1551 191.97C87.8842 195.151 86.4522 196.742 84.6332 200.466C84.5945 200.504 84.5945 200.543 84.5558 200.582C85.7943 202.366 88.2325 204.888 90.0903 207.021C105.494 223.43 126.161 233.594 146.325 242.788C160.607 248.606 173.688 258.421 181.274 272.075C186.731 282.123 193.349 291.665 201.709 299.54C209.952 307.299 213.629 309.238 223.421 312.729L221.37 316.337L241.65 317.384C241.65 317.384 241.727 319.014 240.373 320.488C260.885 319.363 281.165 307.609 290.686 288.95ZM318.243 172.652C314.45 171.76 310.192 171.061 306.67 173.195C312.36 174.009 319.171 173.699 323.467 178.315C325.635 180.294 325.054 183.552 326.641 185.841C328.034 188.246 329.428 190.651 330.782 193.095C334.614 189.798 337.865 185.647 339.568 180.837C332.795 177.307 325.635 174.514 318.243 172.652ZM265.762 269.127C266.923 270.524 268.626 271.377 270.135 272.425C271.257 268.584 268.471 264.899 265.259 263.115C265.259 265.093 264.988 267.188 265.762 269.127ZM239.134 260.399C236.851 259.468 235.845 257.063 234.761 255.007C231.278 246.706 231.355 237.551 230.426 228.745C228.878 218.698 225.124 208.302 216.996 201.746C209.914 196.703 200.509 194.453 192.072 196.936C193.233 197.517 194.355 198.099 195.478 198.642C202.057 201.629 206.701 207.991 208.482 214.896C211.578 226.728 210.185 239.025 211.655 251.05C212.971 263.076 220.634 274.015 231.084 279.95C232.477 280.61 234.18 281.773 235.612 280.493C244.049 275.334 251.751 267.77 254.615 258.072C251.906 255.783 248.887 253.649 247.571 250.236C242.463 238.637 246.875 225.292 242.153 213.577C238.825 205.78 230.929 200.931 222.879 199.302C225.085 201.397 227.33 203.569 228.723 206.323C233.174 214.741 234.683 224.361 235.496 233.788C235.883 242.749 235.341 252.02 239.134 260.399ZM268.161 277.894C267.194 276.149 266.149 274.442 264.949 272.851C263.014 274.248 261.156 275.761 259.453 277.39C262.898 270.601 262.627 262.455 260.266 255.356C257.944 261.02 255.157 266.528 251.635 271.532C248.268 276.304 243.662 279.911 239.25 283.558C237.664 284.799 239.25 287.204 240.953 287.321C246.759 288.368 252.603 285.73 256.937 282.006C258.099 280.804 259.84 280.726 261.427 280.532C265.8 280.105 270.251 279.873 274.663 280.222C277.179 280.183 278.727 282.782 281.243 282.821C283.604 283.248 285.152 280.998 286.313 279.291C290.57 272.386 292.699 264.201 292.505 256.132C287.822 262.959 283.72 270.446 277.527 276.071C276.792 274.713 275.979 273.394 275.205 272.075C272.612 273.743 270.213 275.644 268.161 277.894ZM296.453 216.913C289.951 218.271 283.371 219.474 276.676 219.474C277.373 227.891 272.728 235.533 267.503 241.74C280.043 238.055 290.88 228.745 296.453 216.913ZM310.076 212.491C306.012 214.237 300.71 215.633 296.492 216.875C297.227 220.055 297.42 223.314 297.304 226.573C302.955 223.818 306.167 217.224 310.076 212.491ZM341.387 210.668C338.6 207.758 334.265 208.961 331.324 210.901C328.576 208.379 324.706 209.31 321.919 211.211C318.668 207.836 314.179 211.715 310.502 212.297C310.734 215.168 312.321 217.689 313.598 220.249C316.501 218.543 318.9 216.215 321.532 214.159C321.997 216.409 322.229 218.737 322.345 221.064C324.745 220.055 326.951 218.659 329.118 217.185C327.763 223.741 324.861 229.831 321.648 235.689C328.886 232.081 334.614 225.991 339.684 219.784C341.735 217.379 343.631 213.538 341.387 210.668ZM370.917 186.811C367.705 189.41 362.828 192.979 358.842 190.108C360.506 187.664 363.525 187.16 365.963 185.841C367.743 184.949 369.291 183.63 370.801 182.35C370.53 180.488 370.259 178.587 369.407 176.88C367.472 178.083 366.776 180.992 364.299 181.807C363.138 182.932 360.39 180.759 362.131 179.634C364.067 177.734 366.466 176.104 367.434 173.466C367.163 171.76 365.498 170.712 364.492 169.432C362.247 174.126 359.035 178.354 354.971 181.613C351.604 184.406 347.424 185.919 343.67 188.091C337.903 191.349 332.214 195.229 328.344 200.737C335.272 201.513 342.432 203.879 347.115 209.31C353.849 207.758 360.661 204.927 365.382 199.69C363.215 199.496 360.932 199.651 358.88 198.759C357.835 198.448 357.797 197.168 358.261 196.392C361.357 194.53 365.576 197.556 368.479 195.112C370.065 192.63 370.375 189.643 370.917 186.811ZM149.344 104.262C149.189 103.641 148.996 102.981 148.841 102.361C150.776 101.857 151.782 100.111 152.982 98.6756C154.646 97.0463 157.51 95.611 156.736 92.7792C154.762 89.5595 150.776 92.081 147.989 92.4301C149.151 91.6931 150.234 90.956 151.318 90.1414C149.344 90.0638 147.332 89.6759 145.358 90.025C142.842 90.8784 140.559 92.3913 137.927 92.8956C134.792 93.3999 131.967 96.4645 132.547 99.7618C133.553 99.4514 134.598 99.1411 135.605 98.8308C134.482 100.77 132.47 101.818 130.689 103.02C132.354 102.788 133.979 102.555 135.605 102.283C136.146 103.059 136.65 103.796 137.191 104.572C141.216 105.27 145.512 105.891 149.344 104.262ZM160.994 220.017C160.297 219.124 159.871 217.806 158.671 217.456C156.272 216.409 153.834 218.038 151.473 218.426C152.015 217.883 153.137 216.875 153.717 216.331C149.073 217.379 144.351 216.37 139.707 216.138C137.772 216.06 135.876 215.827 134.018 215.245C131.657 215.944 129.141 216.525 127.167 218C125.039 219.978 125.774 223.353 127.593 225.292C128.832 225.292 129.528 223.896 130.496 223.236C130.225 224.284 129.993 225.331 129.722 226.379C133.437 227.853 137.308 228.9 141.255 229.404C144.661 230.025 148.299 229.792 151.395 231.538C152.827 230.646 154.259 229.792 155.73 228.978C154.879 230.413 154.027 231.809 153.137 233.245C155.73 235.533 159.136 237.589 162.735 236.542C165.096 235.921 165.135 233.167 165.986 231.344L164.786 231.693C164.709 230.491 164.593 229.249 164.477 228.047C165.522 228.357 166.605 228.667 167.65 228.978C168.231 228.124 169.624 227.31 168.579 226.185C167.341 223.081 164.786 219.318 160.994 220.017ZM128.29 204.112C129.335 201.513 127.709 199.069 125.813 197.401C127.245 196.664 128.677 195.927 130.07 195.112C127.245 195.461 124.497 196.819 121.594 196.315C117.26 195.617 112.538 196.315 108.551 194.104C106.965 193.056 105.61 195.035 104.333 195.772C104.372 195.229 104.488 194.181 104.526 193.638C103.752 194.375 102.785 194.996 102.049 195.772C100.733 197.634 99.7272 198.759 98.3339 200.776L97.5599 202.909C98.1791 202.444 99.3789 201.513 99.9981 201.047C98.6436 203.453 97.1341 206.672 99.2241 209.116C102.011 211.87 106.152 212.53 109.558 214.314C110.564 213.694 111.609 213.073 112.615 212.452C111.261 214.159 109.983 215.944 109.055 217.961C109.945 217.262 110.796 216.564 111.686 215.827C113.97 216.991 116.524 218.31 119.117 217.301C121.672 216.952 122.097 213.926 123.142 212.103C122.407 212.375 120.898 212.957 120.124 213.267C122.097 209.427 127.632 208.689 128.29 204.112ZM104.991 151.433C106.345 153.411 108.9 152.752 110.835 152.208C114.55 153.062 118.769 151.045 119.388 147.088C118.769 144.916 116.331 144.411 114.55 143.519C114.666 143.209 114.86 142.51 114.976 142.161C111.764 140.804 108.59 142.549 105.339 142.627C105.146 143.17 104.797 144.334 104.604 144.877C105.533 145.226 106.5 145.536 107.429 145.885C106.152 145.769 104.913 145.691 103.636 145.575C102.978 147.709 103.172 149.92 104.991 151.433ZM196.252 132.774C207.475 124.666 222.531 124.317 235.496 127.537C246.604 130.019 256.396 136.343 267.387 139.097C273.038 140.493 279.501 141.696 284.803 138.554C286.777 137.274 288.79 135.683 289.332 133.278C290.648 128.739 288.829 124.201 287.126 120.05C290.067 122.571 292.505 125.636 294.673 128.856C296.259 134.093 296.221 139.834 293.357 144.605C284.958 143.403 276.521 141.851 267.968 142.239C262.511 142.51 257.325 144.489 252.409 146.778C252.138 146.894 251.519 147.088 251.248 147.204C256.357 152.829 261.156 158.958 263.633 166.251C258.369 161.48 253.145 156.631 247.03 152.945C242.23 149.765 237.122 147.049 231.819 144.76C224.621 141.618 217.964 137.39 211.578 132.89C209.527 131.144 206.74 131.765 204.302 131.92C202.212 132.192 200.161 132.657 198.071 133.006L196.252 132.774ZM221.06 132.696C221.795 133.588 222.57 134.403 223.537 135.062C228.762 138.786 234.103 142.627 240.295 144.528C246.294 145.808 252.371 143.209 257.479 140.183C254.577 138.98 251.519 138.127 248.462 137.39C248.307 139.756 247.455 141.967 245.056 142.743C242.966 142.239 241.65 140.726 241.302 138.592C242.579 139.136 244.127 138.243 243.856 136.808C243.121 135.45 241.379 135.412 240.102 134.985C237.702 134.481 235.38 133.317 232.903 133.472C228.994 132.463 224.969 132.58 221.06 132.696ZM158.091 112.602C156.93 113.727 155.73 114.852 154.569 115.977C156.233 116.83 157.897 117.684 159.562 118.537C157.781 118.498 156.04 118.421 154.259 118.382C154.801 119.429 155.382 120.515 155.924 121.563C155.924 122.882 154.995 124.589 156.349 125.52C158.4 126.955 161.11 126.451 163.471 126.645C163.354 126.334 163.161 125.675 163.084 125.364C164.399 124.821 165.677 124.278 166.954 123.619C169.547 122.61 169.895 119.468 171.327 117.412C170.398 116.985 169.431 116.597 168.463 116.171C169.044 116.132 170.243 115.977 170.863 115.938C170.553 113.804 170.321 111.671 170.205 109.537C170.824 109.46 172.101 109.343 172.72 109.305C169.044 108.49 164.941 106.977 161.535 109.421C160.297 109.964 158.981 110.391 157.704 110.817C159.097 111.477 160.452 112.175 161.845 112.912C160.568 112.796 159.329 112.718 158.091 112.602ZM210.301 101.352C209.914 101.663 209.178 102.244 208.791 102.555C211.114 103.563 213.552 104.184 216.067 104.029C216.184 103.486 216.454 102.438 216.609 101.895C218.274 103.098 220.054 104.184 221.95 105.037C221.292 104.184 220.596 103.331 219.899 102.516C221.099 101.74 222.453 101.042 223.305 99.8394C224.234 98.792 224.853 97.0463 226.556 97.3567C227.175 95.1843 231.2 94.2145 229.652 91.6543C226.827 91.4215 223.963 91.3827 221.138 91.3827C218.854 92.0422 217.151 93.943 214.79 94.4473C215.564 95.2231 216.3 96.0377 217.035 96.8524C215.41 96.2705 213.784 95.5334 212.12 95.0292C210.339 94.6412 208.095 95.6498 207.746 97.5894C207.553 99.3739 209.024 100.46 210.301 101.352ZM189.092 114.464C188.472 114.348 187.273 114.154 186.653 114.037C185.105 115.434 183.364 116.559 181.97 118.11C182.899 120.283 183.789 122.571 185.608 124.162C186.77 125.597 189.363 126.567 190.601 124.666C193.233 125.558 194.82 123.231 196.639 121.796C197.916 121.64 199.232 121.757 200.548 121.834C199.812 121.563 199.116 121.291 198.38 121.02C199.387 119.429 201.051 117.878 200.548 115.783C200.238 114.115 201.012 112.447 200.703 110.817C198.458 110.313 196.136 110.546 193.93 109.809C192.111 110.624 190.253 111.438 188.434 112.214C188.627 112.951 188.821 113.688 189.092 114.464ZM178.797 97.861C181.196 99.1411 183.519 97.473 185.725 96.6196C187.466 96.3093 188.743 97.8998 190.098 98.6756C190.098 98.0937 190.137 96.8912 190.137 96.3093C193.155 95.5334 194.858 91.3827 192.807 88.9C191.104 87.232 188.511 88.3569 186.46 88.2406C185.647 87.5423 185.067 86.6889 184.37 85.9131C184.331 87.6587 184.331 89.4043 184.331 91.1888C183.441 90.219 182.899 88.8612 181.661 88.2794C179.455 88.2794 178.178 90.1414 177.055 91.693C177.403 92.5853 177.752 93.5163 178.1 94.4473C177.249 93.8266 176.397 93.2059 175.546 92.5853C175.236 94.9516 176.281 97.4343 178.797 97.861ZM170.282 135.838C169.586 135.877 168.192 135.916 167.496 135.955C167.96 136.498 168.85 137.506 169.315 138.011C168.85 138.011 167.883 137.933 167.418 137.894C169.624 140.028 171.443 142.433 173.069 144.954C175.894 146.428 178.023 143.635 180.113 142.2C181.158 141.851 182.241 141.502 183.248 141.036C181.235 138.049 177.945 136.304 175.081 134.287C173.185 133.2 171.25 134.054 170.282 135.838Z" fill="#010101"/>
<path d="M254.614 258.072C251.75 267.77 244.048 275.334 235.611 280.493C234.179 281.774 232.476 280.61 231.083 279.95C220.633 274.015 212.97 263.076 211.654 251.05C210.183 239.025 211.577 226.728 208.48 214.896C206.7 207.991 202.056 201.629 195.476 198.642C194.354 198.099 193.232 197.517 192.071 196.936C200.508 194.453 209.912 196.703 216.995 201.746C225.123 208.302 228.877 218.698 230.425 228.745C231.354 237.551 231.276 246.706 234.76 255.007C235.843 257.063 236.85 259.468 239.133 260.399C235.34 252.02 235.882 242.749 235.495 233.788C234.682 224.361 233.173 214.741 228.722 206.323C227.329 203.569 225.084 201.397 222.878 199.302C230.928 200.931 238.823 205.78 242.152 213.577C246.874 225.292 242.461 238.637 247.57 250.236C248.886 253.649 251.905 255.783 254.614 258.072ZM245.055 142.743C242.965 142.239 241.649 140.726 241.3 138.593C238.591 136.731 236.114 134.403 232.902 133.472C229.032 132.463 224.968 132.619 221.02 132.657C221.717 133.55 222.53 134.364 223.536 135.062C228.761 138.787 234.102 142.627 240.294 144.528C246.293 145.808 252.369 143.209 257.478 140.183C254.575 138.98 251.518 138.127 248.46 137.39C248.306 139.756 247.454 141.967 245.055 142.743ZM265.257 263.115C265.257 265.093 264.986 267.188 265.76 269.127C266.922 270.524 268.624 271.377 270.134 272.425C271.256 268.584 268.47 264.899 265.257 263.115ZM318.241 172.652C314.448 171.76 310.191 171.061 306.669 173.195C312.358 174.01 319.17 173.699 323.466 178.315C325.633 180.294 325.053 183.552 326.64 185.841C328.033 188.246 329.426 190.651 330.781 193.095C334.612 189.798 337.863 185.647 339.566 180.837C332.793 177.307 325.633 174.514 318.241 172.652Z" fill="#016577"/>
</g>
<defs>
<clipPath id="clip0_257_11730">
<rect width="368" height="280" fill="white" transform="translate(16.0002 60)"/>
</clipPath>
</defs>
</svg>
