<svg width="400" height="400" viewBox="0 0 400 400" fill="none" xmlns="http://www.w3.org/2000/svg">
<g clip-path="url(#clip0_257_11723)">
<path d="M29.6318 246.541C29.937 239.565 29.5173 232.665 27.0753 226.032C25.4346 221.534 25.2819 216.807 24.8622 212.118C24.0228 202.892 25.4346 194.163 29.441 185.852C31.1581 182.345 33.4856 179.143 35.1645 175.598C37.7591 170.108 37.8355 164.619 36.2329 158.939C35.3553 155.813 35.5461 152.763 36.8052 149.79C38.7894 145.177 42.7577 142.966 47.6417 144.071C50.9613 144.834 54.0138 144.453 56.9901 143.118C59.661 141.937 62.2557 142.089 64.8503 143.042C66.5674 143.652 68.2844 144.338 70.0014 145.024C76.7933 147.807 82.7458 145.825 88.2403 141.67C90.2244 140.183 90.606 137.743 91.2928 135.532C92.9336 130.233 92.5138 125.049 90.8349 119.788C89.0797 114.299 87.2482 108.847 86.1035 103.205C85.6838 101.261 85.722 99.2788 85.8364 97.3347C85.9509 94.5518 88.2021 92.9888 91.4454 93.1413C96.2913 93.37 101.137 93.9037 105.907 94.6662C112.966 95.7717 120.063 96.0004 127.198 95.4667C133.99 94.933 140.4 96.2673 146.086 100.27C151.962 104.387 158.372 104.73 165.126 103.243C168.674 102.481 172.223 101.757 175.886 102.252C176.42 102.329 176.992 102.367 177.489 102.595C182.525 104.768 187.943 106.103 192.599 109.152C200.077 114.032 208.243 116.662 217.286 116.319C224.421 116.052 230.946 117.92 236.784 122.266C242.278 126.383 248.803 127.87 255.519 128.022C261.128 128.137 265.974 129.7 270.247 133.321C272.842 135.494 275.704 137.324 278.222 139.535C282.839 143.652 288.372 144.758 294.209 145.139C295.698 145.215 297.148 145.253 298.636 145.291C305.733 145.52 310.769 149.37 315.119 154.478C317.485 157.223 319.126 160.502 321.797 163.018C323.781 164.886 325.956 166.258 328.627 166.83C332.862 167.707 336.754 169.536 340.722 171.061C342.554 171.747 344.347 172.777 345.568 174.34C351.215 181.583 358.847 186.462 366.135 191.761C368.081 193.172 369.988 194.62 371.82 196.145C373.308 197.403 374.644 198.89 375.292 200.834C376.17 203.312 375.712 205.103 373.575 206.666C369.798 209.449 365.562 211.47 360.984 212.575C353.657 214.367 347.438 217.798 342.478 223.592C340.15 226.337 337.441 228.815 334.884 231.369C331.908 234.266 328.55 236.401 324.506 237.735C317.256 240.061 310.693 243.72 305.122 249.019C300.124 253.784 293.866 255.881 287.265 257.139C278.756 258.74 271.087 261.98 264.409 267.508C259.716 271.396 254.298 273.684 248.231 274.484C243.156 275.17 238.348 276.771 233.846 279.326C228.008 282.642 221.636 283.9 214.958 283.976C208.281 284.053 202.138 286.149 196.681 289.961C190.538 294.307 183.632 296.061 176.229 296.29C170.43 296.48 164.744 297.166 159.097 298.462C156.579 299.034 154.137 299.987 151.885 301.207C146.696 304.028 141.163 304.829 135.364 304.867C130.747 304.905 126.168 304.562 121.551 304.257C114.95 303.799 108.463 304.905 101.977 306.087C96.3676 307.078 90.7205 307.268 85.0733 307.002C82.2116 306.849 81.1813 304.486 80.2656 302.275C79.6551 300.788 79.8077 299.149 79.9603 297.548C80.8379 289.733 83.051 282.147 84.3865 274.446C85.0733 270.481 85.6075 266.555 84.5773 262.59C83.5089 258.511 80.9524 255.919 76.7552 254.928C71.8711 253.784 67.1779 254.585 62.6372 256.11C59.0887 257.291 55.8072 257.33 52.2586 255.995C48.9772 254.737 45.5431 254.814 42.1471 255.957C39.3617 256.91 36.5763 257.94 33.6764 258.397C31.2344 258.778 30.0897 258.054 29.4792 255.652C28.8687 252.526 29.5936 249.515 29.6318 246.541ZM173.673 184.327C172.681 185.052 171.803 185.7 170.887 186.348C164.363 191.151 159.288 197.136 156.502 204.798C151.351 219.132 152.992 232.398 163.218 244.178C168.522 250.277 175.275 254.127 182.678 257.101C198.322 263.353 214.615 264.839 231.327 263.925C243.499 263.238 255.061 260.57 266.203 255.652C276.276 251.192 284.861 244.864 291.539 236.058C295.278 231.14 297.72 225.651 298.063 219.361C298.101 218.637 298.254 217.95 296.995 217.988C291.577 218.065 286.158 218.027 280.778 218.027C280.244 218.027 279.786 217.95 279.519 218.713C277.535 224.24 273.338 227.9 268.377 230.492C249.643 240.289 229.878 242.272 209.387 237.697C200.535 235.715 193.362 231.026 188.363 223.287C184.09 216.654 184.891 209.411 190.309 204.189C191.378 203.159 192.064 203.007 193.018 204.303C193.552 205.027 193.514 205.294 192.98 205.942C192.026 207.124 190.271 207.848 190.309 209.678C190.347 213.223 190.576 216.807 190.538 220.352C190.538 221.801 190.996 222.029 192.293 222.029C204.885 221.991 217.515 221.724 230.106 222.144C235.334 222.296 239.379 221.191 242.546 216.997C242.965 216.425 243.309 216.006 243.309 215.244C243.27 211.203 243.27 207.124 243.309 203.083C243.309 202.13 243.08 201.634 242.088 201.825C240.218 202.206 238.997 201.291 237.929 199.881C237.165 198.928 236.25 198.089 235.448 197.174C231.595 192.981 227.741 188.826 223.734 184.518C227.664 183.679 231.404 183.107 235.219 182.917C245.598 182.307 255.366 184.213 264.104 190.122C269.904 194.048 274.368 199.233 278.069 205.103C278.68 206.056 279.29 206.438 280.397 206.4C283.526 206.323 286.654 206.323 289.821 206.4C290.814 206.4 291.539 206.133 292.225 205.37C293.828 203.693 296.155 202.321 296.995 200.338C297.834 198.356 297.224 195.764 297.224 193.4C297.224 192.714 297.224 192.066 297.224 191.38C297.224 183.336 297.224 175.293 297.186 167.249C297.186 166.639 297.682 165.648 296.346 165.686C289.86 165.724 283.144 164.542 277.764 169.727C277.688 169.803 277.535 169.841 277.459 169.918C276.81 170.489 276.2 170.413 275.436 170.07C272.804 168.965 270.133 167.821 267.424 166.868C254.946 162.446 242.126 160.387 228.885 161.874C222.094 162.636 215.492 164.161 208.968 166.22C208.281 166.448 207.556 167.135 206.793 166.258C205.915 165.267 204.961 164.314 203.931 163.284C209.082 160.197 214.157 157.376 219.041 154.173C222.094 152.153 225.222 151.009 228.847 151.581C233.464 152.306 237.242 150.971 240.027 147.159C240.103 147.045 240.18 146.969 240.294 146.892C241.057 146.32 241.248 145.558 241.21 144.643C241.172 141.632 241.134 138.62 241.286 135.608C241.363 134.274 240.981 134.084 239.798 134.084C224.803 134.122 209.769 134.122 194.773 134.084C194.087 134.084 193.514 134.198 192.98 134.732C188.554 138.887 188.554 138.887 188.554 144.948C188.554 145.139 188.516 145.329 188.554 145.482C188.821 146.854 188.134 147.54 186.99 148.188C173.139 156.08 159.288 164.009 145.475 171.9C145.055 172.129 144.75 172.548 144.102 172.434C144.102 166.525 144.14 160.654 144.063 154.783C144.063 153.64 144.407 152.839 145.17 152.039C147.192 149.904 150.207 148.303 151.084 145.634C151.962 142.89 151.275 139.687 151.313 136.676C151.313 136.256 151.275 135.799 151.313 135.38C151.466 134.198 150.97 133.969 149.863 133.969C135.097 134.007 120.33 134.007 105.602 133.969C104.8 133.969 104.266 134.198 103.732 134.846C102.091 136.866 100.412 138.772 98.6952 140.717C98.3136 141.136 98.0084 141.517 98.0465 142.165C98.0847 144.758 98.0847 147.312 98.0465 149.904C98.0465 150.704 98.3136 150.971 99.1149 150.971C100.908 150.933 102.702 151.009 104.457 150.933C105.525 150.895 105.792 151.276 105.754 152.267C105.678 155.165 105.716 158.024 105.716 160.921C105.716 173.882 105.716 186.843 105.754 199.805C105.754 200.986 105.64 201.711 104.228 201.444C103.503 201.291 103.121 201.749 102.702 202.244C101.252 203.998 99.8017 205.752 98.3136 207.429C97.665 208.191 97.3979 208.954 97.436 209.945C97.4742 213.338 97.5505 216.692 97.3979 220.085C97.3597 221.61 97.7794 222.029 99.3057 221.991C113.385 221.915 127.465 221.953 141.545 221.953C147.116 221.953 147.078 221.953 150.932 218.027C151.389 217.569 151.695 217.15 151.695 216.425C151.657 211.813 151.657 207.2 151.695 202.587C151.695 201.558 151.313 201.329 150.397 201.368C148.795 201.444 147.192 201.406 145.59 201.368C145.208 201.368 144.712 201.558 144.445 201.063C143.873 200.033 144.636 197.403 145.742 196.755C153.488 192.295 161.272 187.835 169.018 183.374C171.574 182.04 171.574 182.04 173.673 184.327Z" fill="white"/>
<path d="M383.65 194.01C383.383 193.743 383.116 193.477 382.887 193.21C375.561 184.213 365.564 178.419 356.292 171.862C351.637 168.583 347.478 165.076 344.387 160.311C342.785 157.833 340.686 155.927 338.015 154.593C335.344 153.259 332.521 152.534 329.621 151.963C324.126 150.857 319.7 148.112 316.495 143.5C314.396 140.45 311.802 138.048 308.711 136.066C303.636 132.788 298.027 130.958 292.227 129.509C286.809 128.175 281.811 126.078 277.384 122.495C273.492 119.369 269.143 116.929 264.144 116.014C260.443 115.328 256.665 115.481 252.926 115.519C244.951 115.595 237.74 113.155 231.444 108.504C225.911 104.425 219.997 102.557 213.205 103.129C206.413 103.701 200.003 102.519 194.05 99.1265C191.723 97.7922 189.434 96.3055 187.144 94.895C184.855 93.4845 182.489 92.2265 179.856 91.5022C174.247 89.9393 168.562 90.0536 162.838 90.6636C158.374 91.121 154.062 91.6166 149.903 88.8719C142.005 83.6493 133.153 82.2388 123.957 84.1067C116.097 85.7078 108.389 85.6697 100.605 83.9161C95.5683 82.7725 90.4553 81.8957 85.2661 82.01C80.8399 82.1244 77.7111 84.3354 75.8032 88.1857C73.3994 93.0271 74.0099 98.1735 75.3072 103.129C76.5664 108.123 78.3216 112.965 79.8097 117.882C80.9162 121.618 82.5951 125.201 82.6714 129.242C82.824 135.799 78.5123 139.535 72.4836 137.972C69.9653 137.324 68.4009 135.304 66.722 133.512C63.0589 129.624 60.0827 128.899 55.1605 130.958C52.6803 131.987 50.2765 133.207 47.8345 134.427C43.9043 136.371 40.165 136.79 36.6164 133.474C35.2809 132.216 33.4876 131.606 31.6561 132.14C28.6035 133.054 26.1997 134.732 25.2839 138.125C23.8721 143.271 24.1392 148.189 25.8181 153.297C27.9167 159.625 27.6115 166.106 24.1011 171.748C20.2473 178.038 17.7671 184.747 16.0882 191.761C12.9975 204.951 13.3791 218.141 16.9658 231.255C18.225 235.867 19.3315 240.518 20.0946 245.245C21.0104 250.811 20.1328 256.224 18.8355 261.637C18.1486 264.535 18.721 267.203 21.3156 268.995C24.9024 271.511 28.7943 272.35 32.9534 270.367C34.1744 269.795 35.4336 269.262 36.5783 268.576C41.7676 265.373 47.2621 264.763 53.0237 266.669C56 267.661 58.7854 267.394 61.5708 266.06C63.9747 264.916 66.4549 264.115 69.2021 264.23C73.552 264.42 75.8032 266.669 75.8795 271.053C75.9559 274.675 74.8875 278.068 73.8191 281.461C71.4152 289.047 68.9732 296.633 67.2562 304.41C65.8444 310.814 68.5535 315.16 74.8112 317.142C78.665 318.362 82.5951 318.171 86.4489 317.256C98.0485 314.512 109.686 313.406 121.477 315.693C132.466 317.828 142.806 316.037 152.689 310.966C155.703 309.403 158.985 308.565 162.304 307.879C167.074 306.926 171.843 307.192 175.621 307.574C182.26 307.574 185.694 306.582 190.96 303.571C198.934 298.996 207.214 295.337 216.563 294.536C225.072 293.812 233.199 291.791 240.716 287.484C244.036 285.578 247.813 284.739 251.667 284.663C258.23 284.586 263.495 281.766 267.845 277.038C270.707 273.951 274.256 272.159 278.224 271.053C279.75 270.634 281.315 270.329 282.879 269.91C290.663 267.889 298.065 264.878 304.17 259.503C307.604 256.491 311.267 254.089 315.541 252.603C318.441 251.573 321.341 250.582 324.279 249.706C330.231 247.914 335.726 245.36 339.885 240.48C341.64 238.422 343.09 236.134 344.464 233.809C347.249 229.044 351.332 225.88 356.597 224.279C358.582 223.669 360.566 222.982 362.55 222.411C373.806 219.132 380.064 210.517 385.253 200.91C386.703 198.166 385.978 196.221 383.65 194.01ZM373.653 206.59C369.876 209.373 365.641 211.394 361.062 212.499C353.736 214.291 347.516 217.722 342.556 223.516C340.228 226.261 337.519 228.739 334.963 231.293C331.986 234.19 328.629 236.325 324.584 237.659C317.334 239.985 310.771 243.644 305.201 248.943C300.202 253.708 293.944 255.805 287.343 257.063C278.834 258.664 271.165 261.904 264.487 267.432C259.794 271.32 254.376 273.608 248.309 274.408C243.234 275.094 238.427 276.695 233.924 279.25C228.086 282.566 221.714 283.824 215.037 283.9C208.359 283.977 202.216 286.073 196.76 289.885C190.616 294.231 183.71 295.985 176.308 296.213C170.508 296.404 164.823 297.09 159.175 298.386C156.657 298.958 154.215 299.911 151.964 301.131C146.774 303.952 141.242 304.753 135.442 304.791C130.825 304.829 126.246 304.486 121.629 304.181C115.028 303.723 108.542 304.829 102.055 306.011C96.4459 307.002 90.7988 307.192 85.1516 306.926C82.2898 306.773 81.2596 304.41 80.3439 302.199C79.7334 300.712 79.886 299.073 80.0386 297.471C80.9162 289.657 83.1293 282.07 84.4648 274.37C85.1516 270.405 85.6858 266.479 84.6556 262.514C83.5872 258.435 81.0307 255.843 76.8335 254.852C71.9494 253.708 67.2562 254.509 62.7155 256.034C59.167 257.215 55.8855 257.254 52.3369 255.919C49.0555 254.661 45.6214 254.738 42.2254 255.881C39.44 256.834 36.6546 257.863 33.7547 258.321C31.3127 258.702 30.168 257.978 29.5575 255.576C28.7943 252.603 29.5193 249.591 29.5193 246.618C29.8246 239.641 29.4048 232.742 26.9628 226.108C25.3221 221.61 25.1695 216.883 24.7497 212.194C23.9103 202.969 25.3221 194.239 29.3285 185.929C31.0456 182.421 33.3731 179.219 35.052 175.674C37.6467 170.185 37.723 164.695 36.1204 159.015C35.2428 155.889 35.4336 152.839 36.6927 149.866C38.6769 145.253 42.6452 143.042 47.5292 144.148C50.8488 144.91 53.9014 144.529 56.8776 143.195C59.5485 142.013 62.1432 142.165 64.7378 143.118C66.4549 143.728 68.1719 144.415 69.889 145.101C76.6808 147.884 82.6333 145.901 88.1278 141.746C90.1119 140.259 90.4935 137.82 91.1803 135.609C92.8211 130.31 92.4013 125.125 90.7224 119.864C88.9672 114.375 87.1357 108.924 85.991 103.282C85.5713 101.338 85.6095 99.3552 85.7239 97.411C85.8384 94.6282 88.0896 93.0652 91.333 93.2177C96.1788 93.4464 101.025 93.9801 105.794 94.7425C112.853 95.8481 119.95 96.0768 127.086 95.5431C133.878 95.0094 140.288 96.3436 145.973 100.346C151.849 104.463 158.26 104.807 165.013 103.32C168.562 102.557 172.11 101.833 175.773 102.329C176.308 102.405 176.88 102.443 177.376 102.672C182.413 104.845 187.831 106.179 192.486 109.229C199.965 114.108 208.13 116.739 217.173 116.395C224.309 116.129 230.833 117.997 236.671 122.342C242.166 126.459 248.691 127.946 255.406 128.099C261.015 128.213 265.861 129.776 270.135 133.398C272.729 135.57 275.591 137.4 278.109 139.611C282.726 143.728 288.259 144.834 294.097 145.215C295.585 145.291 297.035 145.329 298.523 145.368C305.62 145.596 310.657 149.447 315.007 154.555C317.372 157.3 319.013 160.578 321.684 163.094C323.668 164.962 325.843 166.334 328.514 166.906C332.75 167.783 336.642 169.613 340.61 171.138C342.441 171.824 344.235 172.853 345.456 174.416C351.103 181.659 358.734 186.539 366.022 191.837C367.968 193.248 369.876 194.697 371.707 196.221C373.196 197.479 374.531 198.966 375.18 200.91C376.248 203.274 375.828 205.027 373.653 206.59ZM297.035 217.989C291.617 218.065 286.199 218.027 280.818 218.027C280.284 218.027 279.826 217.95 279.559 218.713C277.575 224.241 273.378 227.9 268.418 230.492C249.683 240.29 229.918 242.272 209.428 237.697C200.575 235.715 193.402 231.026 188.403 223.287C184.13 216.654 184.931 209.411 190.349 204.189C191.418 203.159 192.104 203.007 193.058 204.303C193.593 205.027 193.554 205.294 193.02 205.942C192.066 207.124 190.311 207.848 190.349 209.678C190.387 213.223 190.616 216.807 190.578 220.352C190.578 221.801 191.036 222.029 192.333 222.029C204.925 221.991 217.555 221.725 230.147 222.144C235.374 222.296 239.419 221.191 242.586 216.997C243.005 216.426 243.349 216.006 243.349 215.244C243.311 211.203 243.311 207.124 243.349 203.083C243.349 202.13 243.12 201.635 242.128 201.825C240.258 202.206 239.037 201.292 237.969 199.881C237.206 198.928 236.29 198.089 235.488 197.174C231.635 192.981 227.781 188.826 223.774 184.518C227.705 183.679 231.444 183.108 235.26 182.917C245.638 182.307 255.406 184.213 264.144 190.122C269.944 194.048 274.408 199.233 278.109 205.104C278.72 206.057 279.33 206.438 280.437 206.4C283.566 206.324 286.695 206.324 289.862 206.4C290.854 206.4 291.579 206.133 292.265 205.37C293.868 203.693 296.196 202.321 297.035 200.338C297.874 198.356 297.264 195.764 297.264 193.4C297.264 192.714 297.264 192.066 297.264 191.38C297.264 183.336 297.264 175.293 297.226 167.249C297.226 166.639 297.722 165.648 296.386 165.686C289.9 165.724 283.184 164.543 277.804 169.727C277.728 169.803 277.575 169.841 277.499 169.918C276.85 170.49 276.24 170.413 275.477 170.07C272.844 168.965 270.173 167.821 267.464 166.868C254.986 162.446 242.166 160.387 228.926 161.874C222.134 162.637 215.533 164.161 209.008 166.22C208.321 166.449 207.596 167.135 206.833 166.258C205.955 165.267 205.001 164.314 203.971 163.285C209.122 160.197 214.197 157.376 219.081 154.174C222.134 152.153 225.262 151.01 228.887 151.581C233.504 152.306 237.282 150.971 240.067 147.159C240.144 147.045 240.22 146.969 240.334 146.892C241.097 146.321 241.288 145.558 241.25 144.643C241.212 141.632 241.174 138.62 241.326 135.609C241.403 134.274 241.021 134.084 239.838 134.084C224.843 134.122 209.809 134.122 194.814 134.084C194.127 134.084 193.554 134.198 193.02 134.732C188.594 138.887 188.594 138.887 188.594 144.948C188.594 145.139 188.556 145.329 188.594 145.482C188.861 146.854 188.174 147.541 187.03 148.189C173.179 156.08 159.328 164.009 145.515 171.9C145.096 172.129 144.79 172.548 144.142 172.434C144.142 166.525 144.18 160.654 144.103 154.784C144.103 153.64 144.447 152.839 145.21 152.039C147.232 149.904 150.247 148.303 151.124 145.634C152.002 142.89 151.315 139.688 151.353 136.676C151.353 136.257 151.315 135.799 151.353 135.38C151.506 134.198 151.01 133.969 149.903 133.969C135.137 134.007 120.37 134.007 105.642 133.969C104.84 133.969 104.306 134.198 103.772 134.846C102.131 136.867 100.452 138.773 98.7353 140.717C98.3538 141.136 98.0485 141.517 98.0867 142.165C98.1248 144.758 98.1248 147.312 98.0867 149.904C98.0867 150.705 98.3538 150.971 99.1551 150.971C100.948 150.933 102.742 151.01 104.497 150.933C105.565 150.895 105.832 151.276 105.794 152.268C105.718 155.165 105.756 158.024 105.756 160.921C105.756 173.882 105.756 186.844 105.794 199.805C105.794 200.987 105.68 201.711 104.268 201.444C103.543 201.291 103.161 201.749 102.742 202.245C101.292 203.998 99.8419 205.752 98.3538 207.429C97.7051 208.191 97.438 208.954 97.4762 209.945C97.5143 213.338 97.5906 216.692 97.438 220.085C97.3998 221.61 97.8196 222.029 99.3458 221.991C113.426 221.915 127.505 221.953 141.585 221.953C147.156 221.953 147.118 221.953 150.972 218.027C151.43 217.569 151.735 217.15 151.735 216.426C151.697 211.813 151.697 207.2 151.735 202.588C151.735 201.558 151.353 201.33 150.437 201.368C148.835 201.444 147.232 201.406 145.63 201.368C145.248 201.368 144.752 201.558 144.485 201.063C143.913 200.033 144.676 197.403 145.782 196.755C153.528 192.295 161.312 187.835 169.058 183.374C171.576 181.926 171.576 181.926 173.675 184.213C172.683 184.937 171.805 185.586 170.889 186.234C164.365 191.037 159.29 197.022 156.504 204.684C151.353 219.018 152.994 232.284 163.22 244.064C168.524 250.163 175.277 254.013 182.68 256.987C198.324 263.239 214.617 264.725 231.329 263.81C243.501 263.124 255.063 260.456 266.205 255.538C276.278 251.078 284.863 244.75 291.54 235.944C295.28 231.026 297.722 225.537 298.065 219.247C298.103 218.637 298.256 217.989 297.035 217.989ZM211.412 168.66C231.253 162.37 250.866 163.475 270.287 170.566C271.203 170.909 272.195 171.138 273.035 171.633C275.934 173.463 278.567 173.234 281.086 170.871C283.222 168.85 285.855 168.317 288.755 168.622C290.701 168.812 293.258 167.821 294.402 169.003C295.547 170.185 294.707 172.739 294.707 174.683C294.746 177.618 294.707 180.592 294.707 183.527C294.707 183.641 294.707 183.756 294.707 183.908H294.669C294.669 188.521 294.631 193.134 294.707 197.708C294.707 198.966 294.364 199.424 293.067 199.385C290.243 199.347 287.42 199.462 284.596 199.538C283.833 199.576 283.184 199.462 282.688 198.737C275.858 189.207 266.166 184.137 255.025 181.507C244.455 178.991 233.848 179.105 223.24 181.43C221.523 181.812 220.455 181.507 219.31 180.172C216.563 176.932 213.625 173.882 210.801 170.756C209.389 169.27 209.389 169.308 211.412 168.66ZM173.408 177.161C163.144 183.108 152.879 188.978 142.577 194.887C141.852 195.306 141.509 195.726 141.547 196.603C141.623 199.195 141.623 201.749 141.547 204.341C141.509 205.561 142.005 205.79 143.073 205.752C144.485 205.675 145.897 205.79 147.309 205.714C148.224 205.675 148.644 205.942 148.606 206.933C148.53 209.068 148.568 211.241 148.606 213.376C148.644 214.291 148.377 214.672 147.385 214.672C133.916 214.634 120.446 214.634 106.977 214.672C106.138 214.672 105.756 214.443 105.794 213.528C105.832 211.317 105.832 209.106 105.794 206.895C105.794 206.019 106.061 205.675 106.939 205.714C108.351 205.752 109.763 205.637 111.174 205.752C112.662 205.866 113.159 205.409 113.159 203.846C113.082 193.286 113.12 182.726 113.12 172.129C113.12 163.59 113.082 155.05 113.159 146.511C113.159 145.139 112.93 144.567 111.365 144.605C109.572 144.681 107.13 145.444 106.1 144.262C105.222 143.233 105.947 140.869 105.756 139.116C105.565 137.362 106.1 136.867 107.931 136.867C120.828 136.943 133.763 136.943 146.66 136.867C148.377 136.867 148.797 137.362 148.606 138.925C148.415 140.793 149.407 143.233 148.186 144.415C147.08 145.482 144.676 144.758 142.844 144.681C141.509 144.643 141.242 145.139 141.242 146.359C141.28 156.232 141.28 166.144 141.242 176.017C141.242 177.123 141.242 177.885 142.692 177.046C161.274 166.372 179.894 155.737 198.477 145.101C198.591 145.063 198.667 144.948 198.934 144.72C197.294 144.453 195.462 145.253 194.585 144.338C193.669 143.347 194.318 141.517 194.318 140.069C194.279 136.867 194.318 136.867 197.485 136.867C210.458 136.867 223.431 136.905 236.404 136.828C237.892 136.828 238.541 137.095 238.35 138.696C238.198 140.107 238.198 141.517 238.35 142.928C238.503 144.376 237.892 144.72 236.557 144.605C235.336 144.491 234.077 144.758 232.856 144.605C229.727 144.224 227.209 145.368 224.614 146.969C216.601 151.848 208.474 156.613 200.346 161.34C198.973 162.141 199.011 162.598 200.041 163.704C212.404 177.008 224.728 190.389 237.091 203.731C237.854 204.57 238.465 205.599 239.762 205.828C240.411 205.942 240.182 206.628 240.182 207.086C240.22 209.068 240.105 211.012 240.22 212.995C240.296 214.443 239.762 214.71 238.427 214.71C229.956 214.672 221.447 214.672 212.976 214.672C207.863 214.672 202.75 214.596 197.675 214.71C196.073 214.748 195.691 214.253 195.806 212.728C195.92 210.822 195.882 208.916 195.806 207.01C195.767 205.942 196.187 205.599 197.179 205.637C198.591 205.714 199.965 205.637 201.873 205.637C199.965 203.541 198.324 201.787 196.683 199.995C189.624 192.447 182.565 184.937 175.545 177.389C174.896 176.703 174.323 176.589 173.408 177.161ZM294.479 222.601C293.334 227.328 290.93 231.255 287.916 234.991C278.3 246.961 265.441 253.327 250.827 256.72C248.195 257.33 245.524 257.787 242.853 258.168C237.473 258.893 232.093 259.083 226.674 259.121C211.717 259.16 197.217 256.796 183.29 251.154C174.858 247.723 168.066 242.272 162.915 234.762C159.748 230.187 158.603 224.965 158.641 219.59C158.679 211.965 160.587 204.799 164.823 198.318C167.646 193.972 171.462 190.618 175.583 187.606C176.269 187.11 176.766 186.958 177.452 187.682C181.192 191.761 184.931 195.802 188.709 199.843C189.357 200.529 189.281 200.91 188.556 201.635C181.154 209.068 180.543 217.684 186.648 226.223C193.02 235.105 202.025 239.718 212.442 242.005C226.331 245.055 240.029 243.797 253.651 240.251C261.13 238.307 268.303 235.715 274.484 230.835C277.537 228.396 280.132 225.537 282.192 222.22C282.803 221.267 283.451 220.924 284.558 220.924C287.381 221 290.205 221 293.029 220.924C294.364 220.848 294.86 221 294.479 222.601Z" fill="#030303"/>
<path d="M148.567 206.933C148.491 209.068 148.529 211.241 148.567 213.376C148.606 214.291 148.338 214.672 147.346 214.672C133.877 214.634 120.408 214.634 106.939 214.672C106.099 214.672 105.718 214.443 105.756 213.528C105.794 211.317 105.794 209.106 105.756 206.895C105.756 206.018 106.023 205.675 106.9 205.713C108.312 205.752 109.724 205.637 111.136 205.752C112.624 205.866 113.12 205.409 113.12 203.846C113.044 193.286 113.082 182.726 113.082 172.129C113.082 163.589 113.044 155.05 113.12 146.511C113.12 145.139 112.891 144.567 111.327 144.605C109.533 144.681 107.091 145.444 106.061 144.262C105.183 143.233 105.908 140.869 105.718 139.116C105.527 137.362 106.061 136.866 107.893 136.866C120.789 136.943 133.725 136.943 146.621 136.866C148.338 136.866 148.758 137.362 148.567 138.925C148.377 140.793 149.369 143.233 148.148 144.414C147.041 145.482 144.637 144.758 142.806 144.681C141.47 144.643 141.203 145.139 141.203 146.359C141.241 156.232 141.241 166.144 141.203 176.017C141.203 177.123 141.203 177.885 142.653 177.046C161.235 166.372 179.856 155.737 198.438 145.101C198.553 145.063 198.629 144.948 198.896 144.719C197.255 144.453 195.424 145.253 194.546 144.338C193.63 143.347 194.279 141.517 194.279 140.069C194.241 136.866 194.279 136.866 197.446 136.866C210.419 136.866 223.392 136.905 236.366 136.828C237.854 136.828 238.502 137.095 238.312 138.696C238.159 140.107 238.159 141.517 238.312 142.928C238.464 144.376 237.854 144.719 236.518 144.605C235.297 144.491 234.038 144.758 232.817 144.605C229.688 144.224 227.17 145.368 224.575 146.969C216.562 151.848 208.435 156.613 200.308 161.34C198.934 162.141 198.972 162.598 200.002 163.704C212.365 177.008 224.69 190.389 237.053 203.731C237.816 204.57 238.426 205.599 239.723 205.828C240.372 205.942 240.143 206.628 240.143 207.086C240.181 209.068 240.067 211.012 240.181 212.995C240.258 214.443 239.723 214.71 238.388 214.71C229.917 214.672 221.408 214.672 212.938 214.672C207.825 214.672 202.712 214.596 197.637 214.71C196.034 214.748 195.653 214.253 195.767 212.728C195.882 210.822 195.843 208.916 195.767 207.01C195.729 205.942 196.149 205.599 197.141 205.637C198.553 205.713 199.926 205.637 201.834 205.637C199.926 203.541 198.285 201.787 196.645 199.995C189.586 192.447 182.527 184.937 175.506 177.389C174.781 176.627 174.247 176.513 173.331 177.046C163.067 182.993 152.803 188.864 142.501 194.773C141.776 195.192 141.432 195.611 141.47 196.488C141.547 199.08 141.547 201.635 141.47 204.227C141.432 205.447 141.928 205.675 142.997 205.637C144.408 205.561 145.82 205.675 147.232 205.599C148.186 205.675 148.606 205.904 148.567 206.933ZM293.028 220.886C290.205 220.962 287.381 220.962 284.557 220.886C283.451 220.848 282.802 221.191 282.192 222.182C280.131 225.498 277.575 228.396 274.484 230.797C268.341 235.677 261.129 238.269 253.651 240.213C240.067 243.758 226.331 245.055 212.442 241.967C202.063 239.68 193.02 235.067 186.648 226.185C180.504 217.645 181.153 209.03 188.556 201.596C189.242 200.91 189.319 200.491 188.708 199.805C184.931 195.764 181.191 191.723 177.452 187.644C176.803 186.92 176.307 187.034 175.582 187.568C171.423 190.579 167.646 193.972 164.822 198.28C160.625 204.76 158.679 211.927 158.641 219.551C158.603 224.927 159.747 230.149 162.914 234.724C168.104 242.196 174.857 247.685 183.29 251.116C197.179 256.758 211.717 259.083 226.674 259.083C232.092 259.083 237.472 258.893 242.852 258.13C245.523 257.749 248.194 257.292 250.827 256.682C265.441 253.289 278.3 246.923 287.915 234.952C290.93 231.217 293.333 227.252 294.478 222.563C294.86 221 294.364 220.848 293.028 220.886ZM294.364 169.003C293.219 167.783 290.624 168.812 288.717 168.621C285.817 168.317 283.222 168.85 281.047 170.871C278.529 173.234 275.896 173.463 272.996 171.633C272.195 171.137 271.164 170.909 270.249 170.566C250.827 163.513 231.215 162.37 211.373 168.66C209.389 169.308 209.389 169.27 210.724 170.756C213.586 173.882 216.524 176.97 219.233 180.172C220.378 181.545 221.446 181.811 223.164 181.43C233.733 179.105 244.379 178.99 254.948 181.506C266.09 184.175 275.743 189.207 282.611 198.737C283.107 199.462 283.756 199.538 284.519 199.538C287.343 199.462 290.166 199.347 292.99 199.385C294.287 199.385 294.669 198.966 294.631 197.708C294.554 193.095 294.593 188.483 294.593 183.908H294.631C294.631 183.794 294.631 183.679 294.631 183.527C294.631 180.592 294.669 177.618 294.631 174.683C294.669 172.739 295.508 170.184 294.364 169.003Z" fill="#E21D38"/>
</g>
<defs>
<clipPath id="clip0_257_11723">
<rect width="372" height="236" fill="white" transform="translate(14.0007 82)"/>
</clipPath>
</defs>
</svg>
