<svg width="400" height="400" viewBox="0 0 400 400" fill="none" xmlns="http://www.w3.org/2000/svg">
<g clip-path="url(#clip0_257_11722)">
<path d="M389.999 272C389.677 267.097 388.848 262.79 387.973 258.529C382.31 231.494 368.359 208.538 347.962 188.834C319.185 161.113 284.146 144.021 244.181 135.086C234.466 132.887 224.613 131.329 214.713 130.137C214.023 130.046 213.332 130.046 212.227 130C214.345 133.666 216.325 137.056 218.443 140.722C214.713 140.401 211.352 140.081 207.991 139.76C194.362 138.477 180.688 138.202 167.013 138.981C153.384 139.76 139.986 141.776 126.863 145.258C114.34 148.603 102.414 153.323 91.1799 159.509C90.6274 159.784 90.167 160.15 89.4763 160.517C92.8835 163.404 96.1986 166.245 99.6519 169.177C93.9886 172.156 88.5555 175.088 83.2605 178.341C61.4822 191.63 42.8347 207.896 29.4822 228.974C21.3787 241.804 15.8074 255.55 12.3542 270.03C12.2621 270.396 11.6636 270.9 12.2621 271.175C12.8607 271.45 13.2751 270.946 13.6895 270.58C17.2808 267.464 20.8722 264.302 24.5096 261.186C40.8088 247.257 58.121 234.702 77.7814 225.033C97.0274 215.594 117.424 209.317 138.742 205.513C149.102 203.681 159.508 202.443 170.328 201.527C166.875 197.861 163.652 194.425 159.968 190.484C182.714 189.98 204.63 191.538 226.362 195.662C248.141 199.832 268.998 206.521 289.487 215.777C286.541 209.454 283.824 203.681 280.923 197.449C323.697 214.219 359.749 238.963 389.999 272ZM372.135 241.025C368.958 238.184 366.011 235.389 362.88 232.731C341.608 214.815 317.343 201.252 291.099 190.713C282.351 187.231 273.464 184.115 264.072 182.511C263.657 182.465 263.151 181.961 262.828 182.603C262.598 183.015 263.059 183.29 263.197 183.611C265.269 188.239 267.387 192.867 269.689 197.815C227.237 183.061 184.187 176.646 139.065 183.748C140.999 185.719 142.656 187.368 144.314 189.018C145.925 190.667 147.537 192.317 149.378 194.196C105.96 199.511 68.3886 216.465 34.0865 240.521C52.734 208.079 82.4318 187.231 117.24 171.468C113.511 168.398 110.012 165.466 106.466 162.579C107.157 161.8 108.078 161.617 108.86 161.25C130.178 152.086 152.74 148.054 176.083 147.687C193.58 147.412 210.892 149.245 227.974 152.59C231.381 153.277 234.834 153.965 238.702 154.698C236.123 150.436 233.775 146.541 231.335 142.463C232.072 142.509 232.624 142.463 233.177 142.601C252.929 146.267 271.945 152.04 289.902 160.563C309.516 169.864 326.828 182.053 342.023 196.899C354.684 209.225 364.86 223.063 371.582 239.009C371.904 239.559 372.411 240.154 372.135 241.025Z" fill="#0A78BF"/>
<path d="M108.859 161.25C130.177 152.086 152.738 148.054 176.082 147.687C193.579 147.412 210.891 149.245 227.973 152.59C231.38 153.277 234.833 153.965 238.701 154.698C236.122 150.436 233.774 146.541 231.334 142.463C232.071 142.509 232.623 142.463 233.176 142.601C252.928 146.267 271.944 152.04 289.901 160.563C309.515 169.864 326.827 182.053 342.021 196.899C354.683 209.225 364.859 223.063 371.581 239.009C371.811 239.604 372.364 240.2 372.087 241.071C368.91 238.23 365.964 235.435 362.833 232.777C341.561 214.861 317.296 201.298 291.052 190.759C282.303 187.277 273.417 184.161 264.024 182.557C263.61 182.511 263.104 182.007 262.781 182.649C262.551 183.061 263.011 183.336 263.15 183.657C265.222 188.285 267.339 192.913 269.642 197.861C227.236 183.061 184.186 176.646 139.064 183.748C140.997 185.719 142.655 187.368 144.312 189.018C145.924 190.667 147.535 192.317 149.377 194.196C105.959 199.511 68.3874 216.465 34.0853 240.521C52.7328 208.079 82.4305 187.231 117.239 171.468C113.51 168.398 110.01 165.466 106.465 162.579C107.156 161.754 108.077 161.571 108.859 161.25Z" fill="#FFC316"/>
</g>
<defs>
<clipPath id="clip0_257_11722">
<rect width="378" height="142" fill="white" transform="translate(11.9994 130)"/>
</clipPath>
</defs>
</svg>
