<svg width="400" height="400" viewBox="0 0 400 400" fill="none" xmlns="http://www.w3.org/2000/svg">
<g clip-path="url(#clip0_257_11737)">
<path d="M202.822 215.877H160.392C159.107 171.624 206.401 138.556 249.137 151.086L202.822 215.877ZM294.902 181.953L280.952 201.513H298.481C297.931 194.789 296.707 188.249 294.902 181.953ZM359.572 260.558L358.349 264.408H354.311H285.878H277.434L280.861 256.676C281.044 256.279 281.289 255.668 281.625 254.965C282.176 253.712 283.124 251.573 284.103 249.403H253.39L244.304 262.086L242.652 264.378H239.838H191.044C201.935 272.324 215.823 276.725 230.721 276.725C237.941 276.725 245.038 275.686 251.86 273.608L253.512 273.088L255.164 273.638C259.906 275.197 263.546 277.305 265.932 279.903C268.685 282.898 269.878 286.657 269.267 290.478C268.594 294.573 265.993 298.607 261.496 302.397C257.672 305.636 252.441 308.692 246.384 311.29C233.23 316.913 217.139 320 201.078 320C192.085 320 183.213 319.022 174.739 317.127C165.378 315.018 156.446 311.748 148.186 307.409C130.137 297.904 115.423 283.448 104.44 264.378H40.4432H32L35.4262 256.646L87.248 139.534L88.6858 136.264H92.265H116.86C127.261 122.114 139.988 109.95 153.784 100.935H153.815H153.845C175.168 87.2431 200.436 80 226.867 80C264.494 80 300.409 94.7612 325.402 120.494C343.328 138.067 355.993 160.591 362.02 185.682C368.077 210.59 367.19 236.475 359.572 260.558ZM321.517 124.375C279.27 80.8863 207.809 72.8486 156.813 105.549C142.527 114.871 129.801 127.462 119.675 141.765H92.265L40.4432 258.877H107.652C162.809 360.311 303.131 295.153 253.481 278.864C226.683 286.993 195.297 280.27 177.095 258.877H239.838L250.575 243.871H292.394C291.659 246.041 287.071 256.218 285.908 258.877H354.311C369.209 211.995 356.727 158.879 321.517 124.375ZM107.347 223.089L140.202 148.977H96.9455V149.039L51.6091 251.603H166.48C174.831 251.603 180.307 247.172 184.467 241.548L197.56 223.089H107.347ZM266.727 208.725L282.543 186.568C273.274 177.125 260.426 171.257 246.17 171.257C245.314 171.257 244.488 171.257 243.631 171.318L186.272 251.603H236.106L246.843 236.597H294.902C296.248 231.983 297.013 227.093 297.013 222.05C297.013 217.435 296.401 212.973 295.208 208.725H266.727V208.725ZM241.979 92.8359C237.237 92.4691 232.282 92.2858 227.265 92.3469C227.203 92.3469 227.203 92.3469 227.142 92.3469C227.081 92.3469 227.081 92.3469 227.02 92.3469C220.963 92.408 215.395 92.7747 210.225 93.386C207.87 93.6916 205.484 94.0583 203.128 94.5473C197.56 95.5253 192.574 96.7783 187.802 98.3064C179.573 101.087 172.108 104.724 164.583 109.217C164.338 109.339 164.155 109.461 163.91 109.584C163.665 109.767 163.359 109.889 163.115 110.073C162.38 110.623 161.524 111.112 160.698 111.662C172.996 106.589 186.517 103.716 200.65 103.838C257.03 104.327 305.517 150.597 306.007 208.359C306.007 208.481 306.007 208.603 306.007 208.725C306.007 208.848 306.007 209.031 306.007 209.153C306.007 218.658 304.783 227.857 302.366 236.597C300.959 241.793 299.216 246.774 297.044 251.603H348.804C351.649 241.121 353.056 230.118 353.546 218.719C353.729 201.574 350.211 185.285 343.848 170.462C326.84 128.44 288.233 97.2367 241.979 92.8359Z" fill="white"/>
<path d="M321.516 124.375C279.27 80.8863 207.808 72.8486 156.812 105.55C142.526 114.871 129.8 127.462 119.674 141.765H92.2646L40.4428 258.877H107.652C162.808 360.311 303.131 295.153 253.481 278.864C226.683 286.994 195.296 280.27 177.094 258.877H239.837L250.575 243.871H292.393C291.659 246.041 287.07 256.218 285.908 258.877H354.31C369.208 211.995 356.727 158.879 321.516 124.375ZM353.576 218.719C353.087 230.149 351.649 241.121 348.834 251.603H297.074C299.246 246.805 300.959 241.793 302.397 236.598H246.843L236.105 251.603H186.272L243.661 171.318L260.762 147.327C260.731 147.327 260.731 147.327 260.701 147.297C251.309 143.415 240.877 141.307 229.773 141.307C228.427 141.307 227.05 141.368 225.765 141.429C187.618 143.446 153.05 178.744 153.111 215.449C153.111 218.016 153.233 220.583 153.539 223.089H197.591L184.498 241.548C180.368 247.172 174.861 251.603 166.51 251.603H162.869C165.959 255.729 170.273 261.75 175.198 267.434C175.228 267.434 175.259 267.465 175.29 267.465C189.178 281.095 208.512 289.561 229.834 289.561C237.727 289.561 245.405 288.399 252.563 286.23C252.869 286.168 253.175 286.107 253.481 286.107C256.265 286.107 257.611 289.927 255.072 291.669C239.011 302.641 221.054 307.898 201.139 307.714C183.243 307.531 164.154 301.541 153.631 295.612C142.649 289.377 134.725 284.396 125.517 272.416H125.487C120.164 266.12 115.667 259.152 112.088 251.634H134.144H51.6087L96.9451 149.1V149.039H123.254C139.008 127.034 162.044 111.906 198.998 110.714C199.732 110.714 200.405 110.714 201.17 110.714C243.111 110.653 278.321 135.775 292.516 172.663L282.573 186.599L266.758 208.756H306.037C306.037 208.634 306.037 208.511 306.037 208.389C305.517 150.597 257.03 104.327 200.65 103.899C186.517 103.777 172.995 106.68 160.697 111.723C161.493 111.173 162.38 110.684 163.114 110.134C163.359 109.95 163.665 109.828 163.91 109.645C164.154 109.523 164.338 109.4 164.583 109.278C172.108 104.785 179.603 101.149 187.801 98.3675C192.543 96.8395 197.56 95.5864 203.128 94.6085C205.483 94.1195 207.869 93.7527 210.225 93.4471C215.425 92.8359 220.962 92.4692 227.02 92.408C227.081 92.408 227.081 92.408 227.142 92.408C227.203 92.408 227.203 92.408 227.264 92.408C232.281 92.3469 237.206 92.5303 241.979 92.897C288.233 97.2673 326.839 128.501 343.879 170.523C350.242 185.285 353.76 201.574 353.576 218.719ZM202.822 215.877H160.392C159.107 171.624 206.401 138.556 249.137 151.086L202.822 215.877ZM294.902 181.953C296.707 188.249 297.93 194.789 298.481 201.513H280.952L294.902 181.953Z" fill="#243E8C"/>
<path d="M306.006 209.153C306.006 218.658 304.783 227.857 302.366 236.597H294.902C296.248 231.982 297.012 227.093 297.012 222.05C297.012 217.435 296.401 212.973 295.207 208.725H306.006C306.006 208.847 306.006 209.031 306.006 209.153ZM260.762 147.327L243.661 171.318C244.518 171.257 245.344 171.257 246.2 171.257C260.456 171.257 273.304 177.124 282.573 186.568L292.515 172.632C284.531 161.324 273.579 152.706 260.762 147.327Z" fill="#D8D3CB"/>
<path d="M255.072 291.639C239.012 302.61 221.055 307.867 201.14 307.684C183.244 307.5 164.155 301.51 153.632 295.581C142.649 289.347 134.726 284.365 125.518 272.385H125.487C128.271 268.198 132.034 264.5 136.409 261.963C147.452 261.474 163.39 262.391 175.198 267.465L175.168 267.434C175.198 267.434 175.229 267.465 175.26 267.465C189.148 281.095 208.482 289.561 229.804 289.561C237.697 289.561 245.375 288.399 252.533 286.229C252.839 286.168 253.145 286.107 253.451 286.107C256.235 286.107 257.612 289.927 255.072 291.639ZM201.14 110.684C200.406 110.684 199.733 110.684 198.968 110.684C161.983 111.845 138.948 127.034 123.193 149.069H140.171L107.347 223.15H153.54C153.234 220.614 153.111 218.016 153.111 215.449C153.05 178.744 187.619 143.446 225.735 141.459C227.02 141.398 228.397 141.337 229.743 141.337C240.848 141.337 251.31 143.446 260.671 147.327C273.58 152.706 284.501 161.324 292.486 172.632C278.291 135.714 243.081 110.623 201.14 110.684Z" fill="#FED107"/>
<path d="M160.698 111.723C172.996 106.65 186.517 103.655 200.651 103.899C257.795 104.877 306.007 151.025 306.007 209.153C306.007 224.281 302.795 238.584 297.105 251.603H348.866C351.772 241.06 353.607 229.996 353.607 218.536C353.607 149.008 296.86 90.391 227.296 92.3469C196.154 93.2637 180.032 99.6205 160.698 111.723Z" fill="url(#paint0_linear_257_11737)"/>
<path d="M201.14 110.623C200.406 110.623 199.733 110.623 198.968 110.623C168.224 111.295 141.517 123.092 123.193 149.008H140.171L107.347 223.089H134.022C140.569 178.225 178.931 143.385 225.797 141.459C227.143 141.398 228.458 141.337 229.804 141.337C240.909 141.337 251.371 143.446 260.732 147.327C273.58 152.645 284.501 161.324 292.486 172.632C278.291 135.714 243.081 110.623 201.14 110.623Z" fill="url(#paint1_linear_257_11737)"/>
<path d="M112.088 251.604C115.667 259.122 120.164 266.09 125.487 272.385C128.271 268.198 132.034 264.5 136.408 261.964C135.491 258.572 134.665 255.118 134.114 251.604H112.088Z" fill="#F58220"/>
<path d="M162.87 251.604H134.145C134.695 255.118 135.43 258.572 136.439 261.964C147.483 261.475 163.421 262.392 175.229 267.465C170.273 261.781 165.929 255.729 162.87 251.604Z" fill="#FAA21B"/>
</g>
<defs>
<linearGradient id="paint0_linear_257_11737" x1="257.166" y1="92.3015" x2="257.166" y2="251.602" gradientUnits="userSpaceOnUse">
<stop offset="0.2167" stop-color="#FED107"/>
<stop offset="0.5978" stop-color="#FED107" stop-opacity="0"/>
</linearGradient>
<linearGradient id="paint1_linear_257_11737" x1="107.332" y1="166.855" x2="292.494" y2="166.855" gradientUnits="userSpaceOnUse">
<stop stop-color="#FAA21B"/>
<stop offset="0.4781" stop-color="#FAA21B" stop-opacity="0"/>
</linearGradient>
<clipPath id="clip0_257_11737">
<rect width="334" height="240" fill="white" transform="translate(32 80)"/>
</clipPath>
</defs>
</svg>
