<svg width="400" height="400" viewBox="0 0 400 400" fill="none" xmlns="http://www.w3.org/2000/svg">
<g clip-path="url(#clip0_257_11731)">
<path d="M376.808 55.0075L375.954 46.3906L367.343 47.3876C352.826 49.0255 338.593 49.8801 325.215 49.8801C280.382 49.8801 250.351 40.6222 232.988 32.7886C214.699 24.599 206.373 16.2669 205.946 15.8396L200.68 10L194.56 14.9138C156.843 44.1117 110.73 50.3073 78.6353 50.3073C52.2339 50.3073 33.4468 46.1769 33.2334 46.1057L23.3417 43.8268L22.8436 54.0105C19.4277 124.228 26.4017 185.543 43.4097 236.177C57.2153 277.125 77.639 311.308 104.112 337.657C149.585 383.021 196.837 389.502 198.758 389.786L200.537 390L202.245 389.502C248.359 376.113 286.217 349.978 314.896 311.878C337.597 281.612 354.534 243.797 365.208 199.502C374.602 160.405 377.306 123.302 377.875 99.018C378.445 72.6687 376.879 55.7196 376.808 55.0075ZM199.826 381.312C199.826 381.312 16.7236 357.74 31.312 54.4378C31.312 54.4378 129.019 76.5142 199.683 21.6792C199.683 21.6792 244.801 69.7489 368.268 55.8621C368.339 55.8621 393.958 325.053 199.826 381.312ZM151.293 209.899C151.648 207.905 152.716 200.783 160.188 199.715C169.368 198.433 207.44 198.362 209.86 200C211.354 201.068 197.122 208.19 194.204 209.472C191.855 210.469 189.507 212.178 185.237 211.466C180.968 210.753 156.914 208.759 154.495 212.32C149.371 219.726 151.079 211.109 151.293 209.899ZM169.155 103.789H156.274V69.7489H169.155V103.789ZM250.636 103.789H227.65V69.7489H250.636V78.9355H239.179V82.4963H249.213V90.6859H239.179V94.3178H250.636V103.789ZM276.326 92.8936L282.517 103.718H296.394L287.641 90.1874C287.641 90.1874 294.045 87.5525 294.045 80.5735C294.045 73.5945 288.851 69.7489 283.229 69.7489C277.678 69.7489 264.584 69.6064 264.584 69.6064V103.647H276.326V92.8936ZM276.61 78.2234C276.61 78.2234 282.304 77.5825 282.304 81.5705C282.304 85.5585 276.61 84.9175 276.61 84.9175V78.2234ZM121.831 98.6619H130.94L132.719 103.789H145.671L133.715 69.7489H119.696L107.812 103.789H120.764L121.831 98.6619ZM126.243 80.1462L129.232 90.6859H123.681L126.243 80.1462ZM199.683 103.789C205.59 103.433 216.051 101.653 216.051 86.7691C216.051 71.8853 201.605 69.7489 199.683 69.7489C197.762 69.7489 183.458 69.7489 183.458 69.7489V103.789C183.458 103.789 195.627 104.074 199.683 103.789ZM194.417 80.1462C194.417 80.1462 202.601 79.9325 202.601 86.7691C202.601 93.6057 194.417 93.1072 194.417 93.1072V80.1462ZM268.427 196.582C268.427 196.582 268.569 182.268 263.09 178.564C258.464 175.431 264.655 172.725 267.857 166.6L278.39 176.214L268.427 196.582ZM306.855 131.349C308.776 131.705 312.192 121.237 304.862 120.881C297.532 120.525 298.244 129.925 298.244 129.925H294.544C294.544 129.925 276.255 153.996 274.262 156.773C272.27 159.479 276.041 163.04 276.041 163.04C276.041 163.04 270.989 160.262 263.943 152.571C258.393 146.518 256.258 152.429 258.962 154.921C260.812 156.63 278.176 177.71 293.12 179.348C308.065 180.986 319.878 167.954 319.806 154.779C319.735 143.741 306.855 131.349 306.855 131.349ZM301.66 123.231C302.798 122.448 304.933 123.302 303.154 124.014C301.304 124.726 299.81 127.717 302.3 127.931C304.72 128.145 306.784 127.575 305.431 128.857C304.222 129.996 300.237 129.355 299.881 127.433C299.525 125.581 300.877 123.801 301.66 123.231ZM313.615 150.221C313.544 159.621 304.079 172.654 291.128 171.942C278.745 171.229 278.318 165.39 281.45 164.963C282.802 164.82 286.858 165.176 287.356 160.761C287.854 156.346 288.068 156.63 291.839 156.061C295.611 155.491 292.622 151.788 294.188 148.298C295.753 144.809 299.596 147.088 300.877 145.236C302.941 142.316 301.66 136.762 303.439 136.263C305.218 135.765 313.686 141.462 313.615 150.221ZM249.569 278.193C258.037 286.739 294.472 304.044 294.472 304.044C261.168 313.16 248.857 297.564 247.291 296.282C245.726 295 246.295 294.217 245.085 291.938C243.876 289.659 244.16 288.519 245.085 287.594C246.01 286.668 249.569 278.193 249.569 278.193ZM78.5641 92.9648L84.7553 103.789H98.6321L89.879 90.2586C89.879 90.2586 96.2837 87.6237 96.2837 80.6447C96.2837 73.6657 91.0888 69.8201 85.4669 69.8201C79.8451 69.8201 66.8222 69.7489 66.8222 69.7489V103.789H78.5641V92.9648ZM78.8488 78.3658C78.8488 78.3658 84.5418 77.7249 84.5418 81.7129C84.5418 85.7009 78.8488 85.06 78.8488 85.06V78.3658ZM332.758 86.6267C335.178 92.1814 333.541 97.6649 331.121 100.015C328.702 102.365 320.874 108.418 306.214 100.941L310.057 91.3268C310.057 91.3268 315.608 95.4573 318.952 95.1012C322.297 94.7451 322.226 91.7541 319.166 91.1844C315.252 90.4011 307.78 89.6889 307.78 80.5023C307.78 71.3156 318.027 68.6094 322.724 69.1079C327.421 69.6064 333.612 71.8853 333.612 71.8853L329.769 80.5023C329.769 80.5023 320.305 76.1582 320.305 80.075C320.305 83.9918 330.41 81.2144 332.758 86.6267ZM230.853 200.071C228.433 199.573 217.972 199.644 216.62 200.855C214.699 202.564 196.979 212.32 194.204 213.246C191.927 214.029 189.721 213.958 189.649 215.596C189.578 217.804 192.211 217.163 193.492 217.661C194.773 218.16 194.275 223.714 194.417 225.352C194.489 227.275 193.919 226.848 192.709 227.987C191.5 229.127 192.425 243.156 192.425 245.15C192.425 247.144 190.503 247.714 190.646 249.636C190.859 252.058 192.425 252.77 194.417 252.77C196.054 252.77 198.331 249.993 199.399 249.993C201.249 249.993 203.526 251.203 205.234 251.346C207.298 251.559 206.729 249.352 207.938 248.568C209.433 247.642 209.29 250.847 208.579 252.271C207.867 253.696 205.305 253.055 203.953 253.055C202.601 253.055 200.537 252.414 198.901 252.77C197.264 253.126 197.762 255.191 193.208 255.476C191.215 255.618 190.005 252.841 188.867 252.414C187.728 251.987 186.162 253.34 182.889 252.485C180.896 251.987 181.679 245.648 182.747 246.859C183.814 248.07 181.893 251.274 187.088 250.918C189.222 250.776 189.222 247.714 189.08 245.648C188.938 243.583 188.724 238.812 188.724 238.812C188.724 238.812 188.938 231.833 190.361 228.415C191.784 224.996 191.5 220.082 189.08 219.085C186.661 218.088 187.443 225.566 187.301 228.201C187.159 230.836 185.878 233.4 183.529 235.394C181.181 237.388 162.679 235.536 157.697 235.394C152.716 235.251 153.428 229.839 152.858 223.43C152.289 217.02 150.154 218.943 149.3 221.293C148.446 223.643 148.588 233.969 149.3 237.53C150.012 241.091 150.225 241.447 152.858 243.939C155.491 246.432 154.851 251.773 154.851 251.773C154.78 253.268 156.63 252.77 158.053 253.055C159.049 253.268 159.263 254.337 158.836 255.049C158.267 255.975 158.053 254.978 155.42 255.69C152.787 256.402 156.061 260.176 157.27 261.957C158.48 263.737 157.982 264.449 158.622 269.149C159.263 273.849 160.33 274.134 161.469 273.778C162.608 273.422 162.038 268.722 161.825 265.945C161.469 261.173 163.177 260.746 163.888 263.096C164.458 265.019 163.177 273.28 164.315 278.407C165.454 283.534 176.84 296.424 180.968 298.846C185.095 301.267 193.99 296.282 195.698 296.282C197.335 296.282 199.043 299.202 206.444 300.127C213.845 301.053 225.231 284.959 226.512 283.463C227.793 281.968 230.07 279.119 229.074 277.196C228.22 275.63 228.433 271.357 229.287 266.799C230.283 261.529 232.418 267.867 233.059 273.422C233.699 279.618 239.036 266.087 239.819 263.167C240.602 260.461 241.812 250.847 241.67 248.568C241.527 246.289 240.531 247.144 238.04 247.429C235.55 247.714 241.171 242.729 242.381 239.88C243.235 237.886 242.737 214.314 241.741 208.688C240.744 203.062 233.842 200.641 230.853 200.071ZM203.313 221.578C203.313 220.581 203.882 219.869 204.949 219.513C206.017 219.157 206.23 220.154 205.59 220.866C205.021 221.578 204.949 223.643 204.949 223.643H203.313C203.313 223.643 203.313 222.575 203.313 221.578ZM203.597 239.951C203.384 240.877 202.316 242.159 201.889 239.951C201.462 237.744 202.103 237.388 202.174 235.607C202.245 233.827 201.605 232.189 201.961 231.192C202.245 230.195 202.886 229.554 203.597 230.622C204.024 231.263 203.953 238.598 203.597 239.951ZM206.017 245.221C205.661 245.435 204.594 245.577 204.309 245.079C204.095 244.723 204.167 244.438 204.451 243.939C204.594 243.654 206.23 243.441 206.302 243.939C206.23 244.509 206.373 245.007 206.017 245.221ZM205.803 217.376C204.807 217.305 204.38 216.094 204.594 215.026C204.878 213.531 207.298 213.531 208.365 213.388C209.433 213.246 210.073 211.75 210.856 211.181C211.639 210.611 227.081 210.896 228.931 211.181C230.853 211.466 232.561 214.457 233.415 215.24C234.34 216.023 233.984 216.807 233.415 218.373C232.845 219.94 230.924 218.872 229.216 217.661C227.508 216.451 225.444 215.24 223.879 215.311C222.313 215.311 219.965 216.807 219.182 217.448C218.47 217.946 205.803 217.376 205.803 217.376ZM207.156 227.56C206.729 226.634 206.729 225.495 207.725 225.708C208.792 225.922 208.152 226.705 209.006 226.777C209.86 226.848 210.714 226.563 211.639 226.777C212.564 226.99 212.991 228.13 212.137 228.13C211.283 228.13 209.931 227.987 209.077 228.415C208.579 228.771 207.511 228.486 207.156 227.56ZM209.29 254.052C210.714 254.052 213.987 257.684 214.058 258.681C214.129 259.606 212.991 258.966 212.635 258.681C212.35 258.467 211.354 257.541 210.856 257.114C210.429 256.687 209.433 256.473 207.369 256.046C205.376 255.547 207.867 254.052 209.29 254.052ZM206.302 277.552C202.957 278.122 200.751 277.339 199.683 277.196C198.616 277.054 195.2 277.268 193.919 277.624C192.567 277.98 185.166 277.909 183.672 277.196C182.32 276.555 178.121 273.636 184.312 274.134C189.649 274.561 194.56 275.202 195.769 275.274C196.979 275.345 200.253 275.63 201.249 275.487C202.601 275.345 205.875 274.918 206.871 274.918C208.223 274.918 208.65 277.196 206.302 277.552ZM214.058 267.582C212.849 268.01 208.792 267.298 207.654 266.942C206.515 266.585 202.032 266.657 200.324 266.87C198.616 267.084 192.354 267.654 190.859 267.155C189.365 266.657 184.241 266.229 182.96 266.087C181.679 265.945 180.683 266.443 178.477 266.514C176.271 266.585 172.428 267.725 172.926 265.232C173.14 264.093 176.698 262.17 178.121 260.247C179.544 258.325 181.679 253.197 183.601 255.69C185.024 257.541 176.84 264.378 176.84 264.378C176.84 264.378 180.896 264.734 182.818 264.449C184.312 264.164 188.938 264.734 189.934 265.161C191.286 265.731 196.054 265.588 197.122 265.517C198.189 265.375 201.605 264.52 202.53 264.52C203.455 264.52 205.448 265.304 206.871 265.375C207.654 265.446 211.141 265.588 212.137 265.304C213.489 264.876 217.474 265.375 217.474 265.375C219.324 266.301 215.268 267.155 214.058 267.582ZM214.485 259.891C214.77 259.464 215.624 259.25 216.051 259.606C216.407 259.891 216.834 260.817 216.478 261.244C216.122 261.672 214.628 262.17 214.343 261.529C214.129 261.031 214.272 260.319 214.485 259.891ZM223.167 231.477C222.527 231.406 221.886 231.192 221.246 230.907C220.605 230.622 218.399 230.409 217.759 231.192C216.905 232.26 214.485 232.331 213.631 231.762C212.849 231.192 214.556 229.198 215.482 229.198C216.834 229.198 220.676 228.984 221.246 229.127C221.957 229.34 222.598 230.052 223.452 230.124C224.306 230.195 227.793 229.91 227.793 231.477C227.793 232.189 223.808 231.477 223.167 231.477ZM231.493 225.78C230.355 225.922 227.793 226.563 226.014 225.78C224.235 224.996 220.392 224.711 219.396 224.569C218.399 224.427 216.478 223.928 215.553 224.284C214.628 224.64 213.489 224.07 212.635 223.501C211.71 222.86 209.931 223.002 209.931 223.002C209.931 223.002 209.789 221.792 211.496 221.507C213.204 221.222 215.482 221.649 216.478 221.151C217.474 220.652 220.321 220.723 221.673 221.151C223.025 221.578 230.355 220.795 230.924 221.507C231.493 222.219 231.493 222.86 231.92 223.002C232.347 223.145 233.557 223.287 233.486 224.355C233.415 225.424 232.632 225.708 231.493 225.78ZM235.194 252.556C234.553 252.627 234.411 253.126 234.055 252.984C233.628 252.77 232.703 252.414 233.415 251.346C233.628 251.061 235.55 248.711 235.55 250.42C235.55 252.129 235.621 252.485 235.194 252.556ZM136.918 153.924C139.693 151.432 137.629 145.022 131.936 151.076C124.749 158.767 118.985 162.826 118.985 162.826C118.985 162.826 123.681 159.265 121.689 156.488C119.696 153.711 100.269 129.64 100.269 129.64H96.2125C96.2125 129.64 96.7818 120.738 89.3809 122.163C81.1972 123.729 84.9688 134.198 87.8153 133.201C87.8153 133.201 75.2906 143.527 75.2195 154.636C75.1483 167.811 87.1748 180.843 102.475 179.205C117.704 177.567 134.996 155.633 136.918 153.924ZM91.4446 129.213C93.366 128.501 92.0851 126.293 91.0176 125.723C89.3097 124.726 91.7293 123.801 92.8679 124.655C93.7218 125.225 94.5758 126.72 94.1488 128.643C93.7218 130.566 90.5907 132.061 89.2386 131.064C88.0288 130.281 89.0962 130.067 91.4446 129.213ZM82.3358 151.218C82.2646 142.459 91.5869 137.189 93.366 137.616C95.1451 138.043 90.0925 141.818 93.0814 144.951C95.2163 147.23 98.9879 144.239 100.482 147.729C101.977 151.218 98.4897 155.064 103.4 155.776C107.67 156.346 108.097 156.488 108.168 161.402C108.239 165.817 112.224 163.752 113.576 163.894C116.779 164.25 116.779 170.446 104.112 171.158C90.8753 171.87 82.4069 160.618 82.3358 151.218ZM153.499 292.792C153.712 295.356 154.281 298.062 151.435 299.985C148.66 301.837 134.641 312.234 101.407 305.326C101.407 305.326 125.674 295.071 140.832 285.528C143.892 283.606 145.528 282.466 146.738 283.962C148.233 285.529 153.356 290.656 153.499 292.792ZM128.663 165.319L137.629 174.79V179.277C137.629 179.277 131.296 180.202 128.094 187.68L119.269 174.22L128.663 165.319Z" fill="white"/>
<path d="M194.417 93.107V80.146C194.417 80.146 202.601 79.9323 202.601 86.7689C202.601 93.6055 194.417 93.107 194.417 93.107ZM126.243 80.146L123.61 90.6857H129.161L126.243 80.146ZM303.296 136.263C301.517 136.69 302.727 142.316 300.734 145.236C299.454 147.088 295.54 144.809 294.045 148.298C292.551 151.788 295.468 155.42 291.697 156.061C287.925 156.701 287.712 156.417 287.214 160.761C286.715 165.105 282.659 164.82 281.307 164.962C278.176 165.318 278.603 171.229 290.985 171.941C304.008 172.653 313.473 159.621 313.473 150.221C313.686 141.462 305.075 135.836 303.296 136.263ZM199.825 381.312C199.825 381.312 16.7233 357.74 31.3117 54.4376C31.3117 54.4376 129.018 76.514 199.683 21.679C199.683 21.679 244.8 69.7487 368.268 55.8619C368.339 55.8619 393.958 325.052 199.825 381.312ZM264.584 103.647H276.326V92.8221L282.517 103.647H296.394L287.641 90.116C287.641 90.116 294.045 87.4811 294.045 80.502C294.045 73.523 288.85 69.6775 283.228 69.6775C277.678 69.6775 264.584 69.535 264.584 69.535V103.647ZM227.65 103.789H250.636V94.3176H239.179V90.6857H249.213V82.4961H239.179V78.9353H250.636V69.7487H227.65V103.789ZM183.458 103.789C183.458 103.789 195.627 104.074 199.683 103.789C205.59 103.433 216.051 101.653 216.051 86.7689C216.051 71.8851 201.605 69.7487 199.683 69.7487C197.762 69.7487 183.458 69.7487 183.458 69.7487V103.789V103.789ZM156.274 103.789H169.154V69.7487H156.274V103.789ZM107.883 103.789H120.835L121.902 98.6617H131.011L132.79 103.789H145.742L133.715 69.7487H119.696L107.883 103.789ZM66.822 103.789H78.5639V92.9646L84.7551 103.789H98.6318L89.8788 90.2584C89.8788 90.2584 96.2835 87.6235 96.2835 80.6445C96.2835 73.6655 91.0886 69.8199 85.4667 69.8199C79.8448 69.8199 66.822 69.7487 66.822 69.7487V103.789ZM102.403 179.205C117.632 177.567 134.996 155.633 136.917 153.924C139.693 151.432 137.629 145.022 131.936 151.076C124.749 158.767 118.984 162.826 118.984 162.826C118.984 162.826 123.681 159.265 121.689 156.488C119.696 153.71 100.269 129.64 100.269 129.64H96.2123C96.2123 129.64 96.7816 120.738 89.3807 122.162C81.1969 123.729 84.9686 134.198 87.8151 133.201C87.8151 133.201 75.2904 143.527 75.2192 154.636C75.1481 167.811 87.1746 180.843 102.403 179.205ZM128.663 165.318L119.269 174.291L128.093 187.751C131.224 180.273 137.629 179.348 137.629 179.348V174.861L128.663 165.318ZM153.498 292.792C153.356 290.656 148.232 285.528 146.809 283.89C145.528 282.395 143.963 283.534 140.903 285.457C125.745 295 101.478 305.255 101.478 305.255C134.64 312.234 148.659 301.765 151.506 299.914C154.281 298.062 153.712 295.356 153.498 292.792ZM240.246 289.588C240.815 287.095 243.662 285.386 245.797 271.143C245.797 271.143 259.318 253.838 263.801 236.746C268.284 219.655 267.501 213.388 266.22 209.899C264.94 206.48 266.078 213.673 265.865 216.45C265.651 219.156 264.441 230.195 262.164 233.755C259.887 237.316 262.378 228.557 262.378 223.216C262.449 204.13 260.599 196.866 260.385 190.813C260.172 184.76 262.307 189.959 262.733 191.881C263.232 193.804 265.722 203.062 264.655 192.095C263.587 181.199 259.887 184.048 259.175 179.419C258.464 174.79 253.696 151.432 251.917 151.788C250.138 152.144 251.561 155.847 252.273 160.333C252.984 164.82 263.73 228.628 251.703 253.055C251.703 253.055 260.243 180.06 245.797 148.512C245.797 148.512 243.235 142.031 248.786 147.23C254.336 152.429 244.872 135.551 239.392 131.349C233.913 127.147 218.043 123.729 207.511 123.872L210.927 190.671L186.233 190.457L188.155 123.872C188.155 123.872 155.491 121.165 148.731 146.304C141.97 171.443 141.187 177.638 141.116 181.413C141.116 181.413 124.606 185.472 129.588 213.744C134.569 242.016 142.966 269.149 145.244 269.291C147.521 269.434 149.513 269.505 149.513 272.14C149.513 274.775 149.157 283.748 152.004 284.246C154.851 284.745 153.285 280.116 154.566 282.822C155.847 285.528 156.63 295.57 158.266 301.338C160.971 311.165 173.424 323.77 176.911 322.916C180.042 322.204 186.02 318.785 184.81 318.287C184.81 318.287 173.495 313.658 168.229 307.462C168.229 307.462 167.802 311.806 165.881 309.884C164.102 308.103 158.48 306.75 157.626 278.977C157.626 278.977 143.678 258.467 145.457 232.117C147.236 205.768 153.285 196.51 159.334 196.51C165.383 196.51 236.901 193.662 240.815 200.071C244.729 206.48 248.287 225.281 246.508 241.162C244.729 257.043 239.179 283.748 236.332 286.027C233.486 288.306 225.658 295.142 223.309 298.489C220.961 301.836 218.897 306.537 214.272 308.673C209.646 310.809 185.522 318.857 194.488 326.334L188.084 329.183C188.084 329.183 190.076 334.168 193.278 332.031C196.481 329.895 197.121 328.898 199.256 329.254C201.391 329.61 207.155 329.04 211.212 328.684C215.268 328.328 223.096 326.192 228.219 322.987C233.343 319.782 242.523 314.513 243.377 304.258C244.018 296.139 239.677 292.08 240.246 289.588ZM181.038 298.632C185.237 301.053 194.061 296.068 195.769 296.068C197.406 296.068 199.114 298.988 206.515 299.914C213.916 300.839 225.302 284.745 226.583 283.249C227.864 281.754 230.141 278.905 229.145 276.983C228.291 275.416 228.504 271.143 229.358 266.585C230.354 261.315 232.489 267.653 233.13 273.208C233.77 279.404 239.107 265.873 239.89 262.953C240.673 260.247 241.883 250.633 241.74 248.354C241.598 246.076 240.602 246.93 238.111 247.215C235.62 247.5 241.242 242.515 242.452 239.666C243.306 237.672 242.808 214.1 241.812 208.474C240.815 202.848 233.913 200.641 230.924 200C228.504 199.501 218.043 199.573 216.691 200.783C214.77 202.492 197.05 212.249 194.275 213.174C191.998 213.958 189.792 213.887 189.72 215.525C189.649 217.732 192.282 217.091 193.563 217.59C194.844 218.088 194.346 223.643 194.488 225.281C194.559 227.204 193.99 226.776 192.78 227.916C191.571 229.055 192.496 243.085 192.496 245.079C192.496 247.073 190.574 247.642 190.717 249.565C190.93 251.986 192.496 252.698 194.488 252.698C196.125 252.698 198.402 249.921 199.47 249.921C201.32 249.921 203.597 251.132 205.305 251.274C207.369 251.488 206.799 249.28 208.009 248.497C209.504 247.571 209.361 250.776 208.65 252.2C207.938 253.624 205.376 252.983 204.024 252.983C202.672 252.983 200.608 252.342 198.972 252.698C197.335 253.055 197.833 255.12 193.278 255.405C191.286 255.547 190.076 252.77 188.938 252.342C187.799 251.915 186.233 253.268 182.96 252.414C180.967 251.915 181.75 245.577 182.818 246.788C183.885 247.998 181.964 251.203 187.158 250.847C189.293 250.704 189.293 247.642 189.151 245.577C189.009 243.512 188.795 238.74 188.795 238.74C188.795 238.74 189.009 231.761 190.432 228.343C191.855 224.925 191.571 220.011 189.151 219.014C186.732 218.017 187.514 225.495 187.372 228.129C187.23 230.764 185.949 233.328 183.6 235.322C181.252 237.316 162.75 235.465 157.768 235.322C152.787 235.18 153.498 229.767 152.929 223.358C152.36 216.949 150.225 218.872 149.371 221.222C148.517 223.572 148.659 233.898 149.371 237.459C150.083 241.019 150.296 241.375 152.929 243.868C155.562 246.36 154.922 251.701 154.922 251.701C154.851 253.197 156.701 252.698 158.124 252.983C159.12 253.197 159.334 254.265 158.907 254.977C158.338 255.903 158.124 254.906 155.491 255.618C152.858 256.33 156.131 260.105 157.341 261.885C158.551 263.665 158.053 264.378 158.693 269.078C159.334 273.778 160.401 274.063 161.54 273.707C162.678 273.351 162.109 268.65 161.896 265.873C161.54 261.102 163.248 260.674 163.959 263.025C164.529 264.947 163.248 273.208 164.386 278.336C165.525 283.463 176.84 296.282 181.038 298.632ZM163.177 283.534C162.251 282.11 161.753 282.822 161.611 284.887C161.469 286.098 161.611 289.089 162.18 291.439C162.75 293.789 165.454 292.792 167.019 290.513C168.3 288.662 163.888 284.603 163.177 283.534ZM154.424 212.391C156.843 208.83 180.896 210.824 185.166 211.537C189.436 212.249 191.855 210.54 194.132 209.543C197.05 208.261 211.354 201.139 209.788 200.071C207.44 198.433 169.368 198.504 160.117 199.786C152.644 200.783 151.577 207.976 151.221 209.97C151.079 211.109 149.371 219.726 154.424 212.391ZM234.909 280.543C234.766 278.336 232.916 279.689 232.418 280.543C231.564 281.896 230.354 282.609 229.145 283.748C227.935 284.887 226.44 285.884 227.864 287.237C229.358 288.591 232.347 285.101 233.272 284.246C234.197 283.463 234.98 282.751 234.909 280.543ZM268.427 196.582L278.389 176.143L267.857 166.529C264.655 172.725 258.464 175.431 263.089 178.493C268.569 182.267 268.427 196.582 268.427 196.582ZM294.472 304.044C294.472 304.044 258.037 286.739 249.568 278.193C249.568 278.193 246.01 286.668 245.085 287.594C244.16 288.519 243.804 289.588 245.085 291.938C246.366 294.288 245.797 295.071 247.291 296.282C248.786 297.492 261.239 313.088 294.472 304.044ZM319.806 154.85C319.735 143.812 306.854 131.349 306.854 131.349C308.776 131.705 312.192 121.237 304.862 120.881C297.532 120.525 298.244 129.925 298.244 129.925H294.543C294.543 129.925 276.254 153.995 274.262 156.773C272.269 159.479 276.041 163.04 276.041 163.04C276.041 163.04 270.988 160.262 263.943 152.571C258.393 146.518 256.258 152.429 258.962 154.921C260.812 156.63 278.176 177.71 293.12 179.348C308.064 180.986 319.877 168.025 319.806 154.85ZM332.758 86.6265C330.409 81.2142 320.375 83.9203 320.375 80.0035C320.375 76.0868 329.84 80.4308 329.84 80.4308L333.683 71.8139C333.683 71.8139 327.492 69.4638 322.795 69.0365C318.098 68.6092 307.922 71.173 307.922 80.3596C307.922 89.5463 315.394 90.2584 319.308 91.0418C322.368 91.6115 322.439 94.6025 319.095 94.9586C315.75 95.3146 310.199 91.1842 310.199 91.1842L306.356 100.798C321.016 108.276 328.844 102.222 331.263 99.8724C333.683 97.5223 335.177 92.2524 332.758 86.6265ZM235.478 297.706C234.197 298.276 233.913 300.412 233.13 301.765C232.56 302.691 222.669 309.1 224.448 312.305C226.227 315.438 227.793 318.643 229.714 318.358C231.706 318.073 235.336 315.51 236.332 313.516C237.613 311.094 238.325 304.614 238.325 302.05C238.325 299.486 236.759 297.136 235.478 297.706ZM84.5416 81.6415C84.5416 77.6535 78.8485 78.2944 78.8485 78.2944V84.9173C78.8485 84.9885 84.5416 85.6295 84.5416 81.6415ZM305.502 128.857C306.854 127.575 304.791 128.144 302.371 127.931C299.881 127.717 301.304 124.726 303.225 124.014C305.004 123.373 302.869 122.447 301.731 123.231C300.948 123.8 299.596 125.51 299.952 127.432C300.379 129.355 304.364 130.067 305.502 128.857ZM104.111 171.158C116.778 170.446 116.707 164.321 113.576 163.894C112.224 163.752 108.239 165.817 108.168 161.402C108.096 156.488 107.741 156.345 103.4 155.776C98.4895 155.135 102.048 151.218 100.482 147.728C98.9165 144.239 95.216 147.159 93.0811 144.951C90.0923 141.818 95.216 138.043 93.3658 137.616C91.5155 137.189 82.2644 142.459 82.3355 151.218C82.4067 160.618 90.8751 171.87 104.111 171.158ZM89.2383 131.064C90.5904 131.99 93.7928 130.495 94.1486 128.643C94.5755 126.72 93.6504 125.225 92.8676 124.655C91.6579 123.872 89.3095 124.797 91.0174 125.723C92.0848 126.364 93.3658 128.501 91.4444 129.213C89.096 130.067 88.0286 130.281 89.2383 131.064ZM221.601 313.516C220.676 312.661 218.541 312.946 217.83 313.8C217.047 314.726 212.848 317.788 211.781 318.002C208.934 318.572 207.867 319.355 206.657 321.064C205.447 322.702 208.507 325.195 210.358 325.978C212.208 326.833 215.41 326.192 219.182 324.269C222.953 322.346 223.38 317.931 223.452 316.364C223.523 314.797 222.526 314.37 221.601 313.516ZM212.137 228.201C213.062 228.201 212.564 227.061 211.639 226.848C210.713 226.634 209.859 226.919 209.005 226.848C208.152 226.776 208.721 225.993 207.725 225.779C206.728 225.566 206.728 226.776 207.155 227.631C207.582 228.486 208.65 228.77 209.148 228.557C209.931 228.058 211.212 228.201 212.137 228.201ZM219.253 217.376C220.036 216.806 222.384 215.311 223.95 215.24C225.515 215.24 227.579 216.379 229.287 217.59C230.995 218.8 232.987 219.869 233.486 218.302C234.055 216.735 234.411 215.952 233.486 215.168C232.56 214.385 230.853 211.394 229.002 211.109C227.081 210.824 211.71 210.54 210.927 211.109C210.144 211.679 209.504 213.174 208.436 213.317C207.369 213.459 204.949 213.459 204.665 214.955C204.451 216.023 204.878 217.305 205.874 217.305C205.803 217.376 218.47 217.946 219.253 217.376ZM204.38 243.939C204.166 244.438 204.024 244.651 204.238 245.079C204.522 245.577 205.59 245.435 205.945 245.221C206.301 245.007 206.159 244.509 206.159 244.01C206.159 243.441 204.522 243.725 204.38 243.939ZM282.303 81.5703C282.303 77.5823 276.61 78.2232 276.61 78.2232V84.8461C276.61 84.8461 282.303 85.4871 282.303 81.5703ZM207.369 255.974C209.361 256.473 210.429 256.686 210.856 257.043C211.283 257.47 212.35 258.396 212.635 258.609C212.991 258.894 214.2 259.535 214.058 258.609C213.987 257.683 210.713 254.052 209.29 253.98C207.867 253.909 205.376 255.547 207.369 255.974ZM183.031 266.016C184.312 266.229 189.436 266.585 190.93 267.084C192.425 267.582 198.616 267.013 200.395 266.799C202.174 266.585 206.586 266.514 207.725 266.87C208.863 267.226 212.919 267.867 214.129 267.511C215.339 267.084 219.395 266.229 217.616 265.232C217.616 265.232 213.631 264.805 212.279 265.161C211.354 265.446 207.796 265.232 207.013 265.232C205.661 265.161 203.597 264.306 202.672 264.378C201.747 264.449 198.331 265.232 197.264 265.375C196.196 265.517 191.428 265.659 190.076 265.019C189.08 264.591 184.454 264.093 182.96 264.306C181.038 264.591 176.982 264.235 176.982 264.235C176.982 264.235 185.166 257.399 183.743 255.547C181.821 253.055 179.686 258.182 178.263 260.105C176.84 262.028 173.282 263.95 173.068 265.09C172.57 267.582 176.484 266.443 178.619 266.372C180.754 266.3 181.75 265.873 183.031 266.016ZM201.889 231.192C201.605 232.189 202.174 233.827 202.103 235.607C202.032 237.387 201.391 237.743 201.818 239.951C202.245 242.159 203.312 240.877 203.526 239.951C203.882 238.598 203.953 231.263 203.526 230.622C202.885 229.554 202.245 230.195 201.889 231.192ZM205.519 220.866C206.088 220.153 205.945 219.156 204.878 219.513C203.811 219.869 203.241 220.581 203.241 221.578C203.241 222.575 203.241 223.714 203.241 223.714H204.878C204.878 223.643 204.949 221.578 205.519 220.866ZM214.485 259.891C214.2 260.247 214.129 260.959 214.343 261.529C214.556 262.17 216.122 261.671 216.478 261.244C216.833 260.817 216.406 259.891 216.051 259.606C215.695 259.321 214.77 259.535 214.485 259.891ZM206.871 274.917C205.874 274.917 202.601 275.345 201.249 275.487C200.252 275.629 196.979 275.345 195.769 275.273C194.559 275.202 189.649 274.561 184.312 274.134C178.121 273.635 182.319 276.627 183.672 277.196C185.166 277.837 192.567 277.98 193.919 277.623C195.271 277.267 198.616 276.983 199.683 277.196C200.751 277.41 202.885 278.122 206.301 277.552C208.65 277.196 208.223 274.917 206.871 274.917ZM223.523 230.124C222.74 230.052 222.028 229.34 221.317 229.127C220.676 228.984 216.833 229.198 215.552 229.198C214.627 229.198 212.919 231.192 213.702 231.761C214.485 232.331 216.905 232.26 217.83 231.192C218.47 230.408 220.676 230.622 221.317 230.907C221.957 231.192 222.598 231.405 223.238 231.477C223.879 231.548 227.864 232.189 227.864 231.477C227.793 229.981 224.306 230.195 223.523 230.124ZM231.849 223.073C231.422 222.86 231.422 222.219 230.853 221.578C230.283 220.937 222.882 221.72 221.601 221.222C220.32 220.723 217.474 220.723 216.406 221.222C215.339 221.72 213.133 221.293 211.425 221.578C209.717 221.863 209.859 223.073 209.859 223.073C209.859 223.073 211.71 222.931 212.564 223.572C213.489 224.141 214.556 224.711 215.481 224.355C216.406 223.999 218.399 224.498 219.324 224.64C220.249 224.782 224.163 225.067 225.942 225.851C227.721 226.634 230.283 225.993 231.422 225.851C232.56 225.708 233.272 225.423 233.343 224.426C233.414 223.429 232.347 223.216 231.849 223.073ZM234.055 252.983C234.482 253.197 234.553 252.627 235.193 252.556C235.62 252.485 235.549 252.129 235.549 250.42C235.549 248.71 233.628 251.061 233.414 251.345C232.703 252.342 233.628 252.77 234.055 252.983Z" fill="black"/>
<path d="M163.178 283.535C163.889 284.603 168.301 288.591 167.02 290.514C165.455 292.792 162.751 293.789 162.181 291.439C161.612 289.089 161.47 286.098 161.612 284.888C161.826 282.822 162.253 282.11 163.178 283.535ZM263.802 236.747C259.319 253.838 245.798 271.143 245.798 271.143C243.663 285.386 240.745 287.095 240.247 289.588C239.749 292.08 244.019 296.14 243.378 304.116C242.524 314.37 233.344 319.64 228.221 322.845C223.097 326.05 215.269 328.186 211.213 328.542C207.156 328.898 201.392 329.468 199.257 329.112C197.122 328.756 196.482 329.753 193.28 331.889C190.077 334.026 188.085 329.041 188.085 329.041L194.489 326.192C185.452 318.786 209.647 310.667 214.273 308.531C218.898 306.394 221.033 301.765 223.31 298.347C225.587 294.929 233.487 288.163 236.333 285.885C239.18 283.606 244.73 256.829 246.509 241.02C248.288 225.139 244.73 206.338 240.816 199.929C236.902 193.52 165.384 196.368 159.335 196.368C153.286 196.368 147.237 205.626 145.458 231.975C143.679 258.325 157.627 278.834 157.627 278.834C158.552 306.608 164.174 307.961 165.882 309.741C167.803 311.664 168.23 307.32 168.23 307.32C173.496 313.445 184.811 318.145 184.811 318.145C186.021 318.714 180.043 322.062 176.912 322.774C173.425 323.628 160.972 311.023 158.267 301.196C156.702 295.356 155.848 285.315 154.567 282.68C153.286 280.045 154.852 284.674 152.005 284.104C149.159 283.535 149.514 274.633 149.514 271.998C149.514 269.363 147.522 269.292 145.245 269.149C142.967 269.007 134.57 241.874 129.589 213.602C124.607 185.33 141.117 181.271 141.117 181.271C141.259 177.496 141.971 171.301 148.732 146.162C155.492 121.023 188.156 123.729 188.156 123.729L186.234 190.315L210.928 190.529L207.512 123.729C218.044 123.587 233.985 127.077 239.393 131.207C244.801 135.337 254.266 152.286 248.787 147.088C243.307 141.889 245.798 148.37 245.798 148.37C260.244 179.918 251.704 252.912 251.704 252.912C263.731 228.557 252.985 164.749 252.274 160.191C251.562 155.705 250.139 152.002 251.918 151.645C253.697 151.289 258.465 174.648 259.176 179.277C259.888 183.906 263.588 181.057 264.656 191.953C265.723 202.849 263.233 193.591 262.735 191.739C262.236 189.816 260.101 184.618 260.386 190.671C260.671 196.724 262.45 203.988 262.379 223.074C262.379 228.486 259.888 237.174 262.165 233.613C264.442 230.053 265.581 219.014 265.866 216.308C266.079 213.602 264.941 206.338 266.222 209.756C267.502 213.317 268.356 219.655 263.802 236.747ZM223.453 316.364C223.524 314.798 222.527 314.37 221.602 313.516C220.677 312.661 218.542 312.946 217.831 313.801C217.048 314.726 212.849 317.789 211.782 318.002C208.935 318.572 207.868 319.355 206.658 321.065C205.448 322.702 208.508 325.195 210.359 325.978C212.209 326.833 215.411 326.192 219.183 324.269C222.954 322.346 223.381 317.931 223.453 316.364ZM238.397 301.979C238.326 299.415 236.76 297.137 235.479 297.706C234.198 298.276 233.914 300.412 233.131 301.765C232.561 302.691 222.67 309.101 224.449 312.305C226.228 315.439 227.794 318.643 229.715 318.358C231.708 318.074 235.337 315.51 236.333 313.516C237.685 311.023 238.468 304.543 238.397 301.979ZM233.273 284.318C234.198 283.463 234.981 282.751 234.91 280.544C234.768 278.336 232.917 279.689 232.419 280.544C231.565 281.897 230.355 282.609 229.146 283.748C227.936 284.888 226.441 285.885 227.865 287.238C229.359 288.662 232.419 285.172 233.273 284.318Z" fill="#BCC3C9"/>
</g>
<defs>
<clipPath id="clip0_257_11731">
<rect width="356" height="380" fill="white" transform="translate(21.9997 10)"/>
</clipPath>
</defs>
</svg>
