<svg width="400" height="400" viewBox="0 0 400 400" fill="none" xmlns="http://www.w3.org/2000/svg">
<g clip-path="url(#clip0_257_11726)">
<path d="M317.853 131.449C317.55 131.967 317.248 132.659 317.55 133.35C317.593 133.393 317.593 133.48 317.637 133.609H317.68C311.585 135.64 301.426 139.659 298.141 144.541C298.314 144.239 300.345 140.048 302.031 137.628L302.075 137.585C302.55 136.98 302.982 136.548 303.328 136.245C306.268 133.782 308.127 130.758 317.853 131.449ZM390 125.616C389.481 128.9 387.061 131.406 386.066 132.227C384.986 133.134 374.352 140.955 374.352 140.955C373.962 141.171 373.66 141.344 373.357 141.56C368.775 144.455 354.337 154.004 343.011 164.504C343.011 164.504 339.596 167.528 337.219 170.942C334.755 174.355 331.599 179.627 333.328 183.645C335.922 189.565 377.421 192.892 377.421 192.892C377.421 192.892 366.268 195.312 354.164 199.028C344.049 202.139 336.441 205.725 336.441 207.151C336.441 208.75 342.838 213.33 348.761 216.96C354.207 220.33 359.308 223.354 359.308 223.354C359.308 223.354 328.919 226.249 327.838 229.274C327.363 230.743 338.559 239.299 351.311 246.99C366.052 255.891 375.994 261.292 375.994 261.292C375.994 261.292 364.971 258.959 348.026 255.675C333.372 252.866 319.15 251.397 317.853 252.78C316.383 254.292 319.452 260.601 323.083 266.304C326.585 271.749 330.605 276.545 330.605 276.545C330.605 276.545 303.328 269.199 300.216 272.829C297.103 276.415 322.651 323.729 322.651 323.729C322.651 323.729 283.746 290.156 280.461 291.97C277.262 293.872 281.368 315.692 281.368 315.692C281.368 315.692 269.654 300.05 265.634 301.044C263.688 301.606 262.608 310.032 262.002 318.76C261.311 328.396 261.224 337.815 261.224 337.815C261.224 337.815 257.507 328.784 253.098 319.581C249.077 311.155 244.582 302.945 242.463 303.161C237.233 302.557 228.631 327.92 228.631 327.92C228.631 327.92 223.443 307.093 218.731 305.797C214.02 304.501 191.628 350 191.628 350C191.628 350 191.93 335.655 191.93 322.13C191.93 310.766 191.757 299.878 190.028 298.97C186.224 296.983 169.797 311.501 169.797 311.501C169.797 311.501 174.12 290.89 170.1 285.878C167.895 283.329 158.861 287.865 150.734 293.569C142.65 299.186 134.005 306.877 134.005 306.877C134.005 306.877 138.803 297.976 142.521 290.458C145.633 284.15 148.313 278.748 147.924 277.236C144.293 277.495 137.593 277.409 137.593 277.409C118.659 277.322 102.146 273.39 91.5984 270.107C82.045 267.125 75.5608 264.101 73.4427 263.107C71.3245 263.107 65.7481 263.064 59.3072 262.286C50.7048 261.292 43.5723 259.477 38.1688 256.971C21.6558 249.323 14.7393 237.311 12.5347 232.515C10.5462 228.28 9.11969 224.564 10.6327 221.972C10.6327 221.972 11.4108 220.546 13.2263 219.941C16.0361 219.12 17.8517 220.243 17.8517 220.243C18.8892 220.848 19.6673 221.669 20.2725 222.361C20.5751 222.75 24.4656 226.984 31.5982 228.367C32.0304 228.41 32.5059 228.496 33.0247 228.583C39.4656 229.793 49.7971 231.694 58.702 236.404L59.6098 236.922C61.3389 235.626 64.2352 234.243 68.5579 234.243C69.0334 234.243 71.2381 234.416 71.2381 234.416C74.8692 234.675 78.5868 234.891 81.7857 234.891C85.1142 234.891 86.7136 234.589 87.4917 234.373C87.9672 234.2 88.2698 234.157 88.5724 233.984L92.5061 231.996C93.6733 231.521 95.2727 231.305 97.0018 232.817C97.9096 233.725 98.3419 235.107 98.4284 236.62V236.706V236.792C98.4284 238.175 98.2987 239.558 97.9096 240.984C97.218 243.576 95.9211 246.298 94.192 248.805C93.8894 249.28 93.5868 249.712 93.1978 250.187C94.192 250.274 95.1863 250.274 96.1805 250.274C103.183 250.274 108.933 248.977 115.33 246.947C120.431 245.261 126.354 234.891 125.359 232.212C124.365 229.533 104.134 227.719 104.134 227.719C104.134 227.719 121.512 212.768 120.691 208.058C119.913 203.435 77.8951 194.62 77.8951 194.62C77.8951 194.62 124.235 182.868 124.322 179.281C124.408 175.695 100.676 164.849 100.676 164.849C100.676 164.849 128.039 167.788 129.12 164.158C130.46 159.621 86.6272 134.085 86.6272 134.085C86.6272 134.085 100.071 136.504 113.212 138.319C125.575 140.004 137.809 141.041 138.198 139.615C139.063 136.548 126.743 124.708 126.743 124.708C126.743 124.708 148.313 131.103 151.21 126.61C152.333 124.795 149.61 115.375 145.114 105.567C138.587 91.3078 130.374 77.697 130.374 77.697C130.374 77.697 137.377 82.7956 145.806 88.8017C160.417 99.215 174.38 107.857 175.763 106.345C178.097 103.795 171.267 84.1783 171.267 84.1783C171.267 84.1783 185.878 98.9126 190.417 98.0052C194.956 97.1842 195.734 57.7344 195.734 57.7344C195.734 57.7344 212.118 97.0978 218.515 94.5053C224.87 91.9127 228.458 70.8699 228.458 70.8699C228.458 70.8699 234.164 95.283 238.054 95.4991C242.55 95.7151 260.922 50 260.922 50C260.922 50 260.533 64.9503 260.619 78.2155C260.706 87.9375 260.879 96.8818 262.608 97.3571C267.017 98.4805 289.366 73.6353 289.366 73.6353C289.366 73.6353 276.354 104.141 279.25 108.03C282.147 111.918 305.317 99.82 305.317 99.82C305.317 99.82 303.804 102.758 302.723 105.956C300.605 112.091 301.426 114.77 301.426 114.77L303.458 114.468C308.472 113.776 313.573 113.388 318.674 113.388C328.487 113.388 338.516 114.727 349.15 117.406C352.565 116.196 363.977 112.307 370.418 111.702C371.282 111.616 372.19 111.53 373.098 111.53C381.441 111.53 387.622 115.246 389.352 121.252C389.352 121.252 389.568 122.116 389.654 123.542C389.741 124.968 389.524 125.832 390 125.616ZM124.538 243.36C129.769 240.941 134.869 237.786 140.186 233.854C135.777 223.095 133.356 211.213 133.356 198.769C133.356 147.091 175.244 105.221 226.988 105.221C245.922 105.221 263.559 110.838 278.299 120.474C284.783 118.054 291.138 116.283 297.233 115.073C296.844 112.653 297.147 110.017 298.66 106.733C293.299 111.184 279.51 115.073 275.576 111.357C271.599 107.554 278.299 91.8263 281.714 85.3882C276.095 92.1288 266.152 104.098 260.144 101.721C254.135 99.3879 258.242 70.9564 257.636 65.4256C253.746 76.6599 243.025 101.419 237.492 100.598C232.91 100.166 229.365 88.2832 228.587 83.6598C227.593 87.9807 225.302 98.0916 218.472 99.0854C211.642 100.079 202.391 83.7462 198.501 71.7341C197.852 93.1226 194.308 102.629 191.411 102.715C185.705 102.888 181.253 97.2274 176.757 92.9929C178.962 96.5793 182.161 107.511 177.968 110.925C173.774 114.252 145.806 94.3756 139.668 88.2832C146.584 98.4805 158.861 122.461 155.23 128.468C151.599 134.56 138.89 131.924 136.685 130.844C138.198 132.054 146.93 142.165 139.408 143.85C129.293 146.054 101.541 139.615 100.114 139.227C106.815 141.689 135.82 158.843 134.005 165.454C132.492 171.201 120.604 169.257 115.979 169.17C120.172 171.028 130.028 175.004 128.818 180.621C127.65 186.238 99.8549 192.46 91.2525 194.275C100.979 196.478 125.532 200.281 125.921 207.799C126.31 215.318 110.878 225.645 110.878 225.645C110.878 225.645 124.538 226.249 127.521 227.848C131.843 230.225 128.472 238.953 124.538 243.36ZM60.3879 240.508C63.6732 242.323 74.1343 248.416 83.1257 250.144C83.6012 250.23 84.7684 250.619 85.8923 250.706C86.973 250.792 88.2698 250.706 88.5724 250.706C88.5724 250.706 90.3015 248.805 91.2958 247.292C92.9817 244.873 94.0191 242.41 94.5811 240.465C94.8837 239.342 95.0566 238.175 95.0566 237.052C94.9269 234.978 93.5868 235.194 93.3707 235.194C91.9874 235.367 91.3822 236.706 88.1834 237.7C84.4658 238.78 76.5551 238.218 69.4225 237.786C64.2352 237.484 61.5118 239.471 60.3879 240.508ZM328.789 184.164C328.746 181.658 329.178 179.627 329.87 177.942C326.714 180.88 323.472 183.991 319.971 187.275C320.533 191.164 320.749 195.182 320.749 199.201C320.749 250.835 278.905 292.705 227.204 292.705C206.671 292.705 187.824 286.137 172.391 274.989C165.302 276.372 158.342 277.106 151.253 277.495C150.129 283.89 145.417 290.415 142.607 296.507C159.639 280.779 169.063 281.341 172.391 283.156C175.633 284.97 174.812 300.007 173.818 304.415C176.455 300.828 188.947 293.137 192.579 294.822C196.296 296.507 194.61 330.297 194.61 337.21C198.717 328.223 212.247 300.655 218.083 300.655C223.832 300.655 227.723 311.069 228.631 315.778C229.841 311.069 236.455 298.711 242.377 298.02C248.299 297.415 254.654 315.562 258.544 324.593C258.847 316.945 258.328 298.927 263.04 297.026C267.752 295.125 273.198 301.347 276.397 305.236C275.49 299.921 274.711 289.335 277.997 287.217C281.282 285.014 304.452 303.853 312.968 312.279C310.85 307.007 292.478 279.008 295.807 271.316C298.833 264.36 317.68 269.718 321.268 270.798C316.383 266.909 311.023 253.946 313.054 249.755C315.173 245.564 346.297 251.743 359.351 255.372C348.847 251.267 320.23 233.768 322.262 228.54C324.294 223.311 342.709 221.41 348.328 221.41C346.643 220.546 334.928 214.108 330.908 209.398C326.887 204.688 348.026 195.96 360.173 194.275C349.323 193.411 328.876 191.682 328.789 184.164ZM386.326 122.634C384.899 116.542 377.767 114.165 370.72 115.073C363.588 115.721 349.279 120.906 349.279 120.906C323.17 114.122 292.175 113.388 254.178 136.461C247.089 140.782 240.561 145.276 234.639 149.813C228.674 154.35 223.184 158.973 218.04 163.596C214.582 164.763 211.945 165.368 209.308 165.8C203.515 166.924 199.365 166.621 187.348 168.22C168.501 170.726 159.812 176.646 157.305 178.936C156.527 179.627 156.051 180.189 155.23 181.269C154.711 182.047 154.365 182.824 154.279 182.997C153.933 184.077 153.933 184.985 154.625 185.503C156.224 186.8 158.731 186.108 163.357 185.806C168.068 185.417 175.158 185.547 179.87 188.528C182.939 190.386 184.279 194.88 184.754 197.472C181.253 201.188 177.665 204.991 174.25 208.404C152.809 229.577 138.457 242.194 122.333 248.502C87.362 262.199 67.6934 246.169 59.7827 241.373C50.2293 235.237 37.5204 233.163 30.6904 231.953C23.8604 230.657 20.0996 227.373 18.673 226.163C17.2465 224.996 16.1226 222.879 14.4799 223.354C14.4799 223.354 13.6586 223.657 13.3992 223.83C12.5347 224.391 12.7941 226.206 15.2148 231.564C18.5001 238.78 26.065 248.372 39.2495 254.422C51.2668 259.952 69.5954 260.255 73.313 260.255C73.6156 260.255 73.8317 260.255 73.9182 260.255C73.9182 260.255 104.999 276.372 144.466 274.471C144.639 274.471 167.895 274.946 196.599 263.798C196.599 263.928 196.642 264.057 196.685 264.144C196.685 264.23 197.074 265.44 198.068 265.656C199.754 266.045 205.893 262.934 213.803 256.323C213.89 256.323 229.02 249.193 236.239 245.218C244.755 240.595 258.804 231.867 261.873 229.793C267.103 226.379 276.095 219.725 276.916 219.12C275.446 236.404 272.031 245.089 272.031 246.687C272.031 247.552 272.377 248.416 273.026 248.891C274.409 249.712 276.354 248.416 276.613 248.372C280.028 246.471 289.755 238.262 296.239 225.126C305.49 206.373 309.38 191.942 309.467 191.682C310.245 190.991 340.115 162.819 340.461 162.43C351.614 152.189 366.138 142.294 371.412 139.097C376.902 135.77 380.144 133.177 382.133 131.492C384.035 129.764 384.64 128.9 384.64 128.9C384.813 128.468 385.634 127.042 385.461 126.048C385.072 123.758 380.231 124.363 368.127 128.468C368.04 128.554 368.04 128.554 367.954 128.554C366.873 128.943 365.836 129.332 364.669 129.677C329.222 142.165 294.812 181.226 250.331 214.929L250.634 214.41C263.861 194.491 268.4 180.016 281.714 167.528C288.415 161.047 308.559 148.516 309.207 148.128C309.25 148.128 309.25 148.128 309.25 148.128C324.64 139.399 339.985 132.572 342.406 131.579C351.354 127.906 382.997 117.449 386.326 122.634ZM92.3765 263.409C92.3765 263.409 92.4197 263.409 92.4629 263.409H92.4197H92.3765ZM101.8 263.928C101.8 263.928 93.5436 263.582 92.4629 263.409L92.9384 263.582C96.8289 264.878 119.307 272.051 154.495 263.755C172.348 259.564 192.103 251.138 204.509 244.613C204.553 244.484 204.596 244.397 204.596 244.397C207.881 236.274 209.654 228.54 210.302 225.558C196.772 234.675 175.633 247.508 154.019 255.416C127.65 265.31 103.616 263.971 101.8 263.928Z" fill="white"/>
<path d="M133.443 198.898C133.443 211.342 135.864 223.182 140.273 233.984C134.956 237.959 129.855 241.07 124.624 243.49C128.429 238.953 131.757 230.225 127.434 227.848C124.452 226.249 110.792 225.644 110.792 225.644C110.792 225.644 126.224 215.318 125.835 207.799C125.446 200.281 100.892 196.478 91.1661 194.275C99.7685 192.46 127.607 186.238 128.731 180.621C129.942 175.004 120.086 171.072 115.892 169.17C120.561 169.257 132.405 171.244 133.918 165.454C135.734 158.843 106.728 141.646 100.028 139.226C101.454 139.615 129.207 146.054 139.322 143.85C146.844 142.251 138.112 132.054 136.599 130.844C138.803 131.881 151.512 134.56 155.143 128.467C158.818 122.461 146.498 98.4804 139.581 88.2831C145.72 94.3756 173.688 114.252 177.881 110.925C182.074 107.511 178.875 96.5792 176.671 92.9929C181.123 97.2274 185.619 102.888 191.325 102.715C194.221 102.672 197.809 93.1657 198.414 71.734C202.262 83.7461 211.556 100.079 218.386 99.0853C225.216 98.0915 227.507 87.9806 228.501 83.6597C229.279 88.2831 232.867 100.122 237.406 100.598C242.939 101.419 253.66 76.6599 257.55 65.4255C258.155 70.9563 254.049 99.3446 260.057 101.721C266.066 104.098 276.008 92.1287 281.628 85.3881C278.213 91.8694 271.556 107.598 275.49 111.313C279.423 115.029 293.17 111.184 298.573 106.69C297.19 110.147 296.887 112.826 297.276 115.332C291.181 116.542 284.784 118.313 278.343 120.733C263.602 111.097 245.965 105.48 227.031 105.48C175.374 105.48 133.486 147.35 133.443 198.898ZM359.352 255.459C348.847 251.354 320.23 233.941 322.262 228.712C324.294 223.484 342.709 221.583 348.329 221.583C346.643 220.719 334.928 214.28 330.908 209.571C326.888 204.861 348.026 196.133 360.173 194.448C349.28 193.627 328.919 191.941 328.703 184.034C328.703 181.528 329.092 179.497 329.784 177.812C326.628 180.75 323.386 183.861 319.885 187.145C320.447 191.034 320.663 195.053 320.663 199.071C320.663 250.749 278.818 292.618 227.247 292.618C206.714 292.618 187.867 286.051 172.434 274.903C165.345 276.285 158.385 277.02 151.296 277.409C150.172 283.804 145.46 290.328 142.65 296.421C159.682 280.693 169.106 281.254 172.434 283.069C175.677 284.884 174.855 299.921 173.861 304.328C176.498 300.742 188.991 293.05 192.622 294.736C196.339 296.421 194.654 330.21 194.654 337.124C198.76 328.136 212.377 300.569 218.126 300.569C223.876 300.569 227.766 310.982 228.674 315.692C229.884 310.982 236.498 298.624 242.42 297.933C248.343 297.328 254.697 315.476 258.588 324.507C258.89 316.859 258.371 298.754 263.083 296.939C267.795 295.038 273.242 301.26 276.441 305.149C275.533 299.834 274.755 289.248 278.04 287.131C281.325 284.927 304.582 303.766 313.011 312.192C310.893 306.921 292.521 278.921 295.85 271.23C298.876 264.273 317.723 269.631 321.311 270.711C316.426 266.823 311.066 253.86 313.098 249.669C315.216 245.521 346.297 251.656 359.352 255.459Z" fill="#F26A24"/>
<path d="M83.1257 250.144C82.8231 249.625 97.3045 239.903 93.3707 235.194C93.5869 235.194 94.9269 234.978 95.0566 237.052C95.0566 238.175 94.8837 239.342 94.5811 240.465C94.0191 242.409 92.9817 244.872 91.2958 247.292C90.3016 248.804 88.5724 250.706 88.5724 250.706C88.2698 250.706 86.973 250.792 85.8923 250.706C84.7684 250.619 83.6012 250.23 83.1257 250.144ZM158.991 178.503C159.639 177.985 160.331 177.51 161.109 177.078C161.195 177.034 161.325 176.948 161.411 176.905C164.61 175.09 169.063 173.621 175.504 173.189C175.59 173.189 175.936 173.146 176.066 173.146C178.875 172.757 181.685 172.541 184.149 172.454C185.403 172.411 186.57 172.411 187.694 172.411C189.207 172.411 190.59 172.454 191.93 172.497C192.579 172.541 193.227 172.541 193.875 172.584C194.178 172.584 194.524 172.627 194.826 172.627C195.475 172.627 196.08 172.67 196.685 172.67C197.896 172.67 199.106 172.67 200.36 172.627C200.965 172.584 201.613 172.541 202.218 172.497C204.726 172.238 207.362 171.72 210.475 170.683C212.896 168.263 215.835 165.714 218.04 163.64C214.582 164.806 211.945 165.411 209.308 165.843C203.515 166.967 199.365 166.664 187.348 168.263C168.501 170.769 159.812 176.689 157.305 178.979C156.527 179.67 156.051 180.232 155.23 181.312C154.711 182.09 154.365 182.868 154.279 183.04C155.446 181.658 156.872 180.016 158.991 178.503ZM303.328 136.245C306.268 133.782 308.127 130.758 317.853 131.449C317.55 131.967 317.248 132.659 317.55 133.35C317.593 133.393 317.593 133.48 317.637 133.609H317.68C317.766 133.609 317.766 133.696 317.766 133.696C317.766 133.696 321.268 132.572 323.689 131.795C329.092 130.412 332.334 129.504 336.009 128.079C340.98 126.091 342.579 125.184 342.32 124.795C342.277 124.708 342.233 124.708 342.104 124.708C341.628 124.751 340.375 125.443 338.083 126.005C335.274 126.696 328.184 126.912 325.158 126.912C324.423 126.912 323.559 126.869 322.651 126.869C319.885 126.869 316.253 127.128 311.325 129.332C311.109 129.418 310.85 129.548 310.634 129.634C306.354 131.751 303.458 135.51 302.075 137.585C302.55 136.98 302.982 136.548 303.328 136.245ZM154.019 255.415C175.633 247.508 196.815 234.675 210.345 225.558C210.388 225.428 210.388 225.299 210.432 225.169C210.691 224.132 211.08 222.49 211.469 220.762L213.241 213.114C213.241 213.114 176.757 245.953 138.89 256.885C126.051 260.6 112.564 263.539 101.8 263.884C103.616 263.971 127.65 265.31 154.019 255.415ZM385.461 126.091C385.072 123.801 380.231 124.406 368.127 128.511C368.04 128.597 368.04 128.597 367.954 128.597C366.873 128.986 365.836 129.375 364.669 129.72C329.222 142.208 294.812 181.269 250.331 214.972L250.634 214.453C263.861 194.534 268.4 180.059 281.714 167.572C288.544 160.961 309.251 148.128 309.251 148.128C309.251 148.128 305.014 149.597 300.648 151.757C293.516 155.3 282.449 161.22 275.706 167.528C259.755 182.392 256.21 201.534 233.472 229.49C223.357 241.934 214.711 250.619 207.795 256.366C203.386 260.082 199.495 262.675 196.685 264.187C196.685 264.273 197.074 265.483 198.069 265.699C199.754 266.088 205.893 262.977 213.803 256.366C213.89 256.366 229.02 249.237 236.239 245.261C244.755 240.638 258.804 231.91 261.873 229.836C267.363 226.249 277.003 219.12 277.003 219.12C281.498 215.706 285.518 212.509 289.106 209.527C293.602 205.812 298.314 201.707 302.939 197.515C300.259 205.811 296.109 217.132 291.095 226.681C285.086 238.089 277.175 245.909 273.026 248.934C274.409 249.755 276.354 248.459 276.613 248.416C280.028 246.514 289.755 238.305 296.239 225.169C305.49 206.416 309.38 191.985 309.467 191.725C310.245 191.034 340.115 162.862 340.461 162.473C351.614 152.232 366.138 142.338 371.412 139.14C376.902 135.813 380.144 133.22 382.133 131.535C384.035 129.807 384.64 128.943 384.64 128.943C384.813 128.511 385.634 127.085 385.461 126.091ZM14.4367 223.484C14.4799 223.484 14.4799 223.484 14.4367 223.484V223.484ZM202.002 250.317C203.213 247.767 204.12 245.607 204.423 244.786C204.466 244.7 204.509 244.656 204.509 244.613C192.103 251.138 172.348 259.563 154.495 263.755C119.307 272.051 96.8289 264.878 92.9384 263.582L92.4197 263.409C92.1171 263.366 91.8577 263.323 91.5552 263.279C82.6934 261.724 72.4052 257.489 63.2842 247.767C62.0738 246.86 60.8634 245.866 59.653 244.786C60.0421 245.175 64.4081 251.743 69.7251 256.366C68.7309 256.496 67.4773 256.625 64.97 256.496C62.9816 256.409 60.1718 256.15 56.1948 255.588C52.6501 255.07 49.3648 254.335 46.3388 253.385C46.2092 253.341 46.1227 253.298 45.993 253.255C45.7769 253.169 45.5175 253.125 45.3014 253.039C24.9843 246.212 16.7278 230.657 14.869 225.169C14.6096 224.391 14.4367 223.786 14.4367 223.484C14.2638 223.527 13.6154 223.786 13.3992 223.959C12.5347 224.521 12.7941 226.336 15.2148 231.694C18.5001 238.91 26.065 248.502 39.2495 254.551C51.2668 260.082 69.5954 260.384 73.313 260.384C73.6156 260.384 73.8317 260.384 73.9182 260.384C73.9182 260.384 104.999 276.501 144.466 274.6C144.639 274.6 167.896 275.075 196.599 263.928C196.599 263.841 196.599 263.755 196.599 263.712V263.452C196.599 261.033 199.711 255.027 202.002 250.317Z" fill="#005778"/>
<path d="M289.106 209.484C293.602 205.768 298.314 201.663 302.939 197.515C300.259 205.941 296.109 217.132 291.095 226.681C285.129 238.045 277.219 245.909 273.026 248.934C272.377 248.459 272.031 247.595 272.031 246.73C272.031 245.132 275.446 236.447 276.916 219.12C276.959 219.077 276.959 219.077 276.959 219.077C281.455 215.663 285.475 212.466 289.106 209.484ZM93.3707 235.194C91.9874 235.366 91.3822 236.706 88.1834 237.7C84.4658 238.78 76.5551 238.218 69.4225 237.786C64.2352 237.484 61.5118 239.471 60.3879 240.508C63.6732 242.323 74.1343 248.416 83.1257 250.144C82.7799 249.669 97.3045 239.903 93.3707 235.194ZM386.326 122.677C382.997 117.449 351.354 127.906 342.406 131.579C339.986 132.572 324.64 139.399 309.251 148.128C300.129 151.239 282.449 161.22 275.706 167.528C259.755 182.392 256.21 201.534 233.472 229.49C223.357 241.934 214.798 250.576 207.881 256.323C203.472 260.039 199.495 262.675 196.685 264.187C196.599 264.014 196.599 263.668 196.599 263.582V263.452C196.599 261.033 199.711 255.027 202.002 250.317C203.213 247.767 204.12 245.607 204.423 244.786C204.553 244.527 204.596 244.397 204.596 244.397C208.097 235.755 209.913 227.546 210.432 225.04C211.21 221.928 213.242 213.114 213.242 213.114C213.242 213.114 176.757 245.953 138.89 256.885C126.051 260.601 112.132 263.625 101.8 263.884C101.8 263.884 92.9817 263.496 92.3765 263.366C83.3419 261.94 72.7078 257.749 63.2842 247.724C62.0738 246.817 60.8634 245.823 59.653 244.743C60.0421 245.132 64.4081 251.699 69.7251 256.323C67.9528 256.539 65.3159 256.841 56.1516 255.502C27.8806 251.44 17.0736 231.478 14.869 225.083C14.6096 224.305 14.4367 223.7 14.4367 223.398C16.1226 222.879 17.2465 224.996 18.673 226.206C20.0996 227.416 23.8604 230.7 30.6904 231.996C37.5204 233.206 50.2293 235.28 59.7827 241.416C67.6934 246.212 87.3621 262.242 122.333 248.545C138.457 242.237 152.809 229.62 174.25 208.447C177.665 205.034 181.253 201.231 184.754 197.515C184.279 194.923 182.939 190.429 179.87 188.571C175.158 185.59 168.068 185.46 163.357 185.849C158.731 186.151 156.224 186.843 154.625 185.547C153.933 185.028 153.933 184.121 154.279 183.04C157.391 179.368 162.233 174.096 175.504 173.189C175.59 173.189 175.936 173.146 176.066 173.146C178.832 172.8 181.685 172.541 184.149 172.454C185.403 172.411 186.57 172.411 187.694 172.411C189.207 172.411 190.59 172.454 191.93 172.497C192.579 172.541 193.227 172.541 193.875 172.584C194.178 172.584 194.524 172.627 194.826 172.627C195.475 172.627 196.08 172.67 196.685 172.67C197.896 172.67 199.106 172.67 200.36 172.627C200.965 172.584 201.613 172.541 202.218 172.497C204.726 172.238 207.363 171.72 210.475 170.683C212.896 168.263 215.835 165.714 218.04 163.64C223.184 159.016 228.674 154.393 234.639 149.856C240.562 145.319 247.089 140.825 254.178 136.504C292.176 113.431 323.17 114.165 349.28 120.949C349.28 120.949 363.588 115.764 370.721 115.116C377.767 114.208 384.899 116.585 386.326 122.677ZM342.32 124.795C342.147 124.406 340.937 125.313 338.084 126.005C335.274 126.696 328.184 126.912 325.158 126.912C322.132 126.912 317.853 126.437 311.325 129.332C306.614 131.362 303.501 135.467 302.031 137.628C300.346 140.047 298.314 144.239 298.141 144.541C301.426 139.659 311.585 135.64 317.68 133.609C317.766 133.609 317.766 133.696 317.766 133.696C317.766 133.696 321.268 132.572 323.689 131.795C329.092 130.412 332.334 129.504 336.009 128.079C340.98 126.091 342.579 125.184 342.32 124.795Z" fill="#008E97"/>
</g>
<defs>
<clipPath id="clip0_257_11726">
<rect width="380" height="300" fill="white" transform="translate(10 50)"/>
</clipPath>
</defs>
</svg>
