<svg width="400" height="400" viewBox="0 0 400 400" fill="none" xmlns="http://www.w3.org/2000/svg">
<g clip-path="url(#clip0_257_11744)">
<path d="M323.02 220.904C321.573 219.121 319.175 217.831 315.748 217.11C316.091 215.593 316.319 213.961 316.205 212.216C316.966 211.875 317.766 211.457 318.527 211.04L319.061 210.736C320.507 209.978 321.459 208.536 321.573 206.905C321.878 202.769 320.279 196.965 315.52 192.033C316.281 190.857 316.928 189.491 317.043 187.86C317.233 185.811 316.624 182.814 312.969 180.121C308.438 176.858 307.676 174.582 306.496 171.167C306.382 170.864 306.268 170.522 306.153 170.181C313.578 163.845 315.329 153.867 312.398 146.773C311.712 145.104 310.189 143.966 308.362 143.852C308.248 143.852 308.171 143.852 308.057 143.852C306.382 143.852 304.783 144.8 303.983 146.242C302.803 148.291 301.585 149.846 300.366 150.908C295.417 139.451 288.83 129.17 280.72 120.33C272.572 111.453 262.864 103.865 251.898 97.9469C227.569 84.7445 203.849 82.7717 191.818 82.7717C189.838 82.7717 187.858 82.8476 185.917 82.9614C183.632 83.0752 181.843 84.8204 181.538 87.0208C181.31 88.69 180.891 91.156 180.358 93.2426C169.583 88.6521 165.661 78.3709 161.245 66.6101C158.732 59.971 156.105 53.0663 152.031 47.1859L151.955 47.11C148.109 41.7608 140.228 32.5039 130.786 30.7967C130.71 30.7208 130.672 30.7208 130.595 30.7208C130.253 30.7588 129.91 30.7588 129.567 30.7588C127.588 30.7588 125.76 31.5555 124.618 33.035C123.438 34.4387 122.981 36.2218 123.323 37.929C123.552 39.143 124.313 40.2053 125.303 40.8882C140.685 51.2832 142.284 69.721 143.845 87.5139C145.178 102.803 153.592 112.287 162.577 119.647C160.065 120.065 157.514 120.292 154.81 120.292C145.787 120.292 136.802 117.788 130.215 113.388C130.139 113.388 130.139 113.388 130.139 113.388C116.013 104.131 114.224 88.69 112.358 72.3008C111.559 65.0926 110.721 57.6568 108.741 50.6762C108.741 50.6003 108.665 50.5624 108.665 50.4865C106.266 42.8989 102.84 34.7043 95.6057 30.9484C94.4254 30.3414 93.169 30 91.9506 30C89.552 30 87.3818 31.214 86.468 33.1868C85.4781 34.9699 85.7065 37.2462 86.9249 38.9913C91.3415 45.2511 93.6259 51.2073 93.9685 57.1636C93.9685 62.7025 93.6259 68.4312 93.2832 74.008C92.2933 88.9556 91.3034 104.358 97.2429 118.775C97.2429 118.775 97.319 118.851 97.319 118.889C103.259 132.091 111.977 143.776 122.41 152.653C132.157 160.962 143.122 166.728 155.077 169.839C154.772 176.858 155.496 183.156 156.409 188.96C143.16 196.282 131.547 203.832 119.097 215.744C104.781 229.402 90.1992 247.954 73.2184 274.093C73.1041 274.207 72.9899 274.396 72.9138 274.548C71.6954 276.976 71.6954 279.594 72.9138 281.529C73.9037 283.16 75.7312 284.146 77.6349 284.146C79.5005 284.146 81.3281 283.35 83.1937 281.605C102.611 263.584 126.103 253.303 147.691 253.303C170.421 253.303 189.381 264.343 204.078 286.195C220.221 311.576 219.117 329.368 218.089 346.592L218.013 347.541C218.013 347.655 218.013 347.73 218.013 347.844C218.013 349.248 217.708 350.993 217.442 352.852C217.023 355.508 216.566 358.315 216.871 360.971C217.404 366.092 220.297 368.369 222.696 369.355C223.686 369.772 224.79 370 225.894 370C230.082 370 233.928 366.927 237.316 360.819C238.496 358.732 240.172 355.052 240.857 352.283C242.19 350.234 242.799 347.768 243.027 346.061C244.436 343.671 244.779 340.408 244.817 338.208C248.662 332.517 251.175 322.388 247.901 315.066C248.967 310.172 248.853 302.584 247.025 297.349C247.71 293.517 249.233 282.743 245.959 275.079C250.033 271.02 254.754 267.416 259.856 264.608C261.607 278.456 262.293 292.986 252.165 300.915C250.185 302.357 249.233 304.747 249.957 306.947C250.604 309.148 252.622 310.627 255.135 310.627C255.782 310.627 256.429 310.513 257.115 310.324C257.191 310.324 257.305 310.248 257.343 310.248C267.014 306.985 274.781 298.221 280.568 284.108C284.984 273.182 287.231 261.611 288.373 255.389C288.487 254.744 288.602 254.1 288.716 253.606C294.084 251.292 303.831 248.333 311.103 246.095C315.482 244.767 319.213 243.591 321.421 242.794H321.497C324.657 241.618 326.789 239.304 327.627 236.269C329.531 229.174 323.553 221.511 323.02 220.904ZM319.86 238.469C313.426 240.859 292.142 246.55 284.68 250.457C283.119 255.731 278.322 298.411 255.858 305.885C254.183 306.34 253.992 305.316 254.906 304.671C268.841 293.745 265.681 273.448 263.587 257.59C255.059 261.194 246.606 267.112 240.134 274.396C244.626 280.049 243.332 292.341 242.113 297.766C244.322 302.774 244.169 311.993 242.799 315.597C246.835 321.819 243.598 332.517 239.981 336.766C240.286 339.081 239.563 343.443 238.344 344.392C238.23 346.365 237.659 349.058 236.288 350.386C236.288 352.473 230.273 367.648 224.257 365.106C218.66 362.716 222.467 354.104 222.467 347.92C223.572 330.089 225.018 310.893 207.771 283.767C171.829 230.199 114.566 246.095 79.8051 278.304C76.8354 281.035 75.7693 278.949 76.8734 276.749C112.32 222.118 133.756 206.487 161.321 191.616C159.798 183.118 158.922 175.416 159.76 166.387C134.174 160.886 113.005 142.524 101.545 117.068C93.7782 98.3642 98.6897 77.1569 98.5755 57.1636C98.1567 49.3484 95.0346 42.5575 90.7704 36.3356C89.8947 35.1216 91.7222 34.0214 93.5878 35.0457C99.5273 38.1187 102.497 46.0478 104.363 51.8523C110.607 74.1598 105.01 102.348 127.702 117.181C138.896 124.693 155.039 126.894 168.517 123.062C168.974 122 169.85 120.254 170.459 119.761C160.026 111.984 149.975 102.955 148.604 87.0587C146.929 68.1656 145.178 48.5896 128.006 37.0185C127.816 36.3736 128.425 35.2354 130.062 35.4631C138.363 37.0185 145.635 46.1616 148.3 49.9174C159.722 66.4963 159.075 92.8632 183.366 99.1988C185.231 95.8982 186.297 87.6278 186.297 87.6278C219.65 85.8447 275.885 100.109 298.006 157.13C302.498 156.485 305.697 152.843 308.171 148.594C310.608 154.588 308.628 163.997 300.519 168.587C303.146 173.937 302.46 178.224 310.265 183.914C316.167 188.163 308.4 192.185 308.4 192.185C316.281 197.231 317.157 204.287 316.966 206.639C314.91 207.701 312.778 208.726 310.913 209.788C312.588 213.62 310.608 217.565 309.961 221.131C314.339 221.321 318.109 222.118 319.403 223.787C321.954 226.974 326.561 235.889 319.86 238.469ZM170.725 110.277C165.319 111.149 162.082 107.128 158.694 102.613C148.833 89.5247 155.001 74.7668 143.693 50.0692C154.087 57.7326 159.075 93.4323 175.18 99.2368C178.416 100.375 177.084 108.911 170.725 110.277ZM228.521 167.791C216.985 185.128 203.735 160.81 174.456 162.1C149.594 163.276 129.377 150.605 112.853 130.27C100.746 115.322 97.4333 86.8311 101.888 64.2959C107.18 106.559 115.404 112.819 126.636 120.899C150.432 138.047 189.267 119.572 211.502 127.045C240.248 135.468 235.412 157.509 228.521 167.791Z" fill="white"/>
<path d="M319.326 223.75C318.032 222.081 314.262 221.246 309.884 221.095C310.531 217.566 312.511 213.583 310.836 209.751C312.701 208.689 314.872 207.665 316.889 206.602C317.08 204.212 316.204 197.194 308.323 192.148C308.323 192.148 316.09 188.127 310.188 183.878C302.383 178.187 303.069 173.9 300.442 168.551C308.551 163.96 310.531 154.551 308.094 148.557C305.658 152.806 302.421 156.448 297.929 157.093C275.808 100.073 219.611 85.77 186.22 87.591C186.22 87.591 185.154 95.8615 183.289 99.1621C159.036 92.8264 159.683 66.4595 148.223 49.8806C145.558 46.0868 138.247 36.9817 129.985 35.4263C128.348 35.1986 127.777 36.3747 127.929 36.9817C145.063 48.5528 146.814 68.1288 148.527 87.0219C149.936 102.956 159.949 111.947 170.382 119.724C169.811 120.256 168.935 122.001 168.44 123.025C154.962 126.857 138.819 124.656 127.625 117.145C105.009 102.349 110.606 74.1609 104.362 51.8534C102.496 46.0489 99.5265 38.1199 93.587 35.0469C91.7214 33.9846 89.8938 35.1228 90.7695 36.3368C95.0338 42.5586 98.1558 49.3495 98.5746 57.1268C98.6888 77.1201 93.7773 98.3274 101.544 117.031C112.966 142.487 134.135 160.849 159.873 166.274C159.074 175.266 159.949 183.005 161.434 191.503C133.831 206.375 112.433 222.005 76.9868 276.636C75.8827 278.836 76.9107 280.923 79.9185 278.191C114.68 245.982 171.943 230.086 207.884 283.654C225.132 310.78 223.685 329.977 222.581 347.807C222.581 354.029 218.773 362.641 224.37 364.993C230.386 367.535 236.402 352.398 236.402 350.273C237.734 348.946 238.343 346.252 238.458 344.279C239.676 343.331 240.399 339.006 240.095 336.654C243.712 332.405 246.91 321.706 242.912 315.484C244.245 311.88 244.435 302.623 242.227 297.653C243.445 292.266 244.74 279.936 240.247 274.284C246.72 267.038 255.172 261.081 263.7 257.477C265.794 273.335 268.955 293.632 255.02 304.558C254.068 305.203 254.258 306.227 255.971 305.772C278.435 298.26 283.194 255.618 284.793 250.345C292.256 246.437 313.539 240.747 319.973 238.356C326.56 235.89 321.953 226.975 319.326 223.75ZM307.599 185.243C310.15 186.04 308.818 188.051 308.818 188.051C304.211 189.151 295.187 193.514 293.664 190.479C292.37 187.823 298.386 187.406 299.452 186.078C299.985 185.395 299.528 184.143 298.119 183.878C294.807 183.953 292.979 183.991 291.647 184.409C288.829 186.723 289.096 192.489 290.314 194.348C284.26 197.156 278.245 203.226 274.818 206.906C273.257 199.015 279.082 193.362 284.831 189.303C286.164 188.089 285.364 180.122 284.298 176.062C283.232 175.607 281.367 176.062 281.214 175.114C281.214 174.241 288.448 174.052 291.494 173.938C290.733 168.93 296.748 168.133 298.424 170.979C300.67 175.759 300.67 182.891 307.599 185.243ZM306.038 155.538C305.696 159.332 303.183 162.746 299.756 164.719C290.124 168.892 277.293 162.746 268.498 168.778C268.612 165.516 270.287 160.925 275.313 160.584C287.953 160.052 296.939 164.15 306.038 155.538ZM292.675 157.093C275.427 156.221 256.504 158.838 240.818 163.543C238.419 187.709 209.788 196.776 192.997 178.263C192.997 178.263 186.715 179.666 167.45 188.392C165.128 185.205 163.072 177.542 166.765 175.797C171.714 173.065 175.522 170.865 180.7 169.651C185.002 168.664 191.969 170.865 195.358 171.813C214.433 183.195 233.851 183.498 238.762 149.657C238.762 149.657 263.434 143.625 286.697 145.181C286.659 145.143 290.352 150.189 292.675 157.093ZM165.318 171.624V167.45L172.552 168.513C170.306 169.12 167.831 170.41 165.318 171.624ZM189.457 90.8536C263.053 92.7126 284.336 141.311 284.336 141.311C270.211 140.135 252.088 142.753 237.81 145.788C230.157 126.477 218.621 118.586 174.57 122.38C180.585 111.378 187.934 104.17 189.457 90.8536ZM158.731 102.576C148.87 89.4879 155.038 74.73 143.73 50.0324C154.124 57.6959 159.112 93.3955 175.217 99.2C178.415 100.376 177.083 108.912 170.724 110.24C165.318 111.15 162.082 107.129 158.731 102.576ZM112.852 130.271C100.745 115.324 97.4324 86.8322 101.887 64.2971C107.179 106.56 115.403 112.82 126.635 120.901C150.431 138.048 189.266 119.573 211.501 127.046C240.247 135.469 235.412 157.511 228.52 167.792C216.984 185.129 203.734 160.811 174.456 162.101C149.632 163.277 129.376 150.606 112.852 130.271ZM105.39 255.011C98.3462 259.791 92.7874 263.775 85.8961 270.604C85.2488 271.059 84.9442 270.262 85.5915 269.503C127.587 207.096 177.578 187.102 189.761 184.029C192.084 183.574 191.855 184.826 190.942 185.471C167.945 194.31 129.757 216.959 113.423 244.502C110.949 248.638 108.969 252.659 105.39 255.011ZM137.029 245.489C128.234 247.993 120.886 249.89 113.233 252.621C112.548 252.925 111.444 252.735 111.824 251.862C129.833 219.539 162.843 200.153 194.635 186.381C195.587 185.926 196.196 187.026 195.434 187.33C171.943 198.787 154.886 221.512 140.684 242.833C140.342 243.364 138.286 245.147 137.029 245.489ZM145.52 244.73C144.301 244.275 144.415 242.947 144.72 242.188C159.873 223.712 171.714 200.153 194.825 190.706C196.614 190.175 199.089 188.923 200.993 189.644C205.486 191.503 213.062 194.31 222.467 191.807C241.085 186.04 243.445 168.095 243.445 168.095C248.052 166.919 252.659 165.478 257.685 164.946C252.278 196.094 208.76 208.954 207.047 241.543C194.102 244.047 177.996 233.994 175.56 218.932C172.362 225.344 168.021 232.893 160.521 239.457C156.218 242.833 149.898 246.134 145.52 244.73ZM230.119 283.616C227.302 281.302 224.751 278.609 221.324 277.584C220.906 265.482 229.244 251.786 232.061 247.537C233.127 245.868 234.231 246.968 234.802 249.169C240.818 267.569 231.604 275.308 230.119 283.616ZM238.077 276.636C241.047 278.495 239.486 293.67 236.211 301.447C233.889 298.147 231.147 295.339 229.662 293.822C231.718 288.928 236.706 275.991 238.077 276.636ZM233.013 216.314C232.556 216.542 232.594 219.843 232.594 219.843C232.708 244.996 219.306 250.231 219.421 265.596C216.756 263.433 213.253 260.436 209.788 259.071C203.734 235.359 233.051 203.909 234.688 205.312C235.412 206.109 233.66 215.783 233.013 216.314ZM159.112 244.351C166.117 239.988 171.372 232.476 174.113 226.861C174.874 228.834 176.093 230.996 176.854 232.893C173.313 237.256 168.097 243.25 162.843 245.147C160.939 245.489 157.894 245.565 159.112 244.351ZM193.645 260.967C185.497 253.987 176.74 249.586 166.803 246.665C170.648 243.857 175.788 239.153 178.834 235.208C179.367 235.663 180.052 236.497 180.471 236.877C180.129 246.855 185.192 254.67 193.987 259.26C195.396 259.905 194.482 261.764 193.645 260.967ZM184.012 239.912C191.018 244.692 198.48 246.779 206.399 246.248V257.629C184.431 255.087 184.012 239.912 184.012 239.912ZM206.818 274.018C204.496 272.614 195.092 263.889 198.518 261.119C202.211 257.325 218.393 268.1 218.393 268.1C218.202 270.717 217.593 273.221 217.936 275.953C217.974 275.953 209.331 275.725 206.818 274.018ZM213.71 286.044C212.491 283.844 210.169 281.15 211.501 279.405C213.672 277.433 223.533 280.809 228.596 286.31C228.025 288.738 227.302 290.483 226.807 292.987C221.743 292.228 216.337 291.28 213.71 286.044ZM222.276 303.079C221.21 301.22 219.649 296.971 221.324 295.567C223.38 294.391 232.061 298.64 234.955 303.875C235.412 305.089 233.013 309.566 232.099 309.756C231.262 310.173 223.685 306.455 222.276 303.079ZM235.83 321.061C235.83 322.844 234.307 325.234 233.546 325.196C232.594 325.5 225.512 321.365 224.979 317.305C224.561 315.219 224.332 311.387 225.398 310.97C227.378 310.363 234.231 316.698 235.83 321.061ZM225.132 362.679C222.923 361.465 224.18 356.571 225.779 353.915C227.112 354.788 228.178 356.343 229.472 357.633C228.939 358.885 227.302 363.514 225.132 362.679ZM230.69 355.054C228.825 353.119 228.178 351.525 225.779 350.046C225.017 349.287 225.665 347.39 226.312 347.542C228.178 348.414 230.995 351.449 231.718 354.067C231.909 354.712 231.376 355.509 230.69 355.054ZM232.67 350.387C230.919 348.111 228.596 345.797 226.426 343.938C225.436 343.369 226.54 341.434 227.645 341.737C230.272 342.61 232.442 346.328 233.584 349.249C233.774 350.16 232.975 350.691 232.67 350.387ZM234.46 345.341C233.508 343.141 228.901 338.551 226.35 336.274C224.941 335.212 227.34 332.898 228.292 333.657C232.252 336.692 236.973 343.255 234.46 345.341ZM235.983 339.954C234.117 335.591 230.919 331.57 226.959 328.952C225.551 328.156 225.741 324.817 226.959 325.121C231.642 326.676 236.249 332.329 237.277 336.995C237.734 338.664 236.744 341.32 235.983 339.954ZM241.351 319.468C242.874 320.568 241.694 328.763 238.952 332.443L235.526 327.738C237.391 324.817 240.323 318.823 241.351 319.468ZM240.323 301.827C241.884 302.623 240.247 314.27 237.391 318.785C236.744 316.053 235.107 314.536 234.307 312.032C234.955 311.121 239.371 301.523 240.323 301.827ZM240.019 270.376C242.531 259.981 238.458 250.8 234.612 242.264C236.021 235.511 236.249 229.896 237.125 223.143C237.658 221.702 239.447 221.398 240.057 222.385C241.922 237.446 248.09 242.681 261.53 242.036L262.482 252.166C253.839 255.656 246.605 262.978 240.019 270.376ZM261.721 237.256C249.232 240.974 242.113 233.349 243.217 216.277C241.694 213.886 237.658 219.312 237.163 217.604C237.049 199.66 244.93 198.787 247.938 194.424C250.87 194.842 254.106 195.866 255.705 198.028C260.54 205.54 259.322 214.607 262.254 223.029C262.939 224.547 264.348 223.029 264.348 223.029C261.188 211.458 264.652 195.069 250.527 190.175C256.2 182.436 258.408 173.976 260.807 164.909C261.759 163.846 263.738 163.619 264.766 164.036C264.348 167.564 262.901 170.713 263.434 174.772C263.738 177.2 268.383 171.851 271.087 170.599C274.894 168.664 280.986 169.158 286.316 169.916C287.42 170.106 287.268 171.13 286.126 171.32C280.986 171.851 273.067 172.876 272.648 175.114C272.648 176.745 278.587 178.414 282.166 178.528C282.699 180.463 283.232 182.815 282.928 185.092C276.265 188.24 267.889 196.549 272.61 210.244C267.432 217.946 264.043 227.696 261.721 237.256ZM284.298 241.505C278.625 258.691 276.074 281.53 268.726 291.47C268.612 291.659 268.193 291.659 268.383 291.242C277.026 274.094 275.427 258.653 280.529 242.15C280.757 241.505 280.072 240.709 279.539 241.619C273.752 249.169 272.724 279.329 267.889 288.624C267.698 288.966 267.203 289.042 267.355 288.321C273.181 266.544 268.574 245.565 277.635 228.796C277.978 228.227 276.95 227.241 276.074 228.265C272.115 235.397 267.508 249.89 268.802 267.151C268.917 268.138 268.117 268.252 268.003 267.227C265.49 247.12 263.51 227.051 277.75 209.675C283.689 202.353 292.675 195.6 298.69 194.045C312.816 191.086 314.795 204.326 314.795 204.326C298.043 209.106 289.134 226.975 284.298 241.505ZM288.943 242.985C288.144 242.454 288.182 240.784 289.019 240.481C293.931 239.077 307.866 235.966 308.551 237.446C308.78 237.939 289.933 243.516 288.943 242.985ZM319.402 234.297C308.97 233.766 298.995 234.866 290.009 236.801C291.761 226.634 305.353 211.117 308.094 212.634C310.645 214.038 305.048 221.284 308.209 223.485C310.607 224.888 313.387 223.94 315.366 224.699C319.821 226.709 320.849 233.88 319.402 234.297Z" fill="black"/>
<path d="M286.66 145.142C263.397 143.586 238.725 149.618 238.725 149.618C233.813 183.459 214.396 183.155 195.321 171.774C191.932 170.826 185.003 168.625 180.662 169.612C175.484 170.826 171.677 173.026 166.727 175.758C163.034 177.503 165.09 185.166 167.413 188.353C186.678 179.627 192.96 178.223 192.96 178.223C209.751 196.775 238.382 187.708 240.781 163.504C256.467 158.799 275.352 156.182 292.637 157.054C290.353 150.187 286.66 145.142 286.66 145.142Z" fill="#4F2683"/>
<path d="M272.572 210.205C267.432 217.945 264.044 227.695 261.721 237.217C249.233 240.935 242.113 233.309 243.218 216.237C241.695 213.847 237.659 219.272 237.164 217.565C237.05 199.621 244.931 198.748 247.939 194.385C250.87 194.802 254.107 195.827 255.706 197.989C260.541 205.501 259.323 214.568 262.254 222.99C262.94 224.508 264.348 222.99 264.348 222.99C261.188 211.419 264.653 195.03 250.528 190.136C256.201 182.397 258.409 173.937 260.808 164.869C261.759 163.807 263.739 163.579 264.767 163.997C264.348 167.525 262.902 170.674 263.435 174.733C263.739 177.161 268.384 171.812 271.088 170.56C274.895 168.625 280.987 169.118 286.317 169.877C287.421 170.067 287.269 171.091 286.127 171.281C280.987 171.812 273.067 172.836 272.649 175.075C272.649 176.706 278.588 178.375 282.167 178.489C282.7 180.424 283.233 182.776 282.928 185.052C276.227 188.201 267.851 196.51 272.572 210.205ZM240.019 222.383C239.448 221.397 237.621 221.7 237.088 223.142C236.212 229.895 235.984 235.51 234.575 242.263C238.42 250.799 242.494 259.98 239.981 270.375C246.568 262.977 253.802 255.655 262.369 252.127L261.417 241.997C248.053 242.642 241.885 237.407 240.019 222.383ZM315.367 224.698C313.387 223.939 310.57 224.887 308.209 223.484C305.049 221.283 310.646 213.999 308.095 212.633C305.354 211.116 291.762 226.632 290.01 236.8C298.996 234.865 308.971 233.765 319.403 234.296C320.85 233.879 319.822 226.708 315.367 224.698ZM289.02 240.48C288.221 240.783 288.145 242.453 288.944 242.984C289.934 243.515 308.781 237.938 308.552 237.445C307.867 235.965 293.894 239.114 289.02 240.48ZM291.647 184.369C292.98 183.952 294.807 183.914 298.12 183.838C299.529 184.142 299.986 185.356 299.452 186.039C298.386 187.367 292.409 187.784 293.665 190.44C295.188 193.475 304.212 189.112 308.819 188.012C308.819 188.012 310.151 186.039 307.6 185.204C300.671 182.89 300.671 175.72 298.386 170.902C296.711 168.056 290.696 168.853 291.457 173.861C288.411 173.974 281.177 174.164 281.177 175.037C281.367 175.985 283.233 175.492 284.261 175.985C285.327 180.045 286.127 188.012 284.794 189.226C279.007 193.285 273.182 198.938 274.781 206.829C278.207 203.149 284.223 197.079 290.277 194.271C289.058 192.45 288.83 186.684 291.647 184.369Z" fill="#EEC6A5"/>
<path d="M184.013 239.911C191.019 244.691 198.481 246.778 206.4 246.246V257.628C184.432 255.086 184.013 239.911 184.013 239.911ZM193.988 259.259C185.193 254.669 180.091 246.891 180.472 236.876C180.053 236.458 179.368 235.662 178.835 235.207C175.789 239.152 170.687 243.856 166.804 246.664C176.703 249.585 185.46 253.986 193.646 260.966C194.483 261.763 195.397 259.904 193.988 259.259ZM176.855 232.892C176.094 230.957 174.875 228.833 174.114 226.86C171.373 232.513 166.118 239.987 159.113 244.35C157.894 245.564 160.902 245.526 162.844 245.146C168.098 243.211 173.314 237.255 176.855 232.892ZM218.432 268.099C218.432 268.099 202.212 257.362 198.557 261.118C195.131 263.926 204.497 272.613 206.857 274.017C209.37 275.686 218.013 275.952 218.013 275.952C217.632 273.22 218.279 270.716 218.432 268.099ZM240.324 301.826C239.372 301.522 234.956 311.12 234.308 312.069C235.108 314.573 236.745 316.09 237.392 318.822C240.248 314.231 241.885 302.622 240.324 301.826ZM225.361 310.931C224.295 311.348 224.562 315.18 224.942 317.266C225.475 321.326 232.595 325.461 233.509 325.157C234.27 325.233 235.793 322.843 235.793 321.022C234.232 316.697 227.379 310.362 225.361 310.931ZM195.473 187.329C196.235 187.025 195.587 185.925 194.674 186.38C162.882 200.152 129.872 219.576 111.863 251.861C111.444 252.734 112.549 252.924 113.272 252.62C120.925 249.889 128.273 247.954 137.068 245.488C138.363 245.146 140.38 243.325 140.761 242.832C154.925 221.511 171.944 198.786 195.473 187.329ZM237.811 145.787C252.089 142.752 270.25 140.134 284.337 141.31C284.337 141.31 263.054 92.7115 189.458 90.8525C187.935 104.169 180.586 111.377 174.571 122.341C218.622 118.585 230.158 126.476 237.811 145.787ZM275.314 160.583C270.288 160.924 268.613 165.514 268.499 168.777C277.294 162.745 290.124 168.891 299.757 164.718C303.184 162.745 305.697 159.331 306.039 155.537C296.94 164.149 287.954 160.051 275.314 160.583ZM165.319 167.449V171.622C167.832 170.408 170.345 169.119 172.553 168.474L165.319 167.449ZM190.98 185.47C191.932 184.825 192.161 183.535 189.8 184.028C177.617 187.101 127.626 207.094 85.6305 269.502C84.9832 270.261 85.2878 271.058 85.9351 270.603C92.8264 263.812 98.3471 259.79 105.429 255.01C108.97 252.62 110.988 248.599 113.462 244.501C129.796 216.958 167.984 194.309 190.98 185.47ZM238.078 276.635C236.669 275.99 231.719 288.889 229.663 293.821C231.11 295.338 233.852 298.108 236.212 301.446C239.486 293.669 241.086 278.494 238.078 276.635ZM227.645 341.736C226.541 341.433 225.437 343.368 226.427 343.937C228.597 345.796 230.92 348.11 232.671 350.386C232.976 350.69 233.775 350.159 233.623 349.21C232.443 346.327 230.273 342.609 227.645 341.736ZM226.96 325.119C225.742 324.816 225.551 328.155 226.96 328.951C230.92 331.569 234.118 335.59 235.984 339.953C236.745 341.357 237.735 338.663 237.278 336.994C236.212 332.328 231.605 326.675 226.96 325.119ZM241.352 319.467C240.286 318.822 237.392 324.816 235.527 327.737L238.953 332.442C241.695 328.762 242.875 320.567 241.352 319.467ZM228.293 333.656C227.341 332.897 224.98 335.211 226.351 336.273C228.902 338.55 233.509 343.14 234.461 345.34C236.974 343.254 232.252 336.691 228.293 333.656ZM222.467 191.805C213.063 194.309 205.487 191.502 200.994 189.643C199.052 188.884 196.615 190.174 194.826 190.705C171.715 200.19 159.874 223.711 144.721 242.187C144.416 242.946 144.302 244.274 145.52 244.729C149.899 246.133 156.181 242.794 160.521 239.456C168.06 232.892 172.362 225.343 175.561 218.931C177.997 233.992 194.103 244.046 207.048 241.542C208.723 208.953 252.241 196.092 257.686 164.945C252.66 165.477 248.053 166.918 243.446 168.094C243.446 168.094 241.086 186.039 222.467 191.805ZM298.577 194.082C292.561 195.637 283.576 202.39 277.636 209.712C263.397 227.088 265.377 247.157 267.889 267.264C268.004 268.326 268.841 268.213 268.689 267.188C267.394 249.926 272.001 235.472 275.961 228.302C276.837 227.24 277.903 228.226 277.522 228.833C268.499 245.564 273.106 266.543 267.242 288.358C267.052 289.04 267.585 289.003 267.775 288.661C272.611 279.366 273.677 249.206 279.426 241.656C279.959 240.708 280.644 241.542 280.416 242.187C275.352 258.69 276.913 274.169 268.27 291.279C268.08 291.696 268.499 291.696 268.613 291.506C275.961 281.567 278.512 258.728 284.185 241.542C289.02 227.012 297.968 209.181 314.568 204.401C314.682 204.363 312.702 191.085 298.577 194.082ZM228.597 286.347C223.534 280.808 213.672 277.469 211.502 279.442C210.17 281.187 212.492 283.843 213.711 286.081C216.338 291.317 221.744 292.227 226.77 293.062C227.303 290.52 227.988 288.775 228.597 286.347ZM209.789 259.107C213.216 260.435 216.718 263.47 219.422 265.633C219.307 250.306 232.709 245.07 232.595 219.88C232.595 219.88 232.519 216.579 233.014 216.351C233.661 215.82 235.413 206.108 234.689 205.349C233.09 203.946 203.735 235.396 209.789 259.107ZM232.024 247.536C229.207 251.785 220.868 265.481 221.287 277.583C224.714 278.645 227.303 281.301 230.082 283.615C231.605 275.307 240.819 267.568 234.765 249.168C234.194 246.967 233.09 245.829 232.024 247.536ZM232.138 309.755C233.09 309.565 235.451 305.088 234.994 303.874C232.062 298.639 223.381 294.39 221.363 295.566C219.688 296.97 221.249 301.219 222.315 303.078C223.686 306.454 231.263 310.172 232.138 309.755ZM225.78 353.876C224.219 356.532 222.924 361.426 225.133 362.64C227.303 363.513 228.94 358.846 229.435 357.594C228.179 356.342 227.112 354.749 225.78 353.876ZM226.313 347.541C225.666 347.351 225.018 349.286 225.78 350.045C228.179 351.486 228.826 353.118 230.691 355.053C231.377 355.508 231.91 354.711 231.757 354.066C230.996 351.448 228.179 348.413 226.313 347.541Z" fill="#EEBF1B"/>
</g>
<defs>
<clipPath id="clip0_257_11744">
<rect width="256" height="340" fill="white" transform="translate(72 30)"/>
</clipPath>
</defs>
</svg>
