<svg width="400" height="400" viewBox="0 0 400 400" fill="none" xmlns="http://www.w3.org/2000/svg">
<g clip-path="url(#clip0_257_11736)">
<path d="M394.901 134.17C394.004 133.122 392.734 132.56 391.426 132.56C391.127 132.56 390.79 132.598 390.491 132.673C384.811 133.871 379.542 134.432 374.384 134.432C360.109 134.432 348.449 129.902 334.921 124.698C326.774 121.553 317.506 117.996 306.668 115.039C294.224 111.669 281.517 109.61 267.802 108.749C259.917 108.262 251.957 108 244.184 108C227.815 108 211.746 109.048 195.078 111.257H195.041C181.176 113.204 166.34 116.05 149.673 119.906C134.874 123.35 119.963 127.319 105.538 131.138C74.6691 139.3 42.717 147.761 7.96195 152.478C5.71969 152.778 4.038 154.687 4.00062 156.971C3.96325 159.255 5.60758 161.202 7.84983 161.576C21.0792 163.748 34.7943 164.871 48.5468 164.871C63.9063 164.871 79.9385 163.523 97.5028 160.752C112.9 158.319 127.325 155.174 141.302 152.141C160.735 147.911 179.084 143.905 195.901 142.894L199.413 142.744C200.908 142.707 202.366 142.669 203.786 142.669C204.459 142.669 205.094 142.669 205.767 142.669C203.861 142.931 201.917 143.268 199.974 143.643C199.937 143.643 199.937 143.643 199.899 143.643C188.725 145.889 177.813 148.884 166.265 152.066C143.843 158.244 120.635 164.609 94.5131 165.32C92.1588 165.395 90.2528 167.192 90.066 169.551C89.8791 171.909 91.4861 174.006 93.8031 174.455C108.49 177.226 122.691 178.574 137.228 178.574C156.175 178.574 172.544 176.252 186.969 174.193C192.051 173.482 196.872 172.808 201.581 172.246L205.654 171.835C211.148 171.273 215.894 171.011 220.229 171.011C225.797 171.011 230.955 171.46 235.888 172.434C230.394 172.696 224.863 173.295 219.22 174.193C211.895 175.354 205.318 176.889 198.928 178.349C190.93 180.221 183.344 181.943 175.272 182.767C173.067 182.992 171.348 184.789 171.161 186.998C170.974 189.244 172.394 191.266 174.562 191.827C255.582 213.13 289.179 256.373 311.414 285.014C313.395 287.598 315.263 289.994 317.095 292.278C317.992 293.401 319.3 294 320.682 294C321.28 294 321.878 293.888 322.476 293.626C327.147 291.679 330.959 289.021 333.874 285.726C336.453 282.806 338.284 279.399 339.144 275.842C340.19 271.649 339.854 267.418 338.359 264.123L341.348 257.721C341.61 257.159 341.722 256.56 341.76 255.924L341.834 253.228L350.018 249.409C351.812 248.548 352.896 246.639 352.634 244.655L349.682 221.367L366.499 214.441C367.695 213.917 368.629 212.943 369.078 211.745L395.723 138.738C396.284 137.165 395.985 135.406 394.901 134.17ZM8.78411 157.046C76.7245 147.836 128.521 125.335 191.715 116.349H191.752L195.863 138.326C145.674 141.284 85.4694 169.738 8.78411 157.046ZM94.8868 170C134.911 168.914 164.883 155.473 197.881 148.884L201.282 167.716C173.515 171.011 141.264 178.761 94.8868 170ZM391.575 137.203L364.967 210.06L364.93 210.173L344.861 218.409L348.262 245.179L337.537 250.196L337.35 255.737L333.351 264.348C337.238 269.103 336.49 282.319 321.579 289.021C321.355 289.133 321.093 289.245 320.869 289.32C298.596 261.428 265.71 210.996 175.907 187.372C175.944 187.372 175.982 187.372 176.019 187.372C175.982 187.372 175.944 187.372 175.907 187.335C201.319 184.789 221.238 173.407 262.01 177.825C242.502 165.919 224.527 165.208 204.272 167.417L201.058 148.248V148.21C213.764 145.851 226.769 144.616 241.232 145.552C228.077 139.562 214.212 137.69 199.451 138.214L195.863 115.862V115.825C217.987 112.942 241.531 111.744 267.69 113.354C331.856 117.322 346.468 146.525 391.575 137.203ZM349.981 163.036L367.919 169.775L351.102 174.006L352.747 195.496L338.247 177.338H338.209L316.497 182.467L329.913 166.78L318.851 152.066L337.387 158.469L348.187 147.087L349.981 163.036Z" fill="white"/>
<path d="M201.282 167.716C173.515 171.011 141.264 178.761 94.8869 170C134.911 168.914 164.883 155.473 197.881 148.884L201.282 167.716ZM191.715 116.349C128.521 125.334 76.7246 147.836 8.78418 157.046C85.4694 169.738 145.674 141.284 195.863 138.326L191.715 116.349Z" fill="#EF293D"/>
<path d="M391.575 137.203C346.468 146.6 331.856 117.36 267.69 113.391C241.493 111.782 217.949 112.98 195.863 115.862L199.451 138.214C214.25 137.69 228.152 139.562 241.344 145.59C226.844 144.654 213.801 145.889 201.058 148.248L204.272 167.417C224.564 165.208 242.539 165.919 262.084 177.862C221.275 173.407 201.319 184.826 175.907 187.372C265.709 210.997 298.596 261.428 320.869 289.358C336.453 282.731 337.312 269.178 333.351 264.348L337.35 255.737L337.536 250.196L348.262 245.179L344.861 218.41L364.929 210.173L391.575 137.203ZM327.521 239.9L324.905 242.82L332.603 246.489L332.342 250.795L324.83 250.383L314.89 257.16L324.681 255.4L333.314 255.887L330.137 261.465L323.186 261.053L329.277 268.616C331.408 271.274 329.352 278.725 322.924 281.42C310.256 264.91 297.811 246.04 273.52 229.005C280.097 221.105 288.73 226.122 296.989 233.198L306.107 246.489L303.23 229.791L280.957 211.483C284.993 198.529 313.694 199.278 319.598 207.552C309.097 206.242 303.566 209.873 300.016 217.923L325.241 219.42C327.297 211.296 332.006 208.338 337.649 209.012L341.759 240.798L327.521 239.9ZM338.246 177.338L316.497 182.468L329.913 166.78L318.851 152.067L337.387 158.469L348.187 147.087L349.981 163.036L367.919 169.776L351.102 174.006L352.746 195.497L338.246 177.338Z" fill="#0C2E59"/>
<path d="M314.89 257.16L324.83 250.383L332.342 250.795L332.604 246.489L324.905 242.82L327.521 239.9L341.759 240.798L337.649 209.012C332.006 208.338 327.297 211.296 325.241 219.42L300.016 217.923C303.566 209.873 309.097 206.242 319.598 207.552C313.694 199.278 284.993 198.529 280.957 211.483L303.23 229.791L306.108 246.489L296.989 233.198C288.73 226.122 280.097 221.105 273.52 229.005C297.811 246.04 310.256 264.91 322.924 281.42C329.352 278.725 331.408 271.274 329.278 268.616L323.186 261.053L330.137 261.465L333.314 255.887L324.681 255.4L314.89 257.16Z" fill="#D3D3D3"/>
</g>
<defs>
<clipPath id="clip0_257_11736">
<rect width="392" height="186" fill="white" transform="translate(4 108)"/>
</clipPath>
</defs>
</svg>
