<svg width="400" height="400" viewBox="0 0 400 400" fill="none" xmlns="http://www.w3.org/2000/svg">
<g clip-path="url(#clip0_257_11739)">
<path d="M317.055 163.36C290.482 147.864 264.332 151.463 244.476 160.312C243.589 153.792 241.899 146.594 239.068 138.211C234.844 125.721 230.239 113.781 226.183 103.239C220.86 89.3939 216.762 77.5389 214.523 69.6215L200.117 20L185.077 69.7062C182.796 77.6236 178.825 89.5209 173.502 103.366C169.446 113.908 164.884 125.848 160.701 138.338C157.871 146.764 156.181 153.919 155.336 160.481C135.48 151.675 109.329 148.118 82.7564 163.657C61.084 176.359 49.4662 198.46 52.4657 221.323C55.2117 242.111 69.4065 258.497 89.5158 264.001L104.471 268.108L108.147 252.993C108.696 250.96 114.061 232.035 131.086 232.373C142.873 232.627 152.674 243.085 157.575 249.817C155.97 254.601 155.125 260.317 155.97 266.499L149.295 257.607L137.254 266.583C126.397 274.67 110.639 294.697 120.398 318.322C124.665 328.61 133.79 335.639 146.084 338.094C153.604 339.618 162.18 339.237 170.122 337.502C173.248 347.536 178.952 359.687 189.302 370.568L200.202 382L211.101 370.526C221.452 359.645 227.07 347.494 230.197 337.417C238.139 339.153 246.673 339.449 254.235 337.925C266.571 335.469 275.654 328.399 279.878 318.11C289.553 294.443 273.753 274.501 262.895 266.414L250.813 257.438L244.18 266.372C244.983 260.19 244.096 254.474 242.533 249.69C247.391 242.916 257.192 232.458 268.979 232.162C286.004 231.781 291.454 250.706 292.003 252.866L295.679 267.981L310.634 263.704C330.743 258.116 344.896 241.73 347.557 220.942C350.472 198.121 338.812 176.02 317.055 163.36ZM337.376 219.672C335.221 236.311 323.941 249.394 307.888 253.882L303.114 255.194L301.931 250.367C301.635 249.182 294.411 221.365 268.768 221.958C248.151 222.424 234.675 242.577 231.041 248.759C232.816 251.976 234.252 256.422 234.252 261.545C234.252 267.007 232.393 273.188 227.746 279.37C229.605 281.91 232.731 285.043 236.322 285.34C241.476 285.763 246.63 280.301 250.095 275.686L252.967 271.833L256.812 274.713C264.712 280.598 277.724 296.39 270.415 314.257C267.5 321.37 261.205 326.112 252.249 327.933C242.955 329.796 231.21 328.145 222.888 324.376C221.325 333.818 216.762 349.738 203.708 363.498L200.202 367.139L196.695 363.498C183.599 349.78 179.036 333.818 177.431 324.419C169.108 328.229 157.364 329.88 148.069 328.06C139.071 326.282 132.776 321.582 129.861 314.427C122.51 296.602 135.48 280.725 143.38 274.84L147.224 271.96L150.097 275.813C153.561 280.428 158.758 285.848 163.87 285.424C167.461 285.128 170.587 281.995 172.446 279.455C167.714 273.231 165.855 267.049 165.855 261.587C165.855 256.507 167.292 252.061 169.024 248.843C165.39 242.662 151.872 222.551 131.255 222.127C105.612 221.619 98.4298 249.436 98.1341 250.622L96.9512 255.448L92.1774 254.136C76.1237 249.732 64.7594 236.65 62.6049 220.01C60.1546 201.339 69.8712 183.133 87.9527 172.548C120.482 153.495 150.351 167.721 165.475 178.137C165.179 175.554 164.841 173.014 164.841 170.389C164.841 162.175 166.447 153.411 170.376 141.598C174.473 129.32 179.036 117.507 183.007 107.049C188.499 92.7811 193.231 80.4604 195.047 71.8232L199.821 49.6374L204.553 71.8232C206.412 80.4604 211.143 92.7811 216.678 107.049C220.691 117.465 225.254 129.277 229.394 141.513C233.365 153.284 234.97 162.217 234.97 170.516C234.97 173.056 234.675 175.554 234.379 178.052C249.503 167.594 279.329 153.241 311.943 172.252C330.025 182.794 339.784 200.958 337.376 219.672ZM309.493 176.401C265.641 150.828 227.408 189.78 227.408 189.78C230.957 175.215 231.971 164.292 224.789 143.038C215.072 114.162 203.159 88.3778 199.821 72.797C196.526 88.3778 184.655 114.205 174.98 143.08C167.841 164.377 168.897 175.258 172.488 189.822C172.488 189.822 134.17 150.955 90.3608 176.613C55.8454 196.851 62.0134 240.714 93.4448 249.351C93.4448 249.351 101.387 216.581 131.34 217.174C157.364 217.682 173.629 246.049 174.6 248.928C174.6 248.928 163.658 263.239 178.318 279.073C178.318 279.073 165.475 304.392 146.211 278.608C146.211 278.608 126.397 293.384 134.255 312.479C141.437 329.838 173.164 324.334 181.317 316.12C181.317 316.12 181.613 340.635 200.117 360.026H200.202C218.663 340.592 218.874 316.078 218.874 316.078C227.028 324.249 258.797 329.711 265.895 312.31C273.71 293.215 253.897 278.481 253.897 278.481C234.675 304.308 221.789 279.031 221.789 279.031C236.449 263.154 225.423 248.886 225.423 248.886C226.394 246.007 242.617 217.597 268.599 217.047C298.551 216.369 306.536 249.14 306.536 249.14C338.009 240.46 344.051 196.554 309.493 176.401ZM311.352 239.783C311.352 239.783 301.635 209.764 268.345 209.764C243.842 209.764 219.424 236.142 218.41 249.182C218.41 249.182 229.647 265.017 214.101 278.311C214.101 278.311 230.999 313.749 254.277 288.134C254.277 288.134 272.274 310.574 248.827 316.078C230.239 320.439 211.862 301.556 211.862 301.556C211.862 301.556 213.932 331.447 200.202 347.832L200.117 347.705V347.832C186.345 331.489 188.33 301.598 188.33 301.598C188.33 301.598 169.995 320.524 151.365 316.205C127.918 310.743 145.83 288.261 145.83 288.261C169.15 313.792 186.007 278.354 186.007 278.354C170.418 265.102 181.613 249.224 181.613 249.224C180.599 236.184 156.054 209.891 131.593 209.934C98.3031 210.018 88.6709 240.037 88.6709 240.037C55.6764 215.988 85.4179 175.258 121.116 175.215C156.814 175.173 186.176 215.734 186.176 215.734C184.908 209.087 169.573 179.195 183.303 143.419C197.033 107.642 199.821 93.2468 199.821 93.2468V93.6278L199.864 93.2468C199.864 93.2468 202.694 107.642 216.509 143.376C230.323 179.111 215.072 209.044 213.805 215.692C213.805 215.692 243.082 175.046 278.78 175.004C314.478 175.004 344.304 215.649 311.352 239.783Z" fill="black"/>
<path d="M311.901 172.251C279.287 153.241 249.461 167.594 234.337 178.052C234.633 175.554 234.928 173.056 234.928 170.516C234.928 162.217 233.323 153.284 229.352 141.513C225.212 129.277 220.649 117.422 216.636 107.049C211.144 92.7808 206.37 80.4601 204.511 71.8229L199.821 49.6372L195.132 71.8229C193.316 80.4601 188.584 92.7808 183.092 107.049C179.078 117.507 174.558 129.32 170.46 141.598C166.531 153.368 164.926 162.175 164.926 170.389C164.926 173.014 165.222 175.554 165.56 178.137C150.393 167.721 120.567 153.495 88.0374 172.548C69.9559 183.133 60.2392 201.338 62.6895 220.01C64.8863 236.649 76.2084 249.732 92.262 254.135L97.0359 255.448L98.2188 250.621C98.5145 249.436 105.654 221.619 131.34 222.127C151.956 222.55 165.475 242.662 169.108 248.843C167.376 252.061 165.94 256.506 165.94 261.587C165.94 267.049 167.799 273.23 172.53 279.454C170.671 281.995 167.545 285.128 163.954 285.424C158.8 285.848 153.646 280.428 150.182 275.813L147.309 271.96L143.465 274.839C135.565 280.724 122.595 296.602 129.946 314.426C132.861 321.539 139.198 326.239 148.154 328.06C157.448 329.923 169.193 328.229 177.515 324.418C179.121 333.818 183.683 349.78 196.78 363.498L200.286 367.139L203.793 363.498C216.847 349.737 221.409 333.775 222.973 324.376C231.337 328.187 243.04 329.796 252.334 327.933C261.332 326.112 267.585 321.37 270.5 314.257C277.808 296.39 264.797 280.555 256.896 274.712L253.052 271.833L250.179 275.686C246.715 280.301 241.519 285.763 236.407 285.339C232.816 285.043 229.69 281.91 227.831 279.37C232.52 273.188 234.337 267.007 234.337 261.545C234.337 256.422 232.9 251.976 231.126 248.758C234.759 242.577 248.194 222.423 268.852 221.958C294.496 221.365 301.72 249.182 302.016 250.367L303.199 255.194L307.972 253.881C324.026 249.436 335.348 236.311 337.46 219.671C339.784 200.957 330.025 182.794 311.901 172.251ZM306.578 249.182C306.578 249.182 298.594 216.454 268.641 217.089C242.659 217.681 226.395 246.091 225.465 248.928C225.465 248.928 236.449 263.238 221.832 279.073C221.832 279.073 234.717 304.35 253.939 278.523C253.939 278.523 273.753 293.257 265.937 312.352C258.84 329.753 227.07 324.291 218.917 316.12C218.917 316.12 218.706 340.634 200.244 360.068H200.159C181.656 340.677 181.36 316.162 181.36 316.162C173.206 324.334 141.479 329.88 134.297 312.521C126.439 293.469 146.253 278.65 146.253 278.65C165.517 304.434 178.36 279.116 178.36 279.116C163.701 263.323 174.643 248.97 174.643 248.97C173.671 246.091 157.406 217.724 131.382 217.216C101.429 216.623 93.4872 249.393 93.4872 249.393C62.0558 240.756 55.8878 196.893 90.4032 176.655C134.213 150.997 172.53 189.865 172.53 189.865C168.939 175.3 167.883 164.419 175.023 143.122C184.697 114.247 196.526 88.4199 199.864 72.8391C203.201 88.4199 215.115 114.204 224.831 143.08C232.013 164.376 230.999 175.258 227.451 189.822C227.451 189.822 265.684 150.87 309.536 176.443C344.051 196.554 338.01 240.46 306.578 249.182Z" fill="white"/>
<path d="M278.777 175.046C243.079 175.088 213.802 215.734 213.802 215.734C215.069 209.087 230.32 179.153 216.506 143.419C202.691 107.642 199.86 93.2468 199.86 93.2468L199.818 93.6279V93.2468C199.818 93.2468 197.03 107.642 183.3 143.419C169.57 179.195 184.905 209.087 186.173 215.734C186.173 215.734 156.811 175.173 121.113 175.215C85.4148 175.3 55.7155 216.03 88.6678 240.037C88.6678 240.037 98.3422 209.976 131.59 209.934C156.051 209.891 180.554 236.184 181.61 249.224C181.61 249.224 170.415 265.102 186.004 278.354C186.004 278.354 169.19 313.834 145.827 288.261C145.827 288.261 127.872 310.743 151.362 316.205C169.95 320.481 188.327 301.598 188.327 301.598C188.327 301.598 186.342 331.489 200.114 347.832V347.705L200.198 347.832C213.971 331.447 211.858 301.556 211.858 301.556C211.858 301.556 230.236 320.439 248.824 316.078C272.271 310.574 254.274 288.134 254.274 288.134C230.996 313.749 214.097 278.311 214.097 278.311C229.644 265.017 218.407 249.182 218.407 249.182C219.421 236.142 243.839 209.764 268.342 209.764C301.59 209.764 311.349 239.783 311.349 239.783C344.301 215.649 314.475 175.004 278.777 175.046Z" fill="#D5B992"/>
</g>
<defs>
<clipPath id="clip0_257_11739">
<rect width="296" height="362" fill="white" transform="translate(51.999 20)"/>
</clipPath>
</defs>
</svg>
