<svg width="400" height="400" viewBox="0 0 400 400" fill="none" xmlns="http://www.w3.org/2000/svg">
<g clip-path="url(#clip0_257_11729)">
<path d="M45.5654 262.382L107.291 262.347L107.186 129.384L107.117 128.686C107.117 128.616 106.561 123.313 109.548 119.964C112.293 116.858 117.642 116.23 121.636 116.23C125.944 116.23 129.035 117.207 131.05 119.266C133.933 122.197 134.523 127.186 134.489 128.86V129.105L134.558 229.237C134.523 231.54 134.628 244.658 143.485 253.904C148.8 259.417 156.164 262.347 164.743 262.347L217.68 262.313L217.646 209.839L206.357 211.304C205.071 211.479 200.868 211.514 198.68 209.595C196.909 208.025 196.353 204.815 196.353 202.407C196.353 202.128 196.353 202.407 196.353 108.241C196.387 107.403 197.152 87.2373 183.084 72.5489C173.809 62.8845 160.783 58 144.319 58C127.368 58 115.106 62.745 106.353 68.5715C106.353 65.6408 106.353 61.7332 106.353 61.7332H20L20.0347 116.161L32.0533 113.614C34.45 113.09 40.3203 112.846 42.995 115.254C44.9402 117.033 45.5654 120.557 45.5654 123.697V262.382V262.382ZM30.907 108.276L25.4882 109.497L25.4535 67.2108H100.899C100.899 67.2108 100.899 76.1774 100.899 80.0501C108.506 72.2 121.984 63.5125 144.319 63.4776C159.22 63.4776 170.961 67.8039 179.124 76.3518C191.594 89.3656 191.003 107.264 191.003 107.857L191.073 202.407C191.073 207.606 192.428 211.444 195.137 213.746C199.722 217.724 207.017 216.712 207.086 216.712L212.192 215.979L212.227 256.8L164.743 256.835C157.553 256.835 151.752 254.567 147.41 250.066C139.629 241.972 139.977 229.691 140.012 229.342C140.012 229.342 139.942 129.07 139.942 128.93C139.942 128.86 140.081 120.731 135.01 115.463C131.953 112.323 127.472 110.718 121.671 110.718C114.203 110.718 108.75 112.637 105.484 116.37C100.865 121.638 101.768 129.244 101.768 129.314L101.802 129.628L101.907 256.87L51.0536 256.905V123.627C51.0536 117.905 49.5253 113.718 46.6422 111.137C40.9456 106.078 31.0112 108.241 30.907 108.276ZM379.965 288.235C379.965 287.328 379.965 61.7332 379.965 61.7332H369.961H316.225L316.33 189.289C316.295 192.359 315.496 207.885 302.713 207.885C297.989 207.885 295.836 206.245 294.62 205.024C290.625 200.942 289.861 193.057 289.896 190.371L289.792 61.7681H202.605L202.64 113.753H212.54C221.571 113.753 224.558 116.091 225.426 117.068C226.26 118.045 226.399 119.301 226.399 120.068L226.364 122.894L226.26 208.129C226.26 224.771 231.748 239.041 242.1 249.403C252.868 260.184 268.36 266.15 285.728 266.115C298.51 266.115 308.792 263.01 316.503 259.312C316.503 260.533 316.538 261.824 316.538 263.01C316.538 271.768 316.26 279.234 314.94 280.839C314.593 281.118 312.648 282.165 303.616 282.165H45.5654V342H323.103C343.423 342 358.777 336.069 368.78 324.625C378.75 313.181 380 299.365 380 292.178C379.965 290.364 380.035 289.038 379.965 288.235ZM364.647 320.997C355.755 331.219 341.756 336.383 323.068 336.418L50.9842 336.627V287.712L303.547 287.538C312.335 287.538 316.746 286.7 318.761 284.677C321.47 281.92 321.922 274.838 321.922 263.429C321.922 260.568 321.887 257.463 321.853 254.044C321.853 254.044 321.853 251.706 321.818 250.031C314.662 254.846 302.609 260.638 285.658 260.638C269.749 260.638 255.612 255.3 245.886 245.531C236.577 236.215 231.679 223.271 231.679 208.129V121.603C231.679 119.51 231.922 116.335 229.629 113.614C226.746 110.09 220.807 108.241 212.505 108.241H208.059L208.024 67.2108H284.338C284.338 67.2108 284.442 190.126 284.442 190.231C284.442 190.336 284.234 202.163 290.695 208.792C293.682 211.862 297.607 213.328 302.713 213.328C321.47 213.328 321.783 190.231 321.783 189.254L321.679 67.1759H374.408C374.408 67.1759 374.581 287.921 374.581 288.41C374.651 289.003 374.755 290.364 374.755 292.317C374.755 298.667 373.47 310.879 364.647 320.997Z" fill="#B21E35"/>
<path d="M231.713 121.603C231.713 119.51 231.956 116.335 229.664 113.614C226.781 110.09 220.841 108.241 212.539 108.241H208.093L208.058 67.2107H284.338C284.338 67.2107 284.442 190.126 284.442 190.231C284.442 190.336 284.233 202.163 290.694 208.792C293.682 211.862 297.607 213.328 302.713 213.328C321.47 213.328 321.783 190.231 321.783 189.254L321.678 67.1758H374.407C374.407 67.1758 374.581 287.921 374.581 288.41C374.65 289.003 374.755 290.363 374.755 292.317C374.755 298.632 373.469 310.878 364.646 320.996C355.754 331.219 341.756 336.383 323.068 336.418L50.9838 336.627V287.712L303.546 287.537C312.335 287.537 316.746 286.7 318.761 284.677C321.47 281.92 321.922 274.838 321.922 263.429C321.922 260.568 321.887 257.463 321.852 254.044C321.852 254.044 321.852 251.706 321.817 250.031C314.662 254.846 302.609 260.638 285.658 260.638C269.749 260.638 255.611 255.3 245.885 245.531C236.576 236.215 231.679 223.271 231.679 208.129V121.603H231.713ZM51.0185 256.905L101.871 256.87L101.767 129.628L101.733 129.314C101.733 129.244 100.829 121.638 105.449 116.37C108.714 112.637 114.168 110.718 121.636 110.718C127.437 110.718 131.918 112.323 134.975 115.463C140.081 120.696 139.907 128.825 139.907 128.93C139.907 129.07 139.976 229.342 139.976 229.342C139.976 229.691 139.629 241.972 147.375 250.066C151.717 254.567 157.518 256.835 164.708 256.835L212.192 256.8L212.157 215.979L207.051 216.712C206.981 216.712 199.652 217.724 195.102 213.746C192.427 211.409 191.038 207.606 191.038 202.407L190.968 107.857C191.003 107.299 191.559 89.3655 179.089 76.3517C170.891 67.8038 159.185 63.4775 144.284 63.4775C121.949 63.5124 108.471 72.1999 100.864 80.05C100.864 76.1773 100.864 67.2107 100.864 67.2107H25.4531L25.4879 109.497L30.9066 108.276C31.0108 108.241 40.9452 106.112 46.6071 111.171C49.4554 113.718 51.0185 117.905 51.0185 123.662V256.905Z" fill="#00337E"/>
</g>
<defs>
<clipPath id="clip0_257_11729">
<rect width="360" height="284" fill="white" transform="translate(20 58)"/>
</clipPath>
</defs>
</svg>
