<svg width="400" height="400" viewBox="0 0 400 400" fill="none" xmlns="http://www.w3.org/2000/svg">
<g clip-path="url(#clip0_257_11733)">
<path d="M200.024 98.5364C104.435 98.5364 20.4617 151.323 20.4617 200C20.4617 248.677 104.435 301.464 200.024 301.464C299.85 301.464 379.586 248.994 379.586 200C379.586 151.007 299.85 98.5364 200.024 98.5364ZM208.447 250.469C208.395 251.312 208.238 252.102 208.081 252.892L205.622 252.839C205.831 252.049 205.988 251.259 206.093 250.416H201.384V252.734H198.768V250.416H194.059C194.112 251.259 194.269 252.049 194.53 252.839L192.071 252.892C191.862 252.102 191.757 251.259 191.705 250.469H187.048C187.153 251.68 187.362 252.839 187.729 253.946L185.113 253.893C184.746 252.418 184.537 250.837 184.537 249.204C184.537 247.835 184.694 246.465 184.956 245.148C185.008 244.884 185.06 244.621 185.165 244.358H187.781C187.676 244.621 187.624 244.937 187.572 245.201C187.362 246.043 187.205 246.886 187.153 247.782H191.81C191.862 246.939 192.019 246.149 192.176 245.411L194.687 245.464C194.426 246.201 194.321 246.992 194.216 247.782H198.925V245.569H201.541V247.782H206.25C206.145 246.992 205.988 246.201 205.779 245.464L208.29 245.411C208.5 246.149 208.604 246.939 208.657 247.782H213.313C213.261 246.886 213.104 246.043 212.895 245.201C212.842 244.937 212.738 244.621 212.633 244.358H215.249C215.301 244.621 215.406 244.884 215.458 245.148C215.72 246.465 215.877 247.782 215.877 249.204C215.877 250.837 215.667 252.418 215.249 253.893L212.633 253.946C212.999 252.839 213.208 251.68 213.313 250.469H208.447ZM213.732 240.249H186.316C181.66 240.249 177.788 243.515 177.108 247.782H162.092C163.504 237.562 180.613 226.973 200.024 226.973C220.272 226.973 236.648 237.509 237.956 247.782H222.94C222.26 243.515 218.388 240.249 213.732 240.249ZM191.286 163.387C191.286 163.756 191.286 168.339 191.339 175.293H188.147V168.392C188.147 160.121 188.304 155.485 195.943 155.169H206.825C212.633 155.59 215.72 162.333 219.801 169.445L223.202 175.24H220.219C217.865 171.236 216.348 168.55 216.348 168.55C213.313 163.334 210.331 157.75 205.779 157.803H195.943C191.81 158.382 191.182 161.069 191.286 163.387ZM203.529 178.296L197.931 188.832H173.131L170.829 193.678H193.745L188.043 204.425H163.661L161.045 209.483H188.461L182.863 220.019H132.793L154.976 178.296H203.529V178.296ZM191.339 210.484C191.339 215.436 191.339 220.335 191.339 224.918C190.24 225.076 189.194 225.287 188.147 225.498V216.437L191.339 210.484ZM230.212 220.019H204.052L220.586 188.832H205.936L211.587 178.296H264.587L258.831 189.095H246.746L230.212 220.019ZM162.824 147.214H254.28V157.855H242.141H242.089H242.037C240.676 157.961 239.996 158.171 239.578 158.962C239.368 159.383 239.107 160.595 241.095 163.65L248.315 175.24H245.176L238.845 165.073C232.096 154.273 242.141 155.169 242.141 155.169H251.664V149.848H165.493V155.116H174.387C182.968 155.116 183.909 160.647 183.909 168.971V175.293H181.293V168.971C181.293 164.335 180.979 160.858 179.357 159.225C178.416 158.224 176.741 157.75 174.387 157.75H162.824V147.214V147.214ZM156.337 175.345H152.988L150.895 172.606C151.366 171.71 151.837 170.815 152.256 170.025L156.337 175.345ZM89.3148 147.214H134.99L146.919 162.86H143.571L133.682 149.848H91.9831V155.695H104.331C112.231 155.695 111.341 161.912 111.446 168.023V187.093L108.778 192.098V166.232C108.778 163.387 108.778 160.437 107.627 159.278C107.051 158.698 105.9 158.382 104.331 158.382H89.3148V147.214ZM119.974 170.868L118.457 173.765L118.352 173.607V174.028L115.684 179.033V165.599L119.974 170.868ZM78.8508 192.994H101.767L96.9012 201.106C94.0236 206.006 92.454 209.377 98.1568 209.957C101.767 210.326 102.866 208.903 104.854 205.953L125.991 165.915H151.105L128.712 208.06C120.34 223.496 113.225 224.813 93.1341 224.918C71.0028 225.024 63.4687 214.329 78.8508 192.994ZM138.182 250.469H89.1578V240.617C89.1578 240.617 103.755 240.617 103.703 240.617C107.679 240.565 108.725 237.772 108.725 227.605V227.078C109.667 226.92 110.504 226.762 111.394 226.604V227.71C111.394 235.981 111.028 243.304 103.755 243.357H91.8261V247.887H135.513V243.251H124.317C116.835 243.304 115.684 242.145 115.684 227.71V225.34C116.573 224.971 117.463 224.602 118.352 224.128V227.658C118.352 232.873 118.457 238.563 119.765 239.827C120.393 240.407 122.015 240.512 124.369 240.512H138.182V250.469ZM162.458 223.074L170.463 232.926C169.678 233.453 168.946 233.979 168.266 234.559L158.848 223.074H162.458ZM200.024 271.33C180.613 271.33 163.452 260.741 162.092 250.469H177.108C177.788 254.736 181.66 258.055 186.316 258.055H213.732C218.388 258.055 222.26 254.736 222.94 250.469H238.008C236.648 260.794 220.272 271.33 200.024 271.33ZM237.747 240.565H239.002C240.258 240.565 243.135 240.565 243.135 233.927V214.435C242.56 213.487 241.304 211.327 239.682 208.534L241.147 205.795L245.804 213.697V233.927C245.804 240.09 243.449 243.093 239.316 243.199C238.845 242.303 238.322 241.407 237.747 240.565ZM240.624 250.521C240.676 250.047 240.729 249.626 240.729 249.152C240.729 248.73 240.676 248.256 240.624 247.835H283.37V243.093H275.312C268.877 242.777 267.203 239.406 267.36 232.82V224.444C268.197 224.602 269.086 224.708 270.028 224.813C270.028 229.133 270.028 232.82 270.028 232.873C269.871 239.037 271.284 240.196 275.417 240.407H286.038V250.521H240.624ZM314.657 192.519H295.194C295.455 190.36 294.723 188.305 293.101 187.778C291.061 187.199 288.34 187.673 288.078 189.885C287.817 192.309 289.229 193.31 293.31 194.1C299.746 195.364 306.495 197.735 308.378 200.422C311.151 204.162 309.425 209.377 306.495 213.908C302.152 220.546 292.735 222.126 275.94 222.126C260.401 222.074 254.332 216.226 258.361 206.322H277.824C278.242 208.429 278.033 209.588 279.289 210.589C281.12 212.011 283.945 211.274 285.148 209.746C286.195 208.429 285.933 206.164 284.102 205.479C281.067 204.373 271.022 202.845 267.36 200.422C264.43 198.472 264.116 194.837 266.104 190.096C270.133 179.876 277.719 176.136 297.705 176.82C313.82 177.453 319.941 183.985 314.657 192.519ZM318.11 157.908H318.058C318.058 157.908 308.483 157.908 308.431 157.908C302.885 157.855 302.414 158.487 298.385 164.809L293.101 173.712C291.95 173.712 290.904 173.712 289.805 173.765L294.095 166.495C300.06 157.487 300.374 155.063 308.483 155.169H315.442V149.848H272.121V155.169H286.247C286.247 155.169 296.711 154.273 289.282 165.968L284.364 174.186C283.16 174.344 282.062 174.503 280.963 174.713C284.468 168.866 287.032 164.546 287.032 164.546C289.334 160.911 289.439 159.067 289.177 158.54C288.863 158.013 287.346 157.75 286.456 157.803H286.352H286.247H269.505V147.214H318.11V157.908Z" fill="#115740"/>
<path d="M332.552 121.821C314.972 111.39 294.881 103.119 272.855 97.3246C249.468 91.1082 224.982 88 200.025 88C176.063 88 152.153 91.1609 128.975 97.3772C107.419 103.172 86.7003 111.654 69.1732 121.927C31.5551 143.895 9.99927 172.342 9.99927 200C9.99927 227.658 31.5551 256.105 69.1208 278.073C86.7003 288.346 107.367 296.828 128.923 302.623C152.1 308.839 176.011 312 199.973 312C224.93 312 249.415 308.892 272.802 302.675C294.829 296.881 314.92 288.61 332.5 278.179C369.019 256.474 389.999 227.974 389.999 200C390.052 172.026 369.071 143.526 332.552 121.821ZM200.025 301.464C104.437 301.464 20.4633 248.677 20.4633 200C20.4633 151.323 104.437 98.5362 200.025 98.5362C299.852 98.5362 379.588 151.007 379.588 200C379.588 248.993 299.852 301.464 200.025 301.464ZM174.389 157.802H162.826V147.214H254.281V157.908H242.143H242.091H242.038C240.678 157.96 239.998 158.224 239.579 159.014C239.37 159.436 239.108 160.647 241.097 163.703L248.317 175.293H245.178L238.847 165.125C232.045 154.325 242.143 155.221 242.143 155.221H251.665V149.9H165.494V155.168H174.389C182.917 155.168 183.911 160.753 183.911 169.024V175.345H181.295V169.024C181.295 164.335 180.981 160.911 179.359 159.278C178.365 158.277 176.743 157.802 174.389 157.802ZM93.1357 224.918C71.0043 225.076 63.4703 214.329 78.8523 192.993H101.768L96.9027 201.106C94.0251 206.006 92.4555 209.377 98.1584 209.957C101.768 210.325 102.867 208.903 104.855 205.953L125.993 165.915H151.106L128.713 208.06C120.342 223.496 113.227 224.813 93.1357 224.918ZM115.686 178.98V165.547L119.976 170.867L118.459 173.765L118.354 173.607V173.976L115.686 178.98ZM104.332 158.382H89.3163V147.266H134.992L146.921 162.913H143.572L133.684 149.9H91.9847V155.695H104.332C112.232 155.695 111.343 161.912 111.448 168.023V187.093L108.779 192.098V166.231C108.779 163.387 108.779 160.436 107.628 159.278C107.053 158.698 105.902 158.382 104.332 158.382ZM150.949 172.606C151.42 171.71 151.891 170.815 152.362 170.024L156.391 175.345H153.042L150.949 172.606ZM188.149 216.489L191.34 210.484C191.34 215.436 191.34 220.335 191.34 224.918C190.242 225.076 189.195 225.287 188.149 225.498V216.489ZM173.133 188.832L170.831 193.678H193.747L188.044 204.425H163.663L161.047 209.483H188.463L182.864 220.019H132.794L154.978 178.295H203.531L197.933 188.832H173.133V188.832ZM205.781 157.908H195.944C191.811 158.435 191.183 161.121 191.288 163.439C191.34 163.755 191.34 168.391 191.34 175.345H188.149V168.444C188.149 160.12 188.306 155.537 195.944 155.221H206.827C212.635 155.643 215.721 162.386 219.802 169.55L223.203 175.345H220.221C217.919 171.289 216.349 168.655 216.349 168.655C213.315 163.439 210.332 157.908 205.781 157.908ZM230.266 219.966H204.106L220.587 188.779H205.938L211.588 178.243H264.588L258.833 189.042H246.747L230.266 219.966ZM187.469 245.253C187.259 246.096 187.102 246.939 187.05 247.834H191.707C191.759 246.992 191.916 246.201 192.073 245.464L194.584 245.516C194.323 246.254 194.218 247.044 194.113 247.834H198.822V245.622H201.438V247.834H206.147C206.042 247.044 205.885 246.254 205.676 245.516L208.187 245.464C208.397 246.201 208.501 246.992 208.554 247.834H213.21C213.158 246.939 213.001 246.096 212.791 245.253C212.739 244.99 212.635 244.674 212.53 244.41H215.146C215.041 244.674 215.094 244.937 215.146 245.2C215.407 246.517 215.564 247.834 215.564 249.257C215.564 250.89 215.355 252.47 214.937 253.945L212.321 253.998C212.687 252.892 212.896 251.733 213.001 250.521H208.344C208.292 251.364 208.135 252.154 207.978 252.944L205.519 252.892C205.728 252.102 205.885 251.311 205.99 250.468H201.281V252.786H198.665V250.468H193.956C194.009 251.311 194.166 252.102 194.427 252.892L191.968 252.944C191.759 252.154 191.654 251.311 191.602 250.521H186.945C187.05 251.733 187.259 252.892 187.626 253.998L185.01 253.945C184.643 252.47 184.434 250.89 184.434 249.257C184.434 247.887 184.591 246.517 184.853 245.2C184.905 244.937 184.957 244.674 185.062 244.41H187.678C187.573 244.674 187.521 244.99 187.469 245.253ZM124.318 240.512H138.131V250.468H89.1594V240.617C89.1594 240.617 103.757 240.617 103.704 240.617C107.681 240.564 108.727 237.772 108.727 227.605V227.078C109.669 226.92 110.506 226.762 111.395 226.604V227.71C111.395 235.981 111.029 243.304 103.757 243.357H91.8277V247.887H135.515V243.251H124.318C116.837 243.304 115.686 242.145 115.686 227.71V225.34C116.575 224.971 117.464 224.602 118.354 224.128V227.658C118.354 232.873 118.459 238.563 119.767 239.827C120.342 240.459 122.016 240.564 124.318 240.512ZM275.418 240.459H286.039V250.521H240.626C240.678 250.047 240.73 249.573 240.73 249.151C240.73 248.73 240.678 248.256 240.626 247.834H283.371V243.093H275.314C268.878 242.777 267.204 239.458 267.361 232.82V224.444C268.251 224.602 269.088 224.707 270.03 224.813C270.03 229.133 270.03 232.82 270.03 232.873C269.873 239.037 271.285 240.248 275.418 240.459ZM269.454 147.214H318.007V157.96C318.007 157.96 308.432 157.96 308.38 157.96C302.834 157.855 302.416 158.54 298.335 164.862L293.05 173.765C291.899 173.765 290.801 173.765 289.754 173.817L294.044 166.548C300.009 157.486 300.375 155.116 308.432 155.221H315.391V149.848H272.07V155.221H286.196C286.196 155.221 296.608 154.325 289.231 166.021L284.313 174.239C283.109 174.397 282.011 174.555 280.912 174.766C284.365 168.971 286.981 164.598 286.981 164.598C289.336 160.963 289.44 159.119 289.126 158.593C288.812 158.013 287.295 157.802 286.406 157.855H286.301H286.196H269.454V147.214ZM239.213 243.198C238.794 242.303 238.271 241.46 237.696 240.564H238.951C240.155 240.564 243.085 240.564 243.085 233.927V214.435C242.509 213.486 241.306 211.379 239.632 208.534L241.097 205.795L245.753 213.697V233.927C245.753 240.09 243.451 243.093 239.213 243.198ZM314.606 192.572H295.143C295.405 190.412 294.672 188.357 293.05 187.831C291.01 187.251 288.289 187.725 288.028 189.938C287.766 192.361 289.179 193.362 293.26 194.152C299.695 195.417 306.444 197.787 308.328 200.474C311.101 204.214 309.374 209.43 306.444 213.96C302.102 220.598 292.684 222.179 275.889 222.179C260.35 222.126 254.334 216.278 258.31 206.374H277.773C278.191 208.482 277.982 209.641 279.238 210.642C281.069 212.064 283.894 211.326 285.098 209.799C286.144 208.482 285.882 206.216 284.051 205.532C281.017 204.425 270.971 202.897 267.309 200.474C264.379 198.525 264.065 194.89 266.053 190.149C270.082 179.928 277.668 176.188 297.654 176.873C313.769 177.505 319.89 183.985 314.606 192.572ZM237.957 247.834H222.942C222.261 243.567 218.442 240.301 213.786 240.301H186.318C181.661 240.248 177.789 243.515 177.109 247.834H162.093C163.506 237.614 180.615 227.025 200.025 227.025C220.273 227.025 236.649 237.562 237.957 247.834ZM168.319 234.559L158.902 223.074H162.512L170.517 232.926C169.732 233.452 169 233.979 168.319 234.559ZM222.942 250.468H237.957C236.649 260.794 220.273 271.33 200.025 271.33C180.615 271.33 163.454 260.741 162.093 250.468H177.109C177.789 254.736 181.661 258.055 186.318 258.055H213.733C218.442 258.055 222.261 254.736 222.942 250.468Z" fill="white"/>
</g>
<defs>
<clipPath id="clip0_257_11733">
<rect width="380" height="224" fill="white" transform="translate(9.99927 88)"/>
</clipPath>
</defs>
</svg>
