<svg width="400" height="400" viewBox="0 0 400 400" fill="none" xmlns="http://www.w3.org/2000/svg">
<g clip-path="url(#clip0_257_11727)">
<path d="M137.71 179.102C137.663 179.149 137.616 179.243 137.569 179.29C137.616 179.243 137.663 179.149 137.71 179.102ZM137.71 179.102C137.851 178.913 137.992 178.725 138.18 178.537C137.992 178.725 137.851 178.913 137.71 179.102ZM137.005 179.996C137.193 179.761 137.381 179.525 137.569 179.29C137.381 179.525 137.193 179.761 137.005 179.996ZM140.436 176.089C139.919 176.607 139.402 177.125 138.932 177.642C139.402 177.125 139.919 176.607 140.436 176.089ZM136.911 180.137C136.958 180.09 136.958 180.043 137.005 179.996C136.958 180.043 136.911 180.09 136.911 180.137ZM140.483 176.042C140.483 176.089 140.483 176.089 140.483 176.042C140.483 176.089 140.483 176.089 140.483 176.042ZM138.321 178.348C138.274 178.396 138.227 178.49 138.18 178.537C138.18 178.49 138.274 178.443 138.321 178.348ZM133.151 205.366C133.01 205.742 132.869 206.166 132.587 206.684C132.869 206.213 133.01 205.742 133.151 205.366ZM387.373 104.027C386.762 105.016 375.059 124.832 358.985 145.071C360.677 145.071 362.369 145.071 363.873 145.071C367.868 145.071 370.782 145.071 370.782 145.071L385.07 145.024L376.422 156.415C375.623 157.497 358.938 179.29 334.592 200.094C335.72 200.471 336.566 200.8 337.036 200.941L346.718 204.33L340.044 212.191C339.245 213.132 320.445 235.113 289.472 256.623C261.696 275.922 244.588 279.969 235.141 279.969C231.569 279.969 229.501 279.358 228.796 279.122L227.433 278.699C222.686 281.523 217.892 283.735 213.098 285.335C206.753 287.453 200.455 288.536 194.345 288.536C183.77 288.536 177.237 285.335 176.532 284.959L170.093 281.664L173.618 275.31C175.545 271.685 179.117 262.695 177.472 257.847C177.19 256.953 176.626 255.917 174.84 255.117C173.242 254.411 171.127 254.035 168.683 254.035C160.834 254.035 152.797 257.706 150.917 259.542C147.956 266.414 138.133 281.758 129.297 290.466C113.505 305.998 97.2902 312.211 96.5852 312.447L92.4023 314L89.2063 310.893C88.5013 310.187 84.7883 306.328 82.3443 298.42C80.8873 293.713 80.1823 288.583 80.2293 283.076C76.0933 285.9 67.7274 290.607 56.4474 291.642C55.1784 291.784 53.8624 291.831 52.5464 291.831C43.2875 291.831 29.4695 288.865 16.3096 274.604C12.1266 270.085 9.58859 262.46 8.5076 251.399C7.8026 243.962 8.0376 237.608 8.0376 237.325L8.1316 235.254L9.30659 233.56C9.77659 232.854 20.0696 218.357 38.3995 204.989C36.9425 202.73 35.9555 200.565 35.4855 199.106L33.3235 192.281L40.1385 190.21C61.0534 183.855 73.0853 174.536 86.9503 163.757C99.5462 153.967 113.787 142.906 136.911 132.268C156.886 123.09 181.373 112.405 211.5 102.803L245.528 91.9777L226.305 108.122C256.432 100.403 289.801 93.0603 291.728 92.6367L322.043 86L299.718 103.415C349.444 95.1313 379.43 93.531 380.887 93.4368L394 92.7779L387.373 104.027ZM83.7543 260.059C80.0883 260.248 75.4823 261.754 73.0853 263.966C74.7303 265.519 78.1613 267.779 81.2633 269.238L81.6393 269.426C82.0623 267.355 82.5793 265.237 83.1433 263.072C83.5193 261.801 83.7073 260.86 83.7543 260.059ZM381.263 100.497C381.263 100.497 339.621 102.662 272.975 115.371L293.232 99.5557C293.232 99.5557 227.997 113.865 196.789 123.702L213.615 109.581C185.509 118.524 162.15 128.456 139.825 138.717C91.9323 160.745 83.8013 184.326 42.1595 196.988C42.7235 198.776 45.1674 203.436 48.7864 206.401C27.3075 220.192 15.0876 237.608 15.0876 237.608C15.0876 237.608 14.1006 261.801 21.4795 269.803C32.5245 281.758 44.0395 284.77 52.5464 284.77C53.6744 284.77 54.7554 284.723 55.7894 284.629C69.6543 283.358 78.3493 275.686 78.3493 275.686C78.3493 275.686 62.1814 268.202 65.8474 261.848C69.3723 255.729 78.4903 252.999 84.5533 252.999C87.3733 252.999 89.5353 253.611 90.0993 254.741C90.7103 255.917 91.6972 258.6 89.9583 264.955C82.0623 294.184 94.0942 305.857 94.0942 305.857C94.0942 305.857 109.416 300.115 124.362 285.429C132.963 276.957 142.363 261.895 144.619 256.341C146.217 252.434 158.061 246.974 168.73 246.974C171.926 246.974 175.075 247.445 177.754 248.669C192.7 255.353 179.822 278.699 179.822 278.699C179.822 278.699 185.227 281.476 194.392 281.476C203.604 281.476 216.623 278.652 231.804 267.308C231.804 267.402 231.945 268.391 231.851 269.426C231.663 271.309 231.193 272.486 231.193 272.486C231.193 272.486 232.462 272.956 235.188 272.956C241.909 272.956 257.654 270.179 285.477 250.834C316.027 229.606 334.686 207.625 334.686 207.625C334.686 207.625 322.983 203.53 320.069 202.777C349.444 180.278 370.782 152.178 370.782 152.178C370.782 152.178 367.868 152.178 363.826 152.178C357.763 152.178 349.162 152.178 343.945 152.084C364.578 128.785 381.263 100.497 381.263 100.497ZM138.321 178.348C138.509 178.113 138.697 177.925 138.885 177.69C138.697 177.925 138.509 178.16 138.321 178.348ZM138.932 177.642L138.885 177.69C138.932 177.69 138.932 177.69 138.932 177.642ZM222.122 134.763L235.235 127.467C240.734 124.643 248.771 120.172 248.771 120.172C248.771 120.172 217.986 123.984 175.169 138.717C163.09 142.859 156.698 145.448 156.698 145.448C158.672 143.612 167.649 137.352 169.905 135.045C138.086 146.436 125.96 155.002 105.938 171.994C88.0313 187.15 88.4543 190.21 62.6984 200.612C62.6984 200.612 79.7123 209.979 99.1702 200.235C102.507 198.541 105.797 195.999 108.946 193.316C116.184 186.633 114.915 178.725 124.033 174.206C122.482 176.889 120.085 180.278 119.521 183.95C124.221 178.772 132.869 171.618 142.739 167.946C148.473 165.828 166.145 160.98 166.145 160.98C154.677 165.31 145.935 170.77 140.483 176.042C147.862 168.888 161.257 161.404 179.54 156.838C179.587 156.838 180.386 156.65 180.715 156.556C148.05 166.017 141.047 182.443 140.671 184.185C139.919 187.998 152.468 180.702 162.103 180.608C151.716 183.008 142.175 190.539 136.911 199.906C134.702 203.86 133.621 208.566 128.263 211.72C126.712 212.803 124.832 213.979 122.294 214.78C115.385 216.992 111.014 215.015 109.604 213.791C108.758 213.085 108.288 211.955 108.288 211.955C111.343 213.226 115.761 212.944 119.991 210.873C123.093 209.367 125.537 207.107 126.994 204.801C128.216 202.965 128.31 201.6 128.357 201.224C128.451 200.188 128.357 199.012 127.84 197.694C127.135 195.952 125.396 194.822 123.328 194.258C123.516 193.928 124.879 191.245 128.78 187.527C123.751 190.351 120.273 194.022 118.534 195.67C120.696 196.187 122.482 197.411 123.375 199.294C125.161 203.86 122.247 208.002 117.688 209.931C112.706 211.955 107.724 211.061 105.985 207.201C105.844 206.872 105.562 206.072 105.515 205.742C105.233 205.836 104.951 205.978 104.763 206.072C103.682 206.495 100.298 207.531 100.298 207.531C101.614 208.002 103.4 208.331 104.575 208.237C104.387 213.226 106.596 221.557 124.503 219.016C118.957 223.346 107.019 221.699 100.204 217.039C101.097 217.886 102.178 218.827 103.4 219.816C123.704 235.866 150.306 225.935 156.839 223.064C158.437 222.263 160.082 221.557 161.68 220.993C161.68 220.993 154.818 225.794 149.554 233.842C158.531 224.899 182.36 212.097 211.406 218.969C211.406 218.969 196.648 209.602 171.174 214.874C171.174 214.874 207.364 198.541 249.335 211.955C222.545 199.435 196.93 201.083 181.561 204.377H181.655C172.584 206.778 167.132 208.943 167.132 208.943C167.132 208.943 169.482 207.578 173.806 205.648L174.511 205.366C185.321 199.247 199.703 192.94 213.662 188.939C223.579 186.115 243.037 183.197 250.792 183.62C250.792 183.62 231.428 178.019 212.863 180.561C212.863 180.561 242.661 172.653 270.391 175.148C279.696 175.995 300.799 179.525 300.799 179.525C271.237 166.958 239.7 161.592 217.657 162.486C218.315 162.439 219.02 162.345 219.678 162.251C219.49 162.251 219.302 162.298 219.114 162.298C218.644 162.298 218.174 162.345 217.704 162.345C205.061 163.993 195.003 165.969 195.003 165.969C195.003 165.969 196.789 165.31 200.22 164.275L200.126 164.322C208.445 160.557 242.473 146.907 303.102 144.318C303.102 144.318 295.582 142.529 286.276 141.494C276.735 140.411 257.654 141.541 257.654 141.541C271.942 136.881 298.167 133.727 330.127 134.245C330.127 134.245 282.469 123.043 221.887 134.81C221.934 134.763 222.028 134.763 222.122 134.763ZM131.976 207.813C132.023 207.719 132.07 207.672 132.117 207.578C132.07 207.625 132.023 207.719 131.976 207.813ZM131.459 208.614C131.553 208.472 131.647 208.331 131.741 208.19C131.694 208.237 131.694 208.284 131.647 208.331C131.6 208.425 131.506 208.519 131.459 208.614ZM131.976 207.813C131.929 207.86 131.882 207.955 131.835 208.049C131.882 208.002 131.929 207.908 131.976 207.813ZM132.963 204.33C132.822 204.377 132.681 204.424 132.587 204.472C132.728 204.424 132.869 204.377 132.963 204.33ZM132.211 207.39C132.164 207.437 132.164 207.484 132.117 207.531C132.164 207.531 132.211 207.437 132.211 207.39ZM136.441 180.796C136.629 180.561 136.77 180.372 136.911 180.137C136.723 180.325 136.582 180.561 136.441 180.796ZM136.347 180.937C136.159 181.173 136.018 181.455 135.877 181.69C136.018 181.455 136.206 181.173 136.347 180.937ZM132.399 207.154C132.399 207.107 132.446 207.107 132.446 207.06C132.399 207.06 132.399 207.107 132.399 207.154ZM132.634 206.731C132.54 206.825 132.493 206.919 132.446 207.06C132.493 206.966 132.54 206.825 132.634 206.731ZM132.54 204.519C131.882 204.754 131.271 204.942 130.707 205.083C131.412 204.942 132.07 204.707 132.54 204.519ZM132.211 207.39C132.305 207.296 132.352 207.201 132.352 207.107C132.305 207.201 132.258 207.296 132.211 207.39ZM108.993 204.189C109.04 204.472 109.51 205.178 109.792 205.507C110.779 206.684 112.377 207.343 112.377 207.343C111.249 205.554 110.591 204.566 111.202 202.871C110.215 203.624 109.933 203.765 108.993 204.189Z" fill="white"/>
<path d="M343.945 152.084C364.578 128.785 381.263 100.497 381.263 100.497C381.263 100.497 339.621 102.662 272.975 115.371L293.232 99.5557C293.232 99.5557 227.997 113.864 196.789 123.702L213.615 109.581C185.509 118.524 162.15 128.456 139.825 138.717C91.9321 160.745 83.8011 184.326 42.1593 196.988C42.7233 198.776 45.1673 203.436 48.7863 206.401C27.3074 220.192 15.0874 237.608 15.0874 237.608C15.0874 237.608 14.1004 261.801 21.4794 269.803C33.9813 283.358 47.0943 285.429 55.7893 284.629C69.6542 283.358 78.3492 275.686 78.3492 275.686C78.3492 275.686 62.1812 268.202 65.8472 261.848C71.0172 252.905 88.3131 251.163 90.0991 254.741C90.7101 255.917 91.6971 258.6 89.9581 264.955C82.0621 294.184 94.0941 305.857 94.0941 305.857C94.0941 305.857 109.416 300.115 124.362 285.429C132.963 276.957 142.363 261.895 144.619 256.341C146.687 251.258 166.192 243.491 177.754 248.669C192.7 255.353 179.822 278.699 179.822 278.699C179.822 278.699 201.583 289.948 231.804 267.308C231.804 267.402 231.945 268.391 231.851 269.426C231.663 271.309 231.193 272.485 231.193 272.485C231.193 272.485 246.467 277.945 285.477 250.834C316.027 229.606 334.686 207.625 334.686 207.625C334.686 207.625 322.983 203.53 320.069 202.777C349.444 180.278 370.782 152.178 370.782 152.178C370.782 152.178 352.64 152.225 343.945 152.084ZM309.682 205.036C311.233 205.554 317.625 207.484 321.103 209.367C304.982 229.983 259.298 268.861 236.363 268.108C236.55 264.248 235.423 260.86 233.919 258.412C223.579 273.097 196.413 279.734 185.885 276.016C204.497 229.23 146.593 241.326 140.812 254.082C125.819 287.218 95.7861 300.256 95.7861 300.256C95.7861 300.256 87.9371 288.959 94.4231 266.225C99.2171 249.469 88.3601 248.763 88.3601 248.763C84.0831 248.057 67.5392 248.198 61.1002 259.024C55.9303 267.732 69.7482 275.827 69.7482 275.827C69.7482 275.827 46.8593 290.23 24.9104 266.696C19.5054 260.907 19.7404 239.114 19.7404 239.114C33.6053 221.04 50.3843 210.449 57.2932 206.59C50.8073 203.201 49.1153 199.482 49.1153 199.482C83.4251 188.186 98.9821 164.746 128.827 149.401C161.727 132.457 186.261 125.114 186.261 125.114L176.156 135.234C176.156 135.234 183.911 132.88 187.295 131.703C218.033 120.689 269.168 110.617 269.168 110.617L252.107 123.796C252.107 123.796 278.615 117.912 311.515 114.665C329.046 112.923 365.659 109.44 365.659 109.44C365.659 109.44 354.379 133.257 333.699 156.367C344.556 156.838 356.259 157.497 356.259 157.497C356.259 157.497 340.937 181.267 309.682 205.036ZM123.422 199.341C127.37 209.602 107.771 216.144 105.515 205.742C106.22 205.46 106.972 205.13 107.583 204.707C108.899 212.803 124.127 206.778 120.696 200.141C120.273 199.294 119.38 198.729 118.534 198.305C118.44 198.258 118.346 198.211 118.252 198.164C117.97 198.07 117.124 197.646 117.03 197.646C117.406 197.176 118.111 196.14 118.534 195.67C120.696 196.187 122.576 197.458 123.422 199.341Z" fill="#024C52"/>
<path d="M87.8905 221.275C87.8905 221.275 78.3965 222.922 76.2815 223.299C73.6965 223.769 68.1506 223.911 71.1585 220.333C71.1585 220.333 74.6365 218.921 79.2895 217.133C80.9815 218.921 82.8145 220.192 87.8905 221.275ZM333.699 156.367C344.556 156.838 356.259 157.497 356.259 157.497C356.259 157.497 340.937 181.267 309.683 205.036C311.234 205.554 317.626 207.484 321.103 209.366C304.983 229.982 259.299 268.861 236.363 268.108C236.551 264.248 235.423 260.859 233.919 258.412C223.579 273.097 196.413 279.734 185.885 276.016C204.497 229.229 146.593 241.326 140.812 254.082C125.819 287.218 95.7864 300.256 95.7864 300.256C95.7864 300.256 87.9375 288.959 94.4234 266.225C99.2174 249.469 88.3605 248.763 88.3605 248.763C84.0835 248.057 67.5396 248.198 61.1006 259.024C55.9306 267.731 69.7485 275.827 69.7485 275.827C69.7485 275.827 46.8596 290.23 24.9107 266.696C19.5058 260.907 19.7408 239.114 19.7408 239.114C33.6057 221.039 50.3846 210.449 57.2936 206.589C50.8076 203.2 49.1156 199.482 49.1156 199.482C83.4255 188.186 98.9824 164.745 128.827 149.401C161.727 132.456 186.261 125.114 186.261 125.114L176.156 135.234C176.156 135.234 183.911 132.88 187.295 131.703C218.033 120.689 269.169 110.617 269.169 110.617L252.108 123.796C252.108 123.796 278.616 117.912 311.516 114.665C329.046 112.923 365.659 109.44 365.659 109.44C365.659 109.44 354.379 133.257 333.699 156.367ZM143.914 232.901C107.16 242.879 88.2195 212.426 88.2195 212.426C81.4515 213.697 73.1795 212.191 68.7616 210.402C63.0746 213.461 43.0997 219.439 28.6707 238.643C28.5297 245.656 28.2477 254.646 30.5507 259.871C40.1387 279.593 61.2416 275.074 61.2416 275.074C61.2416 275.074 31.8667 257.847 67.1636 241.561C78.4435 236.384 108.147 234.831 124.926 242.409C126.336 243.115 128.028 244.621 127.84 244.95C125.067 253.611 114.962 277.616 102.037 283.311C96.4444 272.768 116.654 252.293 98.7004 249.375C98.7004 249.375 102.413 256.859 99.4054 265.99C98.0894 269.991 94.0945 280.628 97.8074 292.537C97.8074 292.537 127.041 279.216 139.449 242.267C140.906 238.643 141.987 235.584 143.914 232.901ZM225.318 246.974C225.318 246.974 218.879 239.302 206.095 235.49C172.819 225.605 155.852 238.831 155.852 238.831C155.852 238.831 166.897 232.289 183.817 237.043C208.868 244.056 206.33 260.059 206.33 260.059C206.33 260.059 218.362 256.435 225.318 246.974ZM326.602 169.594C326.602 169.594 277.911 158.721 241.58 160.274C234.248 160.603 226.305 161.404 219.114 162.298C218.644 162.298 218.174 162.345 217.704 162.345C205.061 163.992 195.003 165.969 195.003 165.969C195.003 165.969 196.789 165.31 200.22 164.275L200.126 164.322C208.445 161.874 226.305 157.309 251.356 155.238C275.044 153.261 302.069 155.143 313.02 155.285C330.174 142.058 338.352 123.89 338.352 123.89C338.352 123.89 311.187 123.043 280.026 125.255C248.066 127.514 226.728 133.398 222.075 134.763L235.235 127.467C240.734 124.643 248.771 120.172 248.771 120.172C248.771 120.172 217.986 123.984 175.169 138.717C163.09 142.859 156.698 145.447 156.698 145.447C158.672 143.612 167.649 137.352 169.905 135.045C138.086 146.436 125.96 155.002 105.938 171.994C88.0315 187.15 88.4545 190.21 62.6986 200.612C62.6986 200.612 79.7125 209.978 99.1704 200.235C102.507 198.541 105.797 195.999 108.946 193.316C116.184 186.632 114.915 178.725 124.033 174.206C122.482 176.889 120.085 180.278 119.521 183.949C124.221 178.772 132.869 171.617 142.739 167.946C148.473 165.828 166.145 160.98 166.145 160.98C144.76 169.029 132.963 180.984 134.044 188.421C134.514 191.716 140.483 189.033 140.483 189.033C140.483 189.033 132.164 194.634 128.357 201.224C128.451 200.188 128.357 199.011 127.84 197.693C127.135 195.952 125.396 194.822 123.328 194.257C123.516 193.928 124.879 191.245 128.78 187.527C123.751 190.351 120.273 194.022 118.534 195.67C118.111 196.14 117.406 197.176 117.03 197.646C117.124 197.646 117.97 198.07 118.252 198.164C118.346 198.211 118.44 198.258 118.534 198.305C119.38 198.729 120.273 199.294 120.696 200.141C124.127 206.778 108.899 212.802 107.583 204.707C106.972 205.13 106.22 205.46 105.515 205.742C105.233 205.836 104.951 205.978 104.763 206.072C103.682 206.495 100.298 207.531 100.298 207.531C101.614 208.001 103.4 208.331 104.575 208.237C104.387 213.226 106.596 221.557 124.503 219.016C118.957 223.346 107.019 221.698 100.204 217.039C101.097 217.886 102.178 218.827 103.4 219.816C123.704 235.866 150.306 225.935 156.839 223.063C158.437 222.263 160.082 221.557 161.68 220.992C161.68 220.992 154.818 225.793 149.554 233.842C149.46 233.936 149.366 234.03 149.272 234.125C148.567 235.254 147.862 236.431 147.204 237.702C154.865 232.006 162.855 227.535 180.339 225.229C221.793 219.769 248.442 235.066 250.369 248.198C250.369 248.198 250.51 248.151 250.792 248.057C252.531 247.304 259.111 245.374 269.592 237.137C280.59 228.523 287.687 221.369 290.742 216.38C251.826 191.057 204.873 198.352 181.561 204.377H181.655C172.584 206.778 167.132 208.943 167.132 208.943C167.132 208.943 169.482 207.578 173.806 205.648L179.54 203.342C200.267 195.058 244.682 182.537 295.959 199.67C295.959 199.67 300.095 197.176 311.422 187.197C323.5 176.607 326.602 169.594 326.602 169.594ZM111.202 202.871C110.215 203.624 109.933 203.765 108.993 204.189C109.04 204.471 109.51 205.177 109.792 205.507C110.779 206.684 112.377 207.343 112.377 207.343C111.249 205.507 110.591 204.565 111.202 202.871ZM126.994 204.801C125.537 207.107 123.093 209.366 119.991 210.873C115.761 212.944 111.343 213.226 108.288 211.955C108.288 211.955 108.758 213.085 109.604 213.791C111.014 215.015 115.385 216.992 122.294 214.779C124.832 213.979 126.712 212.802 128.263 211.72C128.263 211.72 130.096 210.543 131.647 208.331C133.292 205.978 133.48 204.095 133.48 204.095C130.284 205.648 128.404 205.366 126.994 204.801Z" fill="black"/>
<path d="M129.109 205.272C128.451 205.272 127.699 205.083 126.994 204.801C128.216 202.965 128.31 201.6 128.357 201.224C132.164 194.634 140.483 189.033 140.483 189.033C140.483 189.033 134.514 191.716 134.044 188.421C132.775 179.572 149.742 164.275 179.54 156.838C179.587 156.838 180.386 156.65 180.715 156.556C148.05 166.016 141.047 182.443 140.671 184.185C139.919 187.997 152.468 180.702 162.103 180.608C151.716 183.008 142.175 190.539 136.911 199.906C134.702 203.86 133.621 208.566 128.263 211.72C133.057 208.237 133.48 204.095 133.48 204.095C133.48 204.095 131.083 205.319 129.109 205.272ZM241.58 160.274C233.731 160.604 225.224 161.498 217.657 162.486C239.7 161.592 271.236 166.958 300.799 179.525C300.799 179.525 279.696 175.995 270.39 175.148C242.661 172.653 212.863 180.561 212.863 180.561C231.428 178.019 250.791 183.62 250.791 183.62C243.037 183.196 223.579 186.115 213.662 188.939C199.374 193.034 184.663 199.529 173.759 205.789C190.914 198.023 239.23 180.702 295.958 199.67C295.958 199.67 300.094 197.176 311.421 187.197C323.5 176.607 326.602 169.594 326.602 169.594C326.602 169.594 277.91 158.721 241.58 160.274ZM251.355 155.238C275.043 153.261 302.068 155.144 313.019 155.285C330.174 142.059 338.352 123.89 338.352 123.89C338.352 123.89 311.186 123.043 280.025 125.255C247.643 127.561 226.164 133.539 221.887 134.81C282.469 123.043 330.127 134.245 330.127 134.245C298.167 133.727 271.941 136.881 257.653 141.541C257.653 141.541 276.735 140.411 286.276 141.494C295.582 142.529 303.102 144.318 303.102 144.318C242.473 146.907 208.445 160.556 200.126 164.322C208.445 161.874 226.305 157.309 251.355 155.238ZM181.561 204.377C196.93 201.083 222.545 199.435 249.335 211.955C207.364 198.541 171.174 214.874 171.174 214.874C196.648 209.602 211.406 218.969 211.406 218.969C182.031 212.002 158.014 225.182 149.272 234.125C148.567 235.254 147.862 236.431 147.204 237.702C154.865 232.007 162.855 227.535 180.339 225.229C221.793 219.769 248.442 235.066 250.369 248.198C250.369 248.198 250.509 248.151 250.791 248.057C252.53 247.304 259.11 245.374 269.591 237.137C280.589 228.523 287.686 221.369 290.741 216.38C251.825 191.057 204.873 198.353 181.561 204.377ZM143.914 232.901C141.987 235.584 140.906 238.643 139.449 242.267C127.041 279.216 97.8071 292.537 97.8071 292.537C94.0942 280.628 98.0891 269.991 99.4051 265.99C102.413 256.859 98.7001 249.375 98.7001 249.375C116.654 252.293 96.4441 272.768 102.037 283.311C114.962 277.616 125.067 253.611 127.84 244.95C128.028 244.621 126.336 243.115 124.926 242.409C108.147 234.831 78.4432 236.384 67.1633 241.561C31.8664 257.847 61.2413 275.074 61.2413 275.074C61.2413 275.074 40.1384 279.593 30.5504 259.871C28.2474 254.646 28.5294 245.656 28.6704 238.643C43.0994 219.439 63.0743 213.462 68.7613 210.402C73.1792 212.191 81.4512 213.697 88.2192 212.426C88.2192 212.426 107.16 242.879 143.914 232.901ZM87.8902 221.275C82.8142 220.192 80.9812 218.921 79.2892 217.133C74.6362 218.921 71.1582 220.334 71.1582 220.334C68.1503 223.911 73.6962 223.77 76.2812 223.299C78.3962 222.922 87.8902 221.275 87.8902 221.275ZM206.095 235.49C172.819 225.605 155.852 238.831 155.852 238.831C155.852 238.831 166.897 232.289 183.817 237.043C208.868 244.056 206.33 260.059 206.33 260.059C206.33 260.059 218.362 256.435 225.318 246.974C225.318 246.974 218.879 239.302 206.095 235.49Z" fill="#BCC3C9"/>
</g>
<defs>
<clipPath id="clip0_257_11727">
<rect width="386" height="228" fill="white" transform="translate(8 86)"/>
</clipPath>
</defs>
</svg>
