<svg width="400" height="400" viewBox="0 0 400 400" fill="none" xmlns="http://www.w3.org/2000/svg">
<g clip-path="url(#clip0_257_11741)">
<path d="M119.253 192.472V194.344H116.54V192.472C116.54 191.134 117.075 190.523 117.878 190.523C118.718 190.523 119.253 191.211 119.253 192.472ZM200.534 199.045C200.534 199.121 200.534 199.198 200.534 199.312C265.688 196.102 267.637 134.196 267.676 131.559C203.935 134.693 200.687 194.039 200.534 199.045ZM267.714 131.521C267.714 131.483 267.714 131.445 267.714 131.445C267.714 131.445 267.714 131.483 267.714 131.521C267.79 131.521 267.867 131.521 267.943 131.521C267.828 131.559 267.79 131.559 267.714 131.521C267.752 134.158 269.739 196.217 335.123 199.312C334.817 125.178 274.783 65.1437 200.572 64.9145C200.534 65.1437 201.26 128.273 267.714 131.521ZM200.534 199.312C200.802 205.885 204.929 263.435 267.676 266.53C267.408 259.957 263.281 202.446 200.534 199.312ZM133.125 131.559C197.095 134.578 200.343 194.077 200.496 199.083C200.496 199.159 200.496 199.236 200.496 199.35C200.419 199.35 200.343 199.35 200.305 199.35C200.381 199.35 200.458 199.35 200.496 199.35C200.228 205.923 196.101 263.626 133.125 266.568C199.846 269.702 200.534 334.742 200.534 334.933C200.381 334.933 200.228 334.933 200.075 334.933C125.52 334.933 65.0663 274.555 65.0663 199.924C65.0663 125.369 125.52 64.9145 200.075 64.9145C200.228 64.9145 200.381 64.9145 200.534 64.9145C200.534 65.1437 199.808 128.387 133.125 131.559ZM97.8537 200.153C97.8537 190.79 88.5296 190.79 88.5296 185.746C88.5296 184.027 89.0646 183.339 90.2492 183.339C91.4338 183.339 91.9688 184.103 91.9688 185.746V187.313H97.7391V185.058C97.7391 179.938 95.3316 178.065 90.3256 178.065C84.7082 178.065 82.7593 180.243 82.7593 185.402C82.7593 194.994 92.007 194.421 92.0834 200.344C92.0834 202.064 91.5485 202.751 90.3638 202.751C89.1792 202.751 88.6442 201.987 88.6442 200.344V198.319H82.6447V201.032C82.6447 206.343 84.8228 207.948 90.211 207.948C95.9813 207.948 97.8537 206.152 97.8537 200.153ZM109.7 186.549H106.834V181.084L101.522 186.625H99.8791V191.287H101.522V203.821C101.522 206 102.516 207.337 104.465 207.337H109.7V202.216H108.286C107.101 202.216 106.872 201.911 106.872 199.656V191.173H109.738V186.549H109.7ZM123.839 193.007C123.839 188.268 122.272 186.014 117.61 186.014C112.948 186.014 111.381 188.192 111.381 193.007V202.331C111.381 206 113.254 207.948 117.61 207.948C121.89 207.948 123.839 206 123.839 202.331V200.459H119.177V201.567C119.177 202.904 118.642 203.439 117.84 203.439C117.075 203.439 116.502 202.981 116.502 201.567V198.357H123.839V193.007ZM174.319 191.822C174.319 199.694 181.962 197.669 181.962 201.872C181.962 203.057 181.656 203.516 180.854 203.516C180.051 203.516 179.516 202.981 179.516 201.185V200.267H174.396V201.834C174.396 205.579 176.345 207.91 180.854 207.91C185.516 207.91 187.541 205.579 187.312 200.994C187.312 194.459 179.44 195.223 179.44 191.746C179.44 190.905 179.822 190.485 180.625 190.485C181.313 190.485 181.886 191.02 181.886 191.822V193.083V193.313H186.777V191.364C186.777 187.848 184.675 186.128 180.778 186.128C176.345 186.167 174.319 188.498 174.319 191.822ZM163.39 207.413H168.702V196.981C168.702 194.497 170.116 193.16 171.912 193.16C172.218 193.16 172.6 193.236 172.905 193.313H172.982V186.319C170.88 186.625 169.963 187.313 168.549 190.752H168.473V186.625H163.352V207.413H163.39ZM148.143 202.331C148.143 206 150.015 207.948 154.372 207.948C158.652 207.948 160.601 206 160.601 202.331V200.459H155.939V201.567C155.939 202.904 155.404 203.439 154.601 203.439C153.837 203.439 153.264 202.981 153.264 201.567V198.357H160.601V193.045C160.601 188.307 159.034 186.052 154.372 186.052C149.71 186.052 148.143 188.23 148.143 193.045V202.331ZM140.844 207.337H146.156V178.6H140.844V207.337ZM132.59 186.052C127.928 186.052 126.361 188.23 126.361 193.045V202.369C126.361 206.038 128.234 207.987 132.59 207.987C136.87 207.987 138.819 206.038 138.819 202.369V200.497H134.157V201.605C134.157 202.942 133.622 203.477 132.819 203.477C132.055 203.477 131.482 203.019 131.482 201.605V198.395H138.819V193.083C138.819 188.268 137.252 186.052 132.59 186.052ZM335.085 199.312C272.108 202.293 267.981 259.957 267.714 266.568C267.79 266.568 267.867 266.568 267.905 266.568C267.828 266.568 267.752 266.568 267.714 266.568C267.714 266.95 267.714 267.142 267.714 267.142C267.714 267.142 267.714 266.95 267.714 266.568C201.26 269.855 200.572 334.742 200.572 334.933C274.936 334.703 335.123 274.402 335.123 199.924C335.085 199.732 335.085 199.503 335.085 199.312ZM156.015 192.472C156.015 191.211 155.48 190.523 154.678 190.523C153.837 190.523 153.34 191.134 153.34 192.472V194.344H156.053V192.472H156.015ZM131.482 192.472V194.344H134.195V192.472C134.195 191.211 133.66 190.523 132.857 190.523C132.017 190.523 131.482 191.134 131.482 192.472ZM371.999 200C371.999 223.234 367.452 245.78 358.471 266.989C349.797 287.471 337.416 305.852 321.595 321.634C305.813 337.417 287.394 349.798 266.911 358.472C245.703 367.453 223.195 372 199.961 372C176.765 372 154.219 367.453 133.01 358.472C112.528 349.798 94.147 337.417 78.3265 321.634C62.5442 305.852 50.1248 287.471 41.4503 266.989C32.5465 245.742 27.999 223.234 27.999 200C27.999 176.766 32.5465 154.258 41.5267 133.05C50.2012 112.567 62.5825 94.1862 78.3647 78.3657C94.147 62.5834 112.566 50.164 133.049 41.5277C154.257 32.5474 176.803 28 199.999 28C223.233 28 245.779 32.5474 266.988 41.5277C287.47 50.2022 305.851 62.5834 321.633 78.4039C337.416 94.1862 349.797 112.605 358.471 133.088C367.452 154.258 371.999 176.766 371.999 200ZM362.407 200C362.407 110.312 289.763 37.5916 199.999 37.5916C110.311 37.5916 37.5907 110.312 37.5907 200C37.5907 289.764 110.311 362.408 199.999 362.408C289.687 362.408 362.407 289.764 362.407 200Z" fill="white"/>
<path d="M199.999 37.5916C110.312 37.5916 37.5908 110.312 37.5908 200C37.5908 289.764 110.312 362.408 199.999 362.408C289.687 362.408 362.408 289.764 362.408 200C362.408 110.312 289.763 37.5916 199.999 37.5916ZM200.076 334.933C125.521 334.933 65.0665 274.555 65.0665 199.923C65.0665 125.368 125.521 64.9144 200.076 64.9144C274.707 64.9144 335.085 125.368 335.085 199.923C335.085 274.555 274.631 334.933 200.076 334.933Z" fill="#B1B3B6"/>
<path d="M106.87 186.549H109.736V191.211H106.87V199.694C106.87 201.949 107.099 202.255 108.284 202.255H109.698V207.375H104.462C102.514 207.375 101.52 206.038 101.52 203.86V191.326H99.8768V186.664H101.52L106.832 181.123V186.549H106.87ZM123.837 193.007V198.319H116.5V201.529C116.5 202.943 117.111 203.401 117.837 203.401C118.678 203.401 119.175 202.866 119.175 201.529V200.42H123.837V202.293C123.837 205.961 121.888 207.91 117.608 207.91C113.252 207.91 111.379 205.961 111.379 202.293V192.969C111.379 188.154 112.946 185.976 117.608 185.976C122.232 186.052 123.837 188.269 123.837 193.007ZM119.251 192.472C119.251 191.211 118.716 190.523 117.914 190.523C117.073 190.523 116.576 191.135 116.576 192.472V194.345H119.289V192.472H119.251ZM88.5656 185.746C88.5656 184.027 89.1006 183.339 90.2852 183.339C91.4698 183.339 92.0048 184.103 92.0048 185.746V187.313H97.7751V185.059C97.7751 179.938 95.3676 178.065 90.3616 178.065C84.7442 178.065 82.7953 180.244 82.7953 185.402C82.7953 194.994 92.043 194.421 92.1195 200.344C92.1195 202.064 91.5845 202.752 90.3998 202.752C89.2152 202.752 88.6802 201.987 88.6802 200.344V198.319H82.6807V201.032C82.6807 206.344 84.8588 207.949 90.247 207.949C96.0173 207.949 97.8897 206.153 97.8897 200.153C97.8515 190.752 88.5656 190.752 88.5656 185.746ZM140.842 207.337H146.154V178.6H140.842V207.337ZM160.598 193.007V198.319H153.261V201.529C153.261 202.943 153.873 203.401 154.599 203.401C155.44 203.401 155.936 202.866 155.936 201.529V200.42H160.598V202.293C160.598 205.961 158.65 207.91 154.37 207.91C150.013 207.91 148.141 205.961 148.141 202.293V192.969C148.141 188.154 149.708 185.976 154.37 185.976C159.032 185.976 160.598 188.269 160.598 193.007ZM156.013 192.472C156.013 191.211 155.478 190.523 154.675 190.523C153.835 190.523 153.338 191.135 153.338 192.472V194.345H156.051V192.472H156.013ZM187.31 201.032C187.31 194.497 179.438 195.262 179.438 191.784C179.438 190.943 179.82 190.523 180.622 190.523C181.31 190.523 181.884 191.058 181.884 191.861V193.122V193.351H186.775V191.402C186.775 187.886 184.673 186.167 180.775 186.167C176.343 186.167 174.317 188.498 174.317 191.784C174.317 199.656 181.96 197.631 181.96 201.834C181.96 203.019 181.654 203.478 180.852 203.478C180.049 203.478 179.514 202.943 179.514 201.147V200.229H174.394V201.796C174.394 205.541 176.343 207.872 180.852 207.872C185.514 207.949 187.539 205.618 187.31 201.032ZM168.547 190.752H168.47V186.625H163.35V207.414H168.662V196.981C168.662 194.497 170.075 193.16 171.872 193.16C172.177 193.16 172.559 193.236 172.865 193.313H172.941V186.32C170.878 186.625 169.961 187.313 168.547 190.752ZM138.817 193.007V198.319H131.48V201.529C131.48 202.943 132.091 203.401 132.817 203.401C133.658 203.401 134.155 202.866 134.155 201.529V200.42H138.817V202.293C138.817 205.961 136.868 207.91 132.588 207.91C128.231 207.91 126.359 205.961 126.359 202.293V192.969C126.359 188.154 127.926 185.976 132.588 185.976C137.25 185.976 138.817 188.269 138.817 193.007ZM134.193 192.472C134.193 191.211 133.658 190.523 132.855 190.523C132.015 190.523 131.518 191.135 131.518 192.472V194.345H134.231V192.472H134.193Z" fill="black"/>
<path d="M200.533 198.701C200.533 198.701 199.922 263.397 133.124 266.53C199.922 269.664 200.533 334.894 200.533 334.894C200.533 334.894 201.144 269.664 267.942 266.53C201.144 263.397 200.533 198.701 200.533 198.701Z" fill="#034EA2"/>
<path d="M200.533 64.9146C200.533 64.9146 199.922 128.426 133.124 131.559C199.922 134.693 200.533 199.389 200.533 199.389C200.533 199.389 201.144 134.693 267.942 131.559C201.144 128.388 200.533 64.9146 200.533 64.9146Z" fill="#FDB913"/>
<path d="M267.713 131.483C267.713 131.483 267.101 196.178 200.304 199.312C267.101 202.446 267.713 267.141 267.713 267.141C267.713 267.141 268.324 202.446 335.122 199.312C268.286 196.178 267.713 131.483 267.713 131.483Z" fill="#E03A3E"/>
</g>
<defs>
<clipPath id="clip0_257_11741">
<rect width="344" height="344" fill="white" transform="translate(27.999 28)"/>
</clipPath>
</defs>
</svg>
