<svg width="400" height="400" viewBox="0 0 400 400" fill="none" xmlns="http://www.w3.org/2000/svg">
<g clip-path="url(#clip0_257_11740)">
<path d="M243.809 220.202C275.799 220.202 321.863 231.117 347.553 246.131C326.867 238.334 299.926 229.29 252.879 226.484C234.069 225.548 222.14 228.355 216.51 237.087H206.815C214.634 223.009 228.44 220.202 243.809 220.202ZM246.266 201.178C270.125 201.178 275.755 190.53 277.944 185.541C274.235 186.164 270.393 186.164 266.685 185.541C260.742 194.273 252.566 197.079 229.691 195.52C203.375 193.649 210.255 182.377 213.07 177.076C214.008 175.516 215.259 172.71 216.823 170.215C196.494 168.967 181.75 184.605 181.705 184.605C196.762 199.619 206.77 201.178 220.576 201.178H246.266ZM387.988 204.609C387.988 215.524 383.922 227.731 376.103 240.562C358.857 267.115 343.175 276.515 342.549 276.827C336.965 280.881 330.352 283.376 323.427 284C328.297 278.342 332.095 271.926 334.686 264.932C337.501 255.264 327.18 253.972 327.18 253.972C310.917 251.21 294.475 249.829 277.988 249.918H51.9581C37.8395 249.918 23.1402 249.918 15.9022 238.334C8.08342 226.795 12.4619 215.212 25.0167 192.402C25.955 190.53 64.8256 118 64.8256 118C67.2382 120.896 69.8296 123.614 72.6444 126.108C76.7102 129.227 80.7759 130.786 91.4542 130.786C110.577 130.786 234.382 130.475 235.633 130.475C260.698 130.475 286.075 132.969 302.383 151.102C311.14 152.038 338.439 155.468 361.315 166.428C374.45 172.665 383.252 182.065 386.692 193.649C387.63 197.213 388.077 200.911 387.988 204.609ZM163.253 215.524C163.253 215.524 155.747 209.287 147.258 202.738C139.127 196.5 135.061 195.565 119.691 195.565H30.6462C17.1979 219.89 16.2597 227.107 21.2637 234.904C26.2677 242.745 36.3205 243.369 51.9581 243.369H156.641C150.073 235.528 153.826 231.785 163.253 215.524ZM358.5 172.398C332.497 159.879 299.3 157.384 299.3 157.384C284.869 139.563 260.43 137.068 235.678 137.068C235.678 137.068 110.934 137.38 91.4989 137.38C68.936 137.38 66.7468 128.336 66.7468 128.336L36.3205 184.917H115C139.752 184.917 141.048 182.422 157.311 170.215C174.87 157.384 188.675 153.018 205.251 153.018C221.559 153.018 232.505 156.448 251.002 164.601C269.187 172.71 278.882 176.808 289.873 172.086C289.873 172.086 281.429 183.625 255.381 172.71C229.378 162.106 222.453 159.567 206.502 159.567C191.133 159.567 173.261 167.052 151.011 189.283L177.64 210.534C177.64 210.534 171.385 220.202 167.319 226.172C163.253 232.097 163.566 236.151 165.755 239.315C167.944 242.121 170.759 243.369 180.499 243.369H277.988C294.922 243.413 311.766 244.884 328.476 247.735C353.54 252.725 337.233 273.664 337.233 273.664C337.233 273.664 354.166 262.749 370.474 236.775C388.926 208.039 384.235 184.605 358.5 172.398ZM312.793 176.808C301.221 173.957 311.23 167.408 311.23 167.408C299.97 169.814 290.677 177.655 286.477 188.347C286.165 188.971 285.852 189.283 285.539 189.907C276.112 208.663 267.668 207.727 251.673 207.727H224.374C202.124 207.727 191.758 218.687 181.125 237.443H193.635C205.207 220.246 213.696 215.88 236.571 214.633C288.309 214.633 329.369 229.29 351.306 240.562C382.358 188.659 336.294 180.194 312.793 176.808Z" fill="white"/>
<path d="M358.501 172.398C332.498 159.879 299.301 157.384 299.301 157.384C284.87 139.563 260.431 137.068 235.678 137.068C235.678 137.068 110.935 137.38 91.4997 137.38C68.9369 137.38 66.7476 128.336 66.7476 128.336L36.3213 184.917H115.001C139.753 184.917 141.049 182.422 157.312 170.215C174.871 157.384 188.676 153.018 205.252 153.018C221.56 153.018 232.506 156.448 251.003 164.601C269.188 172.71 278.883 176.808 289.874 172.086C289.874 172.086 281.43 183.625 255.382 172.71C229.379 162.106 222.454 159.567 206.503 159.567C191.134 159.567 173.262 167.051 151.012 189.283L177.641 210.534C177.641 210.534 171.386 220.202 167.32 226.172C163.254 232.097 163.567 236.151 165.756 239.314C167.945 242.121 170.76 243.369 180.5 243.369H277.989C294.923 243.413 311.767 244.883 328.476 247.735C353.541 252.725 337.234 273.664 337.234 273.664C337.234 273.664 354.167 262.749 370.475 236.775C388.927 208.039 384.236 184.605 358.501 172.398ZM229.736 173.066C232.238 174.002 235.053 174.937 237.555 175.873C237.198 176.407 237.019 177.076 236.929 177.744C235.366 181.486 238.18 185.229 243.497 185.852C247.161 186.431 250.914 185.139 253.505 182.422C253.997 182.734 254.533 182.912 255.069 183.046C255.695 183.357 256.007 183.357 256.678 183.714C254.176 187.768 251.048 189.639 239.744 188.704C221.605 187.144 224.419 181.486 229.736 173.066ZM216.824 170.215C215.26 172.71 214.009 175.516 213.071 177.076C210.256 182.377 203.376 193.649 229.691 195.52C252.567 197.079 260.743 194.273 266.686 185.54C270.394 186.164 274.236 186.164 277.945 185.54C275.755 190.53 270.126 201.178 246.267 201.178H220.577C206.771 201.178 196.763 199.619 181.706 184.605C181.751 184.605 196.495 168.967 216.824 170.215ZM252.88 226.484C234.07 225.548 222.141 228.355 216.511 237.087H206.816C214.635 223.009 228.44 220.202 243.81 220.202C275.8 220.202 321.864 231.117 347.554 246.131C326.868 238.334 299.927 229.29 252.88 226.484ZM351.307 240.562C329.37 229.29 288.31 214.633 236.572 214.633C213.696 215.88 205.207 220.246 193.636 237.443H181.126C191.759 218.687 202.125 207.727 224.375 207.727H251.674C267.669 207.727 276.113 208.663 285.54 189.907C285.853 189.283 286.166 188.971 286.478 188.347C290.678 177.655 299.971 169.814 311.23 167.408C311.23 167.408 301.222 173.957 312.794 176.808C336.295 180.194 382.359 188.659 351.307 240.562Z" fill="#002244"/>
<path d="M255.069 183.046C254.532 182.912 253.996 182.734 253.505 182.422C250.913 185.14 247.16 186.432 243.497 185.853C238.18 185.229 235.365 181.486 236.929 177.744C237.018 177.076 237.197 176.408 237.554 175.873C235.052 174.937 232.238 174.002 229.736 173.066C224.419 181.486 221.604 187.145 239.744 188.704C251.047 189.639 254.175 187.768 256.677 183.714C256.007 183.358 255.694 183.358 255.069 183.046Z" fill="#69BE28"/>
<path d="M163.254 215.524C163.254 215.524 155.748 209.287 147.259 202.738C139.127 196.5 135.062 195.565 119.692 195.565H30.6471C17.1988 219.89 16.2605 227.107 21.2646 234.904C26.2686 242.745 36.3214 243.369 51.959 243.369H156.642C150.074 235.528 153.827 231.785 163.254 215.524Z" fill="#A5ACAF"/>
</g>
<defs>
<clipPath id="clip0_257_11740">
<rect width="376" height="166" fill="white" transform="translate(11.999 118)"/>
</clipPath>
</defs>
</svg>
