<svg width="400" height="400" viewBox="0 0 400 400" fill="none" xmlns="http://www.w3.org/2000/svg">
<g clip-path="url(#clip0_257_11714)">
<path d="M361.396 173.274C357.233 164.859 355.51 163.277 350.198 156.373C349.552 155.51 348.906 155.006 348.26 154.143C344.097 148.749 332.109 139.399 326.367 135.587C314.882 127.892 301.889 121.347 288.753 116.672C284.662 115.234 280.714 113.939 276.622 112.644C265.352 108.976 248.699 105.668 236.64 104.158C222.499 102.432 213.741 102.072 202.4 102H190.986C189.766 102.072 189.335 102.288 187.9 102.288C169.667 102.503 141.816 107.538 125.522 112.572C117.195 115.162 109.801 117.823 101.905 121.275C98.101 122.929 94.7273 124.583 90.9946 126.453C79.7249 132.063 67.1631 140.622 57.9751 149.828L52.1608 155.941C45.0544 164.356 39.2401 173.634 36.2252 184.566C35.1485 188.378 34 193.7 34 198.519V198.878C34 206.646 34.0718 209.738 36.2252 217.506C39.0965 227.863 43.9776 235.702 50.2944 243.829C52.735 246.994 57.9033 252.604 61.0617 255.121C61.5642 255.481 61.7795 255.768 62.2102 256.2C62.928 256.919 63.5023 257.351 64.2919 257.998C71.3265 264.183 82.8115 271.519 91.1382 275.691C96.9525 278.567 101.762 280.797 107.792 283.242C118.343 287.486 127.46 290.147 138.514 292.952C147.343 295.181 156.244 296.476 165.863 297.914C172.108 298.777 181.798 299.64 188.259 299.712C189.623 299.712 190.053 299.928 191.345 300H202.184C213.526 299.928 222.355 299.568 236.137 297.842C258.246 295.109 268.941 291.945 288.322 285.472C290.189 284.825 292.199 284.033 294.137 283.242C299.736 281.013 311.077 275.906 316.245 272.742C321.486 269.505 325.792 267.06 330.961 263.248C335.626 259.796 340.077 256.128 344.097 252.1C357.017 239.226 368 222.109 368 202.978C368 190.823 366.205 182.912 361.396 173.274ZM306.77 272.742C276.119 288.133 239.224 295.685 200.031 295.685C152.87 295.685 95.3733 282.163 61.9231 249.439C60.5592 248.073 59.5543 246.85 58.1186 245.483C55.9652 243.47 52.735 239.082 50.9405 236.493C48.9306 233.688 46.6336 230.02 45.0544 226.496C24.6684 181.833 60.631 146.376 95.8758 129.114C157.68 98.7635 244.751 98.7635 306.411 129.114C330.458 140.91 362.688 165.435 362.975 200.604C363.262 236.493 330.674 260.731 306.77 272.742ZM186.751 218.585C170.816 217.938 164.355 215.492 150.358 211.465C146.195 223.907 144.831 222.612 134.135 222.54L134.207 189.96C136.289 189.96 138.442 189.96 140.524 189.96C143.898 189.96 143.108 189.744 144.974 191.542C151.363 197.871 158.828 202.331 167.945 205.351C179.286 209.163 198.667 211.752 210.726 207.797C216.756 205.783 222.427 202.331 223.647 195.93C225.155 188.09 217.546 185.141 210.87 184.35C195.365 182.48 179.071 184.638 163.494 182.768C150.286 181.258 133.418 177.374 132.484 164.5C131.982 156.732 137.15 151.194 140.668 148.246C157.823 133.789 194.576 133.502 216.828 138.896C219.412 139.543 219.053 139.327 220.776 137.961C222.211 136.738 222.642 136.091 225.083 136.091C230.61 136.163 238.578 135.875 243.459 136.163V157.236C239.942 157.523 235.922 157.308 232.333 157.308C227.882 157.38 229.318 156.876 224.437 154.287C219.484 151.626 214.89 149.468 209.075 147.67C199.528 144.721 180.937 141.773 171.247 145.872C165.648 148.246 162.202 154.143 169.237 157.595C179.142 162.414 207.783 156.876 227.81 164.716C250.565 173.706 255.087 200.964 224.508 212.687C212.88 217.146 200.533 219.16 186.751 218.585ZM192.853 205.351L199.6 205.999C210.583 207.005 223.934 197.871 217.905 192.262C214.89 189.457 208.286 189.888 203.835 189.888H175.697V197.512L175.769 198.519C183.952 198.519 191.345 196.865 192.853 205.351ZM252.503 189.672C252.216 196.217 250.924 196.505 250.135 199.31C255.59 199.31 277.268 198.878 280.929 199.741C288.968 201.539 292.486 209.81 292.414 219.592H300.382V189.744L252.503 189.672ZM255.231 216.068C250.35 223.116 241.018 224.842 232.189 224.77C228.887 224.77 225.585 224.41 222.427 224.051C207.066 222.037 217.474 222.972 204.051 224.41C200.462 224.77 197.231 224.914 193.571 224.914C192.996 227.935 193.427 236.781 193.427 240.449C193.427 246.203 194.288 249.871 190.843 253.395C185.603 258.717 174.62 260.659 166.94 261.019V267.635H237.932V261.162C231.83 259.868 225.298 259.796 219.986 254.689C217.474 252.316 216.756 250.23 216.756 245.555C216.756 241.456 216.756 237.284 216.756 233.185C222.57 233.185 240.731 232.394 244.894 233.904C254.657 237.356 257.169 248.936 258.318 249.295H265.424V209.019C253.652 208.947 260.686 208.156 255.231 216.068Z" fill="white"/>
<path d="M306.411 129.114C244.751 98.7636 157.68 98.7636 95.8759 129.114C60.6311 146.376 24.6685 181.833 45.0545 226.496C46.6337 230.02 48.9307 233.688 50.9406 236.493C52.7351 239.083 55.9653 243.47 58.1188 245.484C59.5544 246.85 60.5593 248.073 61.9232 249.439C95.3734 282.164 152.871 295.685 200.031 295.685C239.224 295.685 276.12 288.133 306.77 272.742C330.674 260.731 363.263 236.493 362.975 200.604C362.688 165.435 330.458 140.91 306.411 129.114ZM299.09 265.19C273.823 279.79 243.746 288.061 209.147 289.284C174.764 290.506 140.739 283.746 113.75 270.512C91.2819 259.508 64.6509 239.154 60.7029 209.307C56.0371 174.569 84.5344 150.116 103.915 138.896C129.111 124.296 159.762 116.025 194.217 114.874C219.986 114.011 245.038 117.463 269.085 125.446C282.293 129.834 296.362 136.594 307.273 144.362C316.533 150.907 318.902 153.352 326.151 161.12C327.228 162.27 328.377 163.781 329.382 165.147C331.535 168.096 333.114 170.326 334.981 173.706C338.426 179.891 341.082 186.939 342.159 194.995C346.681 229.517 318.255 254.114 299.09 265.19ZM302.894 189.672V186.724H251.427C249.919 183.199 250.709 182.049 247.192 177.086C243.674 171.98 238.147 166.873 232.62 163.781C224.222 159.106 206.707 157.38 197.016 157.092C191.417 156.948 174.405 157.739 170.816 155.078C172.395 149.253 184.67 149.253 189.479 149.396C196.873 149.612 203.907 150.763 210.439 152.777C216.828 154.647 221.996 157.164 227.308 160.113C231.974 162.702 230.108 162.774 236.783 162.774C240.588 162.774 245.325 162.99 248.986 162.702V136.235L246.043 136.163V133.214H224.293C222.427 133.214 222.499 132.998 221.278 134.005C217.474 137.026 218.981 136.379 213.311 135.228C191.058 130.769 163.853 131.704 144.903 141.988C139.088 145.081 133.274 150.331 130.905 157.236C128.608 163.781 130.403 171.548 135.715 175.935C138.227 178.021 139.304 180.754 146.41 183.631C152.799 186.22 163.566 188.234 170.601 188.666C173.544 188.881 173.041 188.09 173.041 193.412C173.041 195.93 173.041 198.447 173.041 200.964H175.984L176.056 203.841C180.794 204.272 188.187 202.474 189.838 206.502C189.551 206.646 190.125 206.574 189.264 206.646L186.536 206.43C185.316 206.286 184.096 206.142 182.803 205.999C169.811 204.129 155.383 198.663 146.41 189.241C145.621 188.378 145.118 187.659 144.185 187.227H131.623V225.058H134.423L134.638 227.935C137.868 228.366 146.554 228.366 148.851 227C151.722 225.274 153.732 221.462 155.024 217.722C161.269 219.16 163.566 220.455 171.893 222.037C174.979 222.612 177.922 223.044 181.081 223.404C183.737 223.691 188.69 223.691 190.915 224.195C191.058 229.085 190.915 234.192 190.915 239.082C190.915 244.189 191.92 248.936 188.546 251.956C184.742 255.337 176.989 257.063 171.534 257.782C169.452 258.07 166.222 257.998 164.427 258.429V269.937L167.37 270.009V272.958C192.35 273.173 218.479 272.958 243.531 272.958V261.81L240.659 261.019L240.516 258.429C233.553 257.926 227.165 257.207 223.001 252.244C222.068 251.093 222.283 249.799 222.283 248.073C222.283 244.836 222.283 241.672 222.283 238.435C226.734 238.435 243.315 237.932 246.33 238.867C249.848 239.946 251.283 241.6 252.934 244.477C256.954 251.525 254.226 251.525 258.031 251.597C259.107 255.624 257.313 254.546 270.951 254.546V209.091H268.008V206.214L256.021 206.142C254.944 214.054 250.781 218.513 243.961 220.599C238.075 222.397 224.868 222.397 219.986 220.886C226.303 218.297 227.882 218.873 235.491 214.629C238.291 213.119 242.669 210.026 244.751 207.725C245.612 206.79 246.258 205.423 247.551 204.776C257.456 204.776 267.434 204.776 277.34 204.776C279.852 204.776 282.078 204.632 284.375 205.423C286.815 206.214 287.102 206.934 288.107 209.235C290.117 213.982 289.615 216.931 289.758 222.109L292.773 222.181L292.629 225.13H305.981V189.96L302.894 189.672ZM175.769 198.519L175.697 197.512V189.888H203.836C208.286 189.888 214.89 189.457 217.905 192.262C223.934 197.871 210.583 207.005 199.6 205.999L192.853 205.351C191.346 196.865 183.952 198.519 175.769 198.519ZM222.427 224.051C225.585 224.411 228.887 224.77 232.189 224.77C241.018 224.842 250.35 223.116 255.231 216.068C260.687 208.156 253.652 208.947 265.424 209.019V249.295H258.318C257.169 248.936 254.657 237.356 244.895 233.904C240.731 232.394 222.571 233.185 216.756 233.185C216.756 237.284 216.756 241.456 216.756 245.555C216.756 250.23 217.474 252.316 219.986 254.689C225.298 259.796 231.83 259.868 237.932 261.162V267.635H166.94V261.019C174.62 260.659 185.603 258.717 190.843 253.395C194.289 249.871 193.427 246.203 193.427 240.449C193.427 236.781 192.996 227.935 193.571 224.914C197.232 224.914 200.462 224.77 204.051 224.411C217.474 222.972 207.066 222.037 222.427 224.051ZM224.509 212.687C212.88 217.146 200.534 219.16 186.751 218.585C170.816 217.938 164.356 215.492 150.358 211.465C146.195 223.907 144.831 222.612 134.136 222.541L134.207 189.96C136.289 189.96 138.442 189.96 140.524 189.96C143.898 189.96 143.108 189.744 144.975 191.542C151.363 197.871 158.828 202.331 167.945 205.351C179.286 209.163 198.667 211.752 210.727 207.797C216.756 205.783 222.427 202.331 223.647 195.93C225.155 188.09 217.546 185.141 210.87 184.35C195.365 182.48 179.071 184.638 163.494 182.768C150.286 181.258 133.418 177.374 132.485 164.5C131.982 156.732 137.15 151.194 140.668 148.246C157.823 133.789 194.576 133.502 216.828 138.896C219.412 139.543 219.053 139.327 220.776 137.961C222.212 136.738 222.642 136.091 225.083 136.091C230.61 136.163 238.578 135.875 243.459 136.163V157.236C239.942 157.523 235.922 157.308 232.333 157.308C227.882 157.38 229.318 156.876 224.437 154.287C219.484 151.626 214.89 149.468 209.076 147.67C199.529 144.721 180.937 141.773 171.247 145.872C165.648 148.246 162.202 154.143 169.237 157.595C179.143 162.414 207.784 156.876 227.811 164.716C250.565 173.706 255.088 200.964 224.509 212.687ZM300.382 219.592H292.414C292.486 209.81 288.969 201.539 280.929 199.741C277.268 198.878 255.59 199.31 250.135 199.31C250.924 196.505 252.216 196.217 252.503 189.672L300.382 189.744V219.592Z" fill="#010101"/>
<path fill-rule="evenodd" clip-rule="evenodd" d="M342.159 194.994C341.082 186.939 338.426 179.891 334.981 173.706C333.114 170.325 331.535 168.096 329.382 165.147C328.377 163.781 327.228 162.27 326.152 161.119C318.902 153.352 316.533 150.907 307.273 144.362C296.362 136.594 282.293 129.834 269.085 125.446C245.038 117.463 219.986 114.011 194.217 114.874C159.762 116.025 129.111 124.296 103.916 138.896C84.5345 150.115 56.0372 174.569 60.703 209.307C64.651 239.154 91.2819 259.508 113.75 270.512C140.74 283.746 174.764 290.506 209.147 289.284C243.746 288.061 273.823 279.79 299.09 265.19C318.256 254.114 346.681 229.517 342.159 194.994ZM292.486 259.005C245.182 288.133 170.96 289.212 121.358 264.686C100.542 254.402 76.4231 235.63 72.3316 208.156C67.5222 175.719 93.5072 152.777 111.094 142.204C134.064 128.467 162.059 120.484 193.786 119.261C225.657 118.038 256.882 124.296 281.934 136.45C342.518 165.938 349.768 223.619 292.486 259.005Z" fill="#B2975D"/>
<path fill-rule="evenodd" clip-rule="evenodd" d="M281.934 136.45C256.882 124.296 225.657 118.038 193.786 119.261C162.059 120.484 134.064 128.467 111.094 142.204C93.5072 152.777 67.5222 175.72 72.3316 208.156C76.4231 235.63 100.542 254.402 121.358 264.686C170.96 289.212 245.182 288.133 292.486 259.005C349.768 223.619 342.518 165.938 281.934 136.45ZM305.981 225.13H292.629L292.773 222.181L289.758 222.109C289.615 216.931 290.117 213.982 288.107 209.235C287.102 206.933 286.815 206.214 284.375 205.423C282.078 204.632 279.852 204.776 277.34 204.776C267.434 204.776 257.456 204.776 247.551 204.776C246.259 205.423 245.613 206.79 244.751 207.725C242.669 210.026 238.291 213.119 235.491 214.629C227.882 218.872 226.303 218.297 219.986 220.886C224.868 222.397 238.075 222.397 243.962 220.599C250.781 218.513 254.944 214.054 256.021 206.142L268.008 206.214V209.091H270.951V254.546C257.313 254.546 259.107 255.624 258.031 251.597C254.226 251.525 256.954 251.525 252.934 244.476C251.283 241.6 249.848 239.945 246.33 238.867C243.315 237.932 226.734 238.435 222.283 238.435C222.283 241.672 222.283 244.836 222.283 248.073C222.283 249.799 222.068 251.093 223.001 252.244C227.165 257.207 233.553 257.926 240.516 258.429L240.66 261.018L243.531 261.81V272.957C218.479 272.957 192.351 273.173 167.371 272.957V270.009L164.427 269.937V258.429C166.222 257.998 169.452 258.07 171.534 257.782C176.989 257.063 184.742 255.337 188.546 251.956C191.92 248.936 190.915 244.189 190.915 239.082C190.915 234.192 191.058 229.085 190.915 224.195C188.69 223.691 183.737 223.691 181.081 223.403C177.922 223.044 174.979 222.612 171.893 222.037C163.566 220.455 161.269 219.16 155.024 217.722C153.732 221.462 151.722 225.273 148.851 227C146.554 228.366 137.868 228.366 134.638 227.935L134.423 225.058H131.623V187.227H144.185C145.118 187.658 145.621 188.378 146.41 189.241C155.383 198.662 169.811 204.129 182.804 205.998C184.096 206.142 185.316 206.286 186.536 206.43L189.264 206.646C190.125 206.574 189.551 206.646 189.838 206.502C188.187 202.474 180.794 204.272 176.056 203.841L175.984 200.964H173.041C173.041 198.447 173.041 195.929 173.041 193.412C173.041 188.09 173.544 188.881 170.601 188.665C163.566 188.234 152.799 186.22 146.41 183.631C139.304 180.754 138.227 178.021 135.715 175.935C130.403 171.548 128.608 163.781 130.905 157.236C133.274 150.331 139.089 145.081 144.903 141.988C163.853 131.704 191.058 130.769 213.311 135.228C218.982 136.378 217.474 137.026 221.279 134.005C222.499 132.998 222.427 133.214 224.293 133.214H246.043V136.163L248.986 136.235V162.702C245.325 162.989 240.588 162.774 236.783 162.774C230.108 162.774 231.974 162.702 227.308 160.113C221.996 157.164 216.828 154.647 210.439 152.777C203.907 150.763 196.873 149.612 189.479 149.396C184.67 149.252 172.395 149.252 170.816 155.078C174.405 157.739 191.417 156.948 197.016 157.092C206.707 157.38 224.222 159.106 232.62 163.781C238.147 166.873 243.674 171.98 247.192 177.086C250.709 182.049 249.919 183.199 251.427 186.724H302.894V189.672L305.981 189.96V225.13V225.13Z" fill="#A81E22"/>
</g>
<defs>
<clipPath id="clip0_257_11714">
<rect width="334" height="198" fill="white" transform="translate(34 102)"/>
</clipPath>
</defs>
</svg>
