<svg width="400" height="400" viewBox="0 0 400 400" fill="none" xmlns="http://www.w3.org/2000/svg">
<g clip-path="url(#clip0_257_11720)">
<path d="M380.716 80.7252C377.638 59.7167 369.628 48.3618 367.3 44.8406C365.563 42.2689 360.157 34 360.157 34C360.157 34 360.631 43.6932 360.67 46.9375C360.67 47.0957 361.42 61.8927 358.697 75.1862C356.764 84.5629 355.462 89.8645 354.87 92.1592C349.424 95.1661 340.625 98.9247 328.076 101.022C323.065 101.852 317.935 102.288 312.845 102.288C292.72 102.288 273.069 95.6408 254.838 88.4797C241.067 83.0595 228.755 78.9844 217.154 76.0566C201.883 72.1793 187.598 70.2011 174.695 70.2011C170.078 70.2011 165.54 70.4385 161.2 70.9529C130.855 74.4345 108.363 86.4224 94.7883 95.8782C93.2099 96.9465 91.8288 97.9751 90.5661 98.8455C82.4373 104.543 79.9908 106.284 71.8226 108.618L61.7603 111.506L71.5069 115.344C72.1383 115.581 76.4789 117.282 80.5433 118.153C80.0303 121.081 79.6357 124.562 80.1881 126.659C78.0967 126.738 75.808 126.778 73.3615 126.778C71.9015 126.778 70.9545 126.778 70.9545 126.778L60.2608 126.58L68.7052 133.148C69.7312 133.939 71.9015 135.719 73.835 137.579C70.2836 138.607 65.0749 139.715 59.2743 139.715C57.3407 139.715 55.4072 139.597 53.592 139.359L49.9222 138.845L49.6065 142.564C49.5276 143.276 49.5671 145.294 51.2639 148.34C52.645 150.793 54.7758 153.365 57.6564 155.937C56.2358 156.807 55.0915 157.717 54.1445 158.746L46.5287 166.935L57.4591 164.561C57.4591 164.561 58.8797 164.285 60.9316 164.285C64.7198 164.285 70.0469 165.195 73.8745 169.388C75.2161 171.129 75.6502 172.474 75.4924 174.492C75.2161 177.974 74.3875 179.121 70.0863 182.009C66.8901 183.315 63.9306 184.818 61.2867 186.48C48.1465 194.551 37.5318 206.974 29.6792 223.393C26.1278 230.792 23.7207 238.784 22.3396 244.164C20.6034 250.969 19.9326 257.062 19.538 260.702V260.86C19.1434 264.579 18.5909 275.816 18.5909 276.29L17.999 288.437L25.0229 278.585C25.1018 278.506 31.0998 270.039 33.9409 265.964C34.1382 265.687 39.0312 258.724 48.0281 250.969C57.8932 242.463 68.1923 236.845 78.6886 234.194C86.265 232.256 94.2754 231.267 102.404 231.267H102.444C125.37 231.267 142.377 238.744 147.033 241.039C150.19 242.582 153.781 244.56 157.964 246.855C172.801 255.045 193.083 266.281 218.259 270.475C225.835 271.741 234.004 272.374 242.566 272.374C248.17 272.374 253.891 272.097 259.731 271.543C257.364 275.024 255.075 278.348 252.865 281.552C248.643 279.02 244.421 278.585 243.869 278.546C243.277 278.506 242.685 278.466 242.093 278.466C234.911 278.466 231.005 282.542 230.294 283.372C228.361 285.509 227.059 288.12 226.546 290.969C225.875 294.015 226.624 297.18 227.137 298.802C228.124 301.968 230.058 304.183 231.873 305.647C224.375 316.962 221.258 328.634 220.39 332.432L216.562 335.834L214.944 337.259L215.457 339.356L216.917 345.33C214.313 355.3 219.443 362.896 225.875 366.061C228.479 367.367 231.32 368 234.28 368C236.766 368 238.541 367.525 238.897 367.407C243 366.259 246.552 363.648 248.919 360.087C249.077 359.85 249.235 359.612 249.393 359.335C249.866 359.059 250.301 358.742 250.735 358.425C252.431 358.544 254.483 358.584 254.799 358.623H254.878H254.957C264.23 358.544 272.398 355.735 278.515 350.513L278.554 350.473L278.593 350.434C282.618 346.833 289.366 339 289.603 327.091V327.051V327.012V326.774C289.642 320.84 288.064 315.696 284.828 311.384L285.775 309.999C322.118 256.508 346.149 221.138 361.617 185.174C370.93 163.493 377.165 142.801 380.085 123.771C382.413 108.38 382.61 93.8605 380.716 80.7252ZM358.303 183.869C342.637 220.307 318.132 256.073 280.369 311.7C286.367 318.031 286.012 325.31 286.012 327.091C285.854 336.705 280.764 343.708 276.186 347.822C270.346 352.768 262.691 355.023 254.878 355.063C254.878 355.063 251.05 354.944 249.59 354.786C248.801 355.498 247.815 356.17 246.749 356.764C246.512 357.239 246.236 357.674 245.96 358.109C243.987 361.076 241.106 363.094 237.91 363.964C237.91 363.964 232.82 365.507 227.414 362.817C222.087 360.206 217.943 353.836 220.587 345.33L218.89 338.406L223.626 334.212C223.626 334.212 226.624 318.308 236.963 304.5C235.542 303.867 231.873 301.928 230.531 297.615C230.136 296.31 229.505 293.778 230.018 291.562C230.452 289.188 231.518 287.171 232.938 285.628C232.938 285.628 236.489 281.315 243.553 281.988C243.553 281.988 249.393 282.423 253.694 286.498C257.956 280.484 262.375 273.956 267.032 267.032C258.824 268.14 250.577 268.734 242.606 268.734C234.319 268.734 226.309 268.14 218.89 266.914C187.362 261.652 163.291 244.916 148.651 237.795C138.55 232.849 121.542 227.666 102.444 227.666C94.5121 227.666 86.186 228.576 77.86 230.673C51.7374 237.32 33.8225 259.871 31.0209 263.946C28.1797 268.022 22.1029 276.528 22.1029 276.528C22.1029 276.528 22.6553 264.936 23.0499 261.296C23.4445 257.616 24.0759 251.721 25.7727 245.074C27.4694 238.467 29.8765 231.187 32.8755 224.936C39.781 210.495 49.646 197.835 63.1414 189.526C66.0219 187.746 68.9815 186.322 71.7831 185.214C76.6762 181.97 78.6492 179.991 79.0832 174.809C79.32 171.92 78.6492 169.665 76.6367 167.133C68.9815 158.548 56.7883 161.08 56.7883 161.08C58.7218 158.983 61.8786 157.559 64.3252 156.649C52.6844 148.024 53.158 142.762 53.158 142.762C67.3241 144.7 80.0697 139.122 80.0697 139.122C77.7021 135.482 70.915 130.22 70.915 130.22C70.915 130.22 85.3179 130.457 90.8423 129.033C96.3668 127.609 104.298 125.195 102.365 121.595C100.431 117.995 83.6606 125.67 83.6606 125.67C82.9503 123.019 84.8444 115.067 84.8444 115.067C80.78 115.067 72.8485 111.941 72.8485 111.941C82.9109 109.053 85.0812 106.877 96.8403 98.7268C108.599 90.5371 130.697 77.9953 161.634 74.4345C193.517 70.755 227.887 81.6352 253.536 91.7636C279.225 101.852 302.743 108.855 328.668 104.503C342.558 102.169 352.029 97.9356 357.908 94.4935C357.908 94.4935 359.447 89.3502 362.209 75.8984C365.09 61.9718 364.261 46.7396 364.261 46.7396C364.38 47.0561 399.775 87.3324 358.303 183.869ZM196.003 148.934C196.003 148.894 196.003 148.855 195.964 148.775C195.885 148.142 195.806 147.786 195.806 146.639C195.846 144.582 196.043 143.157 196.043 143.157C195.806 146.52 197.621 151.07 199.673 152.059C201.291 152.851 207.052 154.829 209.144 157.242C211.314 159.735 211.275 161.95 210.84 163.889C210.722 164.482 210.327 165.59 210.091 166.223C210.17 166.263 210.209 166.263 210.288 166.302C210.485 166.381 210.88 166.738 210.88 166.896C210.88 166.896 210.643 167.054 210.485 167.331C210.327 167.608 210.17 167.924 209.933 168.478L209.144 170.615C208.907 171.366 209.617 171.564 209.617 171.564L211.511 171.96C211.511 171.96 212.34 172.118 212.656 171.367C212.932 170.575 213.169 169.903 213.445 169.111L213.8 168.083C213.879 167.806 214.195 167.252 214.51 167.252C214.826 167.252 215.26 167.41 215.181 168.004C215.102 168.637 215.023 168.993 214.984 169.111L214.155 172.276C213.879 173.068 214.747 173.305 214.747 173.305L216.404 173.701C216.404 173.701 217.391 173.978 217.628 173.859C217.864 173.78 218.022 173.384 218.062 173.266C218.101 173.147 218.969 170.061 219.088 169.744C219.127 169.507 219.127 168.993 219.009 168.716C219.048 168.716 219.837 168.874 220.311 169.032C220.666 169.151 221.179 169.349 221.416 169.547C221.021 169.744 220.942 170.021 220.863 170.219L219.601 173.859C219.522 174.176 219.522 174.65 220.153 174.888L222.047 175.56C222.047 175.56 222.205 175.639 222.442 175.639C222.718 175.639 223.034 175.56 223.152 175.086C223.27 174.69 223.586 173.78 223.862 172.989C224.139 172.197 224.217 171.762 224.375 171.367C224.415 171.208 224.573 170.931 224.691 170.813C225.007 170.773 225.204 170.852 225.401 170.931C225.638 171.05 225.914 171.367 226.033 171.446C226.033 171.446 225.125 174.413 224.809 175.56C224.651 176.272 225.362 176.589 225.362 176.589L227.098 177.42C227.098 177.42 227.808 177.657 228.045 176.945L228.913 174.017C228.913 174.017 229.032 173.582 229.071 173.384C229.11 173.266 229.11 173.147 229.071 173.068C229.071 173.068 229.426 173.226 229.86 173.424C230.058 171.841 230.728 170.733 230.728 170.733C230.728 170.733 231.991 169.784 234.319 169.863C231.991 169.784 230.728 170.733 230.728 170.733C230.847 170.496 231.044 170.14 231.281 169.744L231.399 169.586L231.281 169.744C232.307 167.885 233.609 166.817 236.174 166.302C239.291 165.63 244.658 167.45 246.868 167.885C248.841 168.241 252.55 166.144 254.641 163.691V163.652C255.115 163.098 255.194 162.702 255.194 162.702C255.194 162.702 254.207 159.814 254.562 157.163C254.917 154.473 256.969 150.041 256.969 150.041C253.299 146.56 252.865 139.32 252.865 139.32C253.102 140.783 253.655 142.208 254.483 143.632C255.667 145.769 257.127 147.707 258.311 148.973C257.127 147.707 255.707 145.808 254.523 143.672C255.194 142.683 256.417 141.377 257.798 139.399C258.784 138.014 260.6 134.572 260.6 129.626C260.6 118.588 250.419 113.207 249.788 112.851C248.643 112.179 248.328 112.06 246.039 110.873C245.368 110.557 244.579 110.161 243.513 109.647C242.487 109.132 242.172 109.093 240.199 108.42C239.41 108.143 236.332 107.075 232.465 106.442C232.307 106.402 232.149 106.402 231.991 106.363C231.044 106.244 230.373 106.284 227.611 106.086C226.033 105.967 224.849 106.125 223.981 106.204C222.915 106.284 222.6 106.204 219.995 106.956C211.432 109.449 208.236 117.164 207.684 120.962L207.565 122.426C207.565 122.465 207.565 122.505 207.565 122.544C207.565 124.918 207.644 126.659 207.605 127.806C207.605 127.925 207.565 128.123 207.565 128.202C209.183 127.529 210.762 126.58 211.906 125.433C211.63 125.749 207.052 130.972 202.199 131.525C202.199 131.525 201.133 136.234 199.831 138.607C198.529 140.981 196.003 142.643 196.003 142.643C196.003 142.643 196.003 142.88 195.964 143.157C195.964 143.276 195.767 144.661 195.767 146.599C195.767 147.747 195.846 148.103 195.925 148.736C195.964 148.815 195.964 148.855 196.003 148.934ZM228.597 162.504L228.203 163.652C227.69 165.195 225.796 165.986 223.981 165.353C223.981 165.353 225.164 165.036 225.559 163.889C225.559 163.889 225.559 163.889 225.559 163.849C226.309 163.731 226.94 163.295 227.177 162.583L227.611 161.396C227.808 160.842 227.729 160.447 227.572 160.012C227.729 160.486 227.769 160.882 227.611 161.396L227.177 162.583C226.94 163.295 226.309 163.731 225.559 163.849C225.204 163.889 224.809 163.849 224.454 163.731C223.31 163.335 222.718 162.188 223.073 161.159C223.113 161.001 223.034 160.803 222.836 160.724C222.639 160.645 222.481 160.763 222.402 160.922C222.047 161.95 220.982 162.504 219.798 162.188C219.364 162.069 219.048 161.95 218.811 161.673C218.772 161.713 218.772 161.713 218.772 161.752C218.377 162.9 219.167 163.889 219.167 163.889C217.391 163.295 216.365 161.515 216.878 159.972L217.272 158.785C217.509 157.915 218.219 157.361 218.693 157.084C219.206 156.767 219.601 156.53 220.114 155.897L220.153 155.857C220.863 155.106 221.376 154.512 221.692 153.563C222.087 152.415 223.152 151.703 224.415 151.624C224.849 151.584 225.283 151.584 225.717 151.703C224.651 151.426 223.468 151.901 223.152 152.89C223.468 151.901 224.651 151.426 225.717 151.703C225.835 151.743 226.033 151.782 226.112 151.822C227.769 152.494 228.716 154.196 228.203 155.699C227.887 156.649 227.966 157.4 228.045 158.429V158.469C228.085 159.299 228.282 159.735 228.479 160.289C228.676 160.803 228.913 161.634 228.597 162.504ZM212.892 129.745C216.562 129.587 221.968 134.651 225.243 137.381C228.203 139.992 229.505 140.23 229.742 140.348C230.018 140.467 231.202 141.06 235.148 140.744C239.725 140.546 247.775 139.715 250.143 142.643C250.143 142.722 244.421 142.05 240.554 142.683C236.726 143.474 231.241 143.988 228.834 143.157C226.427 142.366 222.363 138.647 219.798 135.68C217.115 132.871 212.182 129.903 212.182 129.824C212.419 129.785 212.656 129.745 212.892 129.745ZM202.08 142.05C202.317 139.201 205.355 133.701 205.355 133.701L205.592 133.939L205.355 133.701C205.513 133.781 208.197 134.928 210.525 137.183C210.762 137.421 210.998 137.618 211.196 137.856C213.761 140.625 216.168 143.197 218.535 143.988C219.324 144.226 220.114 144.305 220.863 144.265H220.903C221.218 144.265 221.258 144.265 221.495 144.226C222.718 144.067 223.665 143.751 223.665 143.751C224.494 145.492 230.768 147.588 232.504 146.718L232.544 146.758C232.662 146.916 233.175 147.628 233.964 148.38C234.082 148.498 234.319 148.696 234.438 148.815C234.99 149.29 235.661 149.725 236.45 150.002C238.818 150.793 242.29 150.239 245.999 149.567C246.315 149.527 246.631 149.488 246.946 149.448C250.261 149.052 253.181 149.804 253.181 149.804V149.844H253.102C253.023 149.844 252.905 149.844 252.787 149.883C251.839 150.2 251.405 152.415 251.405 152.415C251.405 152.415 251.879 150.081 252.865 149.883C252.984 149.844 253.063 149.844 253.181 149.844C253.102 150.358 252.195 156.134 250.774 158.429C249.275 160.842 247.815 163.098 244.066 162.9C244.066 162.9 246.236 162.267 245.526 160.645C245.447 160.486 245.447 160.368 245.407 160.249C245.407 160.249 245.368 160.249 245.368 160.289C245.368 160.289 244.776 160.447 244.5 160.486C242.211 160.763 237.437 160.012 235.148 158.469L235.108 158.429C232.82 156.965 232.346 151.703 232.346 150.358C232.346 151.703 232.82 157.044 235.108 158.429C235.108 158.429 234.556 159.062 235.306 161.199C235.108 161.119 232.228 160.051 231.202 157.717C230.136 155.303 231.162 148.855 227.335 147.549C223.468 146.283 220.39 152.059 218.101 153.325C215.812 154.591 212.774 153.602 212.774 153.602C214.629 152.336 214.589 151.466 214.589 151.466C214.55 151.466 214.51 151.466 214.471 151.466C211.709 151.347 207.447 149.013 205.79 147.43C205.553 147.232 205.198 146.758 205.198 146.758L204.961 146.955C203.461 147.826 204.645 149.527 204.724 149.685C201.607 147.588 201.804 144.898 202.08 142.05ZM249.353 312.689C249.156 312.927 244.184 319.494 239.765 329.346C239.765 329.346 239.765 329.346 239.765 329.385C239.094 326.576 239.41 323.213 239.528 322.541C238.699 324.796 237.831 328.594 238.147 331.205C238.226 331.799 238.384 332.432 238.502 332.946C236.45 342.442 232.425 342.6 231.399 342.442C231.241 342.402 231.123 342.402 231.123 342.402C231.123 342.402 231.123 342.442 231.162 342.56C231.123 342.402 231.083 342.323 231.083 342.323C235.029 338.802 234.911 332.471 238.936 323.688C239.133 323.293 239.528 322.343 239.725 321.987C240.238 320.998 242.606 316.448 243.869 314.312C245.329 311.859 246.868 309.406 248.406 306.992C248.485 306.873 248.564 306.755 248.643 306.676C248.564 307.23 248.446 309.96 249.353 312.689ZM164.159 198.349C165.974 198.507 168.105 198.745 169.92 199.061C168.815 199.417 167.395 200.13 166.369 201.712C165.461 201.593 163.331 201.475 160.923 201.475C158.516 201.435 155.833 201.554 154.018 201.752C154.413 201 155.044 200.169 156.149 199.417C157.056 198.824 158.319 198.389 159.503 198.151C158.122 198.151 156.07 198.666 154.689 199.497C153.9 199.932 153.071 200.683 152.676 201.514C152.637 201.554 152.479 201.87 152.44 201.91C152.282 202.187 152.163 202.503 152.163 202.741C152.163 202.503 152.282 202.187 152.44 201.87C148.336 201.87 147.349 198.943 147.191 198.507C147.546 198.666 148.02 198.784 148.296 198.824C148.612 198.864 149.243 198.903 149.559 198.903C151.453 198.864 152.321 198.666 153.781 198.468C155.438 198.231 157.096 198.112 158.793 198.112H159.661C160.253 198.112 160.805 198.112 161.397 198.151C162.344 198.151 163.252 198.27 164.159 198.349ZM218.496 210.891C218.969 211.128 219.403 211.405 219.837 211.643C219.798 211.801 219.798 211.92 219.798 212.038C219.798 212.711 219.798 213.423 219.758 214.096C219.758 214.294 219.719 214.491 219.719 214.689C219.206 214.412 218.654 214.175 218.141 213.898C217.943 215.085 217.667 216.272 217.272 217.459C216.483 216.984 215.694 216.549 214.865 216.153C215.221 215.045 215.497 213.937 215.694 212.79C214.826 212.394 213.958 211.999 213.05 211.643C212.813 212.711 212.537 213.779 212.182 214.847C211.353 214.452 210.525 214.096 209.657 213.74C209.972 212.711 210.288 211.643 210.564 210.614C209.696 210.258 208.789 209.941 207.881 209.625C207.565 210.654 207.25 211.643 206.894 212.671C206.026 212.355 205.158 212.078 204.29 211.801C204.645 210.772 205 209.783 205.355 208.794C204.448 208.517 203.501 208.201 202.593 207.963C202.199 208.952 201.804 209.941 201.449 210.97C200.581 210.733 199.673 210.535 198.805 210.337C199.16 209.269 199.594 208.28 200.028 207.251C199.081 207.014 198.134 206.776 197.187 206.579C196.674 207.607 196.24 208.675 195.846 209.744C194.938 209.585 194.03 209.467 193.123 209.348C193.517 208.201 193.991 207.093 194.543 206.025C193.952 205.906 193.36 205.827 192.807 205.708C192.926 205.51 193.044 205.352 193.202 205.154C193.596 204.561 194.03 204.007 194.425 203.493C194.465 203.413 194.504 203.374 194.583 203.295C195.096 203.374 195.569 203.413 196.082 203.493C196.556 202.82 197.029 202.187 197.503 201.593C198.332 201.712 199.2 201.831 199.989 201.95C199.515 202.583 199.081 203.216 198.687 203.888C199.594 204.046 200.502 204.244 201.409 204.442C201.804 203.769 202.159 203.057 202.593 202.424C203.382 202.583 204.132 202.78 204.882 202.978C204.527 203.651 204.211 204.363 203.856 205.075C204.724 205.312 205.592 205.55 206.421 205.827C206.697 205.115 206.973 204.363 207.25 203.651C207.96 203.888 208.71 204.126 209.42 204.363C209.223 205.075 208.986 205.827 208.789 206.579C209.657 206.895 210.485 207.212 211.314 207.528C211.472 206.776 211.63 206.025 211.748 205.273C212.458 205.589 213.169 205.866 213.918 206.222C213.839 206.974 213.76 207.765 213.642 208.517C214.51 208.913 215.339 209.308 216.168 209.704C216.246 208.952 216.286 208.161 216.286 207.37C217.036 207.765 217.746 208.161 218.496 208.557C218.535 209.348 218.535 210.1 218.496 210.891ZM284.512 259.476L294.772 256.627C293.943 257.893 291.655 261.217 288.695 265.529C285.696 269.842 282.026 275.104 278.436 280.326C271.175 290.731 264.151 300.82 263.243 302.047C263.086 301.928 258.548 298.051 258.39 297.892C261.744 293.184 268.176 283.728 273.819 275.38C279.462 267.032 284.315 259.753 284.512 259.476ZM308.228 173.622C308.228 173.622 308.267 173.622 308.228 173.622C307.991 174.294 302.309 186.361 279.896 196.411L279.856 196.45C278.87 196.846 277.923 197.241 276.857 197.677C272.24 199.417 262.573 202.741 249.788 205.036C244.618 205.985 239.37 206.618 234.122 207.053C233.688 207.093 230.649 207.291 230.649 207.291C229.702 206.064 228.597 204.798 227.453 203.651C234.398 203.334 241.58 202.543 248.564 201.277C277.449 196.094 295.127 184.106 303.611 177.38C304.4 176.747 305.111 176.193 305.742 175.679C307.044 174.611 307.675 174.215 308.228 173.622ZM193.517 192.335C191.9 192.612 190.321 192.929 188.822 193.364C184.955 189.962 175.879 180.941 175.839 180.941C168.539 173.543 163.094 166.461 158.95 159.893C158.082 158.508 157.451 157.321 156.899 156.451L156.425 155.58C156.307 155.343 156.149 155.106 156.03 154.868C153.663 150.516 151.887 146.441 150.545 142.722C150.348 142.168 150.19 141.654 149.993 141.14C148.296 135.917 147.468 131.446 147.112 127.925C147.073 127.569 147.033 127.173 146.994 126.817C146.797 124.206 146.836 122.188 146.876 120.962C146.915 120.171 146.994 119.696 146.994 119.577L146.876 119.933L146.994 119.538C148.572 126.184 153.268 150.991 177.812 177.697C182.824 182.959 188.151 187.865 193.517 192.335ZM259.889 236.172C260.126 236.331 260.481 236.647 260.876 236.726C260.244 237.241 259.219 237.518 258.469 237.557C258.153 237.557 257.68 237.557 257.324 237.478C256.811 237.399 256.298 237.201 255.983 237.043C255.746 236.924 255.47 236.766 255.194 236.608L254.72 236.291C254.799 236.172 254.838 235.856 254.838 235.816C254.996 234.906 254.76 233.838 254.365 233.007C253.812 231.741 252.392 230.159 251.366 229.288C252.116 230.159 252.826 231.108 253.221 232.097C253.655 233.363 253.694 234.353 253.536 235.223C250.892 232.651 245.723 228.853 243.671 227.745C243.75 225.807 242.882 224.699 242.172 223.749C243.829 224.541 245.684 225.569 247.262 226.519C248.051 226.994 248.841 227.429 249.63 227.983C250.103 228.299 250.577 228.616 251.05 228.972L251.248 229.091L251.366 229.17C252.747 230.159 254.444 231.543 255.667 232.691C256.772 233.68 257.364 234.353 258.863 235.5C259.061 235.698 259.613 236.014 259.889 236.172ZM235.306 183.908C231.912 185.412 226.782 188.656 224.77 190.001C224.02 190.516 222.955 190.951 221.653 191.188C220.824 189.724 217.983 187.904 214.313 186.678C210.485 185.372 206.973 185.135 205.553 185.926C204.487 184.858 203.935 183.79 203.58 182.84C202.87 181.06 200.502 175.125 198.884 170.971C197.463 167.291 196.556 165.115 196.398 164.72C197.345 163.889 200.147 164.245 200.147 164.245C200.107 164.087 200.107 163.77 200.107 163.493C200.107 163.77 200.107 164.047 200.147 164.205C200.147 164.245 201.291 165.432 201.528 166.342C201.804 167.252 201.528 172.276 203.501 175.719V175.6C203.501 175.6 203.58 175.244 204.014 174.611C204.448 173.978 205.237 173.107 205.75 173.424C206.263 173.78 206.184 174.769 206.184 175.837C206.184 176.905 205.829 178.013 205.553 178.33C205.553 178.33 205.947 179.161 207.092 179.715C207.092 179.715 207.052 179.319 207.131 178.725C207.289 177.697 207.802 176.866 208.157 175.956C208.315 175.362 208.552 175.244 209.025 175.56C209.025 175.56 209.933 176.075 210.762 176.51C211.117 176.668 211.472 176.985 211.117 177.815L210.091 180.308C210.091 180.308 209.893 181.06 209.538 181.099C209.538 181.099 210.249 181.574 210.525 181.693C210.998 181.891 211.551 182.168 211.827 182.207C211.827 182.207 211.551 181.732 211.63 181.02C211.827 180.031 212.103 178.646 212.34 177.499C212.419 177.222 212.656 176.787 213.208 176.945C213.8 177.182 214.431 177.459 215.063 177.657C215.615 177.895 215.576 178.409 215.576 178.567C215.299 179.833 214.984 181.337 214.629 182.563C214.55 182.761 214.431 182.998 214.352 183.117C214.352 183.117 214.944 183.513 215.299 183.631C215.694 183.711 216.404 183.869 216.404 183.869C216.404 183.869 216.286 183.315 216.444 182.801C216.444 182.801 217.233 180.348 217.588 179.517C217.707 179.2 217.904 178.765 218.496 178.805C219.245 179.042 219.995 179.24 220.745 179.398C221.297 179.556 220.982 180.506 220.982 180.506C220.982 180.506 220.035 182.801 219.758 183.592C219.64 183.829 219.64 184.106 219.206 184.423C219.206 184.423 220.074 184.7 220.469 184.779C221.297 184.937 221.416 184.858 221.613 184.897C221.613 184.897 221.376 184.304 221.653 183.552L222.442 181.693C222.521 181.534 222.56 181.376 222.639 181.178C222.718 180.941 223.113 180.466 223.783 180.585L225.362 180.862C225.362 180.862 226.388 181.06 226.033 181.93C225.559 182.998 225.046 184.067 224.494 185.135C225.086 185.174 225.677 185.214 226.269 185.214C226.269 185.214 226.19 185.174 226.427 184.502C226.664 183.869 227.374 182.444 227.453 182.247C227.532 182.049 227.808 181.178 228.124 181.139C228.479 181.099 229.781 182.207 229.426 184.264C233.096 182.682 235.858 178.488 236.647 177.934C237.318 177.42 238.62 177.222 238.975 177.143C239.686 177.618 241.146 178.646 241.461 179.873C241.461 179.873 238.699 182.405 235.306 183.908Z" fill="white"/>
<path d="M364.263 46.7395C364.263 46.7395 365.091 61.9717 362.211 75.8982C359.449 89.35 357.91 94.4934 357.91 94.4934C352.03 97.9354 342.56 102.169 328.67 104.503C302.745 108.855 279.226 101.852 253.538 91.7634C227.889 81.635 193.519 70.7549 161.635 74.4344C130.699 77.9951 108.601 90.537 96.8419 98.7267C85.0828 106.877 82.9125 109.053 72.8502 111.941C72.8502 111.941 80.7816 115.067 84.846 115.067C84.846 115.067 82.9519 123.019 83.6622 125.67C83.6622 125.67 100.433 117.994 102.366 121.595C104.3 125.195 96.3684 127.608 90.844 129.033C85.3195 130.457 70.9166 130.22 70.9166 130.22C70.9166 130.22 77.7037 135.482 80.0714 139.122C80.0714 139.122 67.3257 144.7 53.1596 142.762C53.1596 142.762 52.6861 148.024 64.3268 156.649C61.8803 157.559 58.7234 158.983 56.7899 161.08C56.7899 161.08 68.9831 158.548 76.6383 167.133C78.6508 169.665 79.3216 171.92 79.0848 174.808C78.6508 179.991 76.6778 181.97 71.7847 185.214C68.9831 186.322 66.0236 187.746 63.143 189.526C49.6476 197.835 39.7826 210.495 32.8771 224.936C29.8781 231.187 27.4711 238.467 25.7743 245.074C24.0775 251.721 23.4461 257.616 23.0515 261.296C22.6569 264.935 22.1045 276.528 22.1045 276.528C22.1045 276.528 28.1813 268.021 31.0225 263.946C33.8241 259.871 51.739 237.32 77.8616 230.673C86.1877 228.576 94.5137 227.666 102.445 227.666C121.544 227.666 138.551 232.849 148.653 237.794C163.293 244.916 187.363 261.652 218.892 266.914C226.31 268.14 234.321 268.734 242.607 268.734C250.578 268.734 258.825 268.14 267.033 267.032C262.377 273.956 257.957 280.484 253.696 286.498C249.395 282.423 243.554 281.988 243.554 281.988C236.491 281.315 232.94 285.627 232.94 285.627C231.519 287.17 230.454 289.188 230.02 291.562C229.507 293.778 230.138 296.31 230.533 297.615C231.874 301.928 235.544 303.867 236.965 304.5C226.626 318.307 223.627 334.212 223.627 334.212L218.892 338.406L220.589 345.33C217.945 353.836 222.088 360.206 227.415 362.817C232.821 365.507 237.912 363.964 237.912 363.964C241.108 363.094 243.989 361.076 245.962 358.109C246.238 357.674 246.514 357.238 246.751 356.764C247.816 356.17 248.803 355.498 249.592 354.785C251.052 354.944 254.879 355.062 254.879 355.062C262.693 355.023 270.348 352.768 276.188 347.822C280.765 343.708 285.856 336.705 286.013 327.091C286.013 325.31 286.369 318.03 280.371 311.7C318.134 256.073 342.639 220.307 358.304 183.869C399.777 87.3322 364.381 47.056 364.263 46.7395ZM296.826 279.455C288.736 291.72 281.042 303.036 274.807 312.096C282.067 318.11 281.633 325.666 281.633 327.091C281.476 335.122 277.214 341.096 273.307 344.618C268.454 348.772 261.824 350.75 254.801 350.829C254.603 350.829 249.592 350.671 247.856 350.275C247.106 351.383 245.685 352.689 243.357 353.638C243.12 354.39 242.765 355.102 242.292 355.814C240.358 358.663 237.201 360.285 233.966 360.285C233.966 360.285 230.69 360.206 228.441 358.623C225.561 356.724 223.943 353.519 223.943 350.275V350.196C223.982 348.653 224.337 347.07 225.087 345.646C224.771 344.855 223.588 340.068 223.588 340.068L226.666 337.338C226.902 337.179 227.652 336.032 228.52 333.065C229.428 330.177 230.493 325.904 232.782 320.919C235.702 314.588 239.727 308.021 242.647 303.51C242.371 302.086 240.871 301.414 239.766 301.137C238.543 300.82 237.004 300.108 235.82 298.684C234.558 297.22 233.571 295.162 234.123 292.472C234.636 289.861 236.294 287.922 238.227 287.052C240.437 285.904 243.12 286.458 243.12 286.458C249.552 287.052 254.288 293.026 254.288 293.026C260.68 284.084 275.596 261.849 275.912 261.375C256.379 265.133 236.215 265.608 219.444 262.839C188.981 257.735 165.542 241.514 150.389 234.075C135.276 226.677 106.431 219.081 76.6778 226.677C46.9249 234.234 27.2738 261.731 27.2738 261.731C36.1523 198.982 74.9415 188.418 78.6508 187.35C84.2936 182.049 91.7121 165.867 74.1523 154.947C68.1544 151.189 63.143 146.481 63.143 146.481C66.8128 146.916 75.4545 145.768 80.2292 143.869C85.9509 141.575 91.2386 140.823 91.2386 140.823C86.7006 136.51 79.7951 134.334 79.7951 134.334C86.7006 133.899 97.5127 131.525 104.221 128.479C110.89 125.432 114.599 120.012 113.494 117.638C112.389 115.265 106.352 116.57 106.352 116.57C108.522 113.326 113.691 112.02 113.691 112.02C98.7754 111.15 87.9239 119.3 87.9239 119.3C89.5812 115.739 95.0267 109.33 95.0267 109.33C92.9353 110.002 87.2136 111.783 86.8585 111.902C110.219 93.8208 136.302 77.916 172.803 77.6786C209.303 77.4412 244.857 93.8603 268.572 101.457C292.288 109.053 304.875 112.891 330.485 109.093C342.757 107.273 353.49 102.248 361.343 97.5002C361.343 97.5002 366.828 83.4945 367.262 63.3564C367.262 63.3564 373.891 75.2256 373.931 93.6625C373.97 157.044 343.349 203.295 333.484 220.228C324.132 236.766 311.86 256.627 296.826 279.455ZM229.743 140.348C230.02 140.467 231.203 141.06 235.149 140.744C239.727 140.546 247.777 139.715 250.144 142.643C250.144 142.722 244.423 142.049 240.555 142.682C236.728 143.474 231.243 143.988 228.836 143.157C226.429 142.366 222.364 138.647 219.799 135.68C217.116 132.871 212.184 129.903 212.184 129.824C212.42 129.785 212.657 129.745 212.894 129.745C216.564 129.587 221.97 134.651 225.245 137.381C228.204 139.992 229.507 140.229 229.743 140.348ZM245.527 160.645C245.449 160.486 245.449 160.368 245.409 160.249C246.396 159.695 247.303 159.26 248.132 158.389C249.197 157.242 250.065 155.818 250.697 154.393C250.973 153.721 251.21 153.088 251.407 152.415C251.407 152.415 251.881 150.081 252.867 149.883C252.985 149.844 253.064 149.844 253.183 149.844C253.104 150.358 252.196 156.134 250.776 158.429C249.276 160.842 247.816 163.097 244.067 162.9C244.067 162.9 246.238 162.267 245.527 160.645ZM207.567 128.202C204.528 129.468 201.095 130.061 201.095 130.061C201.253 128.281 201.253 124.443 202.003 121.357C202.713 118.469 207.606 105.809 224.535 105.73C226.271 105.73 228.086 105.69 230.099 105.967C230.888 106.086 231.993 106.363 231.993 106.363C231.046 106.244 230.375 106.283 227.613 106.086C226.034 105.967 224.85 106.125 223.982 106.204C222.917 106.283 222.601 106.204 219.997 106.956C211.434 109.449 208.238 117.164 207.685 120.962L207.567 122.426C207.567 122.465 207.567 122.505 207.567 122.544C207.567 124.918 207.646 126.659 207.606 127.806C207.606 127.965 207.606 128.083 207.567 128.202ZM204.607 138.686C204.055 140.823 203.858 143.474 204.726 145.61C204.765 145.689 205.199 146.758 205.199 146.758L204.962 146.955C203.463 147.826 204.647 149.527 204.726 149.685C201.608 147.588 201.806 144.898 202.082 142.049C202.319 139.201 205.357 133.701 205.357 133.701L205.594 133.939C206.146 134.77 205.199 136.827 205.199 136.827C204.962 137.42 204.765 138.053 204.607 138.686ZM231.401 169.586L231.282 169.744C232.308 167.885 233.611 166.817 236.175 166.302C239.293 165.63 244.659 167.45 246.869 167.885C248.842 168.241 252.591 166.104 254.682 163.651C254.682 163.691 254.682 163.691 254.643 163.77C253.775 165.313 252.472 166.975 251.052 168.043C249.395 169.269 248.566 170.259 243.989 169.151C242.173 168.716 240.279 168.36 238.464 168.122C236.096 167.845 233.176 167.726 231.401 169.586ZM218.261 159.695C218.063 160.407 218.3 161.119 218.813 161.673C218.774 161.713 218.774 161.713 218.774 161.752C218.379 162.9 219.168 163.889 219.168 163.889C217.392 163.295 216.366 161.515 216.879 159.972L217.274 158.785C217.511 157.915 218.221 157.361 218.695 157.084C219.208 156.767 219.602 156.53 220.115 155.897L220.155 155.857C220.865 155.106 221.378 154.512 221.694 153.563C222.088 152.415 223.154 151.703 224.416 151.624C224.85 151.584 225.284 151.584 225.718 151.703C224.653 151.426 223.469 151.901 223.154 152.89C222.72 154.077 222.128 154.749 221.457 155.541C220.155 157.123 219.089 157.202 218.734 158.152C218.537 158.706 218.379 159.26 218.261 159.695ZM175.446 192.098C176.196 195.224 174.341 198.705 173.71 199.576C173.118 200.406 171.461 207.726 170.79 209.585C170.79 209.585 170.04 211.484 169.725 212.117C169.054 213.502 166.173 217.102 158.636 214.689C151.731 212.473 149.916 205.431 149.639 204.244C147.272 202.741 147.351 199.892 147.351 199.892C146.167 203.057 148.101 204.521 148.535 204.798C148.456 204.758 148.061 205.194 148.022 205.233C147.982 205.233 147.903 205.352 147.903 205.352C147.903 205.352 147.232 205.194 146.601 204.323C146.325 203.928 146.088 203.453 145.891 202.78C145.851 202.543 145.812 202.305 145.772 202.068C145.772 202.108 145.772 202.108 145.772 202.147C145.615 203.215 144.628 203.967 143.563 203.809C142.497 203.651 141.747 202.662 141.905 201.593C142.063 200.525 143.05 199.813 144.115 199.971C144.944 200.09 145.575 200.723 145.733 201.514C145.812 199.615 147.193 198.428 147.193 198.428C147.193 198.468 148.022 201.87 152.441 201.87C152.283 202.187 152.165 202.503 152.165 202.741C152.165 203.176 152.402 203.572 152.599 203.848H152.56C152.441 203.848 150.705 203.848 150.705 203.967C151.652 209.744 156.15 213.186 159.702 213.858C163.214 214.531 165.108 213.542 166.371 211.207C167.199 211.563 168.146 211.643 169.212 210.772C167.673 210.851 167.002 209.902 166.884 209.229C166.568 207.449 167.633 204.798 168.067 202.78C168.501 200.762 170.08 199.417 171.343 198.824C172.211 198.428 173.907 197.083 174.42 195.5C174.973 193.799 174.618 192.731 174.539 192.335C174.499 191.94 174.657 191.742 174.894 191.663C175.289 191.544 175.446 192.058 175.446 192.098ZM249.789 112.851C248.645 112.179 248.329 112.06 246.04 110.873L247.303 111.348C269.164 121.911 264.074 138.37 262.732 141.733C261.588 144.581 259.338 147.391 258.352 149.013C257.168 147.747 255.708 145.808 254.524 143.672C255.195 142.682 256.418 141.377 257.8 139.399C258.786 138.014 260.601 134.572 260.601 129.626C260.601 118.588 250.421 113.207 249.789 112.851ZM223.982 165.353C223.982 165.353 225.166 165.036 225.561 163.889C225.561 163.889 225.561 163.889 225.561 163.849C226.31 163.731 226.942 163.295 227.178 162.583L227.613 161.396C228.047 160.17 227.139 159.695 227.06 157.598C226.981 156.213 226.981 155.501 227.336 154.354C227.652 153.325 227.179 152.257 226.113 151.822C227.77 152.494 228.717 154.196 228.204 155.699C227.889 156.649 227.968 157.4 228.047 158.429V158.468C228.086 159.299 228.283 159.735 228.481 160.288C228.678 160.803 228.915 161.634 228.599 162.504L228.204 163.651C227.691 165.194 225.797 165.986 223.982 165.353ZM231.125 174.769C231.44 174.69 231.559 174.69 231.716 174.69C231.716 174.69 231.638 174.571 231.44 174.255L229.862 173.424C230.059 171.841 230.73 170.733 230.73 170.733C230.73 170.733 231.993 169.784 234.321 169.863L233.611 172.791C233.532 173.582 233.137 175.56 233.137 175.6C232.466 177.974 230.177 179.279 229.98 179.16C229.743 179.002 229.428 178.409 230.454 175.125C230.454 174.967 230.888 174.808 231.125 174.769ZM227.336 147.549C223.469 146.283 220.391 152.059 218.103 153.325C215.814 154.591 212.776 153.602 212.776 153.602C214.63 152.336 214.591 151.466 214.591 151.466C217.274 151.743 220.747 147.865 221.575 146.758C222.404 145.689 223.667 143.751 223.667 143.751C224.495 145.491 230.769 147.588 232.506 146.718C232.506 146.718 232.348 149.013 232.348 150.358C232.348 151.703 232.821 157.044 235.11 158.429C235.11 158.429 234.558 159.062 235.307 161.198C235.11 161.119 232.229 160.051 231.203 157.717C230.138 155.303 231.164 148.854 227.336 147.549ZM300.061 254.886C302.547 253.976 304.954 253.027 307.322 252.038C302.547 259.594 276.425 299.04 270.269 307.981C270.229 307.942 270.151 307.902 270.111 307.862C269.203 307.032 268.059 306.043 266.757 304.974C268.848 301.967 292.998 266.043 300.061 254.886ZM240.24 330.731C240.042 330.295 239.885 329.821 239.766 329.346C244.265 319.336 249.355 312.689 249.355 312.689C249.868 313.995 250.736 315.34 252.078 316.567C253.301 317.674 254.288 318.584 255.116 319.257C251.052 324.519 245.291 334.37 245.291 334.37C242.805 334.529 241.581 333.737 240.24 330.731ZM242.489 231.504C242.726 230.95 243.002 230.198 243.318 229.288C243.515 228.734 243.673 227.745 243.673 227.745C245.725 228.853 250.894 232.651 253.538 235.223C253.419 235.658 253.262 236.093 253.104 236.291C252.828 236.647 252.472 236.805 252.157 236.924C249.789 235.302 246.198 233.245 242.489 231.504ZM252.591 335.083C253.104 334.252 253.656 333.263 254.327 332.194C255.787 329.781 257.602 326.972 259.181 324.915C260.246 325.468 261.824 326.497 262.535 328.04C262.732 328.436 262.811 328.831 262.811 329.267C262.929 331.047 260.877 333.658 259.023 334.331C257.681 334.885 255.905 335.162 254.209 335.162C253.696 335.162 253.143 335.122 252.591 335.083ZM308.269 173.582L308.111 174.096C306.454 178.963 303.218 183.513 299.785 187.311C297.299 190.08 294.576 192.612 291.696 194.947C287.276 198.547 282.225 201.435 277.095 203.888C271.966 206.301 266.639 208.24 261.193 209.744C252.709 212.117 243.712 213.344 234.834 213.858C234.163 212.513 233.334 211.168 232.427 209.823C260.996 207.765 279.739 196.529 279.739 196.529L279.897 196.41C302.666 186.203 308.151 173.938 308.269 173.582ZM164.989 205.431C160.767 204.284 154.059 203.888 154.059 203.888C153.862 203.611 153.664 203.176 153.664 202.78C153.664 202.503 153.822 202.147 154.02 201.752C155.835 201.554 158.518 201.435 160.925 201.475C163.332 201.475 165.463 201.593 166.371 201.712C166.094 202.147 165.936 202.582 165.739 203.136C165.423 204.046 165.147 204.877 164.989 205.431ZM274.767 324.163C276.227 330.572 272.242 336.665 268.967 339.514C265.692 342.402 260.088 344.182 254.288 344.064C249.118 343.984 245.567 343.193 242.252 341.373L242.213 341.413C242.055 341.65 241.384 342.877 237.557 343.431C234.992 343.787 233.532 343.312 233.374 343.272C237.872 347.822 241.937 344.974 241.937 344.974C242.134 345.765 242.41 346.319 242.41 346.319C242.41 346.319 241.068 348.337 236.965 347.624C236.452 347.545 236.057 347.427 235.623 347.268C235.702 347.308 235.781 347.347 235.86 347.387C237.438 348.455 237.872 350.552 236.846 352.135C235.781 353.717 233.689 354.152 232.111 353.124C230.572 352.095 230.138 349.959 231.164 348.376C232.032 347.07 233.571 346.556 234.992 346.991C231.914 345.488 231.125 342.402 231.125 342.402C231.125 342.402 231.243 342.402 231.401 342.441C232.427 342.6 236.452 342.441 238.504 332.946C238.543 333.183 239.924 338.683 243.594 337.773C243.554 337.852 243.002 339.079 243.002 339.079C244.62 340.068 248.329 341.848 254.603 341.927C263.442 342.046 268.256 336.23 269.598 331.878C270.624 328.515 269.006 324.756 265.692 321.473C266.639 320.325 267.27 318.743 266.599 316.567C266.875 317.556 264.981 319.336 263.008 319.178C262.811 319.178 262.614 319.138 262.456 319.099C259.457 318.228 256.024 314.588 253.143 312.412C250.263 310.236 249.434 306.873 249.473 304.5C249.513 302.086 248.684 299.277 246.435 297.141C244.186 295.004 242.134 294.806 241.503 294.648C240.871 294.45 240.674 294.055 240.753 293.619C240.911 292.907 241.818 293.026 241.818 293.026C247.303 294.094 251.328 299.594 252.236 301.176C253.064 302.64 261.746 309.445 265.1 312.412C266.678 313.56 273.623 318.822 274.767 324.163ZM156.032 154.868C164.792 170.773 163.016 170.219 185.943 194.155C184.404 194.709 182.944 195.303 181.602 195.936C181.405 196.054 179.274 193.918 178.998 193.681C176.867 191.781 174.776 189.843 172.763 187.825C168.067 183.117 163.727 178.013 159.939 172.553C156.861 168.083 154.098 163.414 151.849 158.508C149.679 153.721 147.864 148.736 146.759 143.553C145.693 138.686 145.22 133.701 145.496 128.716C145.654 125.789 146.009 122.742 146.956 119.933L147.075 119.577C146.956 120.487 145.141 135.047 156.032 154.868ZM196.123 149.646C196.045 149.369 196.005 149.092 195.966 148.775C195.887 148.142 195.808 147.786 195.808 146.639C195.847 144.581 196.045 143.157 196.045 143.157C195.808 146.52 197.623 151.07 199.675 152.059C201.293 152.85 207.054 154.829 209.145 157.242C211.316 159.735 211.276 161.95 210.842 163.889C210.724 164.482 210.329 165.59 210.092 166.223C209.934 166.183 209.737 166.144 209.619 166.144C209.303 166.104 208.514 165.946 208.435 166.54C208.435 166.579 208.435 166.579 208.435 166.619C208.435 166.737 208.474 167.093 208.435 167.252C208.396 167.41 208.356 167.608 208.317 167.687C207.172 170.931 206.58 171.208 206.265 171.169C205.988 171.129 205.002 168.636 205.87 166.302C205.91 166.263 205.91 166.223 205.91 166.223C206.383 165.194 206.817 164.482 207.212 163.81C207.922 162.623 208.396 161.04 208.396 161.04C208.987 161.436 209.658 162.108 210.013 162.504C210.211 162.741 210.566 163.097 210.684 163.533C210.684 163.612 210.724 163.691 210.763 163.77C210.803 163.335 210.803 162.306 210.566 161.594C209.737 159.181 207.488 158.033 205.397 156.846C203.976 156.055 202.516 155.343 201.056 154.71C196.755 152.811 196.676 151.545 196.123 149.646ZM263.245 242.265C262.732 243.215 261.588 243.571 260.641 243.057C259.733 242.542 259.417 241.553 259.812 240.524C259.654 240.683 259.536 240.841 259.338 240.999C258.234 241.87 257.365 241.988 256.813 241.949C256.458 241.949 256.221 241.83 256.221 241.83L256.103 241.039C256.221 241.039 256.458 241.039 256.774 240.999C257.642 240.88 259.22 240.366 259.97 237.834C259.97 237.834 259.773 238.071 259.457 238.388C258.786 239.061 257.365 240.089 255.471 239.931C254.524 240.722 248.842 245.272 242.016 242.859C234.597 240.247 234.518 235.618 234.715 234.115C234.834 233.126 235.347 231.504 235.386 231.425C235.978 229.526 239.056 222.721 239.056 221.652C239.095 220.584 239.648 216.746 242.134 214.689C242.134 214.689 242.371 214.531 242.607 214.57C242.686 214.57 242.765 214.61 242.884 214.729C243.041 214.926 243.041 215.164 242.765 215.441C242.489 215.718 241.542 216.351 240.95 218.052C240.358 219.753 240.713 221.415 241.384 222.602C242.015 223.71 242.252 225.015 242.055 226.281C241.976 226.717 241.858 227.191 241.66 227.587C241.187 228.576 240.832 229.644 240.398 230.673C239.924 231.82 239.411 232.849 238.74 233.482C237.991 234.194 236.807 233.957 236.057 233.363C236.057 233.363 236.018 233.324 235.978 233.324C236.294 234.59 237.162 235.183 237.951 235.381C237.557 238.032 238.464 239.931 241.66 241.514C244.896 243.096 250.539 243.096 254.761 239.061C254.327 238.586 253.854 238.23 253.341 237.834C253.341 237.794 253.341 237.794 253.341 237.794C253.656 237.715 254.09 237.518 254.367 237.201C254.524 237.003 254.643 236.647 254.722 236.291L255.195 236.608C255.471 236.766 255.748 236.924 255.984 237.043C256.3 237.201 256.813 237.359 257.326 237.478C257.642 237.557 258.155 237.557 258.47 237.557C259.22 237.518 260.246 237.241 260.877 236.726C260.877 236.726 260.956 237.241 260.956 237.359C260.996 237.953 260.917 238.863 260.364 239.812C260.996 239.377 261.824 239.298 262.495 239.694C263.521 240.287 263.758 241.514 263.245 242.265ZM238.464 183.156C237.162 184.066 231.44 187.865 229.941 188.933C228.441 190.001 224.416 193.601 220.904 194.234C219.168 194.551 217.629 194.59 216.209 194.432L211.947 193.404C208.909 192.335 206.778 191.307 204.371 188.695C202.24 186.44 201.174 182.088 200.543 179.794C200.504 179.556 200.385 179.121 200.306 178.963C199.754 177.182 197.465 170.694 196.992 169.19C196.597 167.885 196.321 166.579 196.4 164.68C196.439 164.364 196.439 163.928 196.479 163.612L198.096 155.58C198.096 155.58 200.069 156.569 200.701 156.925L200.109 163.493C200.109 163.77 200.109 164.087 200.148 164.245C200.148 164.245 197.347 163.889 196.4 164.72C196.558 165.115 197.465 167.291 198.886 170.971C200.504 175.125 202.871 181.06 203.581 182.84C203.937 183.79 204.489 184.858 205.554 185.926C206.975 185.135 210.487 185.372 214.315 186.678C217.984 187.904 220.825 189.724 221.654 191.188C222.956 190.951 224.022 190.515 224.771 190.001C226.784 188.656 231.914 185.412 235.307 183.908C238.701 182.405 241.463 179.873 241.463 179.873C241.147 178.646 239.687 177.617 238.977 177.143L242.923 171.129C243.633 171.208 245.804 171.643 245.804 171.643C245.804 171.643 243.752 176.866 242.292 179.24C240.911 181.416 239.924 182.167 238.464 183.156Z" fill="#B1BABF"/>
<path d="M367.259 63.3567C366.825 83.4948 361.34 97.5005 361.34 97.5005C353.487 102.248 342.754 107.273 330.482 109.093C304.872 112.891 292.284 109.053 268.569 101.457C244.853 93.8606 209.3 77.4415 172.799 77.6789C136.299 77.9163 110.216 93.821 86.8552 111.902C87.2104 111.783 92.9321 110.003 95.0235 109.33C95.0235 109.33 89.578 115.74 87.9207 119.3C87.9207 119.3 98.7722 111.15 113.688 112.021C113.688 112.021 108.519 113.326 106.349 116.57C106.349 116.57 112.386 115.265 113.491 117.639C114.596 120.012 110.886 125.433 104.218 128.479C97.5095 131.526 86.6974 133.899 79.7919 134.335C79.7919 134.335 86.6974 136.511 91.2353 140.823C91.2353 140.823 85.9477 141.575 80.2259 143.87C75.4513 145.769 66.8095 146.916 63.1397 146.481C63.1397 146.481 68.1512 151.189 74.1491 154.948C91.7088 165.867 84.2903 182.049 78.6475 187.351C74.9383 188.419 36.149 198.982 27.2705 261.731C27.2705 261.731 46.9216 234.234 76.6745 226.677C106.427 219.081 135.273 226.677 150.386 234.076C165.539 241.514 188.978 257.735 219.441 262.839C236.212 265.608 256.376 265.134 275.908 261.375C275.593 261.85 260.677 284.085 254.284 293.026C254.284 293.026 249.549 287.052 243.117 286.459C243.117 286.459 240.434 285.905 238.224 287.052C236.291 287.922 234.633 289.861 234.12 292.472C233.568 295.163 234.554 297.22 235.817 298.684C237.001 300.108 238.54 300.82 239.763 301.137C240.868 301.414 242.367 302.086 242.644 303.511C239.724 308.021 235.699 314.589 232.779 320.919C230.49 325.904 229.425 330.177 228.517 333.065C227.649 336.032 226.899 337.18 226.662 337.338L223.584 340.068C223.584 340.068 224.768 344.855 225.084 345.646C224.334 347.071 223.979 348.653 223.94 350.196V350.275C223.94 353.52 225.557 356.724 228.438 358.623C230.687 360.206 233.962 360.285 233.962 360.285C237.198 360.285 240.355 358.663 242.289 355.814C242.762 355.102 243.117 354.39 243.354 353.638C245.682 352.689 247.103 351.383 247.852 350.275C249.589 350.671 254.6 350.829 254.797 350.829C261.821 350.75 268.451 348.772 273.304 344.618C277.211 341.097 281.472 335.122 281.63 327.091C281.63 325.667 282.064 318.11 274.804 312.096C281.038 303.036 288.733 291.721 296.822 279.456C311.857 256.627 324.129 236.766 333.481 220.228C343.346 203.295 373.967 157.044 373.927 93.6628C373.888 75.2259 367.259 63.3567 367.259 63.3567ZM273.817 275.381C279.46 267.033 284.314 259.753 284.511 259.476L294.77 256.627C293.942 257.893 291.653 261.217 288.694 265.529C285.695 269.842 282.025 275.104 278.434 280.326C271.173 290.731 264.149 300.82 263.242 302.047C263.084 301.928 258.546 298.051 258.388 297.893C261.742 293.184 268.174 283.729 273.817 275.381ZM268.964 339.514C265.688 342.402 260.085 344.183 254.284 344.064C249.115 343.985 245.564 343.193 242.249 341.373L242.21 341.413C242.052 341.65 241.381 342.877 237.553 343.431C234.988 343.787 233.528 343.312 233.371 343.273C237.869 347.822 241.933 344.974 241.933 344.974C242.131 345.765 242.407 346.319 242.407 346.319C242.407 346.319 241.065 348.337 236.961 347.625C236.448 347.545 236.054 347.427 235.62 347.269C235.699 347.308 235.778 347.348 235.857 347.387C237.435 348.455 237.869 350.552 236.843 352.135C235.778 353.717 233.686 354.153 232.108 353.124C230.569 352.095 230.135 349.959 231.161 348.376C232.029 347.071 233.568 346.556 234.988 346.992C232.305 345.686 231.358 343.193 231.161 342.56C231.121 342.402 231.082 342.323 231.082 342.323C235.028 338.802 234.909 332.472 238.934 323.688C239.132 323.293 239.526 322.343 239.724 321.987C240.237 320.998 242.604 316.448 243.867 314.312C245.327 311.859 246.866 309.406 248.405 306.992C248.484 306.874 248.563 306.755 248.642 306.676C248.563 307.23 248.444 309.96 249.352 312.69C249.865 313.995 250.733 315.34 252.075 316.567C253.298 317.675 254.284 318.585 255.113 319.257C251.049 324.519 245.287 334.371 245.287 334.371C242.801 334.529 241.578 333.738 240.237 330.731C240.039 330.296 239.881 329.821 239.763 329.386C239.092 326.577 239.408 323.214 239.526 322.541C238.698 324.796 237.83 328.594 238.145 331.206C238.224 331.799 238.382 332.432 238.5 332.946C236.448 342.442 232.423 342.6 231.398 342.442C231.24 342.402 231.121 342.402 231.121 342.402C231.121 342.402 231.24 342.402 231.398 342.442C232.423 342.6 236.448 342.442 238.5 332.946C238.54 333.184 239.921 338.683 243.591 337.773C243.551 337.852 242.999 339.079 242.999 339.079C244.617 340.068 248.326 341.848 254.6 341.927C263.439 342.046 268.253 336.23 269.595 331.878C270.621 328.515 269.003 324.757 265.688 321.473C266.635 320.325 267.267 318.743 266.596 316.567C266.872 317.556 264.978 319.336 263.005 319.178C262.808 319.178 262.61 319.138 262.453 319.099C259.454 318.228 256.021 314.589 253.14 312.413C250.259 310.237 249.431 306.874 249.47 304.5C249.51 302.086 248.681 299.277 246.432 297.141C244.183 295.004 242.131 294.807 241.499 294.648C240.868 294.45 240.671 294.055 240.75 293.62C240.907 292.907 241.815 293.026 241.815 293.026C247.3 294.094 251.325 299.594 252.232 301.176C253.061 302.64 261.742 309.445 265.096 312.413C266.675 313.56 273.62 318.822 274.764 324.163C276.224 330.573 272.239 336.665 268.964 339.514ZM259.177 324.915C260.243 325.469 261.821 326.497 262.532 328.04C262.729 328.436 262.808 328.832 262.808 329.267C262.926 331.047 260.874 333.658 259.02 334.331C257.678 334.885 255.902 335.162 254.205 335.162C253.692 335.162 253.14 335.122 252.588 335.083C253.101 334.252 253.653 333.263 254.324 332.195C255.784 329.781 257.599 326.972 259.177 324.915ZM270.266 307.981C270.226 307.942 270.147 307.902 270.108 307.863C269.2 307.032 268.056 306.043 266.754 304.975C268.845 301.968 292.995 266.043 300.058 254.886C302.544 253.976 304.951 253.027 307.319 252.038C302.544 259.595 276.421 299.04 270.266 307.981ZM315.132 242.226C298.519 249.98 260.164 262.878 221.967 255.717C208.708 253.225 191.188 249.031 168.064 234.986C152.872 225.767 136.496 216.984 98.2987 217.142C66.6517 217.261 46.3297 231.662 39.8583 237.003C57.0234 180.822 107.809 189.052 107.809 189.052C98.5354 184.581 87.4077 186.282 87.4077 186.282C103.31 161.199 77.7005 149.448 77.7005 149.448C79.8708 149.448 89.578 146.639 94.55 144.898C99.5219 143.157 108.637 141.971 108.637 141.971C105.441 139.043 95.6154 136.669 95.6154 136.669C104.928 136.669 113.333 132.159 119.173 126.066C121.225 123.929 126.789 113.287 120.475 109.172C114.675 105.374 103.113 109.607 103.113 109.607C103.113 109.607 137.68 72.2586 209.024 88.2029C242.841 95.7597 280.999 115.66 316.237 115.858C328.075 115.937 354.197 112.1 369.784 96.3531C368.955 126.264 363.431 168.122 315.132 242.226ZM263.084 193.285C247.458 197.519 232.542 198.705 222.558 198.982C222.401 198.864 222.243 198.745 222.085 198.626C224.492 198.112 226.741 197.162 228.675 195.58C233.647 191.584 239.132 188.577 242.841 185.61C246.55 182.682 249.944 173.78 249.944 173.78C256.139 171.406 260.361 162.939 260.361 162.939C260.361 162.939 259.375 161.08 259.296 158.785C259.217 156.491 262.729 152.653 266.399 145.848C270.068 139.043 270.858 129.706 264.82 119.419C258.783 109.211 242.091 103.949 241.973 103.91C241.815 103.87 225.36 97.9753 214.39 102.446C203.381 106.956 198.409 114.869 197.225 122.545C196.041 130.22 196.554 135.403 195.094 137.183C193.634 138.924 191.74 139.834 191.74 139.834C191.74 139.834 190.043 149.092 193.516 154.75C193.516 154.75 190.911 163.889 192.095 168.478C193.279 173.068 195.844 178.805 197.383 184.977C198.014 187.469 199.277 189.645 200.934 191.505C200.776 191.505 200.579 191.505 200.382 191.505C192.569 185.254 181.323 175.204 171.339 162.346C153.858 139.794 148.137 103.87 148.137 103.87C140.442 124.958 138.508 132.356 144.862 152.376C151.175 172.356 170.274 191.505 170.274 191.505C169.8 192.613 170.471 194.67 170.471 194.67C170.471 194.67 167.669 193.839 159.264 193.799C150.859 193.76 152.477 194.67 149.873 194.551C147.308 194.432 146.558 193.325 146.558 193.325C145.256 193.997 144.033 195.461 144.033 195.461C142.81 195.58 136.772 196.292 137.404 202.227C138.074 208.161 144.23 207.766 144.23 207.766C145.335 209.032 146.953 209.586 146.953 209.586C146.953 209.586 150.583 219.239 161.119 219.714C170.274 220.11 173.194 214.531 173.825 213.067C174.062 213.621 174.338 214.215 174.614 214.768C176.469 218.567 179.31 222.8 183.177 226.638C187.005 230.436 191.898 233.878 197.778 235.856C206.735 238.863 215.771 237.913 222.835 235.698C225.439 234.867 228.004 233.799 230.372 232.454C229.938 234.432 229.543 240.208 236.567 245.075C245.209 251.088 253.929 245.549 253.929 245.549C253.929 245.549 255.547 246.103 257.204 245.747C257.204 245.747 261.9 249.783 266.004 245.431C270.068 241.079 265.688 236.885 264.82 236.054C264.82 236.054 264.741 234.115 264.11 232.81C264.11 232.81 262.887 233.205 260.756 231.781C258.625 230.317 260.44 230.594 253.732 225.53C247.024 220.466 244.262 219.437 244.262 219.437C244.262 219.437 246.037 218.211 246.313 217.063C246.313 217.063 273.067 213.384 290.114 201.238C307.2 189.131 310.12 182.009 316.631 160.566C316.789 160.645 290.627 185.847 263.084 193.285ZM196.002 148.934C196.002 148.855 195.962 148.815 195.923 148.736C195.844 148.103 195.765 147.747 195.765 146.6C195.765 144.661 195.962 143.276 195.962 143.157C196.002 142.88 196.002 142.643 196.002 142.643C196.002 142.643 198.527 140.981 199.829 138.608C201.132 136.234 202.197 131.526 202.197 131.526C207.051 130.972 211.628 125.749 211.904 125.433C210.76 126.58 209.181 127.53 207.564 128.202C204.525 129.468 201.092 130.062 201.092 130.062C201.25 128.281 201.25 124.404 202 121.318C202.71 118.43 207.524 105.809 224.453 105.73C226.189 105.73 228.122 105.69 230.135 105.967C230.885 106.086 231.871 106.323 231.989 106.363C232.147 106.402 232.305 106.402 232.463 106.442C236.33 107.075 239.408 108.143 240.197 108.42C242.17 109.093 242.486 109.132 243.512 109.647C244.577 110.161 245.366 110.557 246.037 110.873L247.3 111.348C251.759 113.484 255.074 115.898 257.56 118.39C267.188 127.965 263.794 139.122 262.729 141.733C261.545 144.582 259.335 147.391 258.349 149.013L258.309 148.973C257.125 147.707 255.665 145.769 254.482 143.632C253.653 142.208 253.101 140.784 252.864 139.32C252.864 139.32 253.298 146.56 256.968 150.042C256.968 150.042 254.916 154.473 254.561 157.163C254.205 159.814 255.192 162.702 255.192 162.702C255.192 162.702 255.113 163.098 254.64 163.652C254.64 163.691 254.64 163.691 254.64 163.691L254.679 163.652C254.679 163.691 254.679 163.691 254.64 163.77C253.771 165.313 252.469 166.975 251.049 168.043C249.904 168.874 249.155 169.626 247.3 169.626C246.471 169.626 245.406 169.507 243.946 169.151C242.131 168.716 240.237 168.36 238.421 168.122C237.672 168.043 236.882 167.964 236.133 167.964C234.396 167.964 232.621 168.32 231.398 169.586L231.279 169.745C231.042 170.14 230.845 170.496 230.727 170.734C230.727 170.734 231.989 169.784 234.318 169.863L233.607 172.791C233.568 173.305 233.371 174.255 233.252 174.888C233.213 175.007 233.213 175.125 233.173 175.244C233.173 175.283 233.173 175.323 233.134 175.363C233.094 175.481 233.094 175.56 233.094 175.56C232.423 177.934 230.135 179.24 229.937 179.121C229.819 179.042 229.701 178.884 229.701 178.488C229.701 177.934 229.819 176.945 230.411 175.086C230.411 175.046 230.45 175.007 230.49 174.967C230.529 174.967 230.529 174.927 230.569 174.927C230.727 174.848 230.924 174.769 231.082 174.73C231.398 174.65 231.516 174.65 231.674 174.65C231.674 174.65 231.595 174.532 231.398 174.215L229.819 173.384C229.385 173.187 229.03 173.028 229.03 173.028C229.069 173.107 229.069 173.226 229.03 173.345C228.99 173.543 228.872 173.978 228.872 173.978L228.004 176.906C227.767 177.618 227.057 177.38 227.057 177.38L225.321 176.55C225.321 176.55 224.61 176.233 224.768 175.521C225.084 174.374 225.991 171.406 225.991 171.406C225.873 171.327 225.597 171.011 225.36 170.892C225.163 170.813 224.966 170.734 224.65 170.773C224.531 170.892 224.374 171.169 224.334 171.327C224.176 171.723 224.097 172.158 223.821 172.949C223.545 173.74 223.229 174.65 223.111 175.046C222.993 175.521 222.677 175.6 222.401 175.6C222.164 175.6 222.006 175.521 222.006 175.521L220.112 174.848C219.481 174.611 219.481 174.136 219.559 173.82L220.822 170.18C220.901 169.982 220.98 169.705 221.375 169.507C221.138 169.309 220.625 169.111 220.27 168.993C219.796 168.835 219.007 168.676 218.968 168.676C219.086 168.953 219.086 169.468 219.047 169.705C218.928 170.021 218.06 173.107 218.021 173.226C217.981 173.345 217.823 173.74 217.586 173.82C217.35 173.938 216.363 173.661 216.363 173.661L214.706 173.266C214.706 173.266 213.838 173.028 214.114 172.237L214.943 169.072C214.982 168.953 215.061 168.597 215.14 167.964C215.219 167.371 214.785 167.212 214.469 167.212C214.153 167.212 213.838 167.766 213.759 168.043L213.404 169.072C213.128 169.863 212.891 170.536 212.615 171.327C212.299 172.079 211.47 171.921 211.47 171.921L209.576 171.525C209.576 171.525 208.866 171.327 209.103 170.575L209.892 168.439C210.129 167.885 210.286 167.568 210.444 167.292C210.602 167.015 210.839 166.856 210.839 166.856C210.839 166.698 210.444 166.342 210.247 166.263C210.168 166.223 210.129 166.223 210.05 166.184C209.892 166.144 209.694 166.105 209.576 166.105C209.26 166.065 208.471 165.907 208.392 166.5C208.392 166.54 208.392 166.54 208.392 166.579C208.392 166.698 208.432 167.054 208.392 167.212C208.353 167.371 208.313 167.568 208.274 167.648C207.13 170.892 206.538 171.169 206.222 171.129C205.946 171.09 204.959 168.597 205.827 166.263C205.867 166.223 205.867 166.184 205.867 166.184C206.34 165.155 206.774 164.443 207.169 163.77C207.879 162.583 208.353 161.001 208.353 161.001C208.945 161.396 209.616 162.069 209.971 162.465C210.168 162.702 210.523 163.058 210.642 163.493C210.642 163.573 210.681 163.652 210.72 163.731C210.76 163.296 210.76 162.267 210.523 161.555C209.694 159.141 207.445 157.994 205.354 156.807C203.933 156.016 202.473 155.304 201.013 154.671C200.895 154.591 200.737 154.552 200.619 154.512C196.712 152.692 196.594 151.466 196.081 149.606C196.041 149.409 196.002 149.171 196.002 148.934ZM200.54 179.794C200.5 179.556 200.382 179.121 200.303 178.963C199.751 177.183 197.462 170.694 196.988 169.191C196.633 168.043 196.396 166.896 196.396 165.353C196.396 165.155 196.396 164.957 196.396 164.72C196.396 164.68 196.396 164.68 196.396 164.641V164.601C196.436 164.285 196.436 163.849 196.475 163.533L198.093 155.501C198.093 155.501 200.066 156.491 200.698 156.847V156.886L200.106 163.454C200.106 163.731 200.106 164.008 200.145 164.166C200.145 164.206 201.289 165.392 201.526 166.302C201.802 167.212 201.526 172.237 203.499 175.679V175.56C203.499 175.56 203.578 175.204 204.012 174.571C204.446 173.938 205.235 173.068 205.748 173.384C206.261 173.74 206.183 174.73 206.183 175.798C206.183 176.866 205.827 177.974 205.551 178.29C205.551 178.29 205.946 179.121 207.09 179.675C207.09 179.675 207.051 179.279 207.13 178.686C207.287 177.657 207.8 176.826 208.156 175.917C208.313 175.323 208.55 175.204 209.024 175.521C209.024 175.521 209.931 176.035 210.76 176.47C211.115 176.629 211.47 176.945 211.115 177.776L210.089 180.269C210.089 180.269 209.892 181.02 209.537 181.06C209.537 181.06 210.247 181.535 210.523 181.653C210.997 181.851 211.549 182.128 211.825 182.168C211.825 182.168 211.549 181.693 211.628 180.981C211.825 179.992 212.102 178.607 212.338 177.46C212.417 177.183 212.654 176.747 213.206 176.906C213.798 177.143 214.43 177.42 215.061 177.618C215.613 177.855 215.574 178.369 215.574 178.528C215.298 179.794 214.982 181.297 214.627 182.524C214.548 182.722 214.43 182.959 214.351 183.078C214.351 183.078 214.943 183.473 215.298 183.592C215.692 183.671 216.403 183.829 216.403 183.829C216.403 183.829 216.284 183.275 216.442 182.761C216.442 182.761 217.231 180.308 217.586 179.477C217.705 179.161 217.902 178.726 218.494 178.765C219.244 179.003 219.994 179.2 220.743 179.359C221.296 179.517 220.98 180.466 220.98 180.466C220.98 180.466 220.033 182.761 219.757 183.552C219.638 183.79 219.638 184.067 219.204 184.383C219.204 184.383 220.072 184.66 220.467 184.739C221.296 184.898 221.414 184.818 221.611 184.858C221.611 184.858 221.375 184.265 221.651 183.513L222.44 181.653C222.519 181.495 222.558 181.337 222.637 181.139C222.716 180.902 223.111 180.427 223.782 180.546L225.36 180.822C225.36 180.822 226.386 181.02 226.031 181.891C225.557 182.959 225.044 184.027 224.492 185.095C225.084 185.135 225.676 185.175 226.268 185.175C226.268 185.175 226.189 185.135 226.426 184.462C226.662 183.829 227.373 182.405 227.452 182.207C227.53 182.009 227.807 181.139 228.122 181.099C228.477 181.06 229.78 182.168 229.425 184.225C233.094 182.642 235.857 178.449 236.646 177.895C237.317 177.38 238.619 177.183 238.974 177.103L242.92 171.09C243.63 171.169 245.8 171.604 245.8 171.604C245.8 171.604 243.749 176.826 242.289 179.2C241.499 180.427 240.868 181.179 240.197 181.812C240.039 181.93 239.881 182.089 239.724 182.207C239.645 182.286 239.566 182.326 239.487 182.405C239.171 182.642 238.816 182.88 238.461 183.117C237.159 184.027 231.437 187.825 229.937 188.894C228.438 189.962 224.413 193.562 220.901 194.195C219.165 194.512 217.626 194.551 216.205 194.393L211.944 193.364C208.905 192.296 206.774 191.267 204.367 188.656C202.237 186.441 201.171 182.088 200.54 179.794ZM159.935 172.554C156.857 168.083 154.095 163.414 151.846 158.508C149.676 153.721 147.861 148.736 146.756 143.553C145.69 138.687 145.217 133.702 145.493 128.717C145.651 125.789 146.006 122.742 146.953 119.933L147.071 119.538C148.65 126.184 153.345 150.991 177.89 177.697C182.822 182.959 188.149 187.865 193.516 192.336C191.898 192.613 190.32 192.929 188.82 193.364C184.953 189.962 175.877 180.941 175.838 180.941C168.538 173.543 163.092 166.461 158.949 159.893C158.081 158.508 157.449 157.321 156.897 156.451L156.423 155.581C156.305 155.343 156.147 155.106 156.029 154.868C155.121 153.246 154.332 151.664 153.582 150.121C154.332 151.664 155.121 153.246 156.029 154.868C164.789 170.773 163.013 170.219 185.94 194.156C184.401 194.709 182.941 195.303 181.599 195.936C181.402 196.055 179.271 193.918 178.995 193.681C176.864 191.782 174.772 189.843 172.76 187.825C168.064 183.117 163.723 178.013 159.935 172.554ZM173.707 199.576C173.115 200.407 171.458 207.726 170.787 209.586C170.787 209.586 170.037 211.485 169.721 212.118C169.208 213.146 167.472 215.481 163.368 215.481C162.027 215.52 160.409 215.283 158.554 214.689C151.649 212.474 149.834 205.431 149.557 204.244C147.584 202.978 147.308 200.802 147.269 200.13C146.243 203.137 148.097 204.561 148.531 204.798C148.452 204.759 148.058 205.194 148.018 205.233C147.979 205.233 147.9 205.352 147.9 205.352C147.9 205.352 147.861 205.352 147.821 205.313V205.352C147.821 205.352 147.15 205.194 146.519 204.324C146.243 203.928 146.006 203.453 145.809 202.781C145.769 202.622 145.769 202.464 145.73 202.306C145.532 203.176 144.783 203.809 143.875 203.809C143.757 203.809 143.599 203.809 143.48 203.809C142.415 203.651 141.665 202.662 141.823 201.594C141.981 200.644 142.77 199.971 143.717 199.971C143.836 199.971 143.993 199.971 144.112 199.971C144.862 200.09 145.453 200.604 145.651 201.317C145.809 199.536 147.111 198.428 147.111 198.428C147.111 198.428 147.111 198.468 147.15 198.468C147.19 198.428 147.19 198.428 147.19 198.428C147.19 198.428 147.19 198.468 147.19 198.508C147.545 198.666 148.018 198.785 148.295 198.824C148.61 198.864 149.242 198.903 149.557 198.903C151.451 198.864 152.32 198.666 153.78 198.468C155.437 198.231 157.094 198.112 158.791 198.112H159.659C160.251 198.112 160.803 198.112 161.395 198.152C162.342 198.152 163.25 198.27 164.158 198.349C165.973 198.508 168.104 198.745 169.919 199.061C168.814 199.418 167.393 200.13 166.367 201.712C166.091 202.147 165.933 202.583 165.736 203.137C165.42 204.047 165.144 204.877 164.986 205.431H164.947C160.725 204.284 154.016 203.888 154.016 203.888C153.819 203.611 153.622 203.176 153.622 202.781C153.622 202.504 153.78 202.147 153.977 201.752C154.016 201.752 154.016 201.752 154.016 201.752C154.411 201 155.042 200.169 156.147 199.418C157.055 198.824 158.317 198.389 159.501 198.152C158.12 198.152 156.068 198.666 154.687 199.497C153.898 199.932 153.069 200.684 152.675 201.514C152.635 201.554 152.477 201.871 152.438 201.91C152.28 202.187 152.162 202.504 152.162 202.741C152.162 203.176 152.398 203.572 152.596 203.849H152.556C152.438 203.849 150.702 203.849 150.702 203.967C151.649 209.744 156.147 213.186 159.699 213.858C163.21 214.531 165.105 213.542 166.367 211.208C167.196 211.564 168.143 211.643 169.208 210.772C167.669 210.852 166.999 209.902 166.88 209.229C166.565 207.449 167.63 204.798 168.064 202.781C168.498 200.763 170.077 199.418 171.339 198.824C172.207 198.428 173.904 197.083 174.417 195.501C174.97 193.799 174.614 192.731 174.536 192.336C174.496 191.94 174.654 191.742 174.891 191.663C174.93 191.663 174.97 191.663 175.009 191.663C175.285 191.663 175.443 192.098 175.443 192.098C176.193 195.224 174.338 198.705 173.707 199.576ZM233.765 223.275C233.449 224.224 232.384 225.649 231.713 226.202C226.426 230.594 212.812 232.493 200.264 228.26C187.913 224.106 179.271 213.779 176.982 207.212C176.745 206.5 176.193 204.957 176.627 204.165C179.508 198.864 196.239 192.454 210.799 197.36C222.993 201.594 230.529 212.039 232.976 219.318C233.568 221.138 234.12 222.246 233.765 223.275ZM247.26 226.519C248.05 226.994 248.839 227.429 249.628 227.983C250.102 228.299 250.575 228.616 251.049 228.972L251.246 229.091L251.364 229.17C252.745 230.159 254.442 231.544 255.665 232.691C256.77 233.68 257.362 234.353 258.862 235.5C259.099 235.698 259.651 236.014 259.927 236.173C260.164 236.331 260.519 236.647 260.914 236.727C260.914 236.727 260.993 237.241 260.993 237.36C261.032 237.953 260.953 238.863 260.401 239.812C261.032 239.377 261.861 239.298 262.532 239.694C263.557 240.287 263.794 241.514 263.281 242.265C262.768 243.215 261.624 243.571 260.677 243.057C259.769 242.542 259.454 241.553 259.848 240.525C259.69 240.683 259.572 240.841 259.375 240.999C258.27 241.87 257.402 241.989 256.849 241.949C256.494 241.949 256.257 241.83 256.257 241.83L256.139 241.039C256.257 241.039 256.494 241.039 256.81 240.999C257.678 240.881 259.256 240.366 260.006 237.834C260.006 237.834 259.809 238.072 259.493 238.388C258.822 239.061 257.402 240.089 255.508 239.931C254.561 240.722 248.878 245.272 242.052 242.859C234.633 240.248 234.554 235.619 234.752 234.115C234.87 233.126 235.383 231.504 235.422 231.425C236.014 229.526 239.092 222.721 239.092 221.653C239.132 220.584 239.684 216.747 242.17 214.689C242.17 214.689 242.407 214.531 242.644 214.571C242.723 214.571 242.801 214.61 242.92 214.729C243.078 214.927 243.078 215.164 242.801 215.441C242.525 215.718 241.578 216.351 240.986 218.052C240.394 219.754 240.75 221.415 241.42 222.602C242.052 223.71 242.289 225.016 242.091 226.282C242.012 226.717 241.894 227.192 241.697 227.587C241.223 228.576 240.868 229.645 240.434 230.673C239.96 231.821 239.447 232.849 238.777 233.482C238.027 234.194 236.843 233.957 236.093 233.364C236.093 233.364 236.054 233.324 236.014 233.324C236.33 234.59 237.198 235.183 237.987 235.381C237.593 238.032 238.5 239.931 241.697 241.514C244.932 243.096 250.575 243.096 254.797 239.061C254.363 238.586 253.89 238.23 253.377 237.834C253.377 237.795 253.377 237.795 253.377 237.795C253.692 237.716 254.127 237.518 254.403 237.201C254.561 237.003 254.679 236.647 254.758 236.291C254.837 236.173 254.876 235.856 254.876 235.817C255.034 234.907 254.797 233.838 254.403 233.007C253.85 231.741 252.43 230.159 251.404 229.288C252.154 230.159 252.864 231.108 253.258 232.097C253.692 233.364 253.732 234.353 253.574 235.223C253.456 235.658 253.298 236.093 253.14 236.291C252.864 236.647 252.509 236.806 252.193 236.924C249.825 235.302 246.235 233.245 242.525 231.504C242.762 230.95 243.038 230.198 243.354 229.288C243.551 228.735 243.709 227.745 243.709 227.745C243.788 225.807 242.92 224.699 242.21 223.749C243.827 224.541 245.682 225.569 247.26 226.519ZM308.187 173.859L308.108 174.097C306.451 178.963 303.215 183.513 299.782 187.311C297.296 190.08 294.573 192.613 291.693 194.947C287.273 198.547 282.222 201.435 277.092 203.888C271.962 206.302 266.635 208.24 261.19 209.744C252.706 212.118 243.709 213.344 234.831 213.858C234.16 212.513 233.331 211.168 232.423 209.823C260.993 207.766 279.736 196.529 279.736 196.529L279.854 196.45C278.868 196.846 277.921 197.242 276.856 197.677C272.239 199.418 262.571 202.741 249.786 205.036C244.617 205.985 239.368 206.618 234.12 207.053C233.686 207.093 230.648 207.291 230.648 207.291C229.701 206.064 228.596 204.798 227.452 203.651C234.396 203.334 241.578 202.543 248.563 201.277C277.447 196.094 295.126 184.106 303.609 177.38C304.399 176.747 305.109 176.193 305.74 175.679C307.043 174.611 307.674 174.215 308.226 173.622H308.266C308.266 173.622 308.266 173.622 308.266 173.582V173.622L308.305 173.582C308.305 173.622 308.266 173.701 308.187 173.859ZM204.723 145.61C203.854 143.474 204.052 140.823 204.604 138.687C204.762 138.054 204.959 137.46 205.196 136.827C205.196 136.827 206.143 134.77 205.591 133.939L205.354 133.702C205.512 133.781 208.195 134.928 210.523 137.183C210.76 137.421 210.997 137.618 211.194 137.856C213.759 140.625 216.166 143.197 218.534 143.988C219.323 144.226 220.112 144.305 220.862 144.265H220.901C221.217 144.265 221.256 144.265 221.493 144.226C222.716 144.067 223.663 143.751 223.663 143.751C223.663 143.751 222.401 145.69 221.572 146.758C220.743 147.866 217.231 151.782 214.588 151.466C214.548 151.466 214.509 151.466 214.469 151.466C211.707 151.347 207.445 149.013 205.788 147.43C205.551 147.233 205.196 146.758 205.196 146.758C205.196 146.758 204.762 145.69 204.723 145.61ZM232.345 150.358C232.345 149.013 232.502 146.718 232.502 146.718L232.542 146.758C232.66 146.916 233.173 147.628 233.962 148.38C234.081 148.499 234.318 148.696 234.436 148.815C234.988 149.29 235.659 149.725 236.448 150.002C238.816 150.793 242.289 150.239 245.998 149.567C246.313 149.527 246.629 149.488 246.945 149.448C250.259 149.052 253.179 149.804 253.179 149.804V149.844H253.101C253.022 149.844 252.903 149.844 252.785 149.883C251.838 150.2 251.404 152.415 251.404 152.415C251.206 153.088 250.97 153.761 250.694 154.433C250.062 155.858 249.155 157.282 248.089 158.429C247.26 159.3 246.353 159.735 245.366 160.289C245.366 160.289 244.774 160.447 244.498 160.487C242.21 160.763 237.435 160.012 235.146 158.469L235.107 158.429C232.818 156.965 232.345 151.703 232.345 150.358ZM231.555 221.297C228.477 219.002 224.453 216.47 219.757 214.096C219.796 213.423 219.796 212.711 219.796 212.039C225.321 215.283 229.464 218.804 231.555 221.297ZM225.715 151.703C225.834 151.743 226.031 151.782 226.11 151.822C227.175 152.218 227.649 153.405 227.333 154.394C226.939 155.62 227.017 156.491 227.057 157.559C227.096 159.577 228.043 160.17 227.609 161.396L227.175 162.583C226.939 163.296 226.307 163.731 225.557 163.849C225.202 163.889 224.808 163.849 224.453 163.731C223.308 163.335 222.716 162.188 223.071 161.159C223.111 161.001 223.032 160.803 222.835 160.724C222.637 160.645 222.48 160.763 222.401 160.922C222.045 161.95 220.98 162.504 219.796 162.188C219.362 162.069 219.047 161.95 218.81 161.673C218.297 161.12 218.06 160.407 218.257 159.695L218.652 158.31C219.086 157.084 220.072 157.203 221.375 155.62C222.045 154.829 222.716 154.077 223.15 152.89C223.466 151.901 224.65 151.426 225.715 151.703ZM194.423 203.453C193.989 204.007 193.595 204.561 193.2 205.115C187.834 204.165 182.98 203.77 179.034 203.73C180.652 203.374 182.862 203.097 185.505 203.018C188.11 202.939 191.148 203.057 194.423 203.453Z" fill="black"/>
<path d="M316.237 115.858C280.999 115.66 242.841 95.7595 209.024 88.2028C137.68 72.2585 103.113 109.607 103.113 109.607C103.113 109.607 114.675 105.374 120.475 109.172C126.789 113.286 121.225 123.929 119.173 126.066C113.333 132.158 104.928 136.669 95.6155 136.669C95.6155 136.669 105.441 139.043 108.637 141.97C108.637 141.97 99.522 143.157 94.5501 144.898C89.5781 146.639 79.8709 149.448 77.7006 149.448C77.7006 149.448 103.31 161.199 87.4078 186.282C87.4078 186.282 98.5355 184.581 107.809 189.052C107.809 189.052 57.0235 180.822 39.8584 237.003C46.3299 231.662 66.6518 217.261 98.2988 217.142C136.496 216.984 152.872 225.767 168.064 234.986C191.188 249.031 208.708 253.225 221.967 255.717C260.164 262.878 298.519 249.98 315.132 242.226C363.431 168.122 368.955 126.263 369.784 96.353C354.197 112.1 328.075 115.937 316.237 115.858ZM290.114 201.237C273.067 213.384 246.314 217.063 246.314 217.063C246.037 218.21 244.262 219.437 244.262 219.437C244.262 219.437 247.024 220.466 253.732 225.53C260.44 230.594 258.625 230.317 260.756 231.781C262.887 233.205 264.11 232.81 264.11 232.81C264.741 234.115 264.82 236.054 264.82 236.054C265.688 236.885 270.069 241.078 266.004 245.43C261.9 249.783 257.205 245.747 257.205 245.747C255.547 246.103 253.929 245.549 253.929 245.549C253.929 245.549 245.209 251.088 236.567 245.074C229.543 240.208 229.938 234.432 230.372 232.453C228.004 233.799 225.439 234.867 222.835 235.698C215.771 237.913 206.735 238.863 197.778 235.856C191.898 233.878 187.005 230.436 183.177 226.638C179.31 222.8 176.469 218.566 174.615 214.768C174.338 214.214 174.062 213.621 173.825 213.067C173.194 214.531 170.274 220.109 161.119 219.714C150.583 219.239 146.953 209.585 146.953 209.585C146.953 209.585 145.335 209.032 144.23 207.765C144.23 207.765 138.075 208.161 137.404 202.227C136.772 196.292 142.81 195.58 144.033 195.461C144.033 195.461 145.256 193.997 146.558 193.325C146.558 193.325 147.308 194.432 149.873 194.551C152.477 194.67 150.86 193.76 159.265 193.799C167.67 193.839 170.471 194.67 170.471 194.67C170.471 194.67 169.8 192.612 170.274 191.505C170.274 191.505 151.175 172.356 144.862 152.376C138.509 132.356 140.442 124.958 148.137 103.87C148.137 103.87 153.859 139.794 171.339 162.346C181.323 175.204 192.569 185.254 200.382 191.505C200.579 191.505 200.777 191.505 200.934 191.505C199.277 189.645 198.014 187.469 197.383 184.977C195.844 178.805 193.279 173.068 192.095 168.478C190.912 163.889 193.516 154.75 193.516 154.75C190.043 149.092 191.74 139.834 191.74 139.834C191.74 139.834 193.634 138.924 195.094 137.183C196.554 135.403 196.041 130.22 197.225 122.544C198.409 114.869 203.381 106.956 214.39 102.446C225.36 97.9751 241.815 103.87 241.973 103.91C242.091 103.949 258.783 109.211 264.82 119.419C270.858 129.706 270.069 139.043 266.399 145.848C262.729 152.653 259.217 156.49 259.296 158.785C259.375 161.08 260.361 162.939 260.361 162.939C260.361 162.939 256.139 171.406 249.944 173.78C249.944 173.78 246.55 182.682 242.841 185.61C239.132 188.577 233.647 191.584 228.675 195.58C226.741 197.162 224.492 198.112 222.085 198.626C222.243 198.745 222.401 198.864 222.559 198.982C232.542 198.705 247.458 197.518 263.084 193.285C290.627 185.847 316.789 160.645 316.631 160.566C310.12 182.009 307.2 189.131 290.114 201.237ZM231.634 226.242C230.806 227.112 229.898 227.864 229.227 228.339C226.031 230.634 221.059 232.216 216.284 233.007C212.851 233.601 206.814 233.64 203.855 233.126C194.897 231.504 186.847 225.965 181.086 217.498C181.086 217.498 177.377 211.564 176.667 206.183C176.785 206.579 176.903 206.935 176.982 207.212C179.271 213.779 187.913 224.105 200.264 228.26C212.733 232.453 226.268 230.594 231.634 226.242Z" fill="#D50A0A"/>
<path d="M210.802 197.36C196.241 192.454 179.51 198.864 176.629 204.165C176.195 204.956 176.748 206.499 176.984 207.212C179.273 213.779 187.915 224.105 200.266 228.26C212.814 232.493 226.428 230.594 231.715 226.202C232.386 225.648 233.452 224.224 233.767 223.275C234.123 222.246 233.57 221.138 232.978 219.318C230.532 212.038 222.995 201.594 210.802 197.36ZM179.036 203.73C180.654 203.374 182.864 203.097 185.508 203.018C188.112 202.939 191.151 203.057 194.426 203.453C193.992 204.007 193.597 204.561 193.202 205.115C187.836 204.165 182.982 203.77 179.036 203.73ZM219.759 214.096C219.759 214.294 219.72 214.491 219.72 214.689C219.207 214.412 218.654 214.175 218.141 213.898C217.944 215.085 217.668 216.272 217.273 217.459C216.484 216.984 215.695 216.549 214.866 216.153C215.221 215.045 215.497 213.937 215.695 212.79C214.827 212.394 213.958 211.999 213.051 211.643C212.814 212.711 212.538 213.779 212.183 214.847C211.354 214.452 210.525 214.096 209.657 213.74C209.973 212.711 210.289 211.643 210.565 210.614C209.697 210.258 208.789 209.942 207.882 209.625C207.566 210.654 207.25 211.643 206.895 212.671C206.027 212.355 205.159 212.078 204.291 211.801C204.646 210.772 205.001 209.783 205.356 208.794C204.449 208.517 203.502 208.201 202.594 207.963C202.199 208.952 201.805 209.942 201.45 210.97C200.582 210.733 199.674 210.535 198.806 210.337C199.161 209.269 199.595 208.28 200.029 207.251C199.082 207.014 198.135 206.776 197.188 206.579C196.675 207.607 196.241 208.675 195.846 209.744C194.939 209.585 194.031 209.467 193.124 209.348C193.518 208.201 193.992 207.093 194.544 206.025C193.952 205.906 193.36 205.827 192.808 205.708C192.926 205.51 193.045 205.352 193.202 205.154C193.597 204.561 194.031 204.007 194.426 203.493C194.465 203.413 194.505 203.374 194.584 203.295C195.097 203.374 195.57 203.413 196.083 203.493C196.557 202.82 197.03 202.187 197.504 201.594C198.332 201.712 199.2 201.831 199.99 201.95C199.516 202.583 199.082 203.216 198.687 203.888C199.595 204.046 200.503 204.244 201.41 204.442C201.805 203.77 202.16 203.057 202.594 202.424C203.383 202.583 204.133 202.78 204.883 202.978C204.528 203.651 204.212 204.363 203.857 205.075C204.725 205.313 205.593 205.55 206.422 205.827C206.698 205.115 206.974 204.363 207.25 203.651C207.961 203.888 208.71 204.126 209.421 204.363C209.223 205.075 208.986 205.827 208.789 206.579C209.657 206.895 210.486 207.212 211.315 207.528C211.472 206.776 211.63 206.025 211.749 205.273C212.459 205.589 213.169 205.866 213.919 206.222C213.84 206.974 213.761 207.765 213.643 208.517C214.511 208.913 215.34 209.308 216.168 209.704C216.247 208.952 216.287 208.161 216.287 207.37C217.036 207.765 217.747 208.161 218.496 208.557C218.536 209.348 218.536 210.1 218.496 210.891C218.97 211.128 219.404 211.405 219.838 211.643C219.799 211.801 219.799 211.92 219.799 212.038C225.323 215.283 229.466 218.804 231.558 221.296C228.48 219.002 224.455 216.47 219.759 214.096Z" fill="#FF7900"/>
</g>
<defs>
<clipPath id="clip0_257_11720">
<rect width="364" height="334" fill="white" transform="translate(17.999 34)"/>
</clipPath>
</defs>
</svg>
