<svg width="400" height="400" viewBox="0 0 400 400" fill="none" xmlns="http://www.w3.org/2000/svg">
<g clip-path="url(#clip0_257_11743)">
<path d="M354.144 147.485C337.982 131.336 317.756 120.945 295.476 117.341C265.301 90.0053 230.081 99.7413 228.54 100.209C228.026 100.35 227.232 100.584 226.345 100.818C215.508 104.469 209.949 100.303 206.306 97.4009C202.289 94.218 197.898 91.0351 193.694 88.6011C179.307 80.5034 158.848 80.1758 141.566 87.1501C130.215 91.0351 124.47 86.0267 121.06 83.6863C98.5455 68.2867 70.9397 64.5889 41.6057 71.0015C21.8473 75.3078 14 79.4268 14 79.4268C14 79.4268 27.546 81.3928 41.6991 87.2905C53.2833 92.1585 62.4852 98.3371 69.5384 109.571C69.5384 109.571 73.9292 116.077 71.0332 117.996C67.8569 120.103 64.5404 114.907 64.5404 114.907C64.447 118.698 64.447 122.396 64.6806 125.205C66.3621 155.068 72.3878 173.042 86.7745 186.756C93.2672 192.982 104.338 199.02 121.433 205.76C129.234 208.85 133.391 212.875 134.139 221.956C134.512 226.356 136.007 235.062 141.098 244.751C147.311 256.734 160.296 272.695 187.155 281.822C191.405 288.563 196.45 294.788 202.055 300.452C222.468 320.86 249.56 332 278.38 332C307.2 331.906 334.198 320.719 354.517 300.265C374.836 279.81 386 252.661 386 223.781C385.766 194.948 374.603 167.893 354.144 147.485ZM349.613 295.35C330.555 314.447 305.285 325.072 278.286 325.072C251.381 325.166 225.971 314.681 206.913 295.584C200.934 289.592 195.89 283.086 191.639 276.018C140.818 260.197 140.818 219.007 140.818 219.007C140.818 219.007 145.956 226.449 153.243 227.666C159.596 228.743 163.659 223.032 154.084 214.42C145.769 206.977 137.081 204.403 125.964 200.19C108.588 193.45 97.5178 187.552 91.4922 181.795C77.2923 168.221 72.4345 150.247 71.0799 125.017C78.6469 144.583 91.3521 154.974 100.974 158.719C108.915 161.808 119.285 164.57 120.266 158.859C120.966 154.974 118.584 154.319 109.849 150.902C95.8363 145.379 89.2968 136.719 80.7956 116.498C72.341 96.2775 58.5615 84.5289 38.009 78.7715C69.2115 70.9547 107.234 72.7802 134.092 104.375C138.109 109.15 144.742 115.609 152.169 119.915C156.84 122.63 165.995 124.081 169.732 121.273C173.982 118.09 168.844 111.35 164.734 107.933C157.4 101.941 145.209 98.9924 135.073 98.2903C152.029 87.4309 175.477 86.4012 190.191 94.7329C198.132 99.2264 206.96 107.09 212.425 111.49C217.656 115.749 224.149 120.337 231.716 120.29C234.145 120.29 239.377 120.149 240.544 116.966C242.366 112.286 237.602 107.933 230.408 106.903C230.408 106.903 264.273 97.0733 292.253 123.894C313.786 126.936 333.638 136.766 349.286 152.4C368.344 171.497 378.853 196.867 379.087 223.875C379.134 250.789 368.671 276.252 349.613 295.35ZM340.785 160.685C324.016 143.928 301.782 134.706 278.099 134.706C254.417 134.706 232.137 143.974 215.414 160.685C198.692 177.489 189.49 199.769 189.49 223.5C189.49 247.232 198.739 269.559 215.414 286.316C232.183 303.073 254.417 312.294 278.099 312.294C326.958 312.294 366.662 272.414 366.755 223.453C366.709 199.769 357.507 177.442 340.785 160.685ZM278.146 304.571C233.445 304.664 197.151 268.342 197.057 223.547C196.964 178.752 233.211 142.383 277.913 142.289C322.614 142.289 358.908 178.518 359.002 223.313C359.095 268.155 322.848 304.524 278.146 304.571ZM217.75 196.726H277.119L258.294 207.118V207.071H234.332L226.391 221.16L215.741 191.016L217.75 196.726ZM338.122 196.726L329.527 221.16L321.68 207.071H298.138L278.146 294.648V196.726H338.122Z" fill="white"/>
<path d="M343.961 157.502C328.827 142.336 309.395 133.021 288.376 130.728C270.299 112.707 252.315 113.503 252.315 113.503C260.163 118.511 256.192 129.558 238.536 131.992C221.16 134.426 198.972 128.528 188.229 115.937C177.112 102.971 168.704 102.363 168.704 102.363C178.327 108.448 178.98 115.609 184.866 126.702C190.705 137.702 202.709 141.728 213.219 142.383C224.243 143.132 224.476 148.14 215.648 153.383C205.979 159.14 197.338 153.664 191.078 147.532C181.269 137.749 171.413 135.924 157.821 136.111C144.275 136.251 126.291 138.077 111.157 132.413C96.0232 126.656 85.9805 106.669 85.9805 106.669C93.4541 133.209 110.083 145.753 125.591 148.796C146.003 152.821 160.156 157.642 168.751 164.71C177.159 171.544 181.69 178.425 184.866 187.833C187.295 195.088 187.762 204.731 185.333 205.339C182.53 206.041 181.923 202.156 178.607 195.322C174.963 187.833 170.573 181.982 161.744 177.208C149.787 170.842 138.062 171.216 126.105 171.357C116.669 171.497 111.111 170.374 111.111 170.374C111.111 170.374 111.484 171.684 126.899 175.055C144.088 178.94 160.623 188.629 171.647 212.267C181.036 232.347 176.131 246.53 155.298 240.07C155.298 240.07 165.061 261.742 196.824 269.465C200.888 276.674 206.072 283.414 212.005 289.405C229.614 307.052 253.016 316.741 277.866 316.741C302.716 316.741 326.211 307.052 343.727 289.405C361.337 271.759 371.006 248.308 371.006 223.407C371.24 198.552 361.571 175.148 343.961 157.502ZM278.099 312.294C254.417 312.294 232.183 303.026 215.414 286.316C198.692 269.559 189.49 247.232 189.49 223.5C189.49 199.769 198.739 177.489 215.414 160.685C232.137 143.928 254.417 134.707 278.099 134.707C301.782 134.707 324.016 143.974 340.785 160.685C357.507 177.442 366.709 199.769 366.709 223.5C366.662 272.461 326.958 312.294 278.099 312.294Z" fill="#658EC9"/>
<path d="M349.331 152.353C333.683 136.719 313.878 126.889 292.298 123.847C264.318 97.0263 230.453 106.856 230.453 106.856C237.647 107.932 242.411 112.239 240.59 116.919C239.375 120.102 234.144 120.243 231.761 120.243C224.194 120.336 217.702 115.702 212.47 111.443C207.005 107.043 198.177 99.1794 190.236 94.6859C175.476 86.3542 152.027 87.4307 135.118 98.2433C145.254 98.9454 157.445 101.894 164.779 107.886C168.843 111.303 174.028 118.043 169.777 121.226C166.087 124.034 156.932 122.583 152.214 119.868C144.787 115.562 138.154 109.103 134.137 104.328C107.232 72.78 69.2099 70.9545 37.9141 78.7714C58.4665 84.5287 72.2461 96.2774 80.7006 116.498C89.1551 136.719 95.7413 145.378 109.754 150.902C118.536 154.319 120.871 154.974 120.171 158.859C119.19 164.523 108.82 161.808 100.879 158.719C91.2571 154.927 78.5519 144.536 70.9849 125.017C72.3395 150.246 77.1973 168.22 91.3972 181.795C97.4696 187.552 108.493 193.45 125.869 200.19C136.986 204.449 145.674 207.024 153.989 214.419C163.611 223.079 159.501 228.743 153.148 227.666C145.908 226.449 140.723 219.007 140.723 219.007C140.723 219.007 140.723 260.15 191.544 276.018C195.795 283.086 200.839 289.592 206.818 295.584C225.876 314.681 251.286 325.119 278.191 325.072C305.19 325.072 330.46 314.447 349.518 295.35C368.576 276.252 378.992 250.789 378.992 223.828C378.899 196.82 368.389 171.45 349.331 152.353ZM151.42 96.1837C160.482 90.9413 178.418 90.7073 191.357 102.081C202.941 112.239 208.593 117.715 217.001 120.898C198.924 120.383 191.591 113.222 180.38 104.141C166.601 93.1413 151.42 96.1837 151.42 96.1837ZM62.8573 81.1117C82.9894 77.4139 99.8518 83.6861 112.604 106.341C125.075 128.528 147.917 129.089 147.917 129.089C130.587 134.004 106.905 129.557 94.5268 107.277C79.8131 80.6437 62.8573 81.1117 62.8573 81.1117ZM111.763 186.897C81.3545 178.705 81.121 152.119 81.121 152.119C81.121 152.119 85.6519 170.514 120.965 177.816C156.044 184.931 158.473 209.645 158.473 209.645C148.524 195.837 133.016 192.56 111.763 186.897ZM343.866 289.452C326.303 307.098 302.854 316.787 278.004 316.787C253.155 316.787 229.753 307.098 212.143 289.452C206.164 283.46 201.026 276.72 196.962 269.512C165.199 261.789 155.437 240.117 155.437 240.117C176.223 246.576 181.128 232.394 171.785 212.313C160.762 188.675 144.18 178.986 127.037 175.101C111.623 171.684 111.249 170.42 111.249 170.42C111.249 170.42 116.761 171.544 126.243 171.403C138.201 171.263 149.925 170.888 161.883 177.254C170.711 182.029 175.102 187.88 178.745 195.369C182.062 202.203 182.669 206.041 185.472 205.386C187.9 204.777 187.433 195.135 185.004 187.88C181.828 178.471 177.297 171.591 168.889 164.757C160.248 157.689 146.142 152.868 125.729 148.842C110.221 145.8 93.5926 133.208 86.119 106.715C86.119 106.715 96.1617 126.702 111.296 132.46C126.43 138.123 144.413 136.345 157.959 136.157C171.552 136.017 181.408 137.842 191.217 147.578C197.476 153.71 206.117 159.187 215.786 153.429C224.615 148.187 224.428 143.178 213.358 142.43C202.848 141.727 190.843 137.749 185.004 126.749C179.119 115.702 178.418 108.494 168.843 102.409C168.843 102.409 177.251 103.018 188.368 115.983C199.111 128.575 221.252 134.472 238.674 132.038C256.284 129.604 260.301 118.558 252.454 113.549C252.454 113.549 270.437 112.707 288.514 130.774C309.534 133.068 328.965 142.383 344.099 157.548C361.709 175.195 371.378 198.645 371.331 223.5C371.191 248.355 361.522 271.759 343.866 289.452ZM277.911 142.336C233.209 142.43 197.009 178.799 197.056 223.594C197.102 268.388 233.443 304.664 278.145 304.617C322.846 304.524 359.047 268.154 359 223.36C358.907 178.565 322.613 142.336 277.911 142.336ZM273.38 160.31L277.864 145.987L282.535 160.216L297.529 160.076L285.525 168.923L290.289 183.152L278.098 174.446L266.093 183.386L270.624 169.063L258.433 160.357L273.38 160.31ZM234.471 257.529L233.023 272.461L225.455 259.495L210.882 262.772L220.878 251.538L213.217 238.666L226.904 244.751L236.806 233.47L235.358 248.402L249.138 254.393L234.471 257.529ZM278.145 294.647L258.246 207.117L277.07 196.726L258.293 207.117V207.071H234.33L226.39 221.16L215.74 191.016H340.222L338.167 196.773L329.526 221.16L321.679 207.071H298.137L278.145 294.647ZM330.647 259.589L323.313 272.695L321.632 257.763L306.965 254.721L320.651 248.495L318.923 233.564L328.965 244.704L342.558 238.478L335.131 251.491L345.267 262.538L330.647 259.589Z" fill="#1F3162"/>
<path d="M215.695 190.969L217.751 196.726H277.119L258.295 207.118L278.147 294.648V196.726H338.123L340.178 190.969H215.695Z" fill="#C3C7CF"/>
<path d="M158.522 209.645C148.526 195.837 133.018 192.607 111.765 186.897C81.3566 178.705 81.1231 152.119 81.1231 152.119C81.1231 152.119 85.654 170.514 120.967 177.816C156.093 184.931 158.522 209.645 158.522 209.645ZM94.5289 107.23C106.954 129.511 130.589 134.004 147.919 129.043C147.919 129.043 125.077 128.528 112.606 106.294C99.8071 83.6394 82.9448 77.3672 62.8594 81.065C62.8594 81.1118 79.8152 80.6437 94.5289 107.23ZM191.359 102.082C178.42 90.7073 160.484 90.9413 151.422 96.1838C151.422 96.1838 166.603 93.1413 180.382 104.141C191.593 113.222 198.926 120.336 217.003 120.898C208.595 117.715 202.897 112.239 191.359 102.082ZM335.18 251.538L342.607 238.525L329.014 244.751L318.971 233.611L320.7 248.542L307.014 254.768L321.681 257.81L323.362 272.742L330.696 259.635L345.363 262.678L335.18 251.538ZM236.808 233.423L226.906 244.704L213.22 238.619L220.88 251.491L210.884 262.725L225.458 259.448L233.025 272.414L234.473 257.482L249.14 254.299L235.36 248.308L236.808 233.423ZM282.537 160.216L277.866 145.987L273.382 160.31L258.388 160.404L270.58 169.11L266.049 183.433L278.053 174.493L290.245 183.199L285.48 168.969L297.485 160.123L282.537 160.216Z" fill="#BF2026"/>
</g>
<defs>
<clipPath id="clip0_257_11743">
<rect width="372" height="264" fill="white" transform="translate(14 68)"/>
</clipPath>
</defs>
</svg>
