<svg width="400" height="400" viewBox="0 0 400 400" fill="none" xmlns="http://www.w3.org/2000/svg">
<g clip-path="url(#clip0_257_11745)">
<path d="M273.134 92L285.92 131.198L276.407 160.327L254.199 92H154.649L136.792 146.769L119.007 92H0L37.3854 152.704L88.5991 310H184.967L204.334 250.537L223.647 310H329.077L400 92H273.134ZM50.6923 146.536L26.0564 106.547H108.434L129.131 170.289L93.7783 278.875L50.6923 146.536ZM174.339 295.777H103.597L161.374 118.306L196.691 227.018L174.339 295.777ZM172.847 106.547H243.625L268.801 183.864L233.376 292.702L172.847 106.547ZM318.378 295.687H247.653L301.169 131.288L293.113 106.547H379.914L318.378 295.687Z" fill="#FFB612"/>
<path d="M268.747 183.883L233.321 292.721L172.847 106.547H243.626L268.747 183.883ZM293.113 106.547L301.133 131.289L247.618 295.688H318.342L379.95 106.547H293.113ZM108.434 106.547H26.0566L50.6925 146.536L93.85 278.876L129.132 170.289L108.434 106.547ZM103.597 295.688H174.429L196.781 227.019L161.374 118.306L103.597 295.688Z" fill="#5A1414"/>
</g>
<defs>
<clipPath id="clip0_257_11745">
<rect width="400" height="218" fill="white" transform="translate(0 92)"/>
</clipPath>
</defs>
</svg>
