<svg width="200" height="200" viewBox="0 0 200 200" fill="none" xmlns="http://www.w3.org/2000/svg">
<path fill-rule="evenodd" clip-rule="evenodd" d="M100.495 24C96.6456 24 93.0076 25.2183 89.9422 27.5307C78.3968 36.2568 57.0553 53.6688 43.2504 72.7236L43.2488 72.7258C41.1229 75.6489 40 79.1417 40 82.8552V134.827C40 139.644 41.9984 144.263 45.4659 147.5C59.0182 160.14 76.9568 168.345 94.3507 174.881L94.3526 174.882C96.2713 175.606 98.2855 175.981 100.339 175.999C100.394 175.993 100.449 175.99 100.505 175.99C102.612 175.99 104.68 175.614 106.647 174.872L106.649 174.871C124.043 168.335 141.982 160.13 155.534 147.49L155.535 147.489C159.001 144.263 161 139.635 161 134.817V82.8552C161 79.1539 159.868 75.6498 157.75 72.724C143.935 53.6689 122.593 36.2568 111.048 27.5307C107.982 25.2183 104.344 24 100.495 24ZM88.1355 25.1357C91.7221 22.4301 95.9945 21 100.495 21C104.995 21 109.268 22.4301 112.854 25.1357L112.856 25.1365C124.443 33.894 146.088 51.5276 160.179 70.9631L160.179 70.9637C162.675 74.4098 164 78.532 164 82.8552V134.817C164 140.454 161.665 145.882 157.579 149.685C143.577 162.744 125.175 171.115 107.706 177.679C105.451 178.53 103.083 178.97 100.673 178.989C100.614 178.996 100.555 179 100.495 179C98.0278 179 95.6012 178.559 93.2939 177.689C75.825 171.125 57.4217 162.754 43.4197 149.694L43.4192 149.693C39.3361 145.882 37 140.465 37 134.827V82.8552C37 78.5245 38.3139 74.4111 40.8218 70.9624C54.9028 51.527 76.5477 33.8938 88.1344 25.1365L88.1355 25.1357ZM93.2939 177.689C93.2938 177.689 93.2937 177.689 93.2936 177.689L93.8231 176.285L93.2955 177.689C93.2949 177.689 93.2944 177.689 93.2939 177.689Z" fill="#333333"/>
<path d="M64.4822 159.41C76.0222 166.12 88.0822 171.07 94.9222 173.65C98.5522 175.02 102.542 175.02 106.172 173.65C113.012 171.07 125.072 166.12 136.612 159.41C143.132 155.62 149.482 151.26 154.622 146.45C157.842 143.44 159.622 139.21 159.622 134.81V82.62C159.622 79.28 158.602 76.02 156.652 73.31C143.072 54.52 122.292 37.4 110.202 28.24C104.492 23.92 96.6022 23.92 90.8922 28.24C78.8022 37.4 58.0222 54.53 44.4422 73.31C42.4922 76.01 41.4722 79.28 41.4722 82.62V134.81C41.4722 139.21 43.2622 143.45 46.4722 146.45C51.6122 151.26 57.9622 155.62 64.4822 159.41Z" fill="#333333"/>
<path d="M193.072 83H155.572V138.4C175.962 137.61 178.592 126.37 178.932 123.48C178.972 123.12 178.702 122.81 178.332 122.81H169.212C184.232 117.93 186.232 107.24 186.492 104.49C186.522 104.14 186.252 103.83 185.892 103.83H180.282C179.662 103.83 179.452 103.01 179.992 102.71C191.792 96.18 193.432 86.27 193.662 83.66C193.692 83.31 193.412 83.01 193.062 83.01L193.072 83Z" fill="#333333"/>
<path d="M6.60221 83H44.1022V138.4C23.7122 137.61 21.0822 126.37 20.7422 123.48C20.7022 123.12 20.9822 122.81 21.3422 122.81H30.4622C15.4422 117.93 13.4422 107.24 13.1822 104.49C13.1522 104.14 13.4222 103.83 13.7822 103.83H19.3922C20.0122 103.83 20.2222 103.01 19.6822 102.71C7.86221 96.17 6.23221 86.26 6.00221 83.65C5.97221 83.3 6.25221 83 6.60221 83Z" fill="#333333"/>
<path fill-rule="evenodd" clip-rule="evenodd" d="M148.572 87.1801C148.572 86.3516 149.244 85.6801 150.072 85.6801H187.582C188.411 85.6801 189.082 86.3516 189.082 87.1801C189.082 88.0085 188.411 88.6801 187.582 88.6801H150.072C149.244 88.6801 148.572 88.0085 148.572 87.1801Z" fill="#F2F2F2"/>
<path fill-rule="evenodd" clip-rule="evenodd" d="M155.762 107.18C155.762 106.352 156.434 105.68 157.262 105.68H181.962C182.791 105.68 183.462 106.352 183.462 107.18C183.462 108.008 182.791 108.68 181.962 108.68H157.262C156.434 108.68 155.762 108.008 155.762 107.18Z" fill="#F2F2F2"/>
<path fill-rule="evenodd" clip-rule="evenodd" d="M157.332 125.94C157.332 125.112 158.004 124.44 158.832 124.44H174.142C174.971 124.44 175.642 125.112 175.642 125.94C175.642 126.768 174.971 127.44 174.142 127.44H158.832C158.004 127.44 157.332 126.768 157.332 125.94Z" fill="#F2F2F2"/>
<path fill-rule="evenodd" clip-rule="evenodd" d="M11.2021 87.1801C11.2021 86.3516 11.8737 85.6801 12.7021 85.6801H50.2121C51.0406 85.6801 51.7121 86.3516 51.7121 87.1801C51.7121 88.0085 51.0406 88.6801 50.2121 88.6801H12.7021C11.8737 88.6801 11.2021 88.0085 11.2021 87.1801Z" fill="#F2F2F2"/>
<path fill-rule="evenodd" clip-rule="evenodd" d="M16.8223 107.18C16.8223 106.352 17.4938 105.68 18.3223 105.68H43.0223C43.8507 105.68 44.5223 106.352 44.5223 107.18C44.5223 108.008 43.8507 108.68 43.0223 108.68H18.3223C17.4938 108.68 16.8223 108.008 16.8223 107.18Z" fill="#F2F2F2"/>
<path fill-rule="evenodd" clip-rule="evenodd" d="M24.6421 125.94C24.6421 125.112 25.3137 124.44 26.1421 124.44H41.4521C42.2805 124.44 42.9521 125.112 42.9521 125.94C42.9521 126.768 42.2805 127.44 41.4521 127.44H26.1421C25.3137 127.44 24.6421 126.768 24.6421 125.94Z" fill="#F2F2F2"/>
<path d="M101.412 32.87L102.342 34.76C102.502 35.08 102.802 35.3 103.162 35.35L105.252 35.65C106.142 35.78 106.502 36.87 105.852 37.5L104.342 38.97C104.082 39.22 103.972 39.58 104.032 39.93L104.392 42.01C104.542 42.9 103.612 43.57 102.812 43.15L100.942 42.17C100.622 42 100.252 42 99.9323 42.17L98.0623 43.15C97.2623 43.57 96.3323 42.89 96.4823 42.01L96.8423 39.93C96.9023 39.58 96.7823 39.22 96.5323 38.97L95.0223 37.5C94.3823 36.87 94.7323 35.78 95.6223 35.65L97.7123 35.35C98.0623 35.3 98.3723 35.08 98.5323 34.76L99.4623 32.87C99.8623 32.06 101.012 32.06 101.412 32.87Z" fill="#F2F2F2"/>
<path d="M134.486 154.202C151.434 141.993 150.258 111.393 131.86 85.8554C113.462 60.3177 84.8085 49.5131 67.8611 61.7224C50.9136 73.9318 52.0896 104.532 70.4876 130.069C88.8856 155.607 117.539 166.412 134.486 154.202Z" fill="#27AE60"/>
<path opacity="0.5" d="M84.6321 123.94C70.2621 103.99 72.0121 71.6901 78.8121 59.4901C73.9521 59.4001 70.0621 60.1301 67.8621 61.7201C58.7021 68.3201 54.0621 107.27 70.4921 130.07C86.9221 152.87 125.322 160.81 134.492 154.21C135.642 153.38 136.712 152.05 137.682 150.31C122.292 150.01 97.1221 141.28 84.6321 123.95V123.94Z" fill="#4F4F4F"/>
<path d="M128.592 89.37C143.252 109.72 141.132 142.9 133.992 154.5C134.152 154.4 134.332 154.31 134.482 154.2C143.642 147.6 148.282 108.65 131.852 85.85C115.422 63.05 77.0223 55.11 67.8523 61.71C66.8623 62.42 65.9423 63.52 65.0723 64.92C75.0123 58.89 112.422 66.93 128.582 89.36L128.592 89.37Z" fill="#F2F2F2"/>
<path d="M103.792 151.67C110.672 135.83 125.032 124.23 142.132 121.8C142.252 118.4 142.442 114.75 142.552 111.35C131.542 111.23 120.522 114.75 111.612 121.22C102.702 127.69 95.9521 137.09 92.6721 147.6C95.7821 149.15 100.692 150.11 103.802 151.67H103.792Z" fill="#E0E0E0"/>
<path d="M60.6721 91.83C69.6021 76.36 86.7621 65.99 104.602 65.26C98.9821 63.11 89.6321 59.27 83.8921 61.9C76.7421 65.18 69.9821 70.05 63.9321 75.03C60.9921 77.45 59.6421 79.1 59.4821 82.99C59.3621 85.94 59.9521 88.98 60.6821 91.83H60.6721Z" fill="#E0E0E0"/>
<path d="M134.486 154.202C151.434 141.993 150.258 111.393 131.86 85.8554C113.462 60.3177 84.8085 49.5131 67.8611 61.7224C50.9136 73.9318 52.0896 104.532 70.4876 130.069C88.8856 155.607 117.539 166.412 134.486 154.202Z" stroke="#333333" stroke-width="3" stroke-linecap="round" stroke-linejoin="round"/>
<path fill-rule="evenodd" clip-rule="evenodd" d="M70.3698 59.9139C70.8536 60.5863 70.7008 61.5237 70.0284 62.0075C69.6128 62.3066 69.0565 63.2053 69.2227 65.5454C69.3834 67.8083 70.2052 71.0161 71.9442 75.2643C75.4144 83.7415 82.3964 96.0278 94.3192 112.573L94.3195 112.573C106.237 129.124 115.678 139.638 122.619 145.615C126.097 148.61 128.878 150.406 130.974 151.275C133.14 152.174 134.17 151.932 134.586 151.633C135.258 151.149 136.196 151.301 136.68 151.974C137.164 152.646 137.011 153.584 136.338 154.068C134.615 155.308 132.267 155.06 129.824 154.046C127.31 153.003 124.25 150.979 120.661 147.888C113.466 141.692 103.867 130.966 91.8853 114.327C79.8981 97.6923 72.7651 85.1885 69.1678 76.4008C67.373 72.0164 66.423 68.473 66.2302 65.7578C66.0429 63.1198 66.5517 60.8134 68.2761 59.5725C68.9485 59.0886 69.8859 59.2415 70.3698 59.9139Z" fill="#333333"/>
<path fill-rule="evenodd" clip-rule="evenodd" d="M131.525 114.16C125.669 115.546 118.296 118.607 112.149 123.037L112.149 123.037C106.002 127.463 100.722 133.516 97.5097 138.663C95.8965 141.248 94.8631 143.513 94.4662 145.164C94.2657 145.998 94.2587 146.552 94.3251 146.868C94.3556 147.013 94.3939 147.071 94.4035 147.084C94.4038 147.085 94.4041 147.085 94.4045 147.086C94.408 147.091 94.4119 147.096 94.4368 147.107C95.1949 147.441 95.5388 148.327 95.2048 149.085C94.8709 149.843 93.9856 150.187 93.2274 149.853C92.171 149.387 91.598 148.479 91.3892 147.485C91.1933 146.552 91.2991 145.504 91.5492 144.463C92.0536 142.364 93.2727 139.786 94.9645 137.075C98.3625 131.629 103.902 125.278 110.395 120.603C116.889 115.923 124.63 112.709 130.834 111.24C133.923 110.509 136.736 110.185 138.873 110.384C139.933 110.483 140.954 110.722 141.771 111.209C142.641 111.728 143.311 112.56 143.416 113.703C143.492 114.528 142.884 115.258 142.059 115.334C141.234 115.41 140.504 114.802 140.428 113.977L140.428 113.977C140.429 113.975 140.453 113.915 140.235 113.785C139.96 113.622 139.439 113.45 138.594 113.371C136.92 113.215 134.467 113.463 131.525 114.16Z" fill="#333333"/>
<path fill-rule="evenodd" clip-rule="evenodd" d="M135.335 124.683C131.102 125.927 125.889 128.267 121.889 131.147C117.9 134.019 113.115 139.18 109.659 143.811C107.933 146.125 106.594 148.232 105.86 149.789C105.53 150.488 105.366 150.987 105.309 151.297C105.706 151.723 105.834 152.36 105.584 152.927C105.249 153.684 104.363 154.027 103.606 153.692C102.333 153.13 102.228 151.834 102.309 151.09C102.396 150.297 102.726 149.4 103.146 148.51C104.003 146.69 105.477 144.399 107.255 142.017C110.809 137.255 115.805 131.831 120.136 128.713C124.456 125.603 129.988 123.128 134.489 121.805C136.729 121.146 138.814 120.743 140.419 120.728C141.205 120.721 142.021 120.804 142.707 121.103C143.457 121.43 144.176 122.093 144.276 123.161C144.353 123.986 143.746 124.717 142.922 124.794C142.226 124.859 141.597 124.437 141.371 123.808C141.199 123.765 140.903 123.724 140.446 123.728C139.243 123.739 137.463 124.058 135.335 124.683Z" fill="#333333"/>
<path fill-rule="evenodd" clip-rule="evenodd" d="M82.3462 61.1233C85.5914 59.8674 88.8418 59.1424 91.3654 59.7175C92.1731 59.9016 92.6787 60.7056 92.4946 61.5133C92.3106 62.321 91.5066 62.8266 90.6988 62.6425C89.0974 62.2776 86.5678 62.7064 83.429 63.9211C80.3617 65.1081 76.964 66.9454 73.7585 69.066C70.5535 71.1864 67.5905 73.557 65.3793 75.7846C64.2733 76.8988 63.3786 77.9539 62.7378 78.9029C62.0837 79.8715 61.7602 80.6329 61.6726 81.1709C61.5396 81.9886 60.7689 82.5436 59.9512 82.4105C59.1335 82.2775 58.5785 81.5068 58.7116 80.6891C58.899 79.5371 59.4877 78.3551 60.2516 77.2239C61.0288 76.0731 62.0579 74.8722 63.2502 73.6711C65.6356 71.268 68.767 68.7711 72.1032 66.564C75.439 64.3572 79.0294 62.4069 82.3462 61.1233Z" fill="#333333"/>
<path fill-rule="evenodd" clip-rule="evenodd" d="M94.5468 64.7522C100.041 63.6191 104.509 63.9415 106.807 64.8944C107.572 65.2118 107.935 66.0894 107.618 66.8546C107.3 67.6198 106.423 67.9829 105.658 67.6656C104.146 67.0385 100.363 66.6159 95.1527 67.6903C90.014 68.75 83.6385 71.2391 77.0026 76.2197C63.4009 86.4361 61.0616 91.6374 61.2312 96.2246C61.2618 97.0525 60.6155 97.7484 59.7876 97.779C58.9598 97.8096 58.2638 97.1633 58.2332 96.3354C58.0028 90.1027 61.5635 84.0641 75.2014 73.8206L75.2018 73.8203C82.1959 68.5709 88.9804 65.9 94.5468 64.7522Z" fill="#333333"/>
<path fill-rule="evenodd" clip-rule="evenodd" d="M117.602 71.9263C113.993 70.2219 109.661 70.0674 105.945 71.5086C105.172 71.8081 104.303 71.4248 104.004 70.6524C103.704 69.88 104.088 69.0111 104.86 68.7115C109.344 66.9727 114.531 67.1582 118.883 69.2137C119.632 69.5676 119.952 70.4616 119.599 71.2107C119.245 71.9598 118.351 72.2802 117.602 71.9263Z" fill="#333333"/>
<path fill-rule="evenodd" clip-rule="evenodd" d="M122.73 76.5236C118.98 75.1922 114.872 74.8743 110.979 75.6324C110.166 75.7907 109.378 75.2598 109.22 74.4467C109.061 73.6335 109.592 72.846 110.405 72.6877C114.832 71.8257 119.484 72.1879 123.734 73.6964C124.515 73.9736 124.923 74.8311 124.646 75.6118C124.369 76.3925 123.511 76.8007 122.73 76.5236Z" fill="#333333"/>
<path fill-rule="evenodd" clip-rule="evenodd" d="M128.949 82.123C125.037 80.9129 120.809 80.7806 116.827 81.7199C116.02 81.9101 115.212 81.4106 115.022 80.6043C114.832 79.798 115.332 78.9902 116.138 78.8C120.635 77.7393 125.407 77.887 129.836 79.257C130.627 79.5018 131.07 80.3418 130.825 81.1333C130.58 81.9247 129.74 82.3678 128.949 82.123Z" fill="#333333"/>
<path fill-rule="evenodd" clip-rule="evenodd" d="M134.371 88.6852C130.326 87.5606 125.994 87.4376 121.882 88.3355C121.073 88.5122 120.274 87.9994 120.097 87.1901C119.92 86.3807 120.433 85.5813 121.242 85.4046C125.831 84.4024 130.659 84.5394 135.174 85.7948C135.972 86.0168 136.439 86.8437 136.218 87.6418C135.996 88.44 135.169 88.9071 134.371 88.6852Z" fill="#333333"/>
<path fill-rule="evenodd" clip-rule="evenodd" d="M138.434 96.5701C135.424 95.4125 132.105 95.0418 128.911 95.5139C128.092 95.6351 127.329 95.0689 127.208 94.2494C127.087 93.4299 127.653 92.6673 128.473 92.5462C132.179 91.9982 136.02 92.4276 139.511 93.77C140.284 94.0674 140.67 94.9353 140.372 95.7085C140.075 96.4817 139.207 96.8674 138.434 96.5701Z" fill="#333333"/>
<path fill-rule="evenodd" clip-rule="evenodd" d="M140.291 103.361C138.172 102.261 135.75 101.719 133.359 101.809C132.531 101.84 131.835 101.194 131.803 100.367C131.772 99.5388 132.418 98.8424 133.246 98.8111C136.155 98.7014 139.092 99.3589 141.673 100.699C142.409 101.08 142.695 101.986 142.314 102.721C141.932 103.456 141.026 103.743 140.291 103.361Z" fill="#333333"/>
<path opacity="0.5" d="M81.3622 116.7C79.9422 117.73 77.9522 117.4 76.9322 115.98C75.9022 114.56 76.2322 112.57 77.6522 111.55C79.0722 110.52 81.0622 110.85 82.0822 112.27C83.1022 113.69 82.7822 115.68 81.3622 116.7Z" fill="#4F4F4F"/>
<path opacity="0.5" d="M80.6522 129.39C79.7522 130.04 78.5022 129.83 77.8622 128.94C77.2122 128.04 77.4222 126.79 78.3122 126.15C79.2122 125.5 80.4622 125.71 81.1022 126.6C81.7522 127.5 81.5422 128.75 80.6522 129.39Z" fill="#4F4F4F"/>
<path opacity="0.5" d="M88.1822 136.43C87.5522 136.89 86.6722 136.74 86.2122 136.11C85.7522 135.48 85.9022 134.6 86.5322 134.14C87.1622 133.68 88.0422 133.83 88.5022 134.46C88.9622 135.09 88.8122 135.97 88.1822 136.43Z" fill="#4F4F4F"/>
<path opacity="0.5" d="M114.322 150.37C113.852 150.71 113.182 150.6 112.842 150.13C112.502 149.66 112.612 148.99 113.082 148.65C113.552 148.31 114.222 148.42 114.562 148.89C114.902 149.36 114.792 150.03 114.322 150.37Z" fill="#4F4F4F"/>
<path opacity="0.5" d="M70.1521 97.5201C69.7821 97.7901 69.2721 97.7001 69.0021 97.3301C68.7321 96.9601 68.8221 96.4501 69.1921 96.1801C69.5621 95.9101 70.0721 96.0001 70.3421 96.3701C70.6121 96.7401 70.5221 97.2501 70.1521 97.5201Z" fill="#4F4F4F"/>
<path opacity="0.5" d="M76.7623 101.46C75.5523 102.33 73.8623 102.06 72.9823 100.85C72.1123 99.64 72.3823 97.95 73.5923 97.07C74.8023 96.2 76.4923 96.47 77.3723 97.68C78.2423 98.89 77.9723 100.58 76.7623 101.46Z" fill="#4F4F4F"/>
<path opacity="0.5" d="M69.4421 110.21C68.7521 110.7 67.8021 110.55 67.3121 109.86C66.8221 109.17 66.9721 108.22 67.6621 107.73C68.3521 107.24 69.3021 107.39 69.7921 108.08C70.2821 108.77 70.1321 109.72 69.4421 110.21Z" fill="#4F4F4F"/>
<path opacity="0.5" d="M87.6322 128.42C86.5822 129.18 85.1122 128.94 84.3522 127.89C83.5922 126.84 83.8322 125.37 84.8822 124.61C85.9322 123.85 87.4022 124.09 88.1622 125.14C88.9222 126.19 88.6822 127.66 87.6322 128.42Z" fill="#4F4F4F"/>
<path opacity="0.6" d="M95.8421 129.76C95.2121 130.22 94.3321 130.07 93.8721 129.44C93.4121 128.81 93.5621 127.93 94.1921 127.47C94.8221 127.01 95.7021 127.16 96.1621 127.79C96.6221 128.42 96.4721 129.3 95.8421 129.76Z" fill="#4F4F4F"/>
<path opacity="0.6" d="M87.9522 119.2C87.3222 119.66 86.4422 119.51 85.9822 118.88C85.5222 118.25 85.6722 117.37 86.3022 116.91C86.9322 116.45 87.8122 116.6 88.2722 117.23C88.7322 117.86 88.5822 118.74 87.9522 119.2Z" fill="#4F4F4F"/>
<path opacity="0.6" d="M123.672 141.61C122.772 142.26 121.522 142.05 120.882 141.16C120.232 140.26 120.442 139.01 121.332 138.37C122.232 137.72 123.482 137.93 124.122 138.82C124.772 139.72 124.562 140.97 123.672 141.61Z" fill="#4F4F4F"/>
<path opacity="0.6" d="M133.112 142.64C132.742 142.91 132.232 142.82 131.962 142.45C131.692 142.08 131.782 141.57 132.152 141.3C132.522 141.03 133.032 141.12 133.302 141.49C133.572 141.86 133.482 142.37 133.112 142.64Z" fill="#4F4F4F"/>
<path d="M65.7121 142.96C66.1721 144.89 64.7721 146.87 64.7721 146.87C64.7721 146.87 62.6321 145.73 62.1721 143.8C61.7121 141.87 63.1121 139.89 63.1121 139.89C63.1121 139.89 65.2521 141.03 65.7121 142.96Z" fill="#E0E0E0"/>
<path d="M60.2423 147.87C61.7723 147.97 63.1023 146.64 63.1023 146.64C63.1023 146.64 61.9523 145.16 60.4223 145.06C58.8923 144.96 57.5623 146.29 57.5623 146.29C57.5623 146.29 58.7123 147.77 60.2423 147.87Z" fill="#E0E0E0"/>
<path d="M65.1221 151.67C67.1021 151.79 68.8121 150.08 68.8121 150.08C68.8121 150.08 67.3221 148.17 65.3421 148.04C63.3621 147.92 61.6521 149.63 61.6521 149.63C61.6521 149.63 63.1421 151.54 65.1221 151.67Z" fill="#E0E0E0"/>
<path d="M69.0322 145.44C69.3822 146.93 68.3022 148.47 68.3022 148.47C68.3022 148.47 66.6522 147.59 66.2922 146.09C65.9422 144.6 67.0222 143.06 67.0222 143.06C67.0222 143.06 68.6722 143.94 69.0322 145.44Z" fill="#E0E0E0"/>
<path d="M60.7123 140.9C61.5723 142.17 61.1123 143.99 61.1123 143.99C61.1123 143.99 59.2523 143.76 58.3823 142.49C57.5223 141.22 57.9823 139.4 57.9823 139.4C57.9823 139.4 59.8423 139.63 60.7123 140.9Z" fill="#E0E0E0"/>
<path d="M73.8022 148.69C74.6522 150.78 73.4222 153.26 73.4222 153.26C73.4222 153.26 70.8122 152.35 69.9622 150.26C69.1122 148.17 70.3422 145.69 70.3422 145.69C70.3422 145.69 72.9522 146.6 73.8022 148.69Z" fill="#E0E0E0"/>
<path d="M68.4921 155.17C70.2321 155.01 71.4921 153.29 71.4921 153.29C71.4921 153.29 69.9321 151.83 68.2021 151.98C66.4621 152.14 65.2021 153.86 65.2021 153.86C65.2021 153.86 66.7621 155.32 68.4921 155.17Z" fill="#E0E0E0"/>
<path d="M74.6521 158.6C76.9021 158.39 78.5321 156.17 78.5321 156.17C78.5321 156.17 76.5221 154.28 74.2721 154.48C72.0221 154.68 70.3921 156.91 70.3921 156.91C70.3921 156.91 72.4021 158.8 74.6521 158.6Z" fill="#E0E0E0"/>
<path d="M77.9622 150.91C78.6222 152.53 77.6722 154.44 77.6722 154.44C77.6722 154.44 75.6522 153.73 75.0022 152.12C74.3522 150.51 75.2922 148.59 75.2922 148.59C75.2922 148.59 77.3122 149.3 77.9622 150.91Z" fill="#E0E0E0"/>
<path d="M84.1022 152.92C85.5722 155.32 84.5622 158.61 84.5622 158.61C84.5622 158.61 81.1722 158.01 79.7022 155.62C78.2322 153.23 79.2422 149.93 79.2422 149.93C79.2422 149.93 82.6322 150.53 84.1022 152.92Z" fill="#E0E0E0"/>
<path d="M78.8923 161.97C81.0023 161.42 82.2023 159.05 82.2023 159.05C82.2023 159.05 79.9923 157.56 77.8823 158.11C75.7723 158.66 74.5723 161.03 74.5723 161.03C74.5723 161.03 76.7823 162.52 78.8923 161.97Z" fill="#E0E0E0"/>
<path d="M87.1523 164.93C89.8723 164.22 91.4323 161.15 91.4323 161.15C91.4323 161.15 88.5723 159.23 85.8523 159.94C83.1323 160.65 81.5723 163.72 81.5723 163.72C81.5723 163.72 84.4323 165.64 87.1523 164.93Z" fill="#E0E0E0"/>
<path d="M89.6722 154.8C90.8122 156.66 90.0322 159.2 90.0322 159.2C90.0322 159.2 87.4122 158.74 86.2722 156.88C85.1322 155.02 85.9122 152.48 85.9122 152.48C85.9122 152.48 88.5322 152.94 89.6722 154.8Z" fill="#E0E0E0"/>
<path d="M115.492 56.1801C117.462 55.9901 118.892 54.0301 118.892 54.0301C118.892 54.0301 117.122 52.3701 115.142 52.5601C113.172 52.7501 111.742 54.7101 111.742 54.7101C111.742 54.7101 113.512 56.3701 115.492 56.1801Z" fill="#E0E0E0"/>
<path d="M118.382 49.41C118.962 50.83 118.142 52.51 118.142 52.51C118.142 52.51 116.372 51.9 115.782 50.48C115.192 49.06 116.022 47.38 116.022 47.38C116.022 47.38 117.792 47.99 118.382 49.41Z" fill="#E0E0E0"/>
<path d="M123.552 52.8101C124.302 54.6401 123.242 56.8201 123.242 56.8201C123.242 56.8201 120.952 56.0301 120.192 54.1901C119.442 52.3601 120.502 50.1801 120.502 50.1801C120.502 50.1801 122.792 50.9701 123.552 52.8101Z" fill="#E0E0E0"/>
<path d="M118.912 58.52C120.442 58.37 121.542 56.86 121.542 56.86C121.542 56.86 120.172 55.58 118.642 55.73C117.112 55.88 116.012 57.39 116.012 57.39C116.012 57.39 117.382 58.67 118.912 58.52Z" fill="#E0E0E0"/>
<path d="M111.932 52.11C113.412 52.52 114.982 51.5 114.982 51.5C114.982 51.5 114.162 49.81 112.682 49.4C111.202 48.99 109.632 50.01 109.632 50.01C109.632 50.01 110.452 51.7 111.932 52.11Z" fill="#E0E0E0"/>
<path d="M123.532 61.99C125.782 62.12 127.732 60.16 127.732 60.16C127.732 60.16 126.022 57.99 123.772 57.86C121.522 57.73 119.572 59.69 119.572 59.69C119.572 59.69 121.282 61.86 123.532 61.99Z" fill="#E0E0E0"/>
<path d="M127.962 54.87C128.372 56.57 127.152 58.32 127.152 58.32C127.152 58.32 125.262 57.32 124.852 55.62C124.442 53.92 125.662 52.17 125.662 52.17C125.662 52.17 127.552 53.17 127.962 54.87Z" fill="#E0E0E0"/>
<path d="M133.182 59.6C133.712 61.79 132.132 64.06 132.132 64.06C132.132 64.06 129.692 62.77 129.162 60.57C128.632 58.37 130.212 56.11 130.212 56.11C130.212 56.11 132.652 57.4 133.182 59.6Z" fill="#E0E0E0"/>
<path d="M126.972 65.21C128.712 65.31 130.222 63.8 130.222 63.8C130.222 63.8 128.902 62.12 127.162 62.02C125.422 61.92 123.912 63.43 123.912 63.43C123.912 63.43 125.232 65.11 126.972 65.21Z" fill="#E0E0E0"/>
<path d="M130.862 70.37C133.602 70.99 136.402 68.97 136.402 68.97C136.402 68.97 134.742 65.95 132.002 65.33C129.262 64.71 126.462 66.73 126.462 66.73C126.462 66.73 128.122 69.75 130.862 70.37Z" fill="#E0E0E0"/>
<path d="M137.742 62.52C137.902 64.69 136.042 66.6 136.042 66.6C136.042 66.6 133.922 64.99 133.762 62.82C133.602 60.65 135.462 58.74 135.462 58.74C135.462 58.74 137.582 60.35 137.742 62.52Z" fill="#E0E0E0"/>
<path d="M143.212 69.39C143.422 72.2 141.012 74.66 141.012 74.66C141.012 74.66 138.272 72.57 138.062 69.77C137.852 66.96 140.262 64.5 140.262 64.5C140.262 64.5 143.002 66.59 143.212 69.39Z" fill="#E0E0E0"/>
</svg>
